<svg xmlns="http://www.w3.org/2000/svg" xmlns:xlink="http://www.w3.org/1999/xlink" height="40px" viewBox="0 0 265.25 38.88"><defs><style>.cls-1{fill:url(#New_Gradient_Swatch_copy);}</style><linearGradient id="New_Gradient_Swatch_copy" x1="130.63" y1="33.01" x2="130.63" y2="3.16" gradientUnits="userSpaceOnUse"><stop offset="0" stop-color="#96c"/><stop offset="1" stop-color="#d0a2ff"/></linearGradient></defs><g id="Layer_2" data-name="Layer 2"><g id="Layer_1-2" data-name="Layer 1"><path d="M31.75,7v4.12h4.13V23.5H31.75v4.12H15.25v8.26H7V7H31.75M15.25,23.5H27.62V11.12H15.25V23.5M34.75,4H4V38.88H18.25V30.62h16.5V26.5h4.13V8.12H34.75V4ZM18.25,14.12h6.37V20.5H18.25V14.12Z"/><path d="M60,7v4.12h4.12v4.13h4.13V35.88H60V27.62H47.59v8.26H39.34V15.25h4.13V11.12h4.12V7H60M47.59,23.5H60V15.25H55.84V11.12H51.72v4.13H47.59V23.5M63,4H44.59V8.12H40.47v4.13H36.34V38.88H50.59V30.62H57v8.26H71.22V12.25H67.09V8.12H63V4ZM54.72,18.25H57V20.5H50.59V18.25h4.13Z"/><path d="M96.43,7v4.12h4.12V23.5H92.3v4.12h4.13v4.13h4.12v4.13H88.18V31.75H84.05V27.62H79.93v8.26H71.68V7H96.43M79.93,23.5h8.25V19.38H92.3V11.12H79.93V23.5M99.43,4H68.68V38.88H82.93V34.75h2.25v4.13h18.37V28.75H99.43V26.5h4.12V8.12H99.43V4ZM82.93,14.12H89.3v2.26H85.18V20.5H82.93V14.12Z"/><path d="M132.9,7v4.12h-8.25V35.88H116.4V11.12h-8.25V7H132.9m3-3H105.15V14.12h8.25V38.88h14.25V14.12h8.25V4Z"/><path d="M165.24,7V35.88H157V27.62h-4.13V23.5h-4.12V19.38h-4.13v16.5h-8.25V7h8.25v4.12h4.13v4.13h4.12v4.13H157V7h8.25m3-3H154v8.25h-2.25V8.12h-4.13V4H133.36V38.88h14.25V26.5h2.25v4.12H154v8.26h14.25V4Z"/><path d="M197.57,7v4.12H177v8.26h16.5V23.5H177v8.25h20.62v4.13H168.7V7h28.87m3-3H165.7V38.88h34.87V28.75H180V26.5h16.5V16.38H180V14.12h20.62V4Z"/><path d="M225.79,7v4.12h4.13V23.5h-8.25v4.12h4.12v4.13h4.13v4.13H217.54V31.75h-4.12V27.62h-4.13v8.26H201V7h24.75m-16.5,16.5h8.25V19.38h4.13V11.12H209.29V23.5M228.79,4H198V38.88h14.25V34.75h2.25v4.13h18.38V28.75h-4.13V26.5h4.13V8.12h-4.13V4Zm-16.5,10.12h6.38v2.26h-4.13V20.5h-2.25V14.12Z"/><path d="M258.13,7v4.12h4.12v4.13H254V11.12H241.63v8.26h16.5V23.5h4.12v8.25h-4.12v4.13H237.5V31.75h-4.12V27.62h8.25v4.13H254V23.5H237.5V19.38h-4.12V11.12h4.12V7h20.63m3-3H234.5V8.12h-4.12V22.38h4.12v2.24h-4.12V34.75h4.12v4.13h26.63V34.75h4.12V20.5h-4.12V18.25h4.12V8.12h-4.12V4Zm-16.5,10.12H251v2.26h-6.37V14.12Zm0,12.38H251v2.25h-6.37V26.5Z"/><path d="M7,35.88V7H31.75v4.12h4.13V23.5H31.75v4.12H15.25v8.26ZM15.25,23.5H27.62V11.12H15.25Z"/><path d="M39.34,35.88V15.25h4.13V11.12h4.12V7H60v4.12h4.12v4.13h4.13V35.88H60V27.62H47.59v8.26ZM47.59,23.5H60V15.25H55.84V11.12H51.72v4.13H47.59Z"/><path d="M71.68,35.88V7H96.43v4.12h4.12V23.5H92.3v4.12h4.13v4.13h4.12v4.13H88.18V31.75H84.05V27.62H79.93v8.26ZM79.93,23.5h8.25V19.38H92.3V11.12H79.93Z"/><path d="M116.4,35.88V11.12h-8.25V7H132.9v4.12h-8.25V35.88Z"/><path d="M136.36,35.88V7h8.25v4.12h4.13v4.13h4.12v4.13H157V7h8.25V35.88H157V27.62h-4.13V23.5h-4.12V19.38h-4.13v16.5Z"/><path d="M168.7,35.88V7h28.87v4.12H177v8.26h16.5V23.5H177v8.25h20.62v4.13Z"/><path d="M201,35.88V7h24.75v4.12h4.13V23.5h-8.25v4.12h4.12v4.13h4.13v4.13H217.54V31.75h-4.12V27.62h-4.13v8.26Zm8.25-12.38h8.25V19.38h4.13V11.12H209.29Z"/><path d="M237.5,35.88V31.75h-4.12V27.62h8.25v4.13H254V23.5H237.5V19.38h-4.12V11.12h4.12V7h20.63v4.12h4.12v4.13H254V11.12H241.63v8.26h16.5V23.5h4.12v8.25h-4.12v4.13Z"/><path d="M27.75,3V7.12h4.13V19.5H27.75v4.12H11.25v8.26H3V3H27.75M11.25,19.5H23.62V7.12H11.25V19.5M30.75,0H0V34.88H14.25V26.62h16.5V22.5h4.13V4.12H30.75V0ZM14.25,10.12h6.37V16.5H14.25V10.12Z"/><path d="M56,3V7.12h4.12v4.13h4.13V31.88H56V23.62H43.59v8.26H35.34V11.25h4.13V7.12h4.12V3H56M43.59,19.5H56V11.25H51.84V7.12H47.72v4.13H43.59V19.5M59,0H40.59V4.12H36.47V8.25H32.34V34.88H46.59V26.62H53v8.26H67.22V8.25H63.09V4.12H59V0ZM50.72,14.25H53V16.5H46.59V14.25h4.13Z"/><path d="M92.43,3V7.12h4.12V19.5H88.3v4.12h4.13v4.13h4.12v4.13H84.18V27.75H80.05V23.62H75.93v8.26H67.68V3H92.43M75.93,19.5h8.25V15.38H88.3V7.12H75.93V19.5M95.43,0H64.68V34.88H78.93V30.75h2.25v4.13H99.55V24.75H95.43V22.5h4.12V4.12H95.43V0ZM78.93,10.12H85.3v2.26H81.18V16.5H78.93V10.12Z"/><path d="M128.9,3V7.12h-8.25V31.88H112.4V7.12h-8.25V3H128.9m3-3H101.15V10.12h8.25V34.88h14.25V10.12h8.25V0Z"/><path d="M161.24,3V31.88H153V23.62h-4.13V19.5h-4.12V15.38h-4.13v16.5h-8.25V3h8.25V7.12h4.13v4.13h4.12v4.13H153V3h8.25m3-3H150V8.25h-2.25V4.12h-4.13V0H129.36V34.88h14.25V22.5h2.25v4.12H150v8.26h14.25V0Z"/><path d="M193.57,3V7.12H173v8.26h16.5V19.5H173v8.25h20.62v4.13H164.7V3h28.87m3-3H161.7V34.88h34.87V24.75H176V22.5h16.5V12.38H176V10.12h20.62V0Z"/><path d="M221.79,3V7.12h4.13V19.5h-8.25v4.12h4.12v4.13h4.13v4.13H213.54V27.75h-4.12V23.62h-4.13v8.26H197V3h24.75m-16.5,16.5h8.25V15.38h4.13V7.12H205.29V19.5M224.79,0H194V34.88h14.25V30.75h2.25v4.13h18.38V24.75h-4.13V22.5h4.13V4.12h-4.13V0Zm-16.5,10.12h6.38v2.26h-4.13V16.5h-2.25V10.12Z"/><path d="M254.13,3V7.12h4.12v4.13H250V7.12H237.63v8.26h16.5V19.5h4.12v8.25h-4.12v4.13H233.5V27.75h-4.12V23.62h8.25v4.13H250V19.5H233.5V15.38h-4.12V7.12h4.12V3h20.63m3-3H230.5V4.12h-4.12V18.38h4.12v2.24h-4.12V30.75h4.12v4.13h26.63V30.75h4.12V16.5h-4.12V14.25h4.12V4.12h-4.12V0Zm-16.5,10.12H247v2.26h-6.37V10.12Zm0,12.38H247v2.25h-6.37V22.5Z"/><path class="cls-1" d="M3,31.88V3H27.75V7.12h4.13V19.5H27.75v4.12H11.25v8.26ZM11.25,19.5H23.62V7.12H11.25Z"/><path class="cls-1" d="M35.34,31.88V11.25h4.13V7.12h4.12V3H56V7.12h4.12v4.13h4.13V31.88H56V23.62H43.59v8.26ZM43.59,19.5H56V11.25H51.84V7.12H47.72v4.13H43.59Z"/><path class="cls-1" d="M67.68,31.88V3H92.43V7.12h4.12V19.5H88.3v4.12h4.13v4.13h4.12v4.13H84.18V27.75H80.05V23.62H75.93v8.26ZM75.93,19.5h8.25V15.38H88.3V7.12H75.93Z"/><path class="cls-1" d="M112.4,31.88V7.12h-8.25V3H128.9V7.12h-8.25V31.88Z"/><path class="cls-1" d="M132.36,31.88V3h8.25V7.12h4.13v4.13h4.12v4.13H153V3h8.25V31.88H153V23.62h-4.13V19.5h-4.12V15.38h-4.13v16.5Z"/><path class="cls-1" d="M164.7,31.88V3h28.87V7.12H173v8.26h16.5V19.5H173v8.25h20.62v4.13Z"/><path class="cls-1" d="M197,31.88V3h24.75V7.12h4.13V19.5h-8.25v4.12h4.12v4.13h4.13v4.13H213.54V27.75h-4.12V23.62h-4.13v8.26Zm8.25-12.38h8.25V15.38h4.13V7.12H205.29Z"/><path class="cls-1" d="M233.5,31.88V27.75h-4.12V23.62h8.25v4.13H250V19.5H233.5V15.38h-4.12V7.12h4.12V3h20.63V7.12h4.12v4.13H250V7.12H237.63v8.26h16.5V19.5h4.12v8.25h-4.12v4.13Z"/></g></g></svg>