<svg xmlns="http://www.w3.org/2000/svg" width="80.582" height="71.101" viewBox="0 0 80.582 71.101"><g transform="translate(-3238.545 -3341.406)"><rect width="4.74" height="18.96" transform="translate(3248.025 3350.887)" fill="#ff2968"/><path d="M3257.505,3346.146h-4.74v28.441h4.74Z" fill="#ff2968"/><rect width="4.74" height="14.22" transform="translate(3248.025 3365.107)" fill="#c40851"/><rect width="4.74" height="14.22" transform="translate(3304.906 3365.107)" fill="#c40851"/><rect width="4.74" height="14.22" transform="translate(3295.426 3374.587)" fill="#c40851"/><rect width="4.74" height="14.22" transform="translate(3290.686 3379.327)" fill="#c40851"/><rect width="4.74" height="14.22" transform="translate(3300.166 3369.847)" fill="#c40851"/><rect width="4.74" height="14.22" transform="translate(3285.946 3384.067)" fill="#c40851"/><rect width="4.74" height="14.22" transform="translate(3281.206 3388.808)" fill="#c40851"/><rect width="4.74" height="14.22" transform="translate(3252.765 3369.847)" fill="#c40851"/><rect width="4.74" height="14.22" transform="translate(3257.505 3374.587)" fill="#c40851"/><rect width="4.74" height="14.22" transform="translate(3262.245 3379.327)" fill="#c40851"/><rect width="4.74" height="14.22" transform="translate(3266.986 3384.067)" fill="#c40851"/><rect width="4.74" height="14.22" transform="translate(3271.726 3388.808)" fill="#c40851"/><rect width="4.74" height="14.22" transform="translate(3276.466 3393.548)" fill="#c40851"/><rect width="4.74" height="28.441" transform="translate(3257.505 3346.146)" fill="#ff2968"/><rect width="4.74" height="14.22" transform="translate(3304.906 3350.887)" fill="#ff2968"/><path d="M3243.285,3369.847h0Z" fill="#c40851"/><rect width="4.74" height="4.74" transform="translate(3309.646 3360.367)" fill="#c40851"/><rect width="4.74" height="33.181" transform="translate(3262.245 3346.146)" fill="#ff2968"/><rect width="4.74" height="23.701" transform="translate(3300.166 3346.146)" fill="#ff2968"/><rect width="4.74" height="33.181" transform="translate(3266.986 3350.887)" fill="#ff2968"/><rect width="4.74" height="28.441" transform="translate(3295.426 3346.146)" fill="#ff2968"/><rect width="4.74" height="33.181" transform="translate(3281.206 3355.627)" fill="#ff2968"/><path d="M3276.466,3388.808v-37.921h-4.74v37.921Z" fill="#ff2968"/><path d="M3295.426,3379.327v-33.181h-4.74v33.181Z" fill="#ff2968"/><rect width="4.74" height="33.181" transform="translate(3276.466 3360.367)" fill="#ff2968"/><rect width="4.74" height="33.181" transform="translate(3285.946 3350.887)" fill="#ff2968"/><rect width="14.22" height="4.74" transform="translate(3252.765 3341.406)" fill="#07042d"/><rect width="14.22" height="4.74" transform="translate(3290.686 3341.406)" fill="#07042d"/><rect width="4.74" height="4.74" transform="translate(3266.986 3346.146)" fill="#07042d"/><rect width="4.74" height="4.74" transform="translate(3285.946 3346.146)" fill="#07042d"/><rect width="4.74" height="9.48" transform="translate(3238.545 3360.367)" fill="#07042d"/><rect width="4.74" height="4.74" transform="translate(3243.285 3360.367)" fill="#c40851"/><rect width="4.74" height="4.74" transform="translate(3243.285 3365.107)" fill="#c40851"/><rect width="4.74" height="4.74" transform="translate(3309.646 3365.107)" fill="#c40851"/><rect width="4.74" height="4.74" transform="translate(3262.245 3393.548)" fill="#07042d"/><rect width="4.74" height="4.74" transform="translate(3257.505 3388.808)" fill="#07042d"/><rect width="4.74" height="4.74" transform="translate(3248.025 3379.327)" fill="#07042d"/><rect width="4.74" height="4.74" transform="translate(3252.765 3384.067)" fill="#07042d"/><rect width="4.74" height="9.48" transform="translate(3243.285 3369.847)" fill="#07042d"/><rect width="4.74" height="9.48" transform="translate(3243.285 3350.887)" fill="#07042d"/><rect width="4.74" height="4.74" transform="translate(3248.025 3346.146)" fill="#07042d"/><rect width="4.74" height="4.74" transform="translate(3271.726 3350.887)" fill="#07042d"/><rect width="4.74" height="4.74" transform="translate(3276.466 3355.627)" fill="#07042d"/><rect width="4.74" height="4.74" transform="translate(3281.206 3350.887)" fill="#07042d"/><rect width="4.74" height="9.48" transform="translate(3314.386 3360.367)" fill="#07042d"/><rect width="4.74" height="9.48" transform="translate(3314.386 3379.327) rotate(180)" fill="#07042d"/><rect width="4.74" height="9.48" transform="translate(3314.386 3360.367) rotate(180)" fill="#07042d"/><rect width="4.74" height="4.74" transform="translate(3309.646 3350.887) rotate(180)" fill="#07042d"/><rect width="4.74" height="4.74" transform="translate(3276.466 3407.768)" fill="#07042d"/><rect width="4.74" height="4.74" transform="translate(3266.986 3398.288)" fill="#07042d"/><rect width="4.74" height="4.74" transform="translate(3290.686 3393.548)" fill="#07042d"/><rect width="4.74" height="4.74" transform="translate(3295.426 3388.808)" fill="#07042d"/><rect width="4.74" height="4.74" transform="translate(3300.166 3384.067)" fill="#07042d"/><rect width="4.74" height="4.74" transform="translate(3304.906 3379.327)" fill="#07042d"/><rect width="4.74" height="4.74" transform="translate(3285.946 3398.288)" fill="#07042d"/><rect width="4.74" height="4.74" transform="translate(3271.726 3403.028)" fill="#07042d"/><rect width="4.74" height="4.74" transform="translate(3281.206 3403.028)" fill="#07042d"/><rect width="4.74" height="9.48" transform="translate(3252.765 3355.627)" fill="#fef"/><rect width="4.74" height="4.74" transform="translate(3257.505 3350.887)" fill="#fef"/></g></svg>