<svg xmlns="http://www.w3.org/2000/svg" xmlns:xlink="http://www.w3.org/1999/xlink" height="40px" viewBox="0 0 232.92 38.88"><defs><style>.cls-1{fill:url(#linear-gradient);}</style><linearGradient id="linear-gradient" x1="114.46" y1="33.01" x2="114.46" y2="3.16" gradientUnits="userSpaceOnUse"><stop offset="0" stop-color="#ff9800"/><stop offset="1" stop-color="#ffc46e"/></linearGradient></defs><g id="Layer_2" data-name="Layer 2"><g id="Layer_1-2" data-name="Layer 1"><path d="M31.75,7v4.12h4.13V23.5H27.62v4.12h4.13v4.13h4.13v4.13H23.5V31.75H19.38V27.62H15.25v8.26H7V7H31.75M15.25,23.5H23.5V19.38h4.12V11.12H15.25V23.5M34.75,4H4V38.88H18.25V34.75H20.5v4.13H38.88V28.75H34.75V26.5h4.13V8.12H34.75V4ZM18.25,14.12h6.37v2.26H20.5V20.5H18.25V14.12Z"/><path d="M64.09,7v4.12h4.12V31.75H64.09v4.13H43.46V31.75H39.34V11.12h4.12V7H64.09M47.59,31.75H60V11.12H47.59V31.75M67.09,4H40.46V8.12H36.34V34.75h4.12v4.13H67.09V34.75h4.12V8.12H67.09V4ZM50.59,14.12H57V28.75H50.59V14.12Z"/><path d="M92.3,7v4.12h4.13v4.13h4.12V35.88H92.3V27.62H79.93v8.26H71.68V15.25H75.8V11.12h4.13V7H92.3M79.93,23.5H92.3V15.25H88.18V11.12H84.05v4.13H79.93V23.5M95.3,4H76.93V8.12H72.8v4.13H68.68V38.88H82.93V30.62H89.3v8.26h14.25V12.25H99.43V8.12H95.3V4ZM87.05,18.25H89.3V20.5H82.93V18.25h4.12Z"/><path d="M124.65,7v4.12h4.12v4.13h4.13V27.62h-4.13v4.13h-4.12v4.13H104V7h20.63M112.27,31.75h8.25V27.62h4.13V15.25h-4.13V11.12h-8.25V31.75M127.65,4H101V38.88h26.63V34.75h4.12V30.62h4.13V12.25h-4.13V8.12h-4.12V4ZM115.27,14.12h2.25v4.13h4.13v6.37h-4.13v4.13h-2.25V14.12Z"/><path d="M165.23,7V35.88H157V19.38h-4.12v8.24h-4.13V19.38h-4.12v16.5h-8.25V7h8.25v4.12h4.12v4.13h4.13V11.12H157V7h8.25m3-3H154V8.12h-6.37V4H133.36V38.88h14.25V30.62H154v8.26h14.25V4Z"/><path d="M189.32,7v4.12h4.13v4.13h4.12V35.88h-8.25V27.62H177v8.26H168.7V15.25h4.12V11.12H177V7h12.37M177,23.5h12.37V15.25H185.2V11.12h-4.13v4.13H177V23.5M192.32,4H174V8.12h-4.13v4.13H165.7V38.88H180V30.62h6.37v8.26h14.25V12.25h-4.12V8.12h-4.13V4Zm-8.25,14.25h2.25V20.5H180V18.25h4.12Z"/><path d="M225.79,7v4.12h4.13V23.5h-4.13v4.12h-16.5v8.26H201V7h24.75m-16.5,16.5h12.38V11.12H209.29V23.5M228.79,4H198V38.88h14.25V30.62h16.5V26.5h4.13V8.12h-4.13V4Zm-16.5,10.12h6.38V20.5h-6.38V14.12Z"/><path d="M7,35.88V7H31.75v4.12h4.13V23.5H27.62v4.12h4.13v4.13h4.13v4.13H23.5V31.75H19.38V27.62H15.25v8.26ZM15.25,23.5H23.5V19.38h4.12V11.12H15.25Z"/><path d="M43.46,35.88V31.75H39.34V11.12h4.12V7H64.09v4.12h4.12V31.75H64.09v4.13Zm4.13-4.13H60V11.12H47.59Z"/><path d="M71.68,35.88V15.25H75.8V11.12h4.13V7H92.3v4.12h4.13v4.13h4.12V35.88H92.3V27.62H79.93v8.26ZM79.93,23.5H92.3V15.25H88.18V11.12H84.05v4.13H79.93Z"/><path d="M104,35.88V7h20.63v4.12h4.12v4.13h4.13V27.62h-4.13v4.13h-4.12v4.13Zm8.25-4.13h8.25V27.62h4.13V15.25h-4.13V11.12h-8.25Z"/><path d="M136.36,35.88V7h8.25v4.12h4.12v4.13h4.13V11.12H157V7h8.25V35.88H157V19.38h-4.12v8.24h-4.13V19.38h-4.12v16.5Z"/><path d="M168.7,35.88V15.25h4.12V11.12H177V7h12.37v4.12h4.13v4.13h4.12V35.88h-8.25V27.62H177v8.26ZM177,23.5h12.37V15.25H185.2V11.12h-4.13v4.13H177Z"/><path d="M201,35.88V7h24.75v4.12h4.13V23.5h-4.13v4.12h-16.5v8.26Zm8.25-12.38h12.38V11.12H209.29Z"/><path d="M27.75,3V7.12h4.13V19.5H23.62v4.12h4.13v4.13h4.13v4.13H19.5V27.75H15.38V23.62H11.25v8.26H3V3H27.75M11.25,19.5H19.5V15.38h4.12V7.12H11.25V19.5M30.75,0H0V34.88H14.25V30.75H16.5v4.13H34.88V24.75H30.75V22.5h4.13V4.12H30.75V0ZM14.25,10.12h6.37v2.26H16.5V16.5H14.25V10.12Z"/><path d="M60.09,3V7.12h4.12V27.75H60.09v4.13H39.46V27.75H35.34V7.12h4.12V3H60.09M43.59,27.75H56V7.12H43.59V27.75M63.09,0H36.46V4.12H32.34V30.75h4.12v4.13H63.09V30.75h4.12V4.12H63.09V0ZM46.59,10.12H53V24.75H46.59V10.12Z"/><path d="M88.3,3V7.12h4.13v4.13h4.12V31.88H88.3V23.62H75.93v8.26H67.68V11.25H71.8V7.12h4.13V3H88.3M75.93,19.5H88.3V11.25H84.18V7.12H80.05v4.13H75.93V19.5M91.3,0H72.93V4.12H68.8V8.25H64.68V34.88H78.93V26.62H85.3v8.26H99.55V8.25H95.43V4.12H91.3V0ZM83.05,14.25H85.3V16.5H78.93V14.25h4.12Z"/><path d="M120.65,3V7.12h4.12v4.13h4.13V23.62h-4.13v4.13h-4.12v4.13H100V3h20.63M108.27,27.75h8.25V23.62h4.13V11.25h-4.13V7.12h-8.25V27.75M123.65,0H97V34.88h26.63V30.75h4.12V26.62h4.13V8.25h-4.13V4.12h-4.12V0ZM111.27,10.12h2.25v4.13h4.13v6.37h-4.13v4.13h-2.25V10.12Z"/><path d="M161.23,3V31.88H153V15.38h-4.12v8.24h-4.13V15.38h-4.12v16.5h-8.25V3h8.25V7.12h4.12v4.13h4.13V7.12H153V3h8.25m3-3H150V4.12h-6.37V0H129.36V34.88h14.25V26.62H150v8.26h14.25V0Z"/><path d="M185.32,3V7.12h4.13v4.13h4.12V31.88h-8.25V23.62H173v8.26H164.7V11.25h4.12V7.12H173V3h12.37M173,19.5h12.37V11.25H181.2V7.12h-4.13v4.13H173V19.5M188.32,0H170V4.12h-4.13V8.25H161.7V34.88H176V26.62h6.37v8.26h14.25V8.25h-4.12V4.12h-4.13V0Zm-8.25,14.25h2.25V16.5H176V14.25h4.12Z"/><path d="M221.79,3V7.12h4.13V19.5h-4.13v4.12h-16.5v8.26H197V3h24.75m-16.5,16.5h12.38V7.12H205.29V19.5M224.79,0H194V34.88h14.25V26.62h16.5V22.5h4.13V4.12h-4.13V0Zm-16.5,10.12h6.38V16.5h-6.38V10.12Z"/><path class="cls-1" d="M3,31.88V3H27.75V7.12h4.13V19.5H23.62v4.12h4.13v4.13h4.13v4.13H19.5V27.75H15.38V23.62H11.25v8.26ZM11.25,19.5H19.5V15.38h4.12V7.12H11.25Z"/><path class="cls-1" d="M39.46,31.88V27.75H35.34V7.12h4.12V3H60.09V7.12h4.12V27.75H60.09v4.13Zm4.13-4.13H56V7.12H43.59Z"/><path class="cls-1" d="M67.68,31.88V11.25H71.8V7.12h4.13V3H88.3V7.12h4.13v4.13h4.12V31.88H88.3V23.62H75.93v8.26ZM75.93,19.5H88.3V11.25H84.18V7.12H80.05v4.13H75.93Z"/><path class="cls-1" d="M100,31.88V3h20.63V7.12h4.12v4.13h4.13V23.62h-4.13v4.13h-4.12v4.13Zm8.25-4.13h8.25V23.62h4.13V11.25h-4.13V7.12h-8.25Z"/><path class="cls-1" d="M132.36,31.88V3h8.25V7.12h4.12v4.13h4.13V7.12H153V3h8.25V31.88H153V15.38h-4.12v8.24h-4.13V15.38h-4.12v16.5Z"/><path class="cls-1" d="M164.7,31.88V11.25h4.12V7.12H173V3h12.37V7.12h4.13v4.13h4.12V31.88h-8.25V23.62H173v8.26ZM173,19.5h12.37V11.25H181.2V7.12h-4.13v4.13H173Z"/><path class="cls-1" d="M197,31.88V3h24.75V7.12h4.13V19.5h-4.13v4.12h-16.5v8.26Zm8.25-12.38h12.38V7.12H205.29Z"/></g></g></svg>