<svg xmlns="http://www.w3.org/2000/svg" width="77.595" height="59.338" viewBox="0 0 77.595 59.338">
  <g id="Group_548" data-name="Group 548" transform="translate(-2716.455 -113.841)">
    <g id="Group_546" data-name="Group 546">
      <rect id="Rectangle_36579" data-name="Rectangle 36579" width="9.129" height="4.564" transform="translate(2757.534 113.841)" fill="#fff"/>
      <rect id="Rectangle_36580" data-name="Rectangle 36580" width="18.258" height="4.564" transform="translate(2730.148 127.534)" fill="#fff"/>
      <rect id="Rectangle_36581" data-name="Rectangle 36581" width="73.031" height="4.564" transform="translate(2716.455 141.228)" fill="#fff"/>
      <rect id="Rectangle_36582" data-name="Rectangle 36582" width="77.595" height="4.565" transform="translate(2716.455 145.792)" fill="#fff"/>
      <rect id="Rectangle_36583" data-name="Rectangle 36583" width="73.031" height="4.564" transform="translate(2716.455 150.357)" fill="#fff"/>
      <rect id="Rectangle_36584" data-name="Rectangle 36584" width="63.902" height="4.564" transform="translate(2721.019 154.921)" fill="#fff"/>
      <rect id="Rectangle_36585" data-name="Rectangle 36585" width="63.902" height="4.565" transform="translate(2721.019 159.485)" fill="#e7e7fe"/>
      <rect id="Rectangle_36586" data-name="Rectangle 36586" width="22.822" height="4.564" transform="translate(2730.148 164.05)" fill="#e7e7fe"/>
      <rect id="Rectangle_36587" data-name="Rectangle 36587" width="22.822" height="4.564" transform="translate(2757.534 164.05)" fill="#e7e7fe"/>
      <rect id="Rectangle_36588" data-name="Rectangle 36588" width="13.693" height="4.565" transform="translate(2734.712 168.614)" fill="#e7e7fe"/>
      <rect id="Rectangle_36589" data-name="Rectangle 36589" width="13.693" height="4.564" transform="translate(2748.406 154.921)" fill="#e7e7fe"/>
      <rect id="Rectangle_36590" data-name="Rectangle 36590" width="4.564" height="4.564" transform="translate(2748.406 150.357)" fill="#e7e7fe"/>
      <rect id="Rectangle_36591" data-name="Rectangle 36591" width="9.129" height="4.564" transform="translate(2721.019 154.921)" fill="#e7e7fe"/>
      <rect id="Rectangle_36592" data-name="Rectangle 36592" width="9.129" height="4.564" transform="translate(2716.455 150.357)" fill="#e7e7fe"/>
      <rect id="Rectangle_36593" data-name="Rectangle 36593" width="9.129" height="4.564" transform="translate(2780.357 150.357)" fill="#e7e7fe"/>
      <rect id="Rectangle_36594" data-name="Rectangle 36594" width="9.129" height="4.564" transform="translate(2775.792 154.921)" fill="#e7e7fe"/>
      <rect id="Rectangle_36595" data-name="Rectangle 36595" width="13.693" height="4.565" transform="translate(2757.534 168.614)" fill="#e7e7fe"/>
      <rect id="Rectangle_36596" data-name="Rectangle 36596" width="31.951" height="4.565" transform="translate(2748.406 122.97)" fill="#fff"/>
      <rect id="Rectangle_36597" data-name="Rectangle 36597" width="31.951" height="4.564" transform="translate(2748.406 127.534)" fill="#fff"/>
      <rect id="Rectangle_36598" data-name="Rectangle 36598" width="9.129" height="4.565" transform="translate(2734.712 122.97)" fill="#fff"/>
      <rect id="Rectangle_36599" data-name="Rectangle 36599" width="22.822" height="4.564" transform="translate(2752.97 118.406)" fill="#fff"/>
      <rect id="Rectangle_36600" data-name="Rectangle 36600" width="59.338" height="4.565" transform="translate(2725.583 132.099)" fill="#fff"/>
      <rect id="Rectangle_36601" data-name="Rectangle 36601" width="63.902" height="4.564" transform="translate(2721.019 136.663)" fill="#fff"/>
    </g>
    <g id="Group_547" data-name="Group 547">
      <rect id="Rectangle_36602" data-name="Rectangle 36602" width="13.693" height="4.565" transform="translate(2739.277 132.099)" fill="#e7e7fe"/>
      <rect id="Rectangle_36603" data-name="Rectangle 36603" width="9.129" height="4.564" transform="translate(2743.842 127.534)" fill="#e7e7fe"/>
      <rect id="Rectangle_36604" data-name="Rectangle 36604" width="9.129" height="4.564" transform="translate(2757.534 136.663)" fill="#e7e7fe"/>
      <rect id="Rectangle_36605" data-name="Rectangle 36605" width="4.564" height="4.564" transform="translate(2766.663 141.228)" fill="#e7e7fe"/>
      <rect id="Rectangle_36606" data-name="Rectangle 36606" width="4.564" height="9.129" transform="translate(2752.97 132.099)" fill="#e7e7fe"/>
    </g>
  </g>
</svg>
