<svg xmlns="http://www.w3.org/2000/svg" width="296.79" height="69.833" viewBox="0 0 296.79 69.833">
  <g id="Group_579" data-name="Group 579" transform="translate(-3954.21 -536.18)">
    <g id="Group_578" data-name="Group 578">
      <g id="Group_574" data-name="Group 574">
        <rect id="Rectangle_36788" data-name="Rectangle 36788" width="117.843" height="4.365" transform="translate(3976.033 584.19)" fill="#fff"/>
        <rect id="Rectangle_36789" data-name="Rectangle 36789" width="130.937" height="4.365" transform="translate(3971.668 588.554)" fill="#fff"/>
        <rect id="Rectangle_36790" data-name="Rectangle 36790" width="130.937" height="4.365" transform="translate(3967.304 592.919)" fill="#fff"/>
        <rect id="Rectangle_36791" data-name="Rectangle 36791" width="144.03" height="4.365" transform="translate(3958.575 597.283)" fill="#e7e7fe"/>
        <rect id="Rectangle_36792" data-name="Rectangle 36792" width="78.562" height="4.365" transform="translate(4024.043 601.648)" fill="#fff"/>
        <rect id="Rectangle_36793" data-name="Rectangle 36793" width="139.666" height="4.365" transform="translate(3954.21 601.648)" fill="#e7e7fe"/>
      </g>
      <g id="Group_575" data-name="Group 575">
        <rect id="Rectangle_36794" data-name="Rectangle 36794" width="17.459" height="4.365" transform="translate(4194.261 566.732) rotate(180)" fill="#fff"/>
        <rect id="Rectangle_36795" data-name="Rectangle 36795" width="34.916" height="4.365" transform="translate(4202.99 571.096) rotate(180)" fill="#fff"/>
        <rect id="Rectangle_36796" data-name="Rectangle 36796" width="61.104" height="4.365" transform="translate(4216.083 579.825) rotate(180)" fill="#fff"/>
        <rect id="Rectangle_36797" data-name="Rectangle 36797" width="43.646" height="4.365" transform="translate(4207.354 575.461) rotate(180)" fill="#fff"/>
        <rect id="Rectangle_36798" data-name="Rectangle 36798" width="69.833" height="4.365" transform="translate(4220.448 584.19) rotate(180)" fill="#fff"/>
        <rect id="Rectangle_36799" data-name="Rectangle 36799" width="78.562" height="4.365" transform="translate(4224.813 588.554) rotate(180)" fill="#fff"/>
        <rect id="Rectangle_36800" data-name="Rectangle 36800" width="87.291" height="4.365" transform="translate(4229.177 592.919) rotate(180)" fill="#fff"/>
        <rect id="Rectangle_36801" data-name="Rectangle 36801" width="52.375" height="4.365" transform="translate(4146.25 588.554) rotate(180)" fill="#fff"/>
        <rect id="Rectangle_36802" data-name="Rectangle 36802" width="52.375" height="4.365" transform="translate(4141.886 592.919) rotate(180)" fill="#fff"/>
        <rect id="Rectangle_36803" data-name="Rectangle 36803" width="78.562" height="4.365" transform="translate(4159.344 597.283) rotate(180)" fill="#fff"/>
        <rect id="Rectangle_36804" data-name="Rectangle 36804" width="78.562" height="4.365" transform="translate(4237.906 597.283) rotate(180)" fill="#fff"/>
        <rect id="Rectangle_36805" data-name="Rectangle 36805" width="82.927" height="4.365" transform="translate(4246.635 601.648) rotate(180)" fill="#e7e7fe"/>
        <rect id="Rectangle_36806" data-name="Rectangle 36806" width="87.291" height="4.365" transform="translate(4251 606.012) rotate(180)" fill="#e7e7fe"/>
        <rect id="Rectangle_36807" data-name="Rectangle 36807" width="82.927" height="4.365" transform="translate(4163.709 601.648) rotate(180)" fill="#e7e7fe"/>
        <rect id="Rectangle_36808" data-name="Rectangle 36808" width="87.291" height="4.365" transform="translate(4163.709 606.012) rotate(180)" fill="#e7e7fe"/>
      </g>
      <g id="Group_577" data-name="Group 577">
        <g id="Group_576" data-name="Group 576">
          <rect id="Rectangle_36809" data-name="Rectangle 36809" width="165.853" height="4.365" transform="translate(3980.397 579.825)" fill="#fff"/>
          <rect id="Rectangle_36810" data-name="Rectangle 36810" width="82.927" height="8.729" transform="translate(4054.595 571.096)" fill="#fff"/>
          <rect id="Rectangle_36811" data-name="Rectangle 36811" width="34.916" height="4.365" transform="translate(4076.418 540.544)" fill="#fff"/>
          <rect id="Rectangle_36812" data-name="Rectangle 36812" width="52.375" height="4.365" transform="translate(4067.688 553.638)" fill="#fff"/>
          <rect id="Rectangle_36813" data-name="Rectangle 36813" width="78.562" height="4.365" transform="translate(4054.595 566.732)" fill="#fff"/>
          <rect id="Rectangle_36814" data-name="Rectangle 36814" width="43.646" height="8.729" transform="translate(4072.053 544.909)" fill="#fff"/>
          <rect id="Rectangle_36815" data-name="Rectangle 36815" width="61.104" height="8.729" transform="translate(4063.324 558.002)" fill="#fff"/>
          <rect id="Rectangle_36816" data-name="Rectangle 36816" width="17.458" height="4.365" transform="translate(4085.147 536.18)" fill="#fff"/>
        </g>
        <rect id="Rectangle_36817" data-name="Rectangle 36817" width="17.464" height="4.365" transform="translate(4028.407 558.002) rotate(180)" fill="#fff"/>
        <rect id="Rectangle_36818" data-name="Rectangle 36818" width="34.916" height="4.365" transform="translate(4037.136 562.367) rotate(180)" fill="#fff"/>
        <rect id="Rectangle_36819" data-name="Rectangle 36819" width="61.104" height="4.365" transform="translate(4050.23 571.096) rotate(180)" fill="#fff"/>
        <rect id="Rectangle_36820" data-name="Rectangle 36820" width="69.833" height="4.365" transform="translate(3984.762 571.096)" fill="#fff"/>
        <rect id="Rectangle_36821" data-name="Rectangle 36821" width="69.833" height="4.365" transform="translate(3984.762 575.461)" fill="#fff"/>
        <rect id="Rectangle_36822" data-name="Rectangle 36822" width="43.646" height="4.365" transform="translate(4041.501 566.732) rotate(180)" fill="#fff"/>
      </g>
    </g>
    <rect id="Rectangle_36823" data-name="Rectangle 36823" width="43.646" height="4.365" transform="translate(3976.033 592.919)" fill="#e7e7fe"/>
    <rect id="Rectangle_36824" data-name="Rectangle 36824" width="21.823" height="4.365" transform="translate(3989.126 588.554)" fill="#e7e7fe"/>
    <rect id="Rectangle_36825" data-name="Rectangle 36825" width="8.729" height="4.365" transform="translate(3997.855 584.19)" fill="#e7e7fe"/>
    <rect id="Rectangle_36826" data-name="Rectangle 36826" width="34.917" height="4.365" transform="translate(4185.532 592.919)" fill="#e7e7fe"/>
    <rect id="Rectangle_36827" data-name="Rectangle 36827" width="34.917" height="4.365" transform="translate(4102.605 592.919)" fill="#e7e7fe"/>
    <rect id="Rectangle_36828" data-name="Rectangle 36828" width="17.458" height="4.365" transform="translate(4198.625 588.554)" fill="#e7e7fe"/>
    <rect id="Rectangle_36829" data-name="Rectangle 36829" width="8.729" height="4.365" transform="translate(4202.99 584.19)" fill="#e7e7fe"/>
    <rect id="Rectangle_36830" data-name="Rectangle 36830" width="8.729" height="4.365" transform="translate(4106.97 588.554)" fill="#e7e7fe"/>
    <rect id="Rectangle_36831" data-name="Rectangle 36831" width="13.094" height="4.365" transform="translate(4050.23 571.096)" fill="#e7e7fe"/>
    <rect id="Rectangle_36832" data-name="Rectangle 36832" width="8.729" height="4.365" transform="translate(4054.595 566.732)" fill="#e7e7fe"/>
    <rect id="Rectangle_36833" data-name="Rectangle 36833" width="4.365" height="4.365" transform="translate(4058.959 575.461)" fill="#e7e7fe"/>
    <rect id="Rectangle_36834" data-name="Rectangle 36834" width="8.729" height="8.729" transform="translate(4063.324 575.461)" fill="#e7e7fe"/>
    <rect id="Rectangle_36835" data-name="Rectangle 36835" width="4.365" height="8.729" transform="translate(4072.053 579.825)" fill="#e7e7fe"/>
    <rect id="Rectangle_36836" data-name="Rectangle 36836" width="4.365" height="4.365" transform="translate(4076.418 588.554)" fill="#e7e7fe"/>
    <rect id="Rectangle_36837" data-name="Rectangle 36837" width="4.365" height="4.365" transform="translate(4067.688 553.638)" fill="#e7e7fe"/>
    <rect id="Rectangle_36838" data-name="Rectangle 36838" width="4.365" height="4.365" transform="translate(4080.782 540.544)" fill="#e7e7fe"/>
    <rect id="Rectangle_36839" data-name="Rectangle 36839" width="4.365" height="4.365" transform="translate(4128.792 566.732)" fill="#e7e7fe"/>
    <rect id="Rectangle_36840" data-name="Rectangle 36840" width="4.364" height="4.365" transform="translate(4189.897 562.367)" fill="#e7e7fe"/>
    <rect id="Rectangle_36841" data-name="Rectangle 36841" width="4.365" height="4.365" transform="translate(4202.99 571.096)" fill="#e7e7fe"/>
    <rect id="Rectangle_36842" data-name="Rectangle 36842" width="4.365" height="4.365" transform="translate(3989.126 566.732)" fill="#e7e7fe"/>
    <rect id="Rectangle_36843" data-name="Rectangle 36843" width="4.359" height="4.365" transform="translate(4010.944 553.638)" fill="#e7e7fe"/>
    <rect id="Rectangle_36844" data-name="Rectangle 36844" width="4.365" height="4.365" transform="translate(4024.043 575.461)" fill="#e7e7fe"/>
    <rect id="Rectangle_36845" data-name="Rectangle 36845" width="4.365" height="4.365" transform="translate(4101.349 562.367)" fill="#e7e7fe"/>
    <rect id="Rectangle_36846" data-name="Rectangle 36846" width="4.365" height="4.365" transform="translate(4096.984 566.732)" fill="#e7e7fe"/>
    <rect id="Rectangle_36847" data-name="Rectangle 36847" width="4.365" height="8.729" transform="translate(4111.334 544.909)" fill="#e7e7fe"/>
    <rect id="Rectangle_36848" data-name="Rectangle 36848" width="4.365" height="4.365" transform="translate(4063.324 571.096)" fill="#e7e7fe"/>
    <rect id="Rectangle_36849" data-name="Rectangle 36849" width="13.094" height="4.365" transform="translate(4146.25 584.19)" fill="#e7e7fe"/>
    <rect id="Rectangle_36850" data-name="Rectangle 36850" width="8.729" height="4.365" transform="translate(4150.615 579.825)" fill="#e7e7fe"/>
    <rect id="Rectangle_36851" data-name="Rectangle 36851" width="4.365" height="4.365" transform="translate(4163.709 588.554)" fill="#e7e7fe"/>
    <rect id="Rectangle_36852" data-name="Rectangle 36852" width="4.365" height="8.729" transform="translate(4159.344 584.19)" fill="#e7e7fe"/>
  </g>
</svg>
