<svg xmlns="http://www.w3.org/2000/svg" width="146.062" height="59.338" viewBox="0 0 146.062 59.338">
  <g id="Group_555" data-name="Group 555" transform="translate(-3687.164 -609.033)">
    <g id="Group_552" data-name="Group 552">
      <rect id="Rectangle_36635" data-name="Rectangle 36635" width="13.693" height="4.564" transform="translate(3723.679 622.726)" fill="#fff"/>
      <rect id="Rectangle_36636" data-name="Rectangle 36636" width="13.693" height="4.564" transform="translate(3755.63 609.033)" fill="#fff"/>
      <rect id="Rectangle_36637" data-name="Rectangle 36637" width="41.08" height="4.565" transform="translate(3746.502 618.162)" fill="#fff"/>
      <rect id="Rectangle_36638" data-name="Rectangle 36638" width="45.644" height="4.564" transform="translate(3746.502 622.726)" fill="#fff"/>
      <rect id="Rectangle_36639" data-name="Rectangle 36639" width="73.031" height="4.565" transform="translate(3719.115 627.291)" fill="#fff"/>
      <rect id="Rectangle_36640" data-name="Rectangle 36640" width="77.595" height="4.564" transform="translate(3719.115 631.855)" fill="#fff"/>
      <rect id="Rectangle_36641" data-name="Rectangle 36641" width="104.982" height="4.564" transform="translate(3709.986 636.419)" fill="#fff"/>
      <rect id="Rectangle_36642" data-name="Rectangle 36642" width="109.547" height="4.565" transform="translate(3709.986 640.984)" fill="#fff"/>
      <rect id="Rectangle_36643" data-name="Rectangle 36643" width="118.675" height="4.564" transform="translate(3705.422 645.548)" fill="#fff"/>
      <rect id="Rectangle_36644" data-name="Rectangle 36644" width="127.804" height="4.564" transform="translate(3700.857 650.113)" fill="#fff"/>
      <rect id="Rectangle_36645" data-name="Rectangle 36645" width="141.497" height="4.565" transform="translate(3687.164 654.677)" fill="#fff"/>
      <rect id="Rectangle_36646" data-name="Rectangle 36646" width="141.498" height="4.564" transform="translate(3691.728 659.242)" fill="#e7e7fe"/>
      <rect id="Rectangle_36647" data-name="Rectangle 36647" width="136.933" height="4.564" transform="translate(3696.293 663.806)" fill="#e7e7fe"/>
      <rect id="Rectangle_36648" data-name="Rectangle 36648" width="31.951" height="4.564" transform="translate(3751.066 613.597)" fill="#fff"/>
    </g>
    <g id="Group_553" data-name="Group 553">
      <rect id="Rectangle_36649" data-name="Rectangle 36649" width="13.44" height="4.564" transform="translate(3787.581 636.419)" fill="#e7e7fe"/>
      <rect id="Rectangle_36650" data-name="Rectangle 36650" width="9.129" height="4.564" transform="translate(3787.581 631.855)" fill="#e7e7fe"/>
      <rect id="Rectangle_36651" data-name="Rectangle 36651" width="9.129" height="4.565" transform="translate(3773.888 640.984)" fill="#e7e7fe"/>
      <rect id="Rectangle_36652" data-name="Rectangle 36652" width="4.564" height="4.564" transform="translate(3769.324 645.548)" fill="#e7e7fe"/>
      <rect id="Rectangle_36653" data-name="Rectangle 36653" width="4.565" height="4.564" transform="translate(3764.759 650.113)" fill="#e7e7fe"/>
      <rect id="Rectangle_36654" data-name="Rectangle 36654" width="4.564" height="4.565" transform="translate(3760.195 640.984)" fill="#e7e7fe"/>
      <rect id="Rectangle_36655" data-name="Rectangle 36655" width="4.565" height="4.564" transform="translate(3778.453 613.597)" fill="#e7e7fe"/>
      <rect id="Rectangle_36656" data-name="Rectangle 36656" width="4.565" height="4.564" transform="translate(3764.759 622.726)" fill="#e7e7fe"/>
      <rect id="Rectangle_36657" data-name="Rectangle 36657" width="4.564" height="4.564" transform="translate(3810.404 636.419)" fill="#e7e7fe"/>
      <rect id="Rectangle_36658" data-name="Rectangle 36658" width="4.564" height="4.565" transform="translate(3746.502 618.162)" fill="#e7e7fe"/>
      <rect id="Rectangle_36659" data-name="Rectangle 36659" width="4.565" height="4.565" transform="translate(3719.115 627.291)" fill="#e7e7fe"/>
      <rect id="Rectangle_36660" data-name="Rectangle 36660" width="4.564" height="9.129" transform="translate(3783.017 636.419)" fill="#e7e7fe"/>
    </g>
    <g id="Group_554" data-name="Group 554">
      <rect id="Rectangle_36661" data-name="Rectangle 36661" width="13.44" height="4.564" transform="translate(3733.062 631.855)" fill="#e7e7fe"/>
      <rect id="Rectangle_36662" data-name="Rectangle 36662" width="9.129" height="4.565" transform="translate(3737.373 627.291)" fill="#e7e7fe"/>
      <rect id="Rectangle_36663" data-name="Rectangle 36663" width="9.129" height="4.564" transform="translate(3751.066 636.419)" fill="#e7e7fe"/>
      <rect id="Rectangle_36664" data-name="Rectangle 36664" width="59.338" height="4.565" transform="translate(3687.164 654.677)" fill="#e7e7fe"/>
      <rect id="Rectangle_36665" data-name="Rectangle 36665" width="18.258" height="4.564" transform="translate(3700.857 650.113)" fill="#e7e7fe"/>
      <rect id="Rectangle_36666" data-name="Rectangle 36666" width="9.129" height="4.564" transform="translate(3705.422 645.548)" fill="#e7e7fe"/>
      <rect id="Rectangle_36667" data-name="Rectangle 36667" width="9.129" height="4.564" transform="translate(3814.968 645.548)" fill="#e7e7fe"/>
      <rect id="Rectangle_36668" data-name="Rectangle 36668" width="27.387" height="4.564" transform="translate(3801.275 650.113)" fill="#e7e7fe"/>
      <rect id="Rectangle_36669" data-name="Rectangle 36669" width="41.08" height="4.565" transform="translate(3787.582 654.677)" fill="#e7e7fe"/>
      <rect id="Rectangle_36670" data-name="Rectangle 36670" width="4.564" height="9.129" transform="translate(3746.502 631.855)" fill="#e7e7fe"/>
    </g>
  </g>
</svg>
