<svg xmlns="http://www.w3.org/2000/svg" width="125.505" height="95.974" viewBox="0 0 125.505 95.974">
  <g id="Group_551" data-name="Group 551" transform="translate(-3892 -327.199)">
    <g id="Group_549" data-name="Group 549">
      <rect id="Rectangle_36607" data-name="Rectangle 36607" width="14.765" height="7.383" transform="translate(3958.444 327.199)" fill="#fff"/>
      <rect id="Rectangle_36608" data-name="Rectangle 36608" width="29.531" height="7.383" transform="translate(3914.148 349.347)" fill="#fff"/>
      <rect id="Rectangle_36609" data-name="Rectangle 36609" width="118.122" height="7.383" transform="translate(3892 371.495)" fill="#fff"/>
      <rect id="Rectangle_36610" data-name="Rectangle 36610" width="125.505" height="7.383" transform="translate(3892 378.878)" fill="#fff"/>
      <rect id="Rectangle_36611" data-name="Rectangle 36611" width="118.122" height="7.383" transform="translate(3892 386.26)" fill="#fff"/>
      <rect id="Rectangle_36612" data-name="Rectangle 36612" width="103.357" height="7.383" transform="translate(3899.383 393.643)" fill="#fff"/>
      <rect id="Rectangle_36613" data-name="Rectangle 36613" width="103.357" height="7.383" transform="translate(3899.383 401.025)" fill="#e7e7fe"/>
      <rect id="Rectangle_36614" data-name="Rectangle 36614" width="36.913" height="7.383" transform="translate(3914.148 408.408)" fill="#e7e7fe"/>
      <rect id="Rectangle_36615" data-name="Rectangle 36615" width="36.913" height="7.383" transform="translate(3958.444 408.408)" fill="#e7e7fe"/>
      <rect id="Rectangle_36616" data-name="Rectangle 36616" width="22.148" height="7.383" transform="translate(3921.531 415.791)" fill="#e7e7fe"/>
      <rect id="Rectangle_36617" data-name="Rectangle 36617" width="22.148" height="7.383" transform="translate(3943.678 393.643)" fill="#e7e7fe"/>
      <rect id="Rectangle_36618" data-name="Rectangle 36618" width="7.383" height="7.383" transform="translate(3943.678 386.26)" fill="#e7e7fe"/>
      <rect id="Rectangle_36619" data-name="Rectangle 36619" width="14.765" height="7.383" transform="translate(3899.383 393.643)" fill="#e7e7fe"/>
      <rect id="Rectangle_36620" data-name="Rectangle 36620" width="14.765" height="7.383" transform="translate(3892 386.26)" fill="#e7e7fe"/>
      <rect id="Rectangle_36621" data-name="Rectangle 36621" width="14.765" height="7.383" transform="translate(3995.357 386.26)" fill="#e7e7fe"/>
      <rect id="Rectangle_36622" data-name="Rectangle 36622" width="14.765" height="7.383" transform="translate(3987.974 393.643)" fill="#e7e7fe"/>
      <rect id="Rectangle_36623" data-name="Rectangle 36623" width="22.148" height="7.383" transform="translate(3958.444 415.791)" fill="#e7e7fe"/>
      <rect id="Rectangle_36624" data-name="Rectangle 36624" width="51.678" height="7.383" transform="translate(3943.678 341.964)" fill="#fff"/>
      <rect id="Rectangle_36625" data-name="Rectangle 36625" width="51.678" height="7.383" transform="translate(3943.678 349.347)" fill="#fff"/>
      <rect id="Rectangle_36626" data-name="Rectangle 36626" width="14.766" height="7.383" transform="translate(3921.531 341.964)" fill="#fff"/>
      <rect id="Rectangle_36627" data-name="Rectangle 36627" width="36.913" height="7.383" transform="translate(3951.061 334.582)" fill="#fff"/>
      <rect id="Rectangle_36628" data-name="Rectangle 36628" width="95.974" height="7.383" transform="translate(3906.765 356.73)" fill="#fff"/>
      <rect id="Rectangle_36629" data-name="Rectangle 36629" width="103.357" height="7.383" transform="translate(3899.383 364.113)" fill="#fff"/>
    </g>
    <g id="Group_550" data-name="Group 550">
      <rect id="Rectangle_36630" data-name="Rectangle 36630" width="22.148" height="7.383" transform="translate(3928.913 356.73)" fill="#e7e7fe"/>
      <rect id="Rectangle_36631" data-name="Rectangle 36631" width="14.765" height="7.383" transform="translate(3936.297 349.347)" fill="#e7e7fe"/>
      <rect id="Rectangle_36632" data-name="Rectangle 36632" width="14.765" height="7.383" transform="translate(3958.444 364.113)" fill="#e7e7fe"/>
      <rect id="Rectangle_36633" data-name="Rectangle 36633" width="7.383" height="7.383" transform="translate(3973.209 371.495)" fill="#e7e7fe"/>
      <rect id="Rectangle_36634" data-name="Rectangle 36634" width="7.382" height="14.765" transform="translate(3951.061 356.73)" fill="#e7e7fe"/>
    </g>
  </g>
</svg>
