<svg xmlns="http://www.w3.org/2000/svg" width="51" height="30.6" viewBox="0 0 51 30.6">
  <g id="Group_562" data-name="Group 562" transform="translate(-2843.492 -472.632)">
    <g id="Group_560" data-name="Group 560">
      <rect id="Rectangle_36718" data-name="Rectangle 36718" width="6.8" height="3.4" transform="translate(2860.492 472.632)" fill="#fff"/>
      <rect id="Rectangle_36719" data-name="Rectangle 36719" width="13.6" height="3.4" transform="translate(2874.092 482.832)" fill="#fff"/>
      <rect id="Rectangle_36720" data-name="Rectangle 36720" width="51" height="3.4" transform="translate(2843.492 493.032)" fill="#fff"/>
      <rect id="Rectangle_36721" data-name="Rectangle 36721" width="44.2" height="3.4" transform="translate(2846.892 496.432)" fill="#e7e7fe"/>
      <rect id="Rectangle_36722" data-name="Rectangle 36722" width="33.874" height="3.4" transform="translate(2853.692 499.832)" fill="#e7e7fe"/>
      <rect id="Rectangle_36723" data-name="Rectangle 36723" width="23.8" height="3.4" transform="translate(2850.292 479.432)" fill="#fff"/>
      <rect id="Rectangle_36724" data-name="Rectangle 36724" width="23.8" height="3.4" transform="translate(2850.292 482.832)" fill="#fff"/>
      <rect id="Rectangle_36725" data-name="Rectangle 36725" width="6.8" height="3.4" transform="translate(2877.492 479.432)" fill="#fff"/>
      <rect id="Rectangle_36726" data-name="Rectangle 36726" width="17" height="3.4" transform="translate(2853.692 476.032)" fill="#fff"/>
      <rect id="Rectangle_36727" data-name="Rectangle 36727" width="44.2" height="3.4" transform="translate(2846.892 486.232)" fill="#fff"/>
      <rect id="Rectangle_36728" data-name="Rectangle 36728" width="44.2" height="3.4" transform="translate(2846.892 489.632)" fill="#fff"/>
    </g>
    <g id="Group_561" data-name="Group 561">
      <rect id="Rectangle_36729" data-name="Rectangle 36729" width="6.8" height="3.4" transform="translate(2860.492 482.832)" fill="#e7e7fe"/>
      <rect id="Rectangle_36730" data-name="Rectangle 36730" width="3.4" height="3.4" transform="translate(2853.692 489.632)" fill="#e7e7fe"/>
      <rect id="Rectangle_36731" data-name="Rectangle 36731" width="3.4" height="3.4" transform="translate(2850.214 479.432)" fill="#e7e7fe"/>
      <rect id="Rectangle_36732" data-name="Rectangle 36732" width="3.4" height="3.4" transform="translate(2877.214 486.232)" fill="#e7e7fe"/>
      <rect id="Rectangle_36733" data-name="Rectangle 36733" width="6.8" height="3.4" transform="translate(2857.092 486.232)" fill="#e7e7fe"/>
      <rect id="Rectangle_36734" data-name="Rectangle 36734" width="3.4" height="3.4" transform="translate(2887.692 489.632)" fill="#e7e7fe"/>
      <rect id="Rectangle_36735" data-name="Rectangle 36735" width="20.4" height="3.4" transform="translate(2874.092 493.032)" fill="#e7e7fe"/>
      <rect id="Rectangle_36736" data-name="Rectangle 36736" width="6.8" height="3.4" transform="translate(2843.492 493.032)" fill="#e7e7fe"/>
      <rect id="Rectangle_36737" data-name="Rectangle 36737" width="6.8" height="3.4" transform="translate(2867.292 479.432)" fill="#e7e7fe"/>
    </g>
  </g>
</svg>
