<svg xmlns="http://www.w3.org/2000/svg" width="162.592" height="66.053" viewBox="0 0 162.592 66.053">
  <g id="Group_583" data-name="Group 583" transform="translate(-2513.408 -601.208)">
    <g id="Group_580" data-name="Group 580">
      <rect id="Rectangle_36853" data-name="Rectangle 36853" width="15.243" height="5.081" transform="translate(2554.056 616.451)" fill="#fff"/>
      <rect id="Rectangle_36854" data-name="Rectangle 36854" width="15.243" height="5.081" transform="translate(2589.623 601.208)" fill="#fff"/>
      <rect id="Rectangle_36855" data-name="Rectangle 36855" width="45.729" height="5.081" transform="translate(2579.461 611.37)" fill="#fff"/>
      <rect id="Rectangle_36856" data-name="Rectangle 36856" width="50.81" height="5.081" transform="translate(2579.461 616.451)" fill="#fff"/>
      <rect id="Rectangle_36857" data-name="Rectangle 36857" width="81.296" height="5.081" transform="translate(2548.975 621.532)" fill="#fff"/>
      <rect id="Rectangle_36858" data-name="Rectangle 36858" width="86.377" height="5.081" transform="translate(2548.975 626.614)" fill="#fff"/>
      <rect id="Rectangle_36859" data-name="Rectangle 36859" width="116.863" height="5.081" transform="translate(2538.813 631.695)" fill="#fff"/>
      <rect id="Rectangle_36860" data-name="Rectangle 36860" width="121.944" height="5.081" transform="translate(2538.813 636.775)" fill="#fff"/>
      <rect id="Rectangle_36861" data-name="Rectangle 36861" width="132.106" height="5.081" transform="translate(2533.732 641.857)" fill="#fff"/>
      <rect id="Rectangle_36862" data-name="Rectangle 36862" width="142.268" height="5.081" transform="translate(2528.651 646.938)" fill="#fff"/>
      <rect id="Rectangle_36863" data-name="Rectangle 36863" width="157.511" height="5.081" transform="translate(2513.408 652.018)" fill="#fff"/>
      <rect id="Rectangle_36864" data-name="Rectangle 36864" width="157.511" height="5.081" transform="translate(2518.489 657.099)" fill="#e7e7fe"/>
      <rect id="Rectangle_36865" data-name="Rectangle 36865" width="152.43" height="5.081" transform="translate(2523.57 662.18)" fill="#e7e7fe"/>
      <rect id="Rectangle_36866" data-name="Rectangle 36866" width="35.567" height="5.081" transform="translate(2584.542 606.289)" fill="#fff"/>
    </g>
    <g id="Group_581" data-name="Group 581">
      <rect id="Rectangle_36867" data-name="Rectangle 36867" width="14.961" height="5.081" transform="translate(2625.19 631.695)" fill="#e7e7fe"/>
      <rect id="Rectangle_36868" data-name="Rectangle 36868" width="10.162" height="5.081" transform="translate(2625.189 626.614)" fill="#e7e7fe"/>
      <rect id="Rectangle_36869" data-name="Rectangle 36869" width="10.162" height="5.081" transform="translate(2609.947 636.775)" fill="#e7e7fe"/>
      <rect id="Rectangle_36870" data-name="Rectangle 36870" width="5.081" height="5.081" transform="translate(2604.866 641.857)" fill="#e7e7fe"/>
      <rect id="Rectangle_36871" data-name="Rectangle 36871" width="5.081" height="5.081" transform="translate(2599.785 646.938)" fill="#e7e7fe"/>
      <rect id="Rectangle_36872" data-name="Rectangle 36872" width="5.081" height="5.081" transform="translate(2594.704 636.775)" fill="#e7e7fe"/>
      <rect id="Rectangle_36873" data-name="Rectangle 36873" width="5.081" height="5.081" transform="translate(2615.028 606.289)" fill="#e7e7fe"/>
      <rect id="Rectangle_36874" data-name="Rectangle 36874" width="5.081" height="5.081" transform="translate(2599.785 616.451)" fill="#e7e7fe"/>
      <rect id="Rectangle_36875" data-name="Rectangle 36875" width="5.081" height="5.081" transform="translate(2650.595 631.695)" fill="#e7e7fe"/>
      <rect id="Rectangle_36876" data-name="Rectangle 36876" width="5.081" height="5.081" transform="translate(2579.461 611.37)" fill="#e7e7fe"/>
      <rect id="Rectangle_36877" data-name="Rectangle 36877" width="5.081" height="5.081" transform="translate(2548.975 621.532)" fill="#e7e7fe"/>
      <rect id="Rectangle_36878" data-name="Rectangle 36878" width="5.081" height="10.162" transform="translate(2620.109 631.695)" fill="#e7e7fe"/>
    </g>
    <g id="Group_582" data-name="Group 582">
      <rect id="Rectangle_36879" data-name="Rectangle 36879" width="14.961" height="5.081" transform="translate(2564.5 626.614)" fill="#e7e7fe"/>
      <rect id="Rectangle_36880" data-name="Rectangle 36880" width="10.162" height="5.081" transform="translate(2569.3 621.532)" fill="#e7e7fe"/>
      <rect id="Rectangle_36881" data-name="Rectangle 36881" width="10.162" height="5.081" transform="translate(2584.542 631.695)" fill="#e7e7fe"/>
      <rect id="Rectangle_36882" data-name="Rectangle 36882" width="66.053" height="5.081" transform="translate(2513.408 652.018)" fill="#e7e7fe"/>
      <rect id="Rectangle_36883" data-name="Rectangle 36883" width="20.324" height="5.081" transform="translate(2528.651 646.938)" fill="#e7e7fe"/>
      <rect id="Rectangle_36884" data-name="Rectangle 36884" width="10.162" height="5.081" transform="translate(2533.732 641.857)" fill="#e7e7fe"/>
      <rect id="Rectangle_36885" data-name="Rectangle 36885" width="10.162" height="5.081" transform="translate(2655.676 641.857)" fill="#e7e7fe"/>
      <rect id="Rectangle_36886" data-name="Rectangle 36886" width="30.486" height="5.081" transform="translate(2640.433 646.938)" fill="#e7e7fe"/>
      <rect id="Rectangle_36887" data-name="Rectangle 36887" width="45.729" height="5.081" transform="translate(2625.19 652.018)" fill="#e7e7fe"/>
      <rect id="Rectangle_36888" data-name="Rectangle 36888" width="5.081" height="10.162" transform="translate(2579.461 626.614)" fill="#e7e7fe"/>
    </g>
  </g>
</svg>
