<svg xmlns="http://www.w3.org/2000/svg" width="191.707" height="73.031" viewBox="0 0 191.707 73.031">
  <g id="Group_559" data-name="Group 559" transform="translate(-3696.293 -140.124)">
    <g id="Group_556" data-name="Group 556">
      <rect id="Rectangle_36671" data-name="Rectangle 36671" width="22.822" height="4.565" transform="translate(3773.889 144.688)" fill="#fff"/>
      <rect id="Rectangle_36672" data-name="Rectangle 36672" width="9.129" height="4.564" transform="translate(3783.018 140.124)" fill="#fff"/>
      <rect id="Rectangle_36673" data-name="Rectangle 36673" width="45.644" height="4.564" transform="translate(3764.76 149.253)" fill="#fff"/>
      <rect id="Rectangle_36674" data-name="Rectangle 36674" width="63.902" height="4.564" transform="translate(3755.632 153.817)" fill="#fff"/>
      <rect id="Rectangle_36675" data-name="Rectangle 36675" width="91.289" height="4.565" transform="translate(3741.938 158.382)" fill="#fff"/>
      <rect id="Rectangle_36676" data-name="Rectangle 36676" width="118.675" height="4.564" transform="translate(3728.245 162.946)" fill="#fff"/>
      <rect id="Rectangle_36677" data-name="Rectangle 36677" width="132.369" height="4.565" transform="translate(3723.646 167.511)" fill="#fff"/>
      <rect id="Rectangle_36678" data-name="Rectangle 36678" width="146.062" height="4.564" transform="translate(3714.551 172.075)" fill="#fff"/>
      <rect id="Rectangle_36679" data-name="Rectangle 36679" width="150.626" height="4.564" transform="translate(3714.551 176.64)" fill="#fff"/>
      <rect id="Rectangle_36680" data-name="Rectangle 36680" width="164.32" height="4.565" transform="translate(3709.987 181.204)" fill="#fff"/>
      <rect id="Rectangle_36681" data-name="Rectangle 36681" width="173.449" height="4.564" transform="translate(3705.422 185.768)" fill="#fff"/>
      <rect id="Rectangle_36682" data-name="Rectangle 36682" width="187.142" height="4.564" transform="translate(3700.858 190.333)" fill="#fff"/>
      <rect id="Rectangle_36683" data-name="Rectangle 36683" width="187.142" height="4.565" transform="translate(3696.293 194.897)" fill="#fff"/>
      <rect id="Rectangle_36684" data-name="Rectangle 36684" width="178.013" height="4.564" transform="translate(3700.858 199.462)" fill="#fff"/>
      <rect id="Rectangle_36685" data-name="Rectangle 36685" width="168.884" height="4.565" transform="translate(3705.422 204.026)" fill="#e7e7fe"/>
      <rect id="Rectangle_36686" data-name="Rectangle 36686" width="150.626" height="4.564" transform="translate(3714.551 208.591)" fill="#e7e7fe"/>
    </g>
    <g id="Group_557" data-name="Group 557">
      <rect id="Rectangle_36687" data-name="Rectangle 36687" width="18.258" height="4.565" transform="translate(3801.276 181.204)" fill="#e7e7fe"/>
      <rect id="Rectangle_36688" data-name="Rectangle 36688" width="18.258" height="4.564" transform="translate(3810.405 185.768)" fill="#e7e7fe"/>
      <rect id="Rectangle_36689" data-name="Rectangle 36689" width="9.129" height="4.564" transform="translate(3783.018 190.333)" fill="#e7e7fe"/>
      <rect id="Rectangle_36690" data-name="Rectangle 36690" width="18.258" height="4.564" transform="translate(3814.969 190.333)" fill="#e7e7fe"/>
      <rect id="Rectangle_36691" data-name="Rectangle 36691" width="22.822" height="4.564" transform="translate(3856.049 199.462)" fill="#e7e7fe"/>
      <rect id="Rectangle_36692" data-name="Rectangle 36692" width="18.258" height="4.565" transform="translate(3865.178 194.897)" fill="#e7e7fe"/>
      <rect id="Rectangle_36693" data-name="Rectangle 36693" width="13.566" height="4.564" transform="translate(3874.434 190.333)" fill="#e7e7fe"/>
      <rect id="Rectangle_36694" data-name="Rectangle 36694" width="4.564" height="9.129" transform="translate(3833.227 190.333)" fill="#e7e7fe"/>
      <rect id="Rectangle_36695" data-name="Rectangle 36695" width="4.564" height="4.565" transform="translate(3837.791 194.897)" fill="#e7e7fe"/>
      <rect id="Rectangle_36696" data-name="Rectangle 36696" width="4.565" height="4.565" transform="translate(3778.453 194.897)" fill="#e7e7fe"/>
      <rect id="Rectangle_36697" data-name="Rectangle 36697" width="4.565" height="4.564" transform="translate(3842.355 199.462)" fill="#e7e7fe"/>
      <rect id="Rectangle_36698" data-name="Rectangle 36698" width="9.129" height="4.564" transform="translate(3792.147 185.768)" fill="#e7e7fe"/>
    </g>
    <g id="Group_558" data-name="Group 558">
      <rect id="Rectangle_36699" data-name="Rectangle 36699" width="22.822" height="4.565" transform="translate(3741.938 158.382)" fill="#e7e7fe"/>
      <rect id="Rectangle_36700" data-name="Rectangle 36700" width="54.773" height="4.564" transform="translate(3700.858 199.462)" fill="#e7e7fe"/>
      <rect id="Rectangle_36701" data-name="Rectangle 36701" width="31.951" height="4.565" transform="translate(3696.293 194.897)" fill="#e7e7fe"/>
      <rect id="Rectangle_36702" data-name="Rectangle 36702" width="13.693" height="4.564" transform="translate(3700.858 190.333)" fill="#e7e7fe"/>
      <rect id="Rectangle_36703" data-name="Rectangle 36703" width="4.565" height="4.564" transform="translate(3705.422 185.768)" fill="#e7e7fe"/>
      <rect id="Rectangle_36704" data-name="Rectangle 36704" width="4.564" height="4.564" transform="translate(3874.307 185.768)" fill="#e7e7fe"/>
      <rect id="Rectangle_36705" data-name="Rectangle 36705" width="9.129" height="4.564" transform="translate(3755.632 153.817)" fill="#e7e7fe"/>
      <rect id="Rectangle_36706" data-name="Rectangle 36706" width="22.822" height="4.564" transform="translate(3755.631 162.946)" fill="#e7e7fe"/>
      <rect id="Rectangle_36707" data-name="Rectangle 36707" width="18.258" height="4.565" transform="translate(3764.76 167.511)" fill="#e7e7fe"/>
      <rect id="Rectangle_36708" data-name="Rectangle 36708" width="9.129" height="4.564" transform="translate(3778.453 172.075)" fill="#e7e7fe"/>
      <rect id="Rectangle_36709" data-name="Rectangle 36709" width="4.564" height="4.564" transform="translate(3787.582 176.64)" fill="#e7e7fe"/>
      <rect id="Rectangle_36710" data-name="Rectangle 36710" width="4.564" height="4.564" transform="translate(3782.891 140.124)" fill="#e7e7fe"/>
      <rect id="Rectangle_36711" data-name="Rectangle 36711" width="4.565" height="4.564" transform="translate(3814.842 172.075)" fill="#e7e7fe"/>
      <rect id="Rectangle_36712" data-name="Rectangle 36712" width="4.564" height="4.565" transform="translate(3738.73 181.204)" fill="#e7e7fe"/>
      <rect id="Rectangle_36713" data-name="Rectangle 36713" width="4.564" height="4.564" transform="translate(3743.294 176.64)" fill="#e7e7fe"/>
      <rect id="Rectangle_36714" data-name="Rectangle 36714" width="4.565" height="4.565" transform="translate(3828.662 158.382)" fill="#e7e7fe"/>
      <rect id="Rectangle_36715" data-name="Rectangle 36715" width="4.565" height="4.565" transform="translate(3851.484 167.511)" fill="#e7e7fe"/>
      <rect id="Rectangle_36716" data-name="Rectangle 36716" width="4.564" height="4.565" transform="translate(3723.646 167.511)" fill="#e7e7fe"/>
      <path id="Path_1227" data-name="Path 1227" d="M3810.4,149.253l-13.693-.017V153.8l13.693.017Z" fill="#e7e7fe"/>
      <rect id="Rectangle_36717" data-name="Rectangle 36717" width="4.564" height="4.565" transform="translate(3764.76 158.382)" fill="#e7e7fe"/>
    </g>
  </g>
</svg>
