<svg xmlns="http://www.w3.org/2000/svg" width="58.067" height="44.405" viewBox="0 0 58.067 44.405">
  <g id="Group_498" data-name="Group 498" transform="translate(-3871.244 -882.853)">
    <g id="Group_496" data-name="Group 496">
      <rect id="Rectangle_35445" data-name="Rectangle 35445" width="6.832" height="3.416" transform="translate(3901.986 882.853)" fill="#fff"/>
      <rect id="Rectangle_35446" data-name="Rectangle 35446" width="13.663" height="3.416" transform="translate(3881.491 893.1)" fill="#fff"/>
      <rect id="Rectangle_35447" data-name="Rectangle 35447" width="54.652" height="3.416" transform="translate(3871.244 903.347)" fill="#fff"/>
      <rect id="Rectangle_35448" data-name="Rectangle 35448" width="58.067" height="3.416" transform="translate(3871.244 906.763)" fill="#fff"/>
      <rect id="Rectangle_35449" data-name="Rectangle 35449" width="54.652" height="3.416" transform="translate(3871.244 910.179)" fill="#fff"/>
      <rect id="Rectangle_35450" data-name="Rectangle 35450" width="47.82" height="3.416" transform="translate(3874.66 913.595)" fill="#fff"/>
      <rect id="Rectangle_35451" data-name="Rectangle 35451" width="47.82" height="3.416" transform="translate(3874.66 917.01)" fill="#e7e7fe"/>
      <rect id="Rectangle_35452" data-name="Rectangle 35452" width="17.079" height="3.416" transform="translate(3881.491 920.426)" fill="#e7e7fe"/>
      <rect id="Rectangle_35453" data-name="Rectangle 35453" width="17.079" height="3.416" transform="translate(3901.986 920.426)" fill="#e7e7fe"/>
      <rect id="Rectangle_35454" data-name="Rectangle 35454" width="10.247" height="3.416" transform="translate(3884.907 923.842)" fill="#e7e7fe"/>
      <rect id="Rectangle_35455" data-name="Rectangle 35455" width="10.247" height="3.416" transform="translate(3895.154 913.595)" fill="#e7e7fe"/>
      <rect id="Rectangle_35456" data-name="Rectangle 35456" width="3.416" height="3.416" transform="translate(3895.154 910.179)" fill="#e7e7fe"/>
      <rect id="Rectangle_35457" data-name="Rectangle 35457" width="6.832" height="3.416" transform="translate(3874.66 913.595)" fill="#e7e7fe"/>
      <rect id="Rectangle_35458" data-name="Rectangle 35458" width="6.832" height="3.416" transform="translate(3871.244 910.179)" fill="#e7e7fe"/>
      <rect id="Rectangle_35459" data-name="Rectangle 35459" width="6.832" height="3.416" transform="translate(3919.064 910.179)" fill="#e7e7fe"/>
      <rect id="Rectangle_35460" data-name="Rectangle 35460" width="6.832" height="3.416" transform="translate(3915.649 913.595)" fill="#e7e7fe"/>
      <rect id="Rectangle_35461" data-name="Rectangle 35461" width="10.247" height="3.416" transform="translate(3901.986 923.842)" fill="#e7e7fe"/>
      <rect id="Rectangle_35462" data-name="Rectangle 35462" width="23.91" height="3.416" transform="translate(3895.154 889.685)" fill="#fff"/>
      <rect id="Rectangle_35463" data-name="Rectangle 35463" width="23.91" height="3.416" transform="translate(3895.154 893.1)" fill="#fff"/>
      <rect id="Rectangle_35464" data-name="Rectangle 35464" width="6.832" height="3.416" transform="translate(3884.907 889.685)" fill="#fff"/>
      <rect id="Rectangle_35465" data-name="Rectangle 35465" width="17.079" height="3.416" transform="translate(3898.57 886.269)" fill="#fff"/>
      <rect id="Rectangle_35466" data-name="Rectangle 35466" width="44.405" height="3.416" transform="translate(3878.076 896.516)" fill="#fff"/>
      <rect id="Rectangle_35467" data-name="Rectangle 35467" width="47.82" height="3.416" transform="translate(3874.66 899.932)" fill="#fff"/>
    </g>
    <g id="Group_497" data-name="Group 497">
      <rect id="Rectangle_35468" data-name="Rectangle 35468" width="10.247" height="3.416" transform="translate(3888.323 896.516)" fill="#e7e7fe"/>
      <rect id="Rectangle_35469" data-name="Rectangle 35469" width="6.831" height="3.416" transform="translate(3891.739 893.1)" fill="#e7e7fe"/>
      <rect id="Rectangle_35470" data-name="Rectangle 35470" width="6.832" height="3.416" transform="translate(3901.986 899.932)" fill="#e7e7fe"/>
      <rect id="Rectangle_35471" data-name="Rectangle 35471" width="3.416" height="3.416" transform="translate(3908.817 903.347)" fill="#e7e7fe"/>
      <rect id="Rectangle_35472" data-name="Rectangle 35472" width="3.416" height="6.832" transform="translate(3898.57 896.516)" fill="#e7e7fe"/>
    </g>
  </g>
</svg>
