<svg xmlns="http://www.w3.org/2000/svg" width="143.461" height="54.652" viewBox="0 0 143.461 54.652">
  <g id="Group_571" data-name="Group 571" transform="translate(-2518.823 -381.348)">
    <g id="Group_568" data-name="Group 568">
      <rect id="Rectangle_36741" data-name="Rectangle 36741" width="17.079" height="3.416" transform="translate(2576.891 384.763)" fill="#fff"/>
      <rect id="Rectangle_36742" data-name="Rectangle 36742" width="6.831" height="3.416" transform="translate(2583.722 381.348)" fill="#fff"/>
      <rect id="Rectangle_36743" data-name="Rectangle 36743" width="34.157" height="3.416" transform="translate(2570.059 388.179)" fill="#fff"/>
      <rect id="Rectangle_36744" data-name="Rectangle 36744" width="47.82" height="3.416" transform="translate(2563.228 391.595)" fill="#fff"/>
      <rect id="Rectangle_36745" data-name="Rectangle 36745" width="68.315" height="3.416" transform="translate(2552.98 395.01)" fill="#fff"/>
      <rect id="Rectangle_36746" data-name="Rectangle 36746" width="88.809" height="3.416" transform="translate(2542.733 398.426)" fill="#fff"/>
      <rect id="Rectangle_36747" data-name="Rectangle 36747" width="99.056" height="3.416" transform="translate(2539.292 401.842)" fill="#fff"/>
      <rect id="Rectangle_36748" data-name="Rectangle 36748" width="109.304" height="3.416" transform="translate(2532.486 405.258)" fill="#fff"/>
      <rect id="Rectangle_36749" data-name="Rectangle 36749" width="112.719" height="3.416" transform="translate(2532.486 408.673)" fill="#fff"/>
      <rect id="Rectangle_36750" data-name="Rectangle 36750" width="122.966" height="3.416" transform="translate(2529.07 412.089)" fill="#fff"/>
      <rect id="Rectangle_36751" data-name="Rectangle 36751" width="129.798" height="3.416" transform="translate(2525.655 415.505)" fill="#fff"/>
      <rect id="Rectangle_36752" data-name="Rectangle 36752" width="140.045" height="3.416" transform="translate(2522.239 418.921)" fill="#fff"/>
      <rect id="Rectangle_36753" data-name="Rectangle 36753" width="140.045" height="3.416" transform="translate(2518.823 422.336)" fill="#fff"/>
      <rect id="Rectangle_36754" data-name="Rectangle 36754" width="133.214" height="3.416" transform="translate(2522.239 425.752)" fill="#fff"/>
      <rect id="Rectangle_36755" data-name="Rectangle 36755" width="126.382" height="3.416" transform="translate(2525.655 429.168)" fill="#e7e7fe"/>
      <rect id="Rectangle_36756" data-name="Rectangle 36756" width="112.719" height="3.416" transform="translate(2532.486 432.584)" fill="#e7e7fe"/>
    </g>
    <g id="Group_569" data-name="Group 569">
      <rect id="Rectangle_36757" data-name="Rectangle 36757" width="13.663" height="3.416" transform="translate(2597.385 412.089)" fill="#e7e7fe"/>
      <rect id="Rectangle_36758" data-name="Rectangle 36758" width="13.663" height="3.416" transform="translate(2604.217 415.505)" fill="#e7e7fe"/>
      <rect id="Rectangle_36759" data-name="Rectangle 36759" width="6.831" height="3.416" transform="translate(2583.722 418.921)" fill="#e7e7fe"/>
      <rect id="Rectangle_36760" data-name="Rectangle 36760" width="13.663" height="3.416" transform="translate(2607.632 418.921)" fill="#e7e7fe"/>
      <rect id="Rectangle_36761" data-name="Rectangle 36761" width="17.079" height="3.416" transform="translate(2638.374 425.752)" fill="#e7e7fe"/>
      <rect id="Rectangle_36762" data-name="Rectangle 36762" width="13.663" height="3.416" transform="translate(2645.205 422.336)" fill="#e7e7fe"/>
      <rect id="Rectangle_36763" data-name="Rectangle 36763" width="10.152" height="3.416" transform="translate(2652.132 418.921)" fill="#e7e7fe"/>
      <rect id="Rectangle_36764" data-name="Rectangle 36764" width="3.416" height="6.832" transform="translate(2621.295 418.921)" fill="#e7e7fe"/>
      <rect id="Rectangle_36765" data-name="Rectangle 36765" width="3.416" height="3.416" transform="translate(2624.711 422.336)" fill="#e7e7fe"/>
      <rect id="Rectangle_36766" data-name="Rectangle 36766" width="3.416" height="3.416" transform="translate(2580.306 422.336)" fill="#e7e7fe"/>
      <rect id="Rectangle_36767" data-name="Rectangle 36767" width="3.416" height="3.416" transform="translate(2628.127 425.752)" fill="#e7e7fe"/>
      <rect id="Rectangle_36768" data-name="Rectangle 36768" width="6.832" height="3.416" transform="translate(2590.554 415.505)" fill="#e7e7fe"/>
    </g>
    <g id="Group_570" data-name="Group 570">
      <rect id="Rectangle_36769" data-name="Rectangle 36769" width="17.079" height="3.416" transform="translate(2552.98 395.01)" fill="#e7e7fe"/>
      <rect id="Rectangle_36770" data-name="Rectangle 36770" width="40.989" height="3.416" transform="translate(2522.239 425.752)" fill="#e7e7fe"/>
      <rect id="Rectangle_36771" data-name="Rectangle 36771" width="23.91" height="3.416" transform="translate(2518.823 422.336)" fill="#e7e7fe"/>
      <rect id="Rectangle_36772" data-name="Rectangle 36772" width="10.247" height="3.416" transform="translate(2522.239 418.921)" fill="#e7e7fe"/>
      <rect id="Rectangle_36773" data-name="Rectangle 36773" width="3.416" height="3.416" transform="translate(2525.655 415.505)" fill="#e7e7fe"/>
      <rect id="Rectangle_36774" data-name="Rectangle 36774" width="3.416" height="3.416" transform="translate(2652.037 415.505)" fill="#e7e7fe"/>
      <rect id="Rectangle_36775" data-name="Rectangle 36775" width="6.831" height="3.416" transform="translate(2563.228 391.595)" fill="#e7e7fe"/>
      <rect id="Rectangle_36776" data-name="Rectangle 36776" width="17.079" height="3.416" transform="translate(2563.228 398.426)" fill="#e7e7fe"/>
      <rect id="Rectangle_36777" data-name="Rectangle 36777" width="13.663" height="3.416" transform="translate(2570.059 401.842)" fill="#e7e7fe"/>
      <rect id="Rectangle_36778" data-name="Rectangle 36778" width="6.832" height="3.416" transform="translate(2580.306 405.258)" fill="#e7e7fe"/>
      <rect id="Rectangle_36779" data-name="Rectangle 36779" width="3.416" height="3.416" transform="translate(2587.138 408.673)" fill="#e7e7fe"/>
      <rect id="Rectangle_36780" data-name="Rectangle 36780" width="3.416" height="3.416" transform="translate(2583.627 381.348)" fill="#e7e7fe"/>
      <rect id="Rectangle_36781" data-name="Rectangle 36781" width="3.416" height="3.416" transform="translate(2607.537 405.258)" fill="#e7e7fe"/>
      <rect id="Rectangle_36782" data-name="Rectangle 36782" width="3.416" height="3.416" transform="translate(2550.58 412.089)" fill="#e7e7fe"/>
      <rect id="Rectangle_36783" data-name="Rectangle 36783" width="3.416" height="3.416" transform="translate(2553.995 408.673)" fill="#e7e7fe"/>
      <rect id="Rectangle_36784" data-name="Rectangle 36784" width="3.416" height="3.416" transform="translate(2617.879 395.01)" fill="#e7e7fe"/>
      <rect id="Rectangle_36785" data-name="Rectangle 36785" width="3.416" height="3.416" transform="translate(2634.958 401.842)" fill="#e7e7fe"/>
      <rect id="Rectangle_36786" data-name="Rectangle 36786" width="3.416" height="3.416" transform="translate(2539.292 401.842)" fill="#e7e7fe"/>
      <path id="Path_1230" data-name="Path 1230" d="M2604.217,388.179l-10.247-.013v3.416l10.247.013Z" fill="#e7e7fe"/>
      <rect id="Rectangle_36787" data-name="Rectangle 36787" width="3.416" height="3.416" transform="translate(2570.059 395.01)" fill="#e7e7fe"/>
    </g>
  </g>
</svg>
