<svg xmlns="http://www.w3.org/2000/svg" width="70.785" height="70.783" viewBox="0 0 70.785 70.783"><g transform="translate(-3786.72 -438.217)"><rect width="4.441" height="4.402" transform="translate(3853.065 482.456)"/><rect width="4.441" height="4.446" transform="translate(3853.065 478.01)"/><rect width="4.441" height="4.402" transform="translate(3853.065 473.609)"/><rect width="4.441" height="4.446" transform="translate(3853.065 469.162)"/><rect width="4.441" height="4.402" transform="translate(3853.065 464.761)"/><rect width="4.441" height="4.446" transform="translate(3853.065 460.315)"/><rect width="4.396" height="4.402" transform="translate(3848.668 491.304)"/><rect width="4.396" height="4.446" transform="translate(3848.668 486.858)"/><rect width="4.396" height="4.402" transform="translate(3848.668 482.456)" fill="#ffdd1a"/><rect width="4.396" height="4.446" transform="translate(3848.668 478.01)" fill="#ffdd1a"/><rect width="4.396" height="4.402" transform="translate(3848.668 473.609)" fill="#ffdd1a"/><rect width="4.396" height="4.446" transform="translate(3848.668 469.162)" fill="#ffdd1a"/><rect width="4.396" height="4.402" transform="translate(3848.668 464.761)" fill="#ffdd1a"/><rect width="4.396" height="4.446" transform="translate(3848.668 460.315)" fill="#ffdd1a"/><rect width="4.396" height="4.402" transform="translate(3848.668 455.913)"/><rect width="4.396" height="4.446" transform="translate(3848.668 451.467)"/><rect width="4.441" height="4.446" transform="translate(3844.228 495.706)"/><rect width="4.441" height="4.402" transform="translate(3844.228 491.304)" fill="#ffdd1a"/><rect width="4.441" height="4.446" transform="translate(3844.228 486.858)" fill="#ffdd1a"/><rect width="4.441" height="4.402" transform="translate(3844.228 482.456)" fill="#ea9e09"/><rect width="4.441" height="4.446" transform="translate(3844.228 478.01)" fill="#ea9e09"/><rect width="4.441" height="4.402" transform="translate(3844.228 473.609)" fill="#ea9e09"/><rect width="4.441" height="4.446" transform="translate(3844.228 469.162)" fill="#ea9e09"/><rect width="4.441" height="4.402" transform="translate(3844.228 464.761)" fill="#ea9e09"/><rect width="4.441" height="4.446" transform="translate(3844.228 460.315)" fill="#ea9e09"/><rect width="4.441" height="4.402" transform="translate(3844.228 455.913)" fill="#ffdd1a"/><rect width="4.441" height="4.446" transform="translate(3844.228 451.467)" fill="#ffdd1a"/><rect width="4.441" height="4.402" transform="translate(3844.228 447.065)"/><rect width="4.441" height="4.402" transform="translate(3839.787 500.152)"/><rect width="4.441" height="4.446" transform="translate(3839.787 495.706)" fill="#ffdd1a"/><rect width="4.441" height="4.402" transform="translate(3839.787 491.304)" fill="#ea9e09"/><rect width="4.441" height="4.446" transform="translate(3839.787 486.858)" fill="#ea9e09"/><rect width="4.441" height="4.402" transform="translate(3839.787 482.456)" fill="#ffdd1a"/><rect width="4.441" height="4.446" transform="translate(3839.787 478.01)" fill="#ffdd1a"/><rect width="4.441" height="4.402" transform="translate(3839.787 473.609)" fill="#ffdd1a"/><rect width="4.441" height="4.446" transform="translate(3839.787 469.162)" fill="#ffdd1a"/><rect width="4.441" height="4.402" transform="translate(3839.787 464.761)" fill="#ffdd1a"/><rect width="4.441" height="4.446" transform="translate(3839.787 460.315)" fill="#ffdd1a"/><rect width="4.441" height="4.402" transform="translate(3839.787 455.913)" fill="#ea9e09"/><rect width="4.441" height="4.446" transform="translate(3839.787 451.467)" fill="#ea9e09"/><rect width="4.441" height="4.402" transform="translate(3839.787 447.065)" fill="#ffdd1a"/><rect width="4.441" height="4.446" transform="translate(3839.787 442.619)"/><rect width="4.396" height="4.402" transform="translate(3835.391 500.152)"/><rect width="4.396" height="4.446" transform="translate(3835.391 495.706)" fill="#ffdd1a"/><rect width="4.396" height="4.402" transform="translate(3835.391 491.304)" fill="#ea9e09"/><rect width="4.396" height="4.446" transform="translate(3835.391 486.858)" fill="#ffdd1a"/><rect width="4.396" height="4.402" transform="translate(3835.391 482.456)" fill="#ffdd1a"/><rect width="4.396" height="4.446" transform="translate(3835.391 478.01)" fill="#ffdd1a"/><rect width="4.396" height="4.402" transform="translate(3835.391 473.609)" fill="#ffdd1a"/><rect width="4.396" height="4.446" transform="translate(3835.391 469.162)" fill="#ffdd1a"/><rect width="4.396" height="4.402" transform="translate(3835.391 464.761)" fill="#ffdd1a"/><rect width="4.396" height="4.446" transform="translate(3835.391 460.315)" fill="#ffdd1a"/><rect width="4.396" height="4.402" transform="translate(3835.391 455.913)" fill="#ffdd1a"/><rect width="4.396" height="4.446" transform="translate(3835.391 451.467)" fill="#fff"/><rect width="4.396" height="4.402" transform="translate(3835.391 447.065)" fill="#ffdd1a"/><rect width="4.396" height="4.446" transform="translate(3835.391 442.619)"/><rect width="4.441" height="4.446" transform="translate(3830.95 504.554)"/><rect width="4.441" height="4.402" transform="translate(3830.95 500.152)" fill="#ffdd1a"/><rect width="4.441" height="4.446" transform="translate(3830.95 495.706)" fill="#ea9e09"/><rect width="4.441" height="4.402" transform="translate(3830.95 491.304)" fill="#ffdd1a"/><rect width="4.441" height="4.446" transform="translate(3830.95 486.858)" fill="#ffdd1a"/><rect width="4.441" height="4.402" transform="translate(3830.95 482.456)" fill="#ffdd1a"/><rect width="4.441" height="4.446" transform="translate(3830.95 478.01)" fill="#ffdd1a"/><rect width="4.441" height="4.402" transform="translate(3830.95 473.609)" fill="#ffdd1a"/><rect width="4.441" height="4.446" transform="translate(3830.95 469.162)" fill="#ffdd1a"/><rect width="4.441" height="4.402" transform="translate(3830.95 464.761)" fill="#ffdd1a"/><rect width="4.441" height="4.446" transform="translate(3830.95 460.315)" fill="#ffdd1a"/><rect width="4.441" height="4.402" transform="translate(3830.95 455.913)" fill="#ffdd1a"/><rect width="4.441" height="4.446" transform="translate(3830.95 451.467)" fill="#ffdd1a"/><rect width="4.441" height="4.402" transform="translate(3830.95 447.065)" fill="#fff"/><rect width="4.441" height="4.446" transform="translate(3830.95 442.619)" fill="#ffdd1a"/><rect width="4.441" height="4.402" transform="translate(3830.95 438.217)"/><rect width="4.441" height="4.446" transform="translate(3826.509 504.554)"/><rect width="4.441" height="4.402" transform="translate(3826.509 500.152)" fill="#ffdd1a"/><rect width="4.441" height="4.446" transform="translate(3826.509 495.706)" fill="#ea9e09"/><rect width="4.441" height="4.402" transform="translate(3826.509 491.304)" fill="#ffdd1a"/><rect width="4.441" height="4.446" transform="translate(3826.509 486.858)" fill="#ea9e09"/><rect width="4.441" height="4.402" transform="translate(3826.509 482.456)" fill="#ea9e09"/><rect width="4.441" height="4.446" transform="translate(3826.509 478.01)" fill="#ea9e09"/><rect width="4.441" height="4.402" transform="translate(3826.509 473.609)" fill="#ea9e09"/><rect width="4.441" height="4.446" transform="translate(3826.509 469.162)" fill="#ea9e09"/><rect width="4.441" height="4.402" transform="translate(3826.509 464.761)" fill="#ea9e09"/><rect width="4.441" height="4.446" transform="translate(3826.509 460.315)" fill="#ea9e09"/><rect width="4.441" height="4.402" transform="translate(3826.509 455.913)" fill="#ea9e09"/><rect width="4.441" height="4.446" transform="translate(3826.509 451.467)" fill="#ffdd1a"/><rect width="4.441" height="4.402" transform="translate(3826.509 447.065)" fill="#fff"/><rect width="4.441" height="4.446" transform="translate(3826.509 442.619)" fill="#ffdd1a"/><rect width="4.441" height="4.402" transform="translate(3826.509 438.217)"/><rect width="4.396" height="4.446" transform="translate(3822.113 504.554)"/><rect width="4.396" height="4.402" transform="translate(3822.113 500.152)" fill="#ffdd1a"/><rect width="4.396" height="4.446" transform="translate(3822.113 495.706)" fill="#ea9e09"/><rect width="4.396" height="4.402" transform="translate(3822.113 491.304)" fill="#ffdd1a"/><rect width="4.396" height="4.446" transform="translate(3822.113 486.858)" fill="#ea9e09"/><rect width="4.396" height="4.402" transform="translate(3822.113 482.456)" fill="#ffdd1a"/><rect width="4.396" height="4.446" transform="translate(3822.113 478.01)" fill="#ffdd1a"/><rect width="4.396" height="4.402" transform="translate(3822.113 473.609)" fill="#ffdd1a"/><rect width="4.396" height="4.446" transform="translate(3822.113 469.162)" fill="#ffdd1a"/><rect width="4.396" height="4.402" transform="translate(3822.113 464.761)" fill="#ffdd1a"/><rect width="4.396" height="4.446" transform="translate(3822.113 460.315)" fill="#ffdd1a"/><rect width="4.396" height="4.402" transform="translate(3822.113 455.913)" fill="#fff"/><rect width="4.396" height="4.446" transform="translate(3822.113 451.467)" fill="#ffdd1a"/><rect width="4.396" height="4.402" transform="translate(3822.113 447.065)" fill="#fff"/><rect width="4.396" height="4.446" transform="translate(3822.113 442.619)" fill="#ffdd1a"/><rect width="4.396" height="4.402" transform="translate(3822.113 438.217)"/><rect width="4.441" height="4.446" transform="translate(3817.672 504.554)"/><rect width="4.441" height="4.402" transform="translate(3817.672 500.152)" fill="#ffdd1a"/><rect width="4.441" height="4.446" transform="translate(3817.672 495.706)" fill="#ea9e09"/><rect width="4.441" height="4.402" transform="translate(3817.672 491.304)" fill="#ffdd1a"/><rect width="4.441" height="4.446" transform="translate(3817.672 486.858)" fill="#ea9e09"/><rect width="4.441" height="4.402" transform="translate(3817.672 482.456)" fill="#ffdd1a"/><rect width="4.441" height="4.446" transform="translate(3817.672 478.01)" fill="#ffdd1a"/><rect width="4.441" height="4.402" transform="translate(3817.672 473.609)" fill="#ffdd1a"/><rect width="4.441" height="4.446" transform="translate(3817.672 469.162)" fill="#ffdd1a"/><rect width="4.441" height="4.402" transform="translate(3817.672 464.761)" fill="#ffdd1a"/><rect width="4.441" height="4.446" transform="translate(3817.672 460.315)" fill="#ffdd1a"/><rect width="4.441" height="4.402" transform="translate(3817.672 455.913)" fill="#fff"/><rect width="4.441" height="4.446" transform="translate(3817.672 451.467)" fill="#ffdd1a"/><rect width="4.441" height="4.402" transform="translate(3817.672 447.065)" fill="#fff"/><rect width="4.441" height="4.446" transform="translate(3817.672 442.619)" fill="#ffdd1a"/><rect width="4.441" height="4.402" transform="translate(3817.672 438.217)"/><rect width="4.396" height="4.446" transform="translate(3813.276 504.554)"/><rect width="4.396" height="4.402" transform="translate(3813.276 500.152)" fill="#ffdd1a"/><rect width="4.396" height="4.446" transform="translate(3813.276 495.706)" fill="#ea9e09"/><rect width="4.396" height="4.402" transform="translate(3813.276 491.304)" fill="#ffdd1a"/><rect width="4.396" height="4.446" transform="translate(3813.276 486.858)" fill="#fff"/><rect width="4.396" height="4.402" transform="translate(3813.276 482.456)" fill="#fff"/><rect width="4.396" height="4.446" transform="translate(3813.276 478.01)" fill="#fff"/><rect width="4.396" height="4.402" transform="translate(3813.276 473.609)" fill="#fff"/><rect width="4.396" height="4.446" transform="translate(3813.276 469.162)" fill="#fff"/><rect width="4.396" height="4.402" transform="translate(3813.276 464.761)" fill="#fff"/><rect width="4.396" height="4.446" transform="translate(3813.276 460.315)" fill="#fff"/><rect width="4.396" height="4.402" transform="translate(3813.276 455.913)" fill="#fff"/><rect width="4.396" height="4.446" transform="translate(3813.276 451.467)" fill="#ffdd1a"/><rect width="4.396" height="4.402" transform="translate(3813.276 447.065)" fill="#fff"/><rect width="4.396" height="4.446" transform="translate(3813.276 442.619)" fill="#ffdd1a"/><rect width="4.396" height="4.402" transform="translate(3813.276 438.217)"/><rect width="4.441" height="4.446" transform="translate(3808.835 504.554)"/><rect width="4.441" height="4.402" transform="translate(3808.835 500.152)" fill="#ffdd1a"/><rect width="4.441" height="4.446" transform="translate(3808.835 495.706)" fill="#ea9e09"/><rect width="4.441" height="4.402" transform="translate(3808.835 491.304)" fill="#ffdd1a"/><rect width="4.441" height="4.446" transform="translate(3808.835 486.858)" fill="#ffdd1a"/><rect width="4.441" height="4.402" transform="translate(3808.835 482.456)" fill="#ffdd1a"/><rect width="4.441" height="4.446" transform="translate(3808.835 478.01)" fill="#ffdd1a"/><rect width="4.441" height="4.402" transform="translate(3808.835 473.609)" fill="#ffdd1a"/><rect width="4.441" height="4.446" transform="translate(3808.835 469.162)" fill="#ffdd1a"/><rect width="4.441" height="4.402" transform="translate(3808.835 464.761)" fill="#ffdd1a"/><rect width="4.441" height="4.446" transform="translate(3808.835 460.315)" fill="#ffdd1a"/><rect width="4.441" height="4.402" transform="translate(3808.835 455.913)" fill="#ffdd1a"/><rect width="4.441" height="4.446" transform="translate(3808.835 451.467)" fill="#ffdd1a"/><rect width="4.441" height="4.402" transform="translate(3808.835 447.065)" fill="#fff"/><rect width="4.441" height="4.446" transform="translate(3808.835 442.619)" fill="#ffdd1a"/><rect width="4.441" height="4.402" transform="translate(3808.835 438.217)"/><rect width="4.441" height="4.402" transform="translate(3804.394 500.152)"/><rect width="4.441" height="4.446" transform="translate(3804.394 495.706)" fill="#ffdd1a"/><rect width="4.441" height="4.402" transform="translate(3804.394 491.304)" fill="#ea9e09"/><rect width="4.441" height="4.446" transform="translate(3804.394 486.858)" fill="#ffdd1a"/><rect width="4.441" height="4.402" transform="translate(3804.394 482.456)" fill="#ffdd1a"/><rect width="4.441" height="4.446" transform="translate(3804.394 478.01)" fill="#ffdd1a"/><rect width="4.441" height="4.402" transform="translate(3804.394 473.609)" fill="#ffdd1a"/><rect width="4.441" height="4.446" transform="translate(3804.394 469.162)" fill="#ffdd1a"/><rect width="4.441" height="4.402" transform="translate(3804.394 464.761)" fill="#ffdd1a"/><rect width="4.441" height="4.446" transform="translate(3804.394 460.315)" fill="#ffdd1a"/><rect width="4.441" height="4.402" transform="translate(3804.394 455.913)" fill="#ffdd1a"/><rect width="4.441" height="4.446" transform="translate(3804.394 451.467)" fill="#fff"/><rect width="4.441" height="4.402" transform="translate(3804.394 447.065)" fill="#ffdd1a"/><rect width="4.441" height="4.446" transform="translate(3804.394 442.619)"/><rect width="4.396" height="4.402" transform="translate(3799.998 500.152)"/><rect width="4.396" height="4.446" transform="translate(3799.998 495.706)" fill="#ffdd1a"/><rect width="4.396" height="4.402" transform="translate(3799.998 491.304)" fill="#ea9e09"/><rect width="4.396" height="4.446" transform="translate(3799.998 486.858)" fill="#fff"/><rect width="4.396" height="4.402" transform="translate(3799.998 482.456)" fill="#ffdd1a"/><rect width="4.396" height="4.446" transform="translate(3799.998 478.01)" fill="#ffdd1a"/><rect width="4.396" height="4.402" transform="translate(3799.998 473.609)" fill="#ffdd1a"/><rect width="4.396" height="4.446" transform="translate(3799.998 469.162)" fill="#ffdd1a"/><rect width="4.396" height="4.402" transform="translate(3799.998 464.761)" fill="#ffdd1a"/><rect width="4.396" height="4.446" transform="translate(3799.998 460.315)" fill="#ffdd1a"/><rect width="4.396" height="4.402" transform="translate(3799.998 455.913)" fill="#fff"/><rect width="4.396" height="4.446" transform="translate(3799.998 451.467)" fill="#fff"/><rect width="4.396" height="4.402" transform="translate(3799.998 447.065)" fill="#ffdd1a"/><rect width="4.396" height="4.446" transform="translate(3799.998 442.619)"/><rect width="4.441" height="4.446" transform="translate(3795.557 495.706)"/><rect width="4.441" height="4.402" transform="translate(3795.557 491.304)" fill="#ffdd1a"/><rect width="4.441" height="4.446" transform="translate(3795.557 486.858)" fill="#ffdd1a"/><rect width="4.441" height="4.402" transform="translate(3795.557 482.456)" fill="#fff"/><rect width="4.441" height="4.446" transform="translate(3795.557 478.01)" fill="#fff"/><rect width="4.441" height="4.402" transform="translate(3795.557 473.609)" fill="#fff"/><rect width="4.441" height="4.446" transform="translate(3795.557 469.162)" fill="#fff"/><rect width="4.441" height="4.402" transform="translate(3795.557 464.761)" fill="#fff"/><rect width="4.441" height="4.446" transform="translate(3795.557 460.315)" fill="#fff"/><rect width="4.441" height="4.402" transform="translate(3795.557 455.913)" fill="#ffdd1a"/><rect width="4.441" height="4.446" transform="translate(3795.557 451.467)" fill="#ffdd1a"/><rect width="4.441" height="4.402" transform="translate(3795.557 447.065)"/><rect width="4.441" height="4.402" transform="translate(3791.116 491.304)"/><rect width="4.441" height="4.446" transform="translate(3791.116 486.858)"/><rect width="4.441" height="4.402" transform="translate(3791.116 482.456)" fill="#ffdd1a"/><rect width="4.441" height="4.446" transform="translate(3791.116 478.01)" fill="#ffdd1a"/><rect width="4.441" height="4.402" transform="translate(3791.116 473.609)" fill="#ffdd1a"/><rect width="4.441" height="4.446" transform="translate(3791.116 469.162)" fill="#ffdd1a"/><rect width="4.441" height="4.402" transform="translate(3791.116 464.761)" fill="#ffdd1a"/><rect width="4.441" height="4.446" transform="translate(3791.116 460.315)" fill="#ffdd1a"/><rect width="4.441" height="4.402" transform="translate(3791.116 455.913)"/><rect width="4.441" height="4.446" transform="translate(3791.116 451.467)"/><rect width="4.396" height="4.446" transform="translate(3786.72 486.858)"/><rect width="4.396" height="4.402" transform="translate(3786.72 482.456)"/><rect width="4.396" height="4.446" transform="translate(3786.72 478.01)"/><rect width="4.396" height="4.402" transform="translate(3786.72 473.609)"/><rect width="4.396" height="4.446" transform="translate(3786.72 469.162)"/><rect width="4.396" height="4.402" transform="translate(3786.72 464.761)"/><rect width="4.396" height="4.446" transform="translate(3786.72 460.315)"/></g></svg>