<svg xmlns="http://www.w3.org/2000/svg" width="234.574" height="234.574" viewBox="0 0 234.574 234.574"><g transform="translate(-2602.713 -518.713)"><path d="M2610.532,604.723h-7.819v7.82h7.819v-7.82Z" fill="#8f8f8f" fill-rule="evenodd"/><path d="M2610.532,612.543h-7.819v7.819h7.819v-7.819Z" fill="#5b5b5b" fill-rule="evenodd"/><path d="M2610.532,620.362h-7.819v7.819h7.819v-7.819Z" fill="#5b5b5b" fill-rule="evenodd"/><path d="M2610.532,628.181h-7.819V636h7.819v-7.819Z" fill="#8f8f8f" fill-rule="evenodd"/><path d="M2610.532,636h-7.819v7.819h7.819V636Z" fill="#818181" fill-rule="evenodd"/><path d="M2610.532,643.819h-7.819v7.819h7.819v-7.819Z" fill="#818181" fill-rule="evenodd"/><path d="M2610.532,651.638h-7.819v7.819h7.819v-7.819Z" fill="#818181" fill-rule="evenodd"/><path d="M2610.532,659.457h-7.819v7.82h7.819v-7.82Z" fill="#8f8f8f" fill-rule="evenodd"/><path d="M2618.351,581.266h-7.819v7.819h7.819v-7.819Z" fill="#464646" fill-rule="evenodd"/><path d="M2618.351,589.085h-7.819V596.9h7.819v-7.819Z" fill="#464646" fill-rule="evenodd"/><path d="M2618.351,596.9h-7.819v7.819h7.819V596.9Z" fill="#8f8f8f" fill-rule="evenodd"/><path d="M2618.351,604.723h-7.819v7.82h7.819v-7.82Z" fill="#8f8f8f" fill-rule="evenodd"/><path d="M2618.351,612.543h-7.819v7.819h7.819v-7.819Z" fill="#8f8f8f" fill-rule="evenodd"/><path d="M2618.351,620.362h-7.819v7.819h7.819v-7.819Z" fill="#464646" fill-rule="evenodd"/><path d="M2618.351,628.181h-7.819V636h7.819v-7.819Z" fill="#5b5b5b" fill-rule="evenodd"/><path d="M2618.351,636h-7.819v7.819h7.819V636Z" fill="#8f8f8f" fill-rule="evenodd"/><path d="M2618.351,643.819h-7.819v7.819h7.819v-7.819Z" fill="#464646" fill-rule="evenodd"/><path d="M2618.351,651.638h-7.819v7.819h7.819v-7.819Z" fill="#818181" fill-rule="evenodd"/><path d="M2618.351,659.457h-7.819v7.82h7.819v-7.82Z" fill="#818181" fill-rule="evenodd"/><path d="M2618.351,667.277h-7.819V675.1h7.819v-7.819Z" fill="#8f8f8f" fill-rule="evenodd"/><path d="M2618.351,675.1h-7.819v7.819h7.819V675.1Z" fill="#8f8f8f" fill-rule="evenodd"/><path d="M2618.351,682.915h-7.819v7.819h7.819v-7.819Z" fill="#8f8f8f" fill-rule="evenodd"/><path d="M2626.17,573.447h-7.819v7.819h7.819v-7.819Z" fill="#8f8f8f" fill-rule="evenodd"/><path d="M2626.17,581.266h-7.819v7.819h7.819v-7.819Z" fill="#464646" fill-rule="evenodd"/><path d="M2626.17,589.085h-7.819V596.9h7.819v-7.819Z" fill="#464646" fill-rule="evenodd"/><path d="M2626.17,596.9h-7.819v7.819h7.819V596.9Z" fill="#464646" fill-rule="evenodd"/><path d="M2626.17,604.723h-7.819v7.82h7.819v-7.82Z" fill="#464646" fill-rule="evenodd"/><path d="M2626.17,612.543h-7.819v7.819h7.819v-7.819Z" fill="#464646" fill-rule="evenodd"/><path d="M2626.17,620.362h-7.819v7.819h7.819v-7.819Z" fill="#8f8f8f" fill-rule="evenodd"/><path d="M2626.17,628.181h-7.819V636h7.819v-7.819Z" fill="#464646" fill-rule="evenodd"/><path d="M2626.17,636h-7.819v7.819h7.819V636Z" fill="#464646" fill-rule="evenodd"/><path d="M2626.17,643.819h-7.819v7.819h7.819v-7.819Z" fill="#464646" fill-rule="evenodd"/><path d="M2626.17,651.638h-7.819v7.819h7.819v-7.819Z" fill="#464646" fill-rule="evenodd"/><path d="M2626.17,659.457h-7.819v7.82h7.819v-7.82Z" fill="#8f8f8f" fill-rule="evenodd"/><path d="M2626.17,667.277h-7.819V675.1h7.819v-7.819Z" fill="#8f8f8f" fill-rule="evenodd"/><path d="M2626.17,675.1h-7.819v7.819h7.819V675.1Z" fill="#b2b2b2" fill-rule="evenodd"/><path d="M2626.17,682.915h-7.819v7.819h7.819v-7.819Z" fill="#8f8f8f" fill-rule="evenodd"/><path d="M2626.17,690.734h-7.819v7.819h7.819v-7.819Z" fill="#b2b2b2" fill-rule="evenodd"/><path d="M2633.989,557.808h-7.819v7.82h7.819v-7.82Z" fill="#8f8f8f" fill-rule="evenodd"/><path d="M2633.989,565.628h-7.819v7.819h7.819v-7.819Z" fill="#464646" fill-rule="evenodd"/><path d="M2633.989,573.447h-7.819v7.819h7.819v-7.819Z" fill="#464646" fill-rule="evenodd"/><path d="M2633.989,581.266h-7.819v7.819h7.819v-7.819Z" fill="#8f8f8f" fill-rule="evenodd"/><path d="M2633.989,589.085h-7.819V596.9h7.819v-7.819Z" fill="#8f8f8f" fill-rule="evenodd"/><path d="M2633.989,596.9h-7.819v7.819h7.819V596.9Z" fill="#464646" fill-rule="evenodd"/><path d="M2633.989,604.723h-7.819v7.82h7.819v-7.82Z" fill="#8f8f8f" fill-rule="evenodd"/><path d="M2633.989,612.543h-7.819v7.819h7.819v-7.819Z" fill="#464646" fill-rule="evenodd"/><path d="M2633.989,620.362h-7.819v7.819h7.819v-7.819Z" fill="#464646" fill-rule="evenodd"/><path d="M2633.989,628.181h-7.819V636h7.819v-7.819Z" fill="#8f8f8f" fill-rule="evenodd"/><path d="M2633.989,636h-7.819v7.819h7.819V636Z" fill="#8f8f8f" fill-rule="evenodd"/><path d="M2633.989,643.819h-7.819v7.819h7.819v-7.819Z" fill="#818181" fill-rule="evenodd"/><path d="M2633.989,651.638h-7.819v7.819h7.819v-7.819Z" fill="#8f8f8f" fill-rule="evenodd"/><path d="M2633.989,659.457h-7.819v7.82h7.819v-7.82Z" fill="#818181" fill-rule="evenodd"/><path d="M2633.989,667.277h-7.819V675.1h7.819v-7.819Z" fill="#818181" fill-rule="evenodd"/><path d="M2633.989,675.1h-7.819v7.819h7.819V675.1Z" fill="#818181" fill-rule="evenodd"/><path d="M2633.989,682.915h-7.819v7.819h7.819v-7.819Z" fill="#b2b2b2" fill-rule="evenodd"/><path d="M2633.989,690.734h-7.819v7.819h7.819v-7.819Z" fill="#8f8f8f" fill-rule="evenodd"/><path d="M2633.989,698.553h-7.819v7.819h7.819v-7.819Z" fill="#8f8f8f" fill-rule="evenodd"/><path d="M2633.989,706.372h-7.819v7.82h7.819v-7.82Z" fill="#8f8f8f" fill-rule="evenodd"/><path d="M2641.808,549.989h-7.819v7.819h7.819v-7.819Z" fill="#464646" fill-rule="evenodd"/><path d="M2641.808,557.808h-7.819v7.82h7.819v-7.82Z" fill="#464646" fill-rule="evenodd"/><path d="M2641.808,565.628h-7.819v7.819h7.819v-7.819Z" fill="#8f8f8f" fill-rule="evenodd"/><path d="M2641.808,573.447h-7.819v7.819h7.819v-7.819Z" fill="#464646" fill-rule="evenodd"/><path d="M2641.808,581.266h-7.819v7.819h7.819v-7.819Z" fill="#464646" fill-rule="evenodd"/><path d="M2641.808,589.085h-7.819V596.9h7.819v-7.819Z" fill="#464646" fill-rule="evenodd"/><path d="M2641.808,596.9h-7.819v7.819h7.819V596.9Z" fill="#464646" fill-rule="evenodd"/><path d="M2641.808,604.723h-7.819v7.82h7.819v-7.82Z" fill="#8f8f8f" fill-rule="evenodd"/><path d="M2641.808,612.543h-7.819v7.819h7.819v-7.819Z" fill="#464646" fill-rule="evenodd"/><path d="M2641.808,620.362h-7.819v7.819h7.819v-7.819Z" fill="#464646" fill-rule="evenodd"/><path d="M2641.808,628.181h-7.819V636h7.819v-7.819Z" fill="#818181" fill-rule="evenodd"/><path d="M2641.808,636h-7.819v7.819h7.819V636Z" fill="#818181" fill-rule="evenodd"/><path d="M2641.808,643.819h-7.819v7.819h7.819v-7.819Z" fill="#464646" fill-rule="evenodd"/><path d="M2641.808,651.638h-7.819v7.819h7.819v-7.819Z" fill="#464646" fill-rule="evenodd"/><path d="M2641.808,659.457h-7.819v7.82h7.819v-7.82Z" fill="#818181" fill-rule="evenodd"/><path d="M2641.808,667.277h-7.819V675.1h7.819v-7.819Z" fill="#8f8f8f" fill-rule="evenodd"/><path d="M2641.808,675.1h-7.819v7.819h7.819V675.1Z" fill="#818181" fill-rule="evenodd"/><path d="M2641.808,682.915h-7.819v7.819h7.819v-7.819Z" fill="#8f8f8f" fill-rule="evenodd"/><path d="M2641.808,690.734h-7.819v7.819h7.819v-7.819Z" fill="#8f8f8f" fill-rule="evenodd"/><path d="M2641.808,698.553h-7.819v7.819h7.819v-7.819Z" fill="#818181" fill-rule="evenodd"/><path d="M2641.808,706.372h-7.819v7.82h7.819v-7.82Z" fill="#818181" fill-rule="evenodd"/><path d="M2641.808,714.192h-7.819v7.819h7.819v-7.819Z" fill="#818181" fill-rule="evenodd"/><path d="M2649.628,542.17h-7.82v7.819h7.82V542.17Z" fill="#464646" fill-rule="evenodd"/><path d="M2649.628,549.989h-7.82v7.819h7.82v-7.819Z" fill="#464646" fill-rule="evenodd"/><path d="M2649.628,557.808h-7.82v7.82h7.82v-7.82Z" fill="#464646" fill-rule="evenodd"/><path d="M2649.628,565.628h-7.82v7.819h7.82v-7.819Z" fill="#464646" fill-rule="evenodd"/><path d="M2649.628,573.447h-7.82v7.819h7.82v-7.819Z" fill="#464646" fill-rule="evenodd"/><path d="M2649.628,581.266h-7.82v7.819h7.82v-7.819Z" fill="#464646" fill-rule="evenodd"/><path d="M2649.628,589.085h-7.82V596.9h7.82v-7.819Z" fill="#464646" fill-rule="evenodd"/><path d="M2649.628,596.9h-7.82v7.819h7.82V596.9Z" fill="#464646" fill-rule="evenodd"/><path d="M2649.628,604.723h-7.82v7.82h7.82v-7.82Z" fill="#464646" fill-rule="evenodd"/><path d="M2649.628,612.543h-7.82v7.819h7.82v-7.819Z" fill="#5b5b5b" fill-rule="evenodd"/><path d="M2649.628,620.362h-7.82v7.819h7.82v-7.819Z" fill="#818181" fill-rule="evenodd"/><path d="M2649.628,628.181h-7.82V636h7.82v-7.819Z" fill="#818181" fill-rule="evenodd"/><path d="M2649.628,636h-7.82v7.819h7.82V636Z" fill="#464646" fill-rule="evenodd"/><path d="M2649.628,643.819h-7.82v7.819h7.82v-7.819Z" fill="#464646" fill-rule="evenodd"/><path d="M2649.628,651.638h-7.82v7.819h7.82v-7.819Z" fill="#464646" fill-rule="evenodd"/><path d="M2649.628,659.457h-7.82v7.82h7.82v-7.82Z" fill="#8f8f8f" fill-rule="evenodd"/><path d="M2649.628,667.277h-7.82V675.1h7.82v-7.819Z" fill="#8f8f8f" fill-rule="evenodd"/><path d="M2649.628,675.1h-7.82v7.819h7.82V675.1Z" fill="#8f8f8f" fill-rule="evenodd"/><path d="M2649.628,682.915h-7.82v7.819h7.82v-7.819Z" fill="#8f8f8f" fill-rule="evenodd"/><path d="M2649.628,690.734h-7.82v7.819h7.82v-7.819Z" fill="#5b5b5b" fill-rule="evenodd"/><path d="M2649.628,698.553h-7.82v7.819h7.82v-7.819Z" fill="#8f8f8f" fill-rule="evenodd"/><path d="M2649.628,706.372h-7.82v7.82h7.82v-7.82Z" fill="#818181" fill-rule="evenodd"/><path d="M2649.628,714.192h-7.82v7.819h7.82v-7.819Z" fill="#818181" fill-rule="evenodd"/><path d="M2649.628,722.011h-7.82v7.819h7.82v-7.819Z" fill="#8f8f8f" fill-rule="evenodd"/><path d="M2657.447,542.17h-7.819v7.819h7.819V542.17Z" fill="#5b5b5b" fill-rule="evenodd"/><path d="M2657.447,549.989h-7.819v7.819h7.819v-7.819Z" fill="#464646" fill-rule="evenodd"/><path d="M2657.447,557.808h-7.819v7.82h7.819v-7.82Z" fill="#5b5b5b" fill-rule="evenodd"/><path d="M2657.447,565.628h-7.819v7.819h7.819v-7.819Z" fill="#464646" fill-rule="evenodd"/><path d="M2657.447,573.447h-7.819v7.819h7.819v-7.819Z" fill="#464646" fill-rule="evenodd"/><path d="M2657.447,581.266h-7.819v7.819h7.819v-7.819Z" fill="#464646" fill-rule="evenodd"/><path d="M2657.447,589.085h-7.819V596.9h7.819v-7.819Z" fill="#747474" fill-rule="evenodd"/><path d="M2657.447,596.9h-7.819v7.819h7.819V596.9Z" fill="#464646" fill-rule="evenodd"/><path d="M2657.447,604.723h-7.819v7.82h7.819v-7.82Z" fill="#464646" fill-rule="evenodd"/><path d="M2657.447,612.543h-7.819v7.819h7.819v-7.819Z" fill="#464646" fill-rule="evenodd"/><path d="M2657.447,620.362h-7.819v7.819h7.819v-7.819Z" fill="#818181" fill-rule="evenodd"/><path d="M2657.447,628.181h-7.819V636h7.819v-7.819Z" fill="#464646" fill-rule="evenodd"/><path d="M2657.447,636h-7.819v7.819h7.819V636Z" fill="#464646" fill-rule="evenodd"/><path d="M2657.447,643.819h-7.819v7.819h7.819v-7.819Z" fill="#464646" fill-rule="evenodd"/><path d="M2657.447,651.638h-7.819v7.819h7.819v-7.819Z" fill="#464646" fill-rule="evenodd"/><path d="M2657.447,659.457h-7.819v7.82h7.819v-7.82Z" fill="#8f8f8f" fill-rule="evenodd"/><path d="M2657.447,667.277h-7.819V675.1h7.819v-7.819Z" fill="#8f8f8f" fill-rule="evenodd"/><path d="M2657.447,675.1h-7.819v7.819h7.819V675.1Z" fill="#8f8f8f" fill-rule="evenodd"/><path d="M2657.447,682.915h-7.819v7.819h7.819v-7.819Z" fill="#5b5b5b" fill-rule="evenodd"/><path d="M2657.447,690.734h-7.819v7.819h7.819v-7.819Z" fill="#5b5b5b" fill-rule="evenodd"/><path d="M2657.447,698.553h-7.819v7.819h7.819v-7.819Z" fill="#8f8f8f" fill-rule="evenodd"/><path d="M2657.447,706.372h-7.819v7.82h7.819v-7.82Z" fill="#8f8f8f" fill-rule="evenodd"/><path d="M2657.447,714.192h-7.819v7.819h7.819v-7.819Z" fill="#818181" fill-rule="evenodd"/><path d="M2657.447,722.011h-7.819v7.819h7.819v-7.819Z" fill="#8f8f8f" fill-rule="evenodd"/><path d="M2665.266,534.351h-7.819v7.819h7.819v-7.819Z" fill="#5b5b5b" fill-rule="evenodd"/><path d="M2665.266,542.17h-7.819v7.819h7.819V542.17Z" fill="#464646" fill-rule="evenodd"/><path d="M2665.266,549.989h-7.819v7.819h7.819v-7.819Z" fill="#464646" fill-rule="evenodd"/><path d="M2665.266,557.808h-7.819v7.82h7.819v-7.82Z" fill="#464646" fill-rule="evenodd"/><path d="M2665.266,565.628h-7.819v7.819h7.819v-7.819Z" fill="#5b5b5b" fill-rule="evenodd"/><path d="M2665.266,573.447h-7.819v7.819h7.819v-7.819Z" fill="#5b5b5b" fill-rule="evenodd"/><path d="M2665.266,581.266h-7.819v7.819h7.819v-7.819Z" fill="#464646" fill-rule="evenodd"/><path d="M2665.266,589.085h-7.819V596.9h7.819v-7.819Z" fill="#464646" fill-rule="evenodd"/><path d="M2665.266,596.9h-7.819v7.819h7.819V596.9Z" fill="#464646" fill-rule="evenodd"/><path d="M2665.266,604.723h-7.819v7.82h7.819v-7.82Z" fill="#5b5b5b" fill-rule="evenodd"/><path d="M2665.266,612.543h-7.819v7.819h7.819v-7.819Z" fill="#464646" fill-rule="evenodd"/><path d="M2665.266,620.362h-7.819v7.819h7.819v-7.819Z" fill="#464646" fill-rule="evenodd"/><path d="M2665.266,628.181h-7.819V636h7.819v-7.819Z" fill="#464646" fill-rule="evenodd"/><path d="M2665.266,636h-7.819v7.819h7.819V636Z" fill="#464646" fill-rule="evenodd"/><path d="M2665.266,643.819h-7.819v7.819h7.819v-7.819Z" fill="#747474" fill-rule="evenodd"/><path d="M2665.266,651.638h-7.819v7.819h7.819v-7.819Z" fill="#464646" fill-rule="evenodd"/><path d="M2665.266,659.457h-7.819v7.82h7.819v-7.82Z" fill="#8f8f8f" fill-rule="evenodd"/><path d="M2665.266,667.277h-7.819V675.1h7.819v-7.819Z" fill="#464646" fill-rule="evenodd"/><path d="M2665.266,675.1h-7.819v7.819h7.819V675.1Z" fill="#8f8f8f" fill-rule="evenodd"/><path d="M2665.266,682.915h-7.819v7.819h7.819v-7.819Z" fill="#8f8f8f" fill-rule="evenodd"/><path d="M2665.266,690.734h-7.819v7.819h7.819v-7.819Z" fill="#a5a5a5" fill-rule="evenodd"/><path d="M2665.266,698.553h-7.819v7.819h7.819v-7.819Z" fill="#a5a5a5" fill-rule="evenodd"/><path d="M2665.266,706.372h-7.819v7.82h7.819v-7.82Z" fill="#5b5b5b" fill-rule="evenodd"/><path d="M2665.266,714.192h-7.819v7.819h7.819v-7.819Z" fill="#8f8f8f" fill-rule="evenodd"/><path d="M2665.266,722.011h-7.819v7.819h7.819v-7.819Z" fill="#8f8f8f" fill-rule="evenodd"/><path d="M2665.266,729.83h-7.819v7.819h7.819V729.83Z" fill="#8f8f8f" fill-rule="evenodd"/><path d="M2673.085,526.532h-7.819v7.819h7.819v-7.819Z" fill="#464646" fill-rule="evenodd"/><path d="M2673.085,534.351h-7.819v7.819h7.819v-7.819Z" fill="#464646" fill-rule="evenodd"/><path d="M2673.085,542.17h-7.819v7.819h7.819V542.17Z" fill="#464646" fill-rule="evenodd"/><path d="M2673.085,549.989h-7.819v7.819h7.819v-7.819Z" fill="#464646" fill-rule="evenodd"/><path d="M2673.085,557.808h-7.819v7.82h7.819v-7.82Z" fill="#464646" fill-rule="evenodd"/><path d="M2673.085,565.628h-7.819v7.819h7.819v-7.819Z" fill="#5b5b5b" fill-rule="evenodd"/><path d="M2673.085,573.447h-7.819v7.819h7.819v-7.819Z" fill="#464646" fill-rule="evenodd"/><path d="M2673.085,581.266h-7.819v7.819h7.819v-7.819Z" fill="#464646" fill-rule="evenodd"/><path d="M2673.085,589.085h-7.819V596.9h7.819v-7.819Z" fill="#464646" fill-rule="evenodd"/><path d="M2673.085,596.9h-7.819v7.819h7.819V596.9Z" fill="#464646" fill-rule="evenodd"/><path d="M2673.085,604.723h-7.819v7.82h7.819v-7.82Z" fill="#464646" fill-rule="evenodd"/><path d="M2673.085,612.543h-7.819v7.819h7.819v-7.819Z" fill="#464646" fill-rule="evenodd"/><path d="M2673.085,620.362h-7.819v7.819h7.819v-7.819Z" fill="#747474" fill-rule="evenodd"/><path d="M2673.085,628.181h-7.819V636h7.819v-7.819Z" fill="#464646" fill-rule="evenodd"/><path d="M2673.085,636h-7.819v7.819h7.819V636Z" fill="#464646" fill-rule="evenodd"/><path d="M2673.085,643.819h-7.819v7.819h7.819v-7.819Z" fill="#464646" fill-rule="evenodd"/><path d="M2673.085,651.638h-7.819v7.819h7.819v-7.819Z" fill="#464646" fill-rule="evenodd"/><path d="M2673.085,659.457h-7.819v7.82h7.819v-7.82Z" fill="#464646" fill-rule="evenodd"/><path d="M2673.085,667.277h-7.819V675.1h7.819v-7.819Z" fill="#464646" fill-rule="evenodd"/><path d="M2673.085,675.1h-7.819v7.819h7.819V675.1Z" fill="#8f8f8f" fill-rule="evenodd"/><path d="M2673.085,682.915h-7.819v7.819h7.819v-7.819Z" fill="#8f8f8f" fill-rule="evenodd"/><path d="M2673.085,690.734h-7.819v7.819h7.819v-7.819Z" fill="#8f8f8f" fill-rule="evenodd"/><path d="M2673.085,698.553h-7.819v7.819h7.819v-7.819Z" fill="#8f8f8f" fill-rule="evenodd"/><path d="M2673.085,706.372h-7.819v7.82h7.819v-7.82Z" fill="#a5a5a5" fill-rule="evenodd"/><path d="M2673.085,714.192h-7.819v7.819h7.819v-7.819Z" fill="#8f8f8f" fill-rule="evenodd"/><path d="M2673.085,722.011h-7.819v7.819h7.819v-7.819Z" fill="#8f8f8f" fill-rule="evenodd"/><path d="M2673.085,729.83h-7.819v7.819h7.819V729.83Z" fill="#a5a5a5" fill-rule="evenodd"/><path d="M2673.085,737.649h-7.819v7.819h7.819v-7.819Z" fill="#818181" fill-rule="evenodd"/><path d="M2680.9,526.532h-7.819v7.819h7.819v-7.819Z" fill="#464646" fill-rule="evenodd"/><path d="M2680.9,534.351h-7.819v7.819h7.819v-7.819Z" fill="#464646" fill-rule="evenodd"/><path d="M2680.9,542.17h-7.819v7.819h7.819V542.17Z" fill="#8f8f8f" fill-rule="evenodd"/><path d="M2680.9,549.989h-7.819v7.819h7.819v-7.819Z" fill="#8f8f8f" fill-rule="evenodd"/><path d="M2680.9,557.808h-7.819v7.82h7.819v-7.82Z" fill="#464646" fill-rule="evenodd"/><path d="M2680.9,565.628h-7.819v7.819h7.819v-7.819Z" fill="#464646" fill-rule="evenodd"/><path d="M2680.9,573.447h-7.819v7.819h7.819v-7.819Z" fill="#464646" fill-rule="evenodd"/><path d="M2680.9,581.266h-7.819v7.819h7.819v-7.819Z" fill="#5b5b5b" fill-rule="evenodd"/><path d="M2680.9,589.085h-7.819V596.9h7.819v-7.819Z" fill="#747474" fill-rule="evenodd"/><path d="M2680.9,596.9h-7.819v7.819h7.819V596.9Z" fill="#464646" fill-rule="evenodd"/><path d="M2680.9,604.723h-7.819v7.82h7.819v-7.82Z" fill="#747474" fill-rule="evenodd"/><path d="M2680.9,612.543h-7.819v7.819h7.819v-7.819Z" fill="#464646" fill-rule="evenodd"/><path d="M2680.9,620.362h-7.819v7.819h7.819v-7.819Z" fill="#464646" fill-rule="evenodd"/><path d="M2680.9,628.181h-7.819V636h7.819v-7.819Z" fill="#464646" fill-rule="evenodd"/><path d="M2680.9,636h-7.819v7.819h7.819V636Z" fill="#5b5b5b" fill-rule="evenodd"/><path d="M2680.9,643.819h-7.819v7.819h7.819v-7.819Z" fill="#464646" fill-rule="evenodd"/><path d="M2680.9,651.638h-7.819v7.819h7.819v-7.819Z" fill="#464646" fill-rule="evenodd"/><path d="M2680.9,659.457h-7.819v7.82h7.819v-7.82Z" fill="#464646" fill-rule="evenodd"/><path d="M2680.9,667.277h-7.819V675.1h7.819v-7.819Z" fill="#464646" fill-rule="evenodd"/><path d="M2680.9,675.1h-7.819v7.819h7.819V675.1Z" fill="#464646" fill-rule="evenodd"/><path d="M2680.9,682.915h-7.819v7.819h7.819v-7.819Z" fill="#464646" fill-rule="evenodd"/><path d="M2680.9,690.734h-7.819v7.819h7.819v-7.819Z" fill="#8f8f8f" fill-rule="evenodd"/><path d="M2680.9,698.553h-7.819v7.819h7.819v-7.819Z" fill="#b2b2b2" fill-rule="evenodd"/><path d="M2680.9,706.372h-7.819v7.82h7.819v-7.82Z" fill="#8f8f8f" fill-rule="evenodd"/><path d="M2680.9,714.192h-7.819v7.819h7.819v-7.819Z" fill="#8f8f8f" fill-rule="evenodd"/><path d="M2680.9,722.011h-7.819v7.819h7.819v-7.819Z" fill="#8f8f8f" fill-rule="evenodd"/><path d="M2680.9,729.83h-7.819v7.819h7.819V729.83Z" fill="#818181" fill-rule="evenodd"/><path d="M2680.9,737.649h-7.819v7.819h7.819v-7.819Z" fill="#8f8f8f" fill-rule="evenodd"/><path d="M2688.723,526.532H2680.9v7.819h7.819v-7.819Z" fill="#464646" fill-rule="evenodd"/><path d="M2688.723,534.351H2680.9v7.819h7.819v-7.819Z" fill="#8f8f8f" fill-rule="evenodd"/><path d="M2688.723,542.17H2680.9v7.819h7.819V542.17Z" fill="#b2b2b2" fill-rule="evenodd"/><path d="M2688.723,549.989H2680.9v7.819h7.819v-7.819Z" fill="#464646" fill-rule="evenodd"/><path d="M2688.723,557.808H2680.9v7.82h7.819v-7.82Z" fill="#464646" fill-rule="evenodd"/><path d="M2688.723,565.628H2680.9v7.819h7.819v-7.819Z" fill="#464646" fill-rule="evenodd"/><path d="M2688.723,573.447H2680.9v7.819h7.819v-7.819Z" fill="#5b5b5b" fill-rule="evenodd"/><path d="M2688.723,581.266H2680.9v7.819h7.819v-7.819Z" fill="#5b5b5b" fill-rule="evenodd"/><path d="M2688.723,589.085H2680.9V596.9h7.819v-7.819Z" fill="#464646" fill-rule="evenodd"/><path d="M2688.723,596.9H2680.9v7.819h7.819V596.9Z" fill="#464646" fill-rule="evenodd"/><path d="M2688.723,604.723H2680.9v7.82h7.819v-7.82Z" fill="#464646" fill-rule="evenodd"/><path d="M2688.723,612.543H2680.9v7.819h7.819v-7.819Z" fill="#464646" fill-rule="evenodd"/><path d="M2688.723,620.362H2680.9v7.819h7.819v-7.819Z" fill="#747474" fill-rule="evenodd"/><path d="M2688.723,628.181H2680.9V636h7.819v-7.819Z" fill="#464646" fill-rule="evenodd"/><path d="M2688.723,636H2680.9v7.819h7.819V636Z" fill="#464646" fill-rule="evenodd"/><path d="M2688.723,643.819H2680.9v7.819h7.819v-7.819Z" fill="#464646" fill-rule="evenodd"/><path d="M2688.723,651.638H2680.9v7.819h7.819v-7.819Z" fill="#464646" fill-rule="evenodd"/><path d="M2688.723,659.457H2680.9v7.82h7.819v-7.82Z" fill="#464646" fill-rule="evenodd"/><path d="M2688.723,667.277H2680.9V675.1h7.819v-7.819Z" fill="#747474" fill-rule="evenodd"/><path d="M2688.723,675.1H2680.9v7.819h7.819V675.1Z" fill="#464646" fill-rule="evenodd"/><path d="M2688.723,682.915H2680.9v7.819h7.819v-7.819Z" fill="#464646" fill-rule="evenodd"/><path d="M2688.723,690.734H2680.9v7.819h7.819v-7.819Z" fill="#b2b2b2" fill-rule="evenodd"/><path d="M2688.723,698.553H2680.9v7.819h7.819v-7.819Z" fill="#b2b2b2" fill-rule="evenodd"/><path d="M2688.723,706.372H2680.9v7.82h7.819v-7.82Z" fill="#8f8f8f" fill-rule="evenodd"/><path d="M2688.723,714.192H2680.9v7.819h7.819v-7.819Z" fill="#8f8f8f" fill-rule="evenodd"/><path d="M2688.723,722.011H2680.9v7.819h7.819v-7.819Z" fill="#a5a5a5" fill-rule="evenodd"/><path d="M2688.723,729.83H2680.9v7.819h7.819V729.83Z" fill="#818181" fill-rule="evenodd"/><path d="M2688.723,737.649H2680.9v7.819h7.819v-7.819Z" fill="#818181" fill-rule="evenodd"/><path d="M2696.543,518.713h-7.82v7.819h7.82v-7.819Z" fill="#747474" fill-rule="evenodd"/><path d="M2696.543,526.532h-7.82v7.819h7.82v-7.819Z" fill="#464646" fill-rule="evenodd"/><path d="M2696.543,534.351h-7.82v7.819h7.82v-7.819Z" fill="#5b5b5b" fill-rule="evenodd"/><path d="M2696.543,542.17h-7.82v7.819h7.82V542.17Z" fill="#8f8f8f" fill-rule="evenodd"/><path d="M2696.543,549.989h-7.82v7.819h7.82v-7.819Z" fill="#8f8f8f" fill-rule="evenodd"/><path d="M2696.543,557.808h-7.82v7.82h7.82v-7.82Z" fill="#464646" fill-rule="evenodd"/><path d="M2696.543,565.628h-7.82v7.819h7.82v-7.819Z" fill="#464646" fill-rule="evenodd"/><path d="M2696.543,573.447h-7.82v7.819h7.82v-7.819Z" fill="#464646" fill-rule="evenodd"/><path d="M2696.543,581.266h-7.82v7.819h7.82v-7.819Z" fill="#464646" fill-rule="evenodd"/><path d="M2696.543,589.085h-7.82V596.9h7.82v-7.819Z" fill="#464646" fill-rule="evenodd"/><path d="M2696.543,596.9h-7.82v7.819h7.82V596.9Z" fill="#464646" fill-rule="evenodd"/><path d="M2696.543,604.723h-7.82v7.82h7.82v-7.82Z" fill="#464646" fill-rule="evenodd"/><path d="M2696.543,612.543h-7.82v7.819h7.82v-7.819Z" fill="#464646" fill-rule="evenodd"/><path d="M2696.543,620.362h-7.82v7.819h7.82v-7.819Z" fill="#464646" fill-rule="evenodd"/><path d="M2696.543,628.181h-7.82V636h7.82v-7.819Z" fill="#464646" fill-rule="evenodd"/><path d="M2696.543,636h-7.82v7.819h7.82V636Z" fill="#464646" fill-rule="evenodd"/><path d="M2696.543,643.819h-7.82v7.819h7.82v-7.819Z" fill="#464646" fill-rule="evenodd"/><path d="M2696.543,651.638h-7.82v7.819h7.82v-7.819Z" fill="#747474" fill-rule="evenodd"/><path d="M2696.543,659.457h-7.82v7.82h7.82v-7.82Z" fill="#464646" fill-rule="evenodd"/><path d="M2696.543,667.277h-7.82V675.1h7.82v-7.819Z" fill="#464646" fill-rule="evenodd"/><path d="M2696.543,675.1h-7.82v7.819h7.82V675.1Z" fill="#464646" fill-rule="evenodd"/><path d="M2696.543,682.915h-7.82v7.819h7.82v-7.819Z" fill="#747474" fill-rule="evenodd"/><path d="M2696.543,690.734h-7.82v7.819h7.82v-7.819Z" fill="#464646" fill-rule="evenodd"/><path d="M2696.543,698.553h-7.82v7.819h7.82v-7.819Z" fill="#8f8f8f" fill-rule="evenodd"/><path d="M2696.543,706.372h-7.82v7.82h7.82v-7.82Z" fill="#a5a5a5" fill-rule="evenodd"/><path d="M2696.543,714.192h-7.82v7.819h7.82v-7.819Z" fill="#a5a5a5" fill-rule="evenodd"/><path d="M2696.543,722.011h-7.82v7.819h7.82v-7.819Z" fill="#818181" fill-rule="evenodd"/><path d="M2696.543,729.83h-7.82v7.819h7.82V729.83Z" fill="#8f8f8f" fill-rule="evenodd"/><path d="M2696.543,737.649h-7.82v7.819h7.82v-7.819Z" fill="#818181" fill-rule="evenodd"/><path d="M2696.543,745.468h-7.82v7.819h7.82v-7.819Z" fill="#8f8f8f" fill-rule="evenodd"/><path d="M2704.362,518.713h-7.819v7.819h7.819v-7.819Z" fill="#b2b2b2" fill-rule="evenodd"/><path d="M2704.362,526.532h-7.819v7.819h7.819v-7.819Z" fill="#747474" fill-rule="evenodd"/><path d="M2704.362,534.351h-7.819v7.819h7.819v-7.819Z" fill="#5b5b5b" fill-rule="evenodd"/><path d="M2704.362,542.17h-7.819v7.819h7.819V542.17Z" fill="#8f8f8f" fill-rule="evenodd"/><path d="M2704.362,549.989h-7.819v7.819h7.819v-7.819Z" fill="#464646" fill-rule="evenodd"/><path d="M2704.362,557.808h-7.819v7.82h7.819v-7.82Z" fill="#464646" fill-rule="evenodd"/><path d="M2704.362,565.628h-7.819v7.819h7.819v-7.819Z" fill="#464646" fill-rule="evenodd"/><path d="M2704.362,573.447h-7.819v7.819h7.819v-7.819Z" fill="#464646" fill-rule="evenodd"/><path d="M2704.362,581.266h-7.819v7.819h7.819v-7.819Z" fill="#747474" fill-rule="evenodd"/><path d="M2704.362,589.085h-7.819V596.9h7.819v-7.819Z" fill="#464646" fill-rule="evenodd"/><path d="M2704.362,596.9h-7.819v7.819h7.819V596.9Z" fill="#464646" fill-rule="evenodd"/><path d="M2704.362,604.723h-7.819v7.82h7.819v-7.82Z" fill="#464646" fill-rule="evenodd"/><path d="M2704.362,612.543h-7.819v7.819h7.819v-7.819Z" fill="#5b5b5b" fill-rule="evenodd"/><path d="M2704.362,620.362h-7.819v7.819h7.819v-7.819Z" fill="#464646" fill-rule="evenodd"/><path d="M2704.362,628.181h-7.819V636h7.819v-7.819Z" fill="#747474" fill-rule="evenodd"/><path d="M2704.362,636h-7.819v7.819h7.819V636Z" fill="#5b5b5b" fill-rule="evenodd"/><path d="M2704.362,643.819h-7.819v7.819h7.819v-7.819Z" fill="#464646" fill-rule="evenodd"/><path d="M2704.362,651.638h-7.819v7.819h7.819v-7.819Z" fill="#464646" fill-rule="evenodd"/><path d="M2704.362,659.457h-7.819v7.82h7.819v-7.82Z" fill="#464646" fill-rule="evenodd"/><path d="M2704.362,667.277h-7.819V675.1h7.819v-7.819Z" fill="#464646" fill-rule="evenodd"/><path d="M2704.362,675.1h-7.819v7.819h7.819V675.1Z" fill="#464646" fill-rule="evenodd"/><path d="M2704.362,682.915h-7.819v7.819h7.819v-7.819Z" fill="#a5a5a5" fill-rule="evenodd"/><path d="M2704.362,690.734h-7.819v7.819h7.819v-7.819Z" fill="#8f8f8f" fill-rule="evenodd"/><path d="M2704.362,698.553h-7.819v7.819h7.819v-7.819Z" fill="#a5a5a5" fill-rule="evenodd"/><path d="M2704.362,706.372h-7.819v7.82h7.819v-7.82Z" fill="#b2b2b2" fill-rule="evenodd"/><path d="M2704.362,714.192h-7.819v7.819h7.819v-7.819Z" fill="#a5a5a5" fill-rule="evenodd"/><path d="M2704.362,722.011h-7.819v7.819h7.819v-7.819Z" fill="#818181" fill-rule="evenodd"/><path d="M2704.362,729.83h-7.819v7.819h7.819V729.83Z" fill="#818181" fill-rule="evenodd"/><path d="M2704.362,737.649h-7.819v7.819h7.819v-7.819Z" fill="#8f8f8f" fill-rule="evenodd"/><path d="M2704.362,745.468h-7.819v7.819h7.819v-7.819Z" fill="#818181" fill-rule="evenodd"/><path d="M2712.181,518.713h-7.819v7.819h7.819v-7.819Z" fill="#747474" fill-rule="evenodd"/><path d="M2712.181,526.532h-7.819v7.819h7.819v-7.819Z" fill="#8f8f8f" fill-rule="evenodd"/><path d="M2712.181,534.351h-7.819v7.819h7.819v-7.819Z" fill="#5b5b5b" fill-rule="evenodd"/><path d="M2712.181,542.17h-7.819v7.819h7.819V542.17Z" fill="#8f8f8f" fill-rule="evenodd"/><path d="M2712.181,549.989h-7.819v7.819h7.819v-7.819Z" fill="#464646" fill-rule="evenodd"/><path d="M2712.181,557.808h-7.819v7.82h7.819v-7.82Z" fill="#464646" fill-rule="evenodd"/><path d="M2712.181,565.628h-7.819v7.819h7.819v-7.819Z" fill="#5b5b5b" fill-rule="evenodd"/><path d="M2712.181,573.447h-7.819v7.819h7.819v-7.819Z" fill="#747474" fill-rule="evenodd"/><path d="M2712.181,581.266h-7.819v7.819h7.819v-7.819Z" fill="#747474" fill-rule="evenodd"/><path d="M2712.181,589.085h-7.819V596.9h7.819v-7.819Z" fill="#b2b2b2" fill-rule="evenodd"/><path d="M2712.181,596.9h-7.819v7.819h7.819V596.9Z" fill="#464646" fill-rule="evenodd"/><path d="M2712.181,604.723h-7.819v7.82h7.819v-7.82Z" fill="#464646" fill-rule="evenodd"/><path d="M2712.181,612.543h-7.819v7.819h7.819v-7.819Z" fill="#5b5b5b" fill-rule="evenodd"/><path d="M2712.181,620.362h-7.819v7.819h7.819v-7.819Z" fill="#5b5b5b" fill-rule="evenodd"/><path d="M2712.181,628.181h-7.819V636h7.819v-7.819Z" fill="#5b5b5b" fill-rule="evenodd"/><path d="M2712.181,636h-7.819v7.819h7.819V636Z" fill="#5b5b5b" fill-rule="evenodd"/><path d="M2712.181,643.819h-7.819v7.819h7.819v-7.819Z" fill="#464646" fill-rule="evenodd"/><path d="M2712.181,651.638h-7.819v7.819h7.819v-7.819Z" fill="#464646" fill-rule="evenodd"/><path d="M2712.181,659.457h-7.819v7.82h7.819v-7.82Z" fill="#464646" fill-rule="evenodd"/><path d="M2712.181,667.277h-7.819V675.1h7.819v-7.819Z" fill="#464646" fill-rule="evenodd"/><path d="M2712.181,675.1h-7.819v7.819h7.819V675.1Z" fill="#a5a5a5" fill-rule="evenodd"/><path d="M2712.181,682.915h-7.819v7.819h7.819v-7.819Z" fill="#8f8f8f" fill-rule="evenodd"/><path d="M2712.181,690.734h-7.819v7.819h7.819v-7.819Z" fill="#8f8f8f" fill-rule="evenodd"/><path d="M2712.181,698.553h-7.819v7.819h7.819v-7.819Z" fill="#a5a5a5" fill-rule="evenodd"/><path d="M2712.181,706.372h-7.819v7.82h7.819v-7.82Z" fill="#b2b2b2" fill-rule="evenodd"/><path d="M2712.181,714.192h-7.819v7.819h7.819v-7.819Z" fill="#b2b2b2" fill-rule="evenodd"/><path d="M2712.181,722.011h-7.819v7.819h7.819v-7.819Z" fill="#b2b2b2" fill-rule="evenodd"/><path d="M2712.181,729.83h-7.819v7.819h7.819V729.83Z" fill="#8f8f8f" fill-rule="evenodd"/><path d="M2712.181,737.649h-7.819v7.819h7.819v-7.819Z" fill="#8f8f8f" fill-rule="evenodd"/><path d="M2712.181,745.468h-7.819v7.819h7.819v-7.819Z" fill="#818181" fill-rule="evenodd"/><path d="M2720,518.713h-7.819v7.819H2720v-7.819Z" fill="#b2b2b2" fill-rule="evenodd"/><path d="M2720,526.532h-7.819v7.819H2720v-7.819Z" fill="#5b5b5b" fill-rule="evenodd"/><path d="M2720,534.351h-7.819v7.819H2720v-7.819Z" fill="#5b5b5b" fill-rule="evenodd"/><path d="M2720,542.17h-7.819v7.819H2720V542.17Z" fill="#8f8f8f" fill-rule="evenodd"/><path d="M2720,549.989h-7.819v7.819H2720v-7.819Z" fill="#8f8f8f" fill-rule="evenodd"/><path d="M2720,557.808h-7.819v7.82H2720v-7.82Z" fill="#464646" fill-rule="evenodd"/><path d="M2720,565.628h-7.819v7.819H2720v-7.819Z" fill="#5b5b5b" fill-rule="evenodd"/><path d="M2720,573.447h-7.819v7.819H2720v-7.819Z" fill="#464646" fill-rule="evenodd"/><path d="M2720,581.266h-7.819v7.819H2720v-7.819Z" fill="#b2b2b2" fill-rule="evenodd"/><path d="M2720,589.085h-7.819V596.9H2720v-7.819Z" fill="#a5a5a5" fill-rule="evenodd"/><path d="M2720,596.9h-7.819v7.819H2720V596.9Z" fill="#464646" fill-rule="evenodd"/><path d="M2720,604.723h-7.819v7.82H2720v-7.82Z" fill="#5b5b5b" fill-rule="evenodd"/><path d="M2720,612.543h-7.819v7.819H2720v-7.819Z" fill="#5b5b5b" fill-rule="evenodd"/><path d="M2720,620.362h-7.819v7.819H2720v-7.819Z" fill="#5b5b5b" fill-rule="evenodd"/><path d="M2720,628.181h-7.819V636H2720v-7.819Z" fill="#585858" fill-rule="evenodd"/><path d="M2720,636h-7.819v7.819H2720V636Z" fill="#464646" fill-rule="evenodd"/><path d="M2720,643.819h-7.819v7.819H2720v-7.819Z" fill="#464646" fill-rule="evenodd"/><path d="M2720,651.638h-7.819v7.819H2720v-7.819Z" fill="#464646" fill-rule="evenodd"/><path d="M2720,659.457h-7.819v7.82H2720v-7.82Z" fill="#464646" fill-rule="evenodd"/><path d="M2720,667.277h-7.819V675.1H2720v-7.819Z" fill="#464646" fill-rule="evenodd"/><path d="M2720,675.1h-7.819v7.819H2720V675.1Z" fill="#464646" fill-rule="evenodd"/><path d="M2720,682.915h-7.819v7.819H2720v-7.819Z" fill="#8f8f8f" fill-rule="evenodd"/><path d="M2720,690.734h-7.819v7.819H2720v-7.819Z" fill="#b2b2b2" fill-rule="evenodd"/><path d="M2720,698.553h-7.819v7.819H2720v-7.819Z" fill="#b2b2b2" fill-rule="evenodd"/><path d="M2720,706.372h-7.819v7.82H2720v-7.82Z" fill="#8f8f8f" fill-rule="evenodd"/><path d="M2720,714.192h-7.819v7.819H2720v-7.819Z" fill="#a5a5a5" fill-rule="evenodd"/><path d="M2720,722.011h-7.819v7.819H2720v-7.819Z" fill="#a5a5a5" fill-rule="evenodd"/><path d="M2720,729.83h-7.819v7.819H2720V729.83Z" fill="#a5a5a5" fill-rule="evenodd"/><path d="M2720,737.649h-7.819v7.819H2720v-7.819Z" fill="#8f8f8f" fill-rule="evenodd"/><path d="M2720,745.468h-7.819v7.819H2720v-7.819Z" fill="#8f8f8f" fill-rule="evenodd"/><path d="M2727.819,518.713H2720v7.819h7.819v-7.819Z" fill="#8f8f8f" fill-rule="evenodd"/><path d="M2727.819,526.532H2720v7.819h7.819v-7.819Z" fill="#b2b2b2" fill-rule="evenodd"/><path d="M2727.819,534.351H2720v7.819h7.819v-7.819Z" fill="#5b5b5b" fill-rule="evenodd"/><path d="M2727.819,542.17H2720v7.819h7.819V542.17Z" fill="#5b5b5b" fill-rule="evenodd"/><path d="M2727.819,549.989H2720v7.819h7.819v-7.819Z" fill="#464646" fill-rule="evenodd"/><path d="M2727.819,557.808H2720v7.82h7.819v-7.82Z" fill="#464646" fill-rule="evenodd"/><path d="M2727.819,565.628H2720v7.819h7.819v-7.819Z" fill="#464646" fill-rule="evenodd"/><path d="M2727.819,573.447H2720v7.819h7.819v-7.819Z" fill="#464646" fill-rule="evenodd"/><path d="M2727.819,581.266H2720v7.819h7.819v-7.819Z" fill="#747474" fill-rule="evenodd"/><path d="M2727.819,589.085H2720V596.9h7.819v-7.819Z" fill="#a5a5a5" fill-rule="evenodd"/><path d="M2727.819,596.9H2720v7.819h7.819V596.9Z" fill="#a5a5a5" fill-rule="evenodd"/><path d="M2727.819,604.723H2720v7.82h7.819v-7.82Z" fill="#4e4e4e" fill-rule="evenodd"/><path d="M2727.819,612.543H2720v7.819h7.819v-7.819Z" fill="#5b5b5b" fill-rule="evenodd"/><path d="M2727.819,620.362H2720v7.819h7.819v-7.819Z" fill="#5b5b5b" fill-rule="evenodd"/><path d="M2727.819,628.181H2720V636h7.819v-7.819Z" fill="#747474" fill-rule="evenodd"/><path d="M2727.819,636H2720v7.819h7.819V636Z" fill="#5b5b5b" fill-rule="evenodd"/><path d="M2727.819,643.819H2720v7.819h7.819v-7.819Z" fill="#464646" fill-rule="evenodd"/><path d="M2727.819,651.638H2720v7.819h7.819v-7.819Z" fill="#464646" fill-rule="evenodd"/><path d="M2727.819,659.457H2720v7.82h7.819v-7.82Z" fill="#464646" fill-rule="evenodd"/><path d="M2727.819,667.277H2720V675.1h7.819v-7.819Z" fill="#464646" fill-rule="evenodd"/><path d="M2727.819,675.1H2720v7.819h7.819V675.1Z" fill="#8f8f8f" fill-rule="evenodd"/><path d="M2727.819,682.915H2720v7.819h7.819v-7.819Z" fill="#8f8f8f" fill-rule="evenodd"/><path d="M2727.819,690.734H2720v7.819h7.819v-7.819Z" fill="#b2b2b2" fill-rule="evenodd"/><path d="M2727.819,698.553H2720v7.819h7.819v-7.819Z" fill="#8f8f8f" fill-rule="evenodd"/><path d="M2727.819,706.372H2720v7.82h7.819v-7.82Z" fill="#a5a5a5" fill-rule="evenodd"/><path d="M2727.819,714.192H2720v7.819h7.819v-7.819Z" fill="#a5a5a5" fill-rule="evenodd"/><path d="M2727.819,722.011H2720v7.819h7.819v-7.819Z" fill="#8f8f8f" fill-rule="evenodd"/><path d="M2727.819,729.83H2720v7.819h7.819V729.83Z" fill="#8f8f8f" fill-rule="evenodd"/><path d="M2727.819,737.649H2720v7.819h7.819v-7.819Z" fill="#8f8f8f" fill-rule="evenodd"/><path d="M2727.819,745.468H2720v7.819h7.819v-7.819Z" fill="#8f8f8f" fill-rule="evenodd"/><path d="M2735.638,518.713h-7.819v7.819h7.819v-7.819Z" fill="#b2b2b2" fill-rule="evenodd"/><path d="M2735.638,526.532h-7.819v7.819h7.819v-7.819Z" fill="#8f8f8f" fill-rule="evenodd"/><path d="M2735.638,534.351h-7.819v7.819h7.819v-7.819Z" fill="#5b5b5b" fill-rule="evenodd"/><path d="M2735.638,542.17h-7.819v7.819h7.819V542.17Z" fill="#8f8f8f" fill-rule="evenodd"/><path d="M2735.638,549.989h-7.819v7.819h7.819v-7.819Z" fill="#464646" fill-rule="evenodd"/><path d="M2735.638,557.808h-7.819v7.82h7.819v-7.82Z" fill="#464646" fill-rule="evenodd"/><path d="M2735.638,565.628h-7.819v7.819h7.819v-7.819Z" fill="#464646" fill-rule="evenodd"/><path d="M2735.638,573.447h-7.819v7.819h7.819v-7.819Z" fill="#464646" fill-rule="evenodd"/><path d="M2735.638,581.266h-7.819v7.819h7.819v-7.819Z" fill="#464646" fill-rule="evenodd"/><path d="M2735.638,589.085h-7.819V596.9h7.819v-7.819Z" fill="#464646" fill-rule="evenodd"/><path d="M2735.638,596.9h-7.819v7.819h7.819V596.9Z" fill="#747474" fill-rule="evenodd"/><path d="M2735.638,604.723h-7.819v7.82h7.819v-7.82Z" fill="#747474" fill-rule="evenodd"/><path d="M2735.638,612.543h-7.819v7.819h7.819v-7.819Z" fill="#464646" fill-rule="evenodd"/><path d="M2735.638,620.362h-7.819v7.819h7.819v-7.819Z" fill="#464646" fill-rule="evenodd"/><path d="M2735.638,628.181h-7.819V636h7.819v-7.819Z" fill="#5b5b5b" fill-rule="evenodd"/><path d="M2735.638,636h-7.819v7.819h7.819V636Z" fill="#747474" fill-rule="evenodd"/><path d="M2735.638,643.819h-7.819v7.819h7.819v-7.819Z" fill="#464646" fill-rule="evenodd"/><path d="M2735.638,651.638h-7.819v7.819h7.819v-7.819Z" fill="#464646" fill-rule="evenodd"/><path d="M2735.638,659.457h-7.819v7.82h7.819v-7.82Z" fill="#464646" fill-rule="evenodd"/><path d="M2735.638,667.277h-7.819V675.1h7.819v-7.819Z" fill="#8f8f8f" fill-rule="evenodd"/><path d="M2735.638,675.1h-7.819v7.819h7.819V675.1Z" fill="#8f8f8f" fill-rule="evenodd"/><path d="M2735.638,682.915h-7.819v7.819h7.819v-7.819Z" fill="#a5a5a5" fill-rule="evenodd"/><path d="M2735.638,690.734h-7.819v7.819h7.819v-7.819Z" fill="#8f8f8f" fill-rule="evenodd"/><path d="M2735.638,698.553h-7.819v7.819h7.819v-7.819Z" fill="#a5a5a5" fill-rule="evenodd"/><path d="M2735.638,706.372h-7.819v7.82h7.819v-7.82Z" fill="#8f8f8f" fill-rule="evenodd"/><path d="M2735.638,714.192h-7.819v7.819h7.819v-7.819Z" fill="#a5a5a5" fill-rule="evenodd"/><path d="M2735.638,722.011h-7.819v7.819h7.819v-7.819Z" fill="#8f8f8f" fill-rule="evenodd"/><path d="M2735.638,729.83h-7.819v7.819h7.819V729.83Z" fill="#8f8f8f" fill-rule="evenodd"/><path d="M2735.638,737.649h-7.819v7.819h7.819v-7.819Z" fill="#8f8f8f" fill-rule="evenodd"/><path d="M2735.638,745.468h-7.819v7.819h7.819v-7.819Z" fill="#8f8f8f" fill-rule="evenodd"/><path d="M2743.457,518.713h-7.819v7.819h7.819v-7.819Z" fill="#8f8f8f" fill-rule="evenodd"/><path d="M2743.457,526.532h-7.819v7.819h7.819v-7.819Z" fill="#8f8f8f" fill-rule="evenodd"/><path d="M2743.457,534.351h-7.819v7.819h7.819v-7.819Z" fill="#5b5b5b" fill-rule="evenodd"/><path d="M2743.457,542.17h-7.819v7.819h7.819V542.17Z" fill="#8f8f8f" fill-rule="evenodd"/><path d="M2743.457,549.989h-7.819v7.819h7.819v-7.819Z" fill="#464646" fill-rule="evenodd"/><path d="M2743.457,557.808h-7.819v7.82h7.819v-7.82Z" fill="#464646" fill-rule="evenodd"/><path d="M2743.457,565.628h-7.819v7.819h7.819v-7.819Z" fill="#464646" fill-rule="evenodd"/><path d="M2743.457,573.447h-7.819v7.819h7.819v-7.819Z" fill="#747474" fill-rule="evenodd"/><path d="M2743.457,581.266h-7.819v7.819h7.819v-7.819Z" fill="#464646" fill-rule="evenodd"/><path d="M2743.457,589.085h-7.819V596.9h7.819v-7.819Z" fill="#5b5b5b" fill-rule="evenodd"/><path d="M2743.457,596.9h-7.819v7.819h7.819V596.9Z" fill="#464646" fill-rule="evenodd"/><path d="M2743.457,604.723h-7.819v7.82h7.819v-7.82Z" fill="#464646" fill-rule="evenodd"/><path d="M2743.457,612.543h-7.819v7.819h7.819v-7.819Z" fill="#5b5b5b" fill-rule="evenodd"/><path d="M2743.457,620.362h-7.819v7.819h7.819v-7.819Z" fill="#464646" fill-rule="evenodd"/><path d="M2743.457,628.181h-7.819V636h7.819v-7.819Z" fill="#464646" fill-rule="evenodd"/><path d="M2743.457,636h-7.819v7.819h7.819V636Z" fill="#464646" fill-rule="evenodd"/><path d="M2743.457,643.819h-7.819v7.819h7.819v-7.819Z" fill="#747474" fill-rule="evenodd"/><path d="M2743.457,651.638h-7.819v7.819h7.819v-7.819Z" fill="#8f8f8f" fill-rule="evenodd"/><path d="M2743.457,659.457h-7.819v7.82h7.819v-7.82Z" fill="#8f8f8f" fill-rule="evenodd"/><path d="M2743.457,667.277h-7.819V675.1h7.819v-7.819Z" fill="#8f8f8f" fill-rule="evenodd"/><path d="M2743.457,675.1h-7.819v7.819h7.819V675.1Z" fill="#8f8f8f" fill-rule="evenodd"/><path d="M2743.457,682.915h-7.819v7.819h7.819v-7.819Z" fill="#8f8f8f" fill-rule="evenodd"/><path d="M2743.457,690.734h-7.819v7.819h7.819v-7.819Z" fill="#8f8f8f" fill-rule="evenodd"/><path d="M2743.457,698.553h-7.819v7.819h7.819v-7.819Z" fill="#a5a5a5" fill-rule="evenodd"/><path d="M2743.457,706.372h-7.819v7.82h7.819v-7.82Z" fill="#8f8f8f" fill-rule="evenodd"/><path d="M2743.457,714.192h-7.819v7.819h7.819v-7.819Z" fill="#8f8f8f" fill-rule="evenodd"/><path d="M2743.457,722.011h-7.819v7.819h7.819v-7.819Z" fill="#8f8f8f" fill-rule="evenodd"/><path d="M2743.457,729.83h-7.819v7.819h7.819V729.83Z" fill="#8f8f8f" fill-rule="evenodd"/><path d="M2743.457,737.649h-7.819v7.819h7.819v-7.819Z" fill="#8f8f8f" fill-rule="evenodd"/><path d="M2743.457,745.468h-7.819v7.819h7.819v-7.819Z" fill="#5b5b5b" fill-rule="evenodd"/><path d="M2751.277,518.713h-7.82v7.819h7.82v-7.819Z" fill="#b2b2b2" fill-rule="evenodd"/><path d="M2751.277,526.532h-7.82v7.819h7.82v-7.819Z" fill="#747474" fill-rule="evenodd"/><path d="M2751.277,534.351h-7.82v7.819h7.82v-7.819Z" fill="#8f8f8f" fill-rule="evenodd"/><path d="M2751.277,542.17h-7.82v7.819h7.82V542.17Z" fill="#8f8f8f" fill-rule="evenodd"/><path d="M2751.277,549.989h-7.82v7.819h7.82v-7.819Z" fill="#5b5b5b" fill-rule="evenodd"/><path d="M2751.277,557.808h-7.82v7.82h7.82v-7.82Z" fill="#464646" fill-rule="evenodd"/><path d="M2751.277,565.628h-7.82v7.819h7.82v-7.819Z" fill="#464646" fill-rule="evenodd"/><path d="M2751.277,573.447h-7.82v7.819h7.82v-7.819Z" fill="#747474" fill-rule="evenodd"/><path d="M2751.277,581.266h-7.82v7.819h7.82v-7.819Z" fill="#464646" fill-rule="evenodd"/><path d="M2751.277,589.085h-7.82V596.9h7.82v-7.819Z" fill="#464646" fill-rule="evenodd"/><path d="M2751.277,596.9h-7.82v7.819h7.82V596.9Z" fill="#464646" fill-rule="evenodd"/><path d="M2751.277,604.723h-7.82v7.82h7.82v-7.82Z" fill="#464646" fill-rule="evenodd"/><path d="M2751.277,612.543h-7.82v7.819h7.82v-7.819Z" fill="#5b5b5b" fill-rule="evenodd"/><path d="M2751.277,620.362h-7.82v7.819h7.82v-7.819Z" fill="#5b5b5b" fill-rule="evenodd"/><path d="M2751.277,628.181h-7.82V636h7.82v-7.819Z" fill="#464646" fill-rule="evenodd"/><path d="M2751.277,636h-7.82v7.819h7.82V636Z" fill="#464646" fill-rule="evenodd"/><path d="M2751.277,643.819h-7.82v7.819h7.82v-7.819Z" fill="#747474" fill-rule="evenodd"/><path d="M2751.277,651.638h-7.82v7.819h7.82v-7.819Z" fill="#747474" fill-rule="evenodd"/><path d="M2751.277,659.457h-7.82v7.82h7.82v-7.82Z" fill="#5b5b5b" fill-rule="evenodd"/><path d="M2751.277,667.277h-7.82V675.1h7.82v-7.819Z" fill="#5b5b5b" fill-rule="evenodd"/><path d="M2751.277,675.1h-7.82v7.819h7.82V675.1Z" fill="#a5a5a5" fill-rule="evenodd"/><path d="M2751.277,682.915h-7.82v7.819h7.82v-7.819Z" fill="#a5a5a5" fill-rule="evenodd"/><path d="M2751.277,690.734h-7.82v7.819h7.82v-7.819Z" fill="#464646" fill-rule="evenodd"/><path d="M2751.277,698.553h-7.82v7.819h7.82v-7.819Z" fill="#8f8f8f" fill-rule="evenodd"/><path d="M2751.277,706.372h-7.82v7.82h7.82v-7.82Z" fill="#8f8f8f" fill-rule="evenodd"/><path d="M2751.277,714.192h-7.82v7.819h7.82v-7.819Z" fill="#8f8f8f" fill-rule="evenodd"/><path d="M2751.277,722.011h-7.82v7.819h7.82v-7.819Z" fill="#a5a5a5" fill-rule="evenodd"/><path d="M2751.277,729.83h-7.82v7.819h7.82V729.83Z" fill="#a5a5a5" fill-rule="evenodd"/><path d="M2751.277,737.649h-7.82v7.819h7.82v-7.819Z" fill="#5b5b5b" fill-rule="evenodd"/><path d="M2751.277,745.468h-7.82v7.819h7.82v-7.819Z" fill="#8f8f8f" fill-rule="evenodd"/><path d="M2759.1,526.532h-7.819v7.819h7.819v-7.819Z" fill="#8f8f8f" fill-rule="evenodd"/><path d="M2759.1,534.351h-7.819v7.819h7.819v-7.819Z" fill="#8f8f8f" fill-rule="evenodd"/><path d="M2759.1,542.17h-7.819v7.819h7.819V542.17Z" fill="#5b5b5b" fill-rule="evenodd"/><path d="M2759.1,549.989h-7.819v7.819h7.819v-7.819Z" fill="#8f8f8f" fill-rule="evenodd"/><path d="M2759.1,557.808h-7.819v7.82h7.819v-7.82Z" fill="#747474" fill-rule="evenodd"/><path d="M2759.1,565.628h-7.819v7.819h7.819v-7.819Z" fill="#747474" fill-rule="evenodd"/><path d="M2759.1,573.447h-7.819v7.819h7.819v-7.819Z" fill="#747474" fill-rule="evenodd"/><path d="M2759.1,581.266h-7.819v7.819h7.819v-7.819Z" fill="#747474" fill-rule="evenodd"/><path d="M2759.1,589.085h-7.819V596.9h7.819v-7.819Z" fill="#464646" fill-rule="evenodd"/><path d="M2759.1,596.9h-7.819v7.819h7.819V596.9Z" fill="#a5a5a5" fill-rule="evenodd"/><path d="M2759.1,604.723h-7.819v7.82h7.819v-7.82Z" fill="#464646" fill-rule="evenodd"/><path d="M2759.1,612.543h-7.819v7.819h7.819v-7.819Z" fill="#464646" fill-rule="evenodd"/><path d="M2759.1,620.362h-7.819v7.819h7.819v-7.819Z" fill="#464646" fill-rule="evenodd"/><path d="M2759.1,628.181h-7.819V636h7.819v-7.819Z" fill="#464646" fill-rule="evenodd"/><path d="M2759.1,636h-7.819v7.819h7.819V636Z" fill="#747474" fill-rule="evenodd"/><path d="M2759.1,643.819h-7.819v7.819h7.819v-7.819Z" fill="#747474" fill-rule="evenodd"/><path d="M2759.1,651.638h-7.819v7.819h7.819v-7.819Z" fill="#464646" fill-rule="evenodd"/><path d="M2759.1,659.457h-7.819v7.82h7.819v-7.82Z" fill="#5b5b5b" fill-rule="evenodd"/><path d="M2759.1,667.277h-7.819V675.1h7.819v-7.819Z" fill="#5b5b5b" fill-rule="evenodd"/><path d="M2759.1,675.1h-7.819v7.819h7.819V675.1Z" fill="#5b5b5b" fill-rule="evenodd"/><path d="M2759.1,682.915h-7.819v7.819h7.819v-7.819Z" fill="#464646" fill-rule="evenodd"/><path d="M2759.1,690.734h-7.819v7.819h7.819v-7.819Z" fill="#464646" fill-rule="evenodd"/><path d="M2759.1,698.553h-7.819v7.819h7.819v-7.819Z" fill="#464646" fill-rule="evenodd"/><path d="M2759.1,706.372h-7.819v7.82h7.819v-7.82Z" fill="#a5a5a5" fill-rule="evenodd"/><path d="M2759.1,714.192h-7.819v7.819h7.819v-7.819Z" fill="#8f8f8f" fill-rule="evenodd"/><path d="M2759.1,722.011h-7.819v7.819h7.819v-7.819Z" fill="#8f8f8f" fill-rule="evenodd"/><path d="M2759.1,729.83h-7.819v7.819h7.819V729.83Z" fill="#5b5b5b" fill-rule="evenodd"/><path d="M2759.1,737.649h-7.819v7.819h7.819v-7.819Z" fill="#8f8f8f" fill-rule="evenodd"/><path d="M2766.915,526.532H2759.1v7.819h7.819v-7.819Z" fill="#b2b2b2" fill-rule="evenodd"/><path d="M2766.915,534.351H2759.1v7.819h7.819v-7.819Z" fill="#8f8f8f" fill-rule="evenodd"/><path d="M2766.915,542.17H2759.1v7.819h7.819V542.17Z" fill="#5b5b5b" fill-rule="evenodd"/><path d="M2766.915,549.989H2759.1v7.819h7.819v-7.819Z" fill="#5b5b5b" fill-rule="evenodd"/><path d="M2766.915,557.808H2759.1v7.82h7.819v-7.82Z" fill="#8f8f8f" fill-rule="evenodd"/><path d="M2766.915,565.628H2759.1v7.819h7.819v-7.819Z" fill="#8f8f8f" fill-rule="evenodd"/><path d="M2766.915,573.447H2759.1v7.819h7.819v-7.819Z" fill="#747474" fill-rule="evenodd"/><path d="M2766.915,581.266H2759.1v7.819h7.819v-7.819Z" fill="#464646" fill-rule="evenodd"/><path d="M2766.915,589.085H2759.1V596.9h7.819v-7.819Z" fill="#a5a5a5" fill-rule="evenodd"/><path d="M2766.915,596.9H2759.1v7.819h7.819V596.9Z" fill="#464646" fill-rule="evenodd"/><path d="M2766.915,604.723H2759.1v7.82h7.819v-7.82Z" fill="#464646" fill-rule="evenodd"/><path d="M2766.915,612.543H2759.1v7.819h7.819v-7.819Z" fill="#464646" fill-rule="evenodd"/><path d="M2766.915,620.362H2759.1v7.819h7.819v-7.819Z" fill="#464646" fill-rule="evenodd"/><path d="M2766.915,628.181H2759.1V636h7.819v-7.819Z" fill="#464646" fill-rule="evenodd"/><path d="M2766.915,636H2759.1v7.819h7.819V636Z" fill="#464646" fill-rule="evenodd"/><path d="M2766.915,643.819H2759.1v7.819h7.819v-7.819Z" fill="#464646" fill-rule="evenodd"/><path d="M2766.915,651.638H2759.1v7.819h7.819v-7.819Z" fill="#464646" fill-rule="evenodd"/><path d="M2766.915,659.457H2759.1v7.82h7.819v-7.82Z" fill="#464646" fill-rule="evenodd"/><path d="M2766.915,667.277H2759.1V675.1h7.819v-7.819Z" fill="#464646" fill-rule="evenodd"/><path d="M2766.915,675.1H2759.1v7.819h7.819V675.1Z" fill="#464646" fill-rule="evenodd"/><path d="M2766.915,682.915H2759.1v7.819h7.819v-7.819Z" fill="#464646" fill-rule="evenodd"/><path d="M2766.915,690.734H2759.1v7.819h7.819v-7.819Z" fill="#464646" fill-rule="evenodd"/><path d="M2766.915,698.553H2759.1v7.819h7.819v-7.819Z" fill="#8f8f8f" fill-rule="evenodd"/><path d="M2766.915,706.372H2759.1v7.82h7.819v-7.82Z" fill="#8f8f8f" fill-rule="evenodd"/><path d="M2766.915,714.192H2759.1v7.819h7.819v-7.819Z" fill="#8f8f8f" fill-rule="evenodd"/><path d="M2766.915,722.011H2759.1v7.819h7.819v-7.819Z" fill="#8f8f8f" fill-rule="evenodd"/><path d="M2766.915,729.83H2759.1v7.819h7.819V729.83Z" fill="#8f8f8f" fill-rule="evenodd"/><path d="M2766.915,737.649H2759.1v7.819h7.819v-7.819Z" fill="#5b5b5b" fill-rule="evenodd"/><path d="M2774.734,526.532h-7.819v7.819h7.819v-7.819Z" fill="#b2b2b2" fill-rule="evenodd"/><path d="M2774.734,534.351h-7.819v7.819h7.819v-7.819Z" fill="#b2b2b2" fill-rule="evenodd"/><path d="M2774.734,542.17h-7.819v7.819h7.819V542.17Z" fill="#5b5b5b" fill-rule="evenodd"/><path d="M2774.734,549.989h-7.819v7.819h7.819v-7.819Z" fill="#8f8f8f" fill-rule="evenodd"/><path d="M2774.734,557.808h-7.819v7.82h7.819v-7.82Z" fill="#8f8f8f" fill-rule="evenodd"/><path d="M2774.734,565.628h-7.819v7.819h7.819v-7.819Z" fill="#8f8f8f" fill-rule="evenodd"/><path d="M2774.734,573.447h-7.819v7.819h7.819v-7.819Z" fill="#8f8f8f" fill-rule="evenodd"/><path d="M2774.734,581.266h-7.819v7.819h7.819v-7.819Z" fill="#8f8f8f" fill-rule="evenodd"/><path d="M2774.734,589.085h-7.819V596.9h7.819v-7.819Z" fill="#a5a5a5" fill-rule="evenodd"/><path d="M2774.734,596.9h-7.819v7.819h7.819V596.9Z" fill="#464646" fill-rule="evenodd"/><path d="M2774.734,604.723h-7.819v7.82h7.819v-7.82Z" fill="#464646" fill-rule="evenodd"/><path d="M2774.734,612.543h-7.819v7.819h7.819v-7.819Z" fill="#747474" fill-rule="evenodd"/><path d="M2774.734,620.362h-7.819v7.819h7.819v-7.819Z" fill="#5b5b5b" fill-rule="evenodd"/><path d="M2774.734,628.181h-7.819V636h7.819v-7.819Z" fill="#464646" fill-rule="evenodd"/><path d="M2774.734,636h-7.819v7.819h7.819V636Z" fill="#464646" fill-rule="evenodd"/><path d="M2774.734,643.819h-7.819v7.819h7.819v-7.819Z" fill="#464646" fill-rule="evenodd"/><path d="M2774.734,651.638h-7.819v7.819h7.819v-7.819Z" fill="#464646" fill-rule="evenodd"/><path d="M2774.734,659.457h-7.819v7.82h7.819v-7.82Z" fill="#464646" fill-rule="evenodd"/><path d="M2774.734,667.277h-7.819V675.1h7.819v-7.819Z" fill="#464646" fill-rule="evenodd"/><path d="M2774.734,675.1h-7.819v7.819h7.819V675.1Z" fill="#8f8f8f" fill-rule="evenodd"/><path d="M2774.734,682.915h-7.819v7.819h7.819v-7.819Z" fill="#8f8f8f" fill-rule="evenodd"/><path d="M2774.734,690.734h-7.819v7.819h7.819v-7.819Z" fill="#8f8f8f" fill-rule="evenodd"/><path d="M2774.734,698.553h-7.819v7.819h7.819v-7.819Z" fill="#a5a5a5" fill-rule="evenodd"/><path d="M2774.734,706.372h-7.819v7.82h7.819v-7.82Z" fill="#8f8f8f" fill-rule="evenodd"/><path d="M2774.734,714.192h-7.819v7.819h7.819v-7.819Z" fill="#5b5b5b" fill-rule="evenodd"/><path d="M2774.734,722.011h-7.819v7.819h7.819v-7.819Z" fill="#5b5b5b" fill-rule="evenodd"/><path d="M2774.734,729.83h-7.819v7.819h7.819V729.83Z" fill="#8f8f8f" fill-rule="evenodd"/><path d="M2774.734,737.649h-7.819v7.819h7.819v-7.819Z" fill="#8f8f8f" fill-rule="evenodd"/><path d="M2782.553,534.351h-7.819v7.819h7.819v-7.819Z" fill="#b2b2b2" fill-rule="evenodd"/><path d="M2782.553,542.17h-7.819v7.819h7.819V542.17Z" fill="#5b5b5b" fill-rule="evenodd"/><path d="M2782.553,549.989h-7.819v7.819h7.819v-7.819Z" fill="#a5a5a5" fill-rule="evenodd"/><path d="M2782.553,557.808h-7.819v7.82h7.819v-7.82Z" fill="#a5a5a5" fill-rule="evenodd"/><path d="M2782.553,565.628h-7.819v7.819h7.819v-7.819Z" fill="#a5a5a5" fill-rule="evenodd"/><path d="M2782.553,573.447h-7.819v7.819h7.819v-7.819Z" fill="#8f8f8f" fill-rule="evenodd"/><path d="M2782.553,581.266h-7.819v7.819h7.819v-7.819Z" fill="#5b5b5b" fill-rule="evenodd"/><path d="M2782.553,589.085h-7.819V596.9h7.819v-7.819Z" fill="#8f8f8f" fill-rule="evenodd"/><path d="M2782.553,596.9h-7.819v7.819h7.819V596.9Z" fill="#5b5b5b" fill-rule="evenodd"/><path d="M2782.553,604.723h-7.819v7.82h7.819v-7.82Z" fill="#5b5b5b" fill-rule="evenodd"/><path d="M2782.553,612.543h-7.819v7.819h7.819v-7.819Z" fill="#5b5b5b" fill-rule="evenodd"/><path d="M2782.553,620.362h-7.819v7.819h7.819v-7.819Z" fill="#5b5b5b" fill-rule="evenodd"/><path d="M2782.553,628.181h-7.819V636h7.819v-7.819Z" fill="#464646" fill-rule="evenodd"/><path d="M2782.553,636h-7.819v7.819h7.819V636Z" fill="#464646" fill-rule="evenodd"/><path d="M2782.553,643.819h-7.819v7.819h7.819v-7.819Z" fill="#464646" fill-rule="evenodd"/><path d="M2782.553,651.638h-7.819v7.819h7.819v-7.819Z" fill="#464646" fill-rule="evenodd"/><path d="M2782.553,659.457h-7.819v7.82h7.819v-7.82Z" fill="#8f8f8f" fill-rule="evenodd"/><path d="M2782.553,667.277h-7.819V675.1h7.819v-7.819Z" fill="#8f8f8f" fill-rule="evenodd"/><path d="M2782.553,675.1h-7.819v7.819h7.819V675.1Z" fill="#8f8f8f" fill-rule="evenodd"/><path d="M2782.553,682.915h-7.819v7.819h7.819v-7.819Z" fill="#8f8f8f" fill-rule="evenodd"/><path d="M2782.553,690.734h-7.819v7.819h7.819v-7.819Z" fill="#a5a5a5" fill-rule="evenodd"/><path d="M2782.553,698.553h-7.819v7.819h7.819v-7.819Z" fill="#8f8f8f" fill-rule="evenodd"/><path d="M2782.553,706.372h-7.819v7.82h7.819v-7.82Z" fill="#8f8f8f" fill-rule="evenodd"/><path d="M2782.553,714.192h-7.819v7.819h7.819v-7.819Z" fill="#8f8f8f" fill-rule="evenodd"/><path d="M2782.553,722.011h-7.819v7.819h7.819v-7.819Z" fill="#5b5b5b" fill-rule="evenodd"/><path d="M2782.553,729.83h-7.819v7.819h7.819V729.83Z" fill="#8f8f8f" fill-rule="evenodd"/><path d="M2790.372,542.17h-7.819v7.819h7.819V542.17Z" fill="#b2b2b2" fill-rule="evenodd"/><path d="M2790.372,549.989h-7.819v7.819h7.819v-7.819Z" fill="#a5a5a5" fill-rule="evenodd"/><path d="M2790.372,557.808h-7.819v7.82h7.819v-7.82Z" fill="#8f8f8f" fill-rule="evenodd"/><path d="M2790.372,565.628h-7.819v7.819h7.819v-7.819Z" fill="#a5a5a5" fill-rule="evenodd"/><path d="M2790.372,573.447h-7.819v7.819h7.819v-7.819Z" fill="#a5a5a5" fill-rule="evenodd"/><path d="M2790.372,581.266h-7.819v7.819h7.819v-7.819Z" fill="#5b5b5b" fill-rule="evenodd"/><path d="M2790.372,589.085h-7.819V596.9h7.819v-7.819Z" fill="#5b5b5b" fill-rule="evenodd"/><path d="M2790.372,596.9h-7.819v7.819h7.819V596.9Z" fill="#5b5b5b" fill-rule="evenodd"/><path d="M2790.372,604.723h-7.819v7.82h7.819v-7.82Z" fill="#8f8f8f" fill-rule="evenodd"/><path d="M2790.372,612.543h-7.819v7.819h7.819v-7.819Z" fill="#5b5b5b" fill-rule="evenodd"/><path d="M2790.372,620.362h-7.819v7.819h7.819v-7.819Z" fill="#5b5b5b" fill-rule="evenodd"/><path d="M2790.372,628.181h-7.819V636h7.819v-7.819Z" fill="#464646" fill-rule="evenodd"/><path d="M2790.372,636h-7.819v7.819h7.819V636Z" fill="#464646" fill-rule="evenodd"/><path d="M2790.372,643.819h-7.819v7.819h7.819v-7.819Z" fill="#464646" fill-rule="evenodd"/><path d="M2790.372,651.638h-7.819v7.819h7.819v-7.819Z" fill="#464646" fill-rule="evenodd"/><path d="M2790.372,659.457h-7.819v7.82h7.819v-7.82Z" fill="#464646" fill-rule="evenodd"/><path d="M2790.372,667.277h-7.819V675.1h7.819v-7.819Z" fill="#464646" fill-rule="evenodd"/><path d="M2790.372,675.1h-7.819v7.819h7.819V675.1Z" fill="#5b5b5b" fill-rule="evenodd"/><path d="M2790.372,682.915h-7.819v7.819h7.819v-7.819Z" fill="#8f8f8f" fill-rule="evenodd"/><path d="M2790.372,690.734h-7.819v7.819h7.819v-7.819Z" fill="#5b5b5b" fill-rule="evenodd"/><path d="M2790.372,698.553h-7.819v7.819h7.819v-7.819Z" fill="#5b5b5b" fill-rule="evenodd"/><path d="M2790.372,706.372h-7.819v7.82h7.819v-7.82Z" fill="#8f8f8f" fill-rule="evenodd"/><path d="M2790.372,714.192h-7.819v7.819h7.819v-7.819Z" fill="#a5a5a5" fill-rule="evenodd"/><path d="M2790.372,722.011h-7.819v7.819h7.819v-7.819Z" fill="#8f8f8f" fill-rule="evenodd"/><path d="M2798.192,542.17h-7.82v7.819h7.82V542.17Z" fill="#b2b2b2" fill-rule="evenodd"/><path d="M2798.192,549.989h-7.82v7.819h7.82v-7.819Z" fill="#b2b2b2" fill-rule="evenodd"/><path d="M2798.192,557.808h-7.82v7.82h7.82v-7.82Z" fill="#8f8f8f" fill-rule="evenodd"/><path d="M2798.192,565.628h-7.82v7.819h7.82v-7.819Z" fill="#5b5b5b" fill-rule="evenodd"/><path d="M2798.192,573.447h-7.82v7.819h7.82v-7.819Z" fill="#5b5b5b" fill-rule="evenodd"/><path d="M2798.192,581.266h-7.82v7.819h7.82v-7.819Z" fill="#a5a5a5" fill-rule="evenodd"/><path d="M2798.192,589.085h-7.82V596.9h7.82v-7.819Z" fill="#8f8f8f" fill-rule="evenodd"/><path d="M2798.192,596.9h-7.82v7.819h7.82V596.9Z" fill="#a5a5a5" fill-rule="evenodd"/><path d="M2798.192,604.723h-7.82v7.82h7.82v-7.82Z" fill="#8f8f8f" fill-rule="evenodd"/><path d="M2798.192,612.543h-7.82v7.819h7.82v-7.819Z" fill="#8f8f8f" fill-rule="evenodd"/><path d="M2798.192,620.362h-7.82v7.819h7.82v-7.819Z" fill="#8f8f8f" fill-rule="evenodd"/><path d="M2798.192,628.181h-7.82V636h7.82v-7.819Z" fill="#8f8f8f" fill-rule="evenodd"/><path d="M2798.192,636h-7.82v7.819h7.82V636Z" fill="#464646" fill-rule="evenodd"/><path d="M2798.192,643.819h-7.82v7.819h7.82v-7.819Z" fill="#464646" fill-rule="evenodd"/><path d="M2798.192,651.638h-7.82v7.819h7.82v-7.819Z" fill="#464646" fill-rule="evenodd"/><path d="M2798.192,659.457h-7.82v7.82h7.82v-7.82Z" fill="#464646" fill-rule="evenodd"/><path d="M2798.192,667.277h-7.82V675.1h7.82v-7.819Z" fill="#464646" fill-rule="evenodd"/><path d="M2798.192,675.1h-7.82v7.819h7.82V675.1Z" fill="#5b5b5b" fill-rule="evenodd"/><path d="M2798.192,682.915h-7.82v7.819h7.82v-7.819Z" fill="#5b5b5b" fill-rule="evenodd"/><path d="M2798.192,690.734h-7.82v7.819h7.82v-7.819Z" fill="#8f8f8f" fill-rule="evenodd"/><path d="M2798.192,698.553h-7.82v7.819h7.82v-7.819Z" fill="#8f8f8f" fill-rule="evenodd"/><path d="M2798.192,706.372h-7.82v7.82h7.82v-7.82Z" fill="#a5a5a5" fill-rule="evenodd"/><path d="M2798.192,714.192h-7.82v7.819h7.82v-7.819Z" fill="#747474" fill-rule="evenodd"/><path d="M2798.192,722.011h-7.82v7.819h7.82v-7.819Z" fill="#b2b2b2" fill-rule="evenodd"/><path d="M2806.011,549.989h-7.819v7.819h7.819v-7.819Z" fill="#b2b2b2" fill-rule="evenodd"/><path d="M2806.011,557.808h-7.819v7.82h7.819v-7.82Z" fill="#b2b2b2" fill-rule="evenodd"/><path d="M2806.011,565.628h-7.819v7.819h7.819v-7.819Z" fill="#5b5b5b" fill-rule="evenodd"/><path d="M2806.011,573.447h-7.819v7.819h7.819v-7.819Z" fill="#8f8f8f" fill-rule="evenodd"/><path d="M2806.011,581.266h-7.819v7.819h7.819v-7.819Z" fill="#a5a5a5" fill-rule="evenodd"/><path d="M2806.011,589.085h-7.819V596.9h7.819v-7.819Z" fill="#a5a5a5" fill-rule="evenodd"/><path d="M2806.011,596.9h-7.819v7.819h7.819V596.9Z" fill="#8f8f8f" fill-rule="evenodd"/><path d="M2806.011,604.723h-7.819v7.82h7.819v-7.82Z" fill="#8f8f8f" fill-rule="evenodd"/><path d="M2806.011,612.543h-7.819v7.819h7.819v-7.819Z" fill="#8f8f8f" fill-rule="evenodd"/><path d="M2806.011,620.362h-7.819v7.819h7.819v-7.819Z" fill="#8f8f8f" fill-rule="evenodd"/><path d="M2806.011,628.181h-7.819V636h7.819v-7.819Z" fill="#8f8f8f" fill-rule="evenodd"/><path d="M2806.011,636h-7.819v7.819h7.819V636Z" fill="#8f8f8f" fill-rule="evenodd"/><path d="M2806.011,643.819h-7.819v7.819h7.819v-7.819Z" fill="#8f8f8f" fill-rule="evenodd"/><path d="M2806.011,651.638h-7.819v7.819h7.819v-7.819Z" fill="#464646" fill-rule="evenodd"/><path d="M2806.011,659.457h-7.819v7.82h7.819v-7.82Z" fill="#464646" fill-rule="evenodd"/><path d="M2806.011,667.277h-7.819V675.1h7.819v-7.819Z" fill="#464646" fill-rule="evenodd"/><path d="M2806.011,675.1h-7.819v7.819h7.819V675.1Z" fill="#464646" fill-rule="evenodd"/><path d="M2806.011,682.915h-7.819v7.819h7.819v-7.819Z" fill="#5b5b5b" fill-rule="evenodd"/><path d="M2806.011,690.734h-7.819v7.819h7.819v-7.819Z" fill="#5b5b5b" fill-rule="evenodd"/><path d="M2806.011,698.553h-7.819v7.819h7.819v-7.819Z" fill="#8f8f8f" fill-rule="evenodd"/><path d="M2806.011,706.372h-7.819v7.82h7.819v-7.82Z" fill="#747474" fill-rule="evenodd"/><path d="M2806.011,714.192h-7.819v7.819h7.819v-7.819Z" fill="#8f8f8f" fill-rule="evenodd"/><path d="M2813.83,557.808h-7.819v7.82h7.819v-7.82Z" fill="#8f8f8f" fill-rule="evenodd"/><path d="M2813.83,565.628h-7.819v7.819h7.819v-7.819Z" fill="#8f8f8f" fill-rule="evenodd"/><path d="M2813.83,573.447h-7.819v7.819h7.819v-7.819Z" fill="#8f8f8f" fill-rule="evenodd"/><path d="M2813.83,581.266h-7.819v7.819h7.819v-7.819Z" fill="#8f8f8f" fill-rule="evenodd"/><path d="M2813.83,589.085h-7.819V596.9h7.819v-7.819Z" fill="#8f8f8f" fill-rule="evenodd"/><path d="M2813.83,596.9h-7.819v7.819h7.819V596.9Z" fill="#747474" fill-rule="evenodd"/><path d="M2813.83,604.723h-7.819v7.82h7.819v-7.82Z" fill="#8f8f8f" fill-rule="evenodd"/><path d="M2813.83,612.543h-7.819v7.819h7.819v-7.819Z" fill="#464646" fill-rule="evenodd"/><path d="M2813.83,620.362h-7.819v7.819h7.819v-7.819Z" fill="#464646" fill-rule="evenodd"/><path d="M2813.83,628.181h-7.819V636h7.819v-7.819Z" fill="#464646" fill-rule="evenodd"/><path d="M2813.83,636h-7.819v7.819h7.819V636Z" fill="#8f8f8f" fill-rule="evenodd"/><path d="M2813.83,643.819h-7.819v7.819h7.819v-7.819Z" fill="#747474" fill-rule="evenodd"/><path d="M2813.83,651.638h-7.819v7.819h7.819v-7.819Z" fill="#8f8f8f" fill-rule="evenodd"/><path d="M2813.83,659.457h-7.819v7.82h7.819v-7.82Z" fill="#464646" fill-rule="evenodd"/><path d="M2813.83,667.277h-7.819V675.1h7.819v-7.819Z" fill="#464646" fill-rule="evenodd"/><path d="M2813.83,675.1h-7.819v7.819h7.819V675.1Z" fill="#5b5b5b" fill-rule="evenodd"/><path d="M2813.83,682.915h-7.819v7.819h7.819v-7.819Z" fill="#8f8f8f" fill-rule="evenodd"/><path d="M2813.83,690.734h-7.819v7.819h7.819v-7.819Z" fill="#8f8f8f" fill-rule="evenodd"/><path d="M2813.83,698.553h-7.819v7.819h7.819v-7.819Z" fill="#8f8f8f" fill-rule="evenodd"/><path d="M2813.83,706.372h-7.819v7.82h7.819v-7.82Z" fill="#8f8f8f" fill-rule="evenodd"/><path d="M2821.649,573.447h-7.819v7.819h7.819v-7.819Z" fill="#8f8f8f" fill-rule="evenodd"/><path d="M2821.649,581.266h-7.819v7.819h7.819v-7.819Z" fill="#8f8f8f" fill-rule="evenodd"/><path d="M2821.649,589.085h-7.819V596.9h7.819v-7.819Z" fill="#8f8f8f" fill-rule="evenodd"/><path d="M2821.649,596.9h-7.819v7.819h7.819V596.9Z" fill="#8f8f8f" fill-rule="evenodd"/><path d="M2821.649,604.723h-7.819v7.82h7.819v-7.82Z" fill="#8f8f8f" fill-rule="evenodd"/><path d="M2821.649,612.543h-7.819v7.819h7.819v-7.819Z" fill="#464646" fill-rule="evenodd"/><path d="M2821.649,620.362h-7.819v7.819h7.819v-7.819Z" fill="#464646" fill-rule="evenodd"/><path d="M2821.649,628.181h-7.819V636h7.819v-7.819Z" fill="#5b5b5b" fill-rule="evenodd"/><path d="M2821.649,636h-7.819v7.819h7.819V636Z" fill="#464646" fill-rule="evenodd"/><path d="M2821.649,643.819h-7.819v7.819h7.819v-7.819Z" fill="#8f8f8f" fill-rule="evenodd"/><path d="M2821.649,651.638h-7.819v7.819h7.819v-7.819Z" fill="#8f8f8f" fill-rule="evenodd"/><path d="M2821.649,659.457h-7.819v7.82h7.819v-7.82Z" fill="#5b5b5b" fill-rule="evenodd"/><path d="M2821.649,667.277h-7.819V675.1h7.819v-7.819Z" fill="#5b5b5b" fill-rule="evenodd"/><path d="M2821.649,675.1h-7.819v7.819h7.819V675.1Z" fill="#8f8f8f" fill-rule="evenodd"/><path d="M2821.649,682.915h-7.819v7.819h7.819v-7.819Z" fill="#8f8f8f" fill-rule="evenodd"/><path d="M2821.649,690.734h-7.819v7.819h7.819v-7.819Z" fill="#8f8f8f" fill-rule="evenodd"/><path d="M2829.468,581.266h-7.819v7.819h7.819v-7.819Z" fill="#8f8f8f" fill-rule="evenodd"/><path d="M2829.468,589.085h-7.819V596.9h7.819v-7.819Z" fill="#8f8f8f" fill-rule="evenodd"/><path d="M2829.468,596.9h-7.819v7.819h7.819V596.9Z" fill="#8f8f8f" fill-rule="evenodd"/><path d="M2829.468,604.723h-7.819v7.82h7.819v-7.82Z" fill="#747474" fill-rule="evenodd"/><path d="M2829.468,612.543h-7.819v7.819h7.819v-7.819Z" fill="#8f8f8f" fill-rule="evenodd"/><path d="M2829.468,620.362h-7.819v7.819h7.819v-7.819Z" fill="#464646" fill-rule="evenodd"/><path d="M2829.468,628.181h-7.819V636h7.819v-7.819Z" fill="#5b5b5b" fill-rule="evenodd"/><path d="M2829.468,636h-7.819v7.819h7.819V636Z" fill="#8f8f8f" fill-rule="evenodd"/><path d="M2829.468,643.819h-7.819v7.819h7.819v-7.819Z" fill="#747474" fill-rule="evenodd"/><path d="M2829.468,651.638h-7.819v7.819h7.819v-7.819Z" fill="#5b5b5b" fill-rule="evenodd"/><path d="M2829.468,659.457h-7.819v7.82h7.819v-7.82Z" fill="#747474" fill-rule="evenodd"/><path d="M2829.468,667.277h-7.819V675.1h7.819v-7.819Z" fill="#8f8f8f" fill-rule="evenodd"/><path d="M2829.468,675.1h-7.819v7.819h7.819V675.1Z" fill="#8f8f8f" fill-rule="evenodd"/><path d="M2829.468,682.915h-7.819v7.819h7.819v-7.819Z" fill="#8f8f8f" fill-rule="evenodd"/><path d="M2837.287,604.723h-7.819v7.82h7.819v-7.82Z" fill="#8f8f8f" fill-rule="evenodd"/><path d="M2837.287,612.543h-7.819v7.819h7.819v-7.819Z" fill="#8f8f8f" fill-rule="evenodd"/><path d="M2837.287,620.362h-7.819v7.819h7.819v-7.819Z" fill="#8f8f8f" fill-rule="evenodd"/><path d="M2837.287,628.181h-7.819V636h7.819v-7.819Z" fill="#8f8f8f" fill-rule="evenodd"/><path d="M2837.287,636h-7.819v7.819h7.819V636Z" fill="#747474" fill-rule="evenodd"/><path d="M2837.287,643.819h-7.819v7.819h7.819v-7.819Z" fill="#8f8f8f" fill-rule="evenodd"/><path d="M2837.287,651.638h-7.819v7.819h7.819v-7.819Z" fill="#8f8f8f" fill-rule="evenodd"/><path d="M2837.287,659.457h-7.819v7.82h7.819v-7.82Z" fill="#8f8f8f" fill-rule="evenodd"/></g></svg>