<svg xmlns="http://www.w3.org/2000/svg" width="145.749" height="55.249" viewBox="0 0 145.749 55.249"><g transform="translate(-5715.856 -688.624)"><g transform="translate(2416 -166.22)"><path d="M3393.857,875.1h6.25v6.249h-6.25V875.1Z" fill="#fff"/><path d="M3400.107,868.847h6.249v6.25h-6.249v-6.25Z" fill="#fff"/></g><g transform="translate(2416 -166.22)"><path d="M3299.857,876.1h6.25v6.249h-6.25V876.1Z" fill="#fff"/><path d="M3306.107,869.847h6.249v6.25h-6.249v-6.25Z" fill="#fff"/><path d="M3306.107,876.1h6.249v6.249h-6.249V876.1Z" fill="#fff"/><path d="M3306.107,882.346h6.249v6.25h-6.249v-6.25Z" fill="#fff"/><path d="M3312.356,876.1h6.25v6.249h-6.25V876.1Z" fill="#fff"/></g><path d="M3377.356,903.844h6.25v6.249h-6.25v-6.249Z" transform="translate(2416 -166.22)" fill="#fff"/><path d="M3374.356,854.844h6.25v6.249h-6.25v-6.249Z" transform="translate(2416 -166.22)" fill="#fff"/><path d="M3439.356,897.844h6.25v6.249h-6.25v-6.249Z" transform="translate(2416 -166.22)" fill="#fff"/></g></svg>