<svg xmlns="http://www.w3.org/2000/svg" width="152.25" height="405.249" viewBox="0 0 152.25 405.249"><g transform="translate(-5202.355 -332.624)"><g transform="translate(2416 -166.22)"><path d="M2809.857,856.1h6.25v6.249h-6.25V856.1Z" fill="#fff"/><path d="M2816.107,849.847h6.249v6.25h-6.249v-6.25Z" fill="#fff"/><path d="M2816.107,856.1h6.249v6.249h-6.249V856.1Z" fill="#fff"/><path d="M2816.107,862.346h6.249v6.25h-6.249v-6.25Z" fill="#fff"/><path d="M2822.356,856.1h6.25v6.249h-6.25V856.1Z" fill="#fff"/></g><path d="M2856.356,861.844h6.25v6.249h-6.25v-6.249Z" transform="translate(2416 -166.22)" fill="#fff"/><path d="M2918.356,855.844h6.25v6.249h-6.25v-6.249Z" transform="translate(2416 -166.22)" fill="#fff"/><path d="M2837.356,897.844h6.25v6.249h-6.25v-6.249Z" transform="translate(2416 -166.22)" fill="#fff"/><g transform="translate(2416 -166.22)"><path d="M2886.857,632.1h6.25v6.249h-6.25V632.1Z" fill="#fff"/><path d="M2893.107,625.847h6.249v6.25h-6.249v-6.25Z" fill="#fff"/><path d="M2893.107,632.1h6.249v6.249h-6.249V632.1Z" fill="#fff"/><path d="M2893.107,638.346h6.249v6.25h-6.249v-6.25Z" fill="#fff"/><path d="M2899.356,632.1h6.25v6.249h-6.25V632.1Z" fill="#fff"/></g><path d="M2870.356,660.844h6.25v6.249h-6.25v-6.249Z" transform="translate(2416 -166.22)" fill="#fff"/><path d="M2932.356,654.844h6.25v6.249h-6.25v-6.249Z" transform="translate(2416 -166.22)" fill="#fff"/><path d="M2786.356,498.844h6.25v6.249h-6.25v-6.249Z" transform="translate(2416 -166.22)" fill="#fff"/></g></svg>