<svg xmlns="http://www.w3.org/2000/svg" width="143.25" height="148.749" viewBox="0 0 143.25 148.749"><g transform="translate(-6192.355 -692.627)"><g transform="translate(2416 -166.22)"><path d="M3900.857,995.1h6.25v6.249h-6.25V995.1Z" fill="#fff"/><path d="M3907.107,988.847h6.249v6.25h-6.249v-6.25Z" fill="#fff"/><path d="M3907.107,995.1h6.249v6.249h-6.249V995.1Z" fill="#fff"/><path d="M3907.107,1001.346h6.249v6.25h-6.249v-6.25Z" fill="#fff"/><path d="M3913.356,995.1h6.25v6.249h-6.25V995.1Z" fill="#fff"/></g><g transform="translate(2416 -166.22)"><path d="M3792.857,865.1h6.25v6.249h-6.25V865.1Z" fill="#fff"/><path d="M3799.107,858.847h6.249v6.25h-6.249v-6.25Z" fill="#fff"/><path d="M3799.107,865.1h6.249v6.249h-6.249V865.1Z" fill="#fff"/><path d="M3799.107,871.346h6.249v6.25h-6.249v-6.25Z" fill="#fff"/><path d="M3805.356,865.1h6.25v6.249h-6.25V865.1Z" fill="#fff"/></g><path d="M3776.356,893.844h6.25v6.249h-6.25v-6.249Z" transform="translate(2416 -166.22)" fill="#fff"/><path d="M3838.356,887.844h6.25v6.249h-6.25v-6.249Z" transform="translate(2416 -166.22)" fill="#fff"/></g></svg>