<svg xmlns="http://www.w3.org/2000/svg" width="130.329" height="97.747" viewBox="0 0 130.329 97.747"><g transform="translate(-4885.525 -2777.874)"><g transform="translate(2374.078 -209)"><rect width="6.516" height="6.516" transform="translate(2609.194 3071.587)" fill="#e5f1f9" opacity="0.4"/><rect width="6.518" height="6.516" transform="translate(2602.676 3071.587)" fill="#e5f1f9" opacity="0.4"/><rect width="6.516" height="6.516" transform="translate(2622.226 3065.071)" fill="#e5f1f9" opacity="0.4"/><rect width="6.516" height="6.516" transform="translate(2615.71 3065.071)" fill="#e5f1f9" opacity="0.4"/><rect width="6.518" height="6.518" transform="translate(2628.742 3052.037)" fill="#e5f1f9" opacity="0.4"/><rect width="6.518" height="6.516" transform="translate(2628.742 3058.555)" fill="#e5f1f9" opacity="0.4"/><rect width="6.518" height="6.516" transform="translate(2628.742 3045.521)" fill="#e5f1f9" opacity="0.4"/><rect width="6.516" height="6.516" transform="translate(2635.26 3025.971)" fill="#e5f1f9" opacity="0.4"/><rect width="6.516" height="6.518" transform="translate(2635.26 3032.487)" fill="#e5f1f9" opacity="0.4"/><rect width="6.516" height="6.516" transform="translate(2635.26 3039.005)" fill="#e5f1f9" opacity="0.4"/><rect width="6.518" height="6.516" transform="translate(2628.742 3019.455)" fill="#e5f1f9" opacity="0.4"/><rect width="6.518" height="6.516" transform="translate(2628.742 3012.939)" fill="#e5f1f9" opacity="0.4"/><rect width="6.518" height="6.518" transform="translate(2628.742 3006.421)" fill="#e5f1f9" opacity="0.4"/><rect width="6.516" height="6.516" transform="translate(2622.226 2999.906)" fill="#e5f1f9" opacity="0.4"/><rect width="6.516" height="6.516" transform="translate(2615.71 2999.906)" fill="#e5f1f9" opacity="0.4"/><rect width="6.516" height="6.516" transform="translate(2609.194 2993.39)" fill="#e5f1f9" opacity="0.4"/><rect width="6.518" height="6.516" transform="translate(2602.676 2993.39)" fill="#e5f1f9" opacity="0.4"/><rect width="6.516" height="6.516" transform="translate(2563.579 2986.874)" fill="#e5f1f9" opacity="0.4"/><rect width="6.516" height="6.516" transform="translate(2557.063 2986.874)" fill="#e5f1f9" opacity="0.4"/><rect width="6.518" height="6.516" transform="translate(2550.545 2986.874)" fill="#e5f1f9" opacity="0.4"/><rect width="6.516" height="6.516" transform="translate(2570.094 2986.874)" fill="#e5f1f9" opacity="0.4"/><rect width="6.516" height="6.516" transform="translate(2589.645 2986.874)" fill="#e5f1f9" opacity="0.4"/><rect width="6.516" height="6.516" transform="translate(2583.128 2986.874)" fill="#e5f1f9" opacity="0.4"/><rect width="6.518" height="6.516" transform="translate(2576.611 2986.874)" fill="#e5f1f9" opacity="0.4"/><rect width="6.516" height="6.516" transform="translate(2596.16 2986.874)" fill="#e5f1f9" opacity="0.4"/><rect width="6.516" height="6.518" transform="translate(2563.579 3078.103)" fill="#e5f1f9" opacity="0.4"/><rect width="6.516" height="6.518" transform="translate(2557.063 3078.103)" fill="#e5f1f9" opacity="0.4"/><rect width="6.518" height="6.518" transform="translate(2550.545 3078.103)" fill="#e5f1f9" opacity="0.4"/><rect width="6.516" height="6.518" transform="translate(2570.094 3078.103)" fill="#e5f1f9" opacity="0.4"/><rect width="6.516" height="6.518" transform="translate(2589.645 3078.103)" fill="#e5f1f9" opacity="0.4"/><rect width="6.516" height="6.518" transform="translate(2583.128 3078.103)" fill="#e5f1f9" opacity="0.4"/><rect width="6.518" height="6.518" transform="translate(2576.611 3078.103)" fill="#e5f1f9" opacity="0.4"/><rect width="6.516" height="6.518" transform="translate(2596.16 3078.103)" fill="#e5f1f9" opacity="0.4"/><rect width="6.516" height="6.516" transform="translate(2544.029 2993.39)" fill="#e5f1f9" opacity="0.4"/><rect width="6.516" height="6.516" transform="translate(2537.513 2993.39)" fill="#e5f1f9" opacity="0.4"/><rect width="6.518" height="6.516" transform="translate(2530.995 2999.906)" fill="#e5f1f9" opacity="0.4"/><rect width="6.516" height="6.516" transform="translate(2524.479 2999.906)" fill="#e5f1f9" opacity="0.4"/><rect width="6.516" height="6.518" transform="translate(2517.963 3006.421)" fill="#e5f1f9" opacity="0.4"/><rect width="6.516" height="6.516" transform="translate(2517.963 3019.455)" fill="#e5f1f9" opacity="0.4"/><rect width="6.516" height="6.516" transform="translate(2517.963 3012.939)" fill="#e5f1f9" opacity="0.4"/><rect width="6.516" height="6.516" transform="translate(2511.447 3025.971)" fill="#e5f1f9" opacity="0.4"/><rect width="6.516" height="6.518" transform="translate(2511.447 3032.487)" fill="#e5f1f9" opacity="0.4"/><rect width="6.516" height="6.516" transform="translate(2511.447 3039.005)" fill="#e5f1f9" opacity="0.4"/><rect width="6.516" height="6.516" transform="translate(2517.963 3045.521)" fill="#e5f1f9" opacity="0.4"/><rect width="6.516" height="6.516" transform="translate(2544.029 3071.587)" fill="#e5f1f9" opacity="0.4"/><rect width="6.516" height="6.516" transform="translate(2537.513 3071.587)" fill="#e5f1f9" opacity="0.4"/><rect width="6.518" height="6.516" transform="translate(2530.995 3065.071)" fill="#e5f1f9" opacity="0.4"/><rect width="6.516" height="6.516" transform="translate(2524.479 3065.071)" fill="#e5f1f9" opacity="0.4"/><rect width="6.516" height="6.516" transform="translate(2517.963 3058.555)" fill="#e5f1f9" opacity="0.4"/><rect width="6.516" height="6.518" transform="translate(2517.963 3052.037)" fill="#e5f1f9" opacity="0.4"/><rect width="6.516" height="6.516" transform="translate(2609.194 3071.587)" fill="#e5f1f9"/><rect width="6.516" height="6.516" transform="translate(2615.71 3065.071)" fill="#e5f1f9"/><rect width="6.516" height="6.518" transform="translate(2596.16 3078.103)" fill="#e5f1f9"/><rect width="6.516" height="6.518" transform="translate(2589.645 3078.103)" fill="#e5f1f9"/><rect width="6.516" height="6.518" transform="translate(2583.128 3078.103)" fill="#e5f1f9"/><rect width="6.518" height="6.518" transform="translate(2576.611 3078.103)" fill="#e5f1f9"/><rect width="6.518" height="6.518" transform="translate(2628.742 3052.037)" fill="#e5f1f9"/><rect width="6.516" height="6.516" transform="translate(2622.226 3065.071)" fill="#e5f1f9"/><rect width="6.516" height="6.516" transform="translate(2563.579 2986.874)" fill="#e5f1f9"/><rect width="6.516" height="6.516" transform="translate(2557.063 2986.874)" fill="#e5f1f9"/><rect width="6.518" height="6.516" transform="translate(2576.611 2986.874)" fill="#e5f1f9"/><rect width="6.516" height="6.516" transform="translate(2570.094 2986.874)" fill="#e5f1f9"/><rect width="6.516" height="6.516" transform="translate(2544.029 2993.39)" fill="#e5f1f9"/><rect width="6.516" height="6.516" transform="translate(2537.513 2993.39)" fill="#e5f1f9"/><rect width="6.516" height="6.516" transform="translate(2524.479 2999.906)" fill="#e5f1f9"/><rect width="6.516" height="6.518" transform="translate(2517.963 3006.421)" fill="#e5f1f9"/><rect width="6.516" height="6.518" transform="translate(2511.447 3032.487)" fill="#e5f1f9"/><rect width="6.516" height="6.516" transform="translate(2511.447 3025.971)" fill="#e5f1f9"/><rect width="6.516" height="6.516" transform="translate(2609.194 3045.521)" fill="#ea88f2"/><rect width="6.516" height="6.516" transform="translate(2589.645 3065.071)" fill="#ea88f2"/><rect width="6.516" height="6.516" transform="translate(2596.16 3058.555)" fill="#d331b0"/><rect width="6.518" height="6.518" transform="translate(2602.676 3052.037)" fill="#d331b0"/><rect width="6.518" height="6.516" transform="translate(2602.676 3058.555)" fill="#d331b0"/><rect width="6.516" height="6.516" transform="translate(2615.71 3012.939)" fill="#ea88f2"/><rect width="6.516" height="6.518" transform="translate(2589.645 3006.421)" fill="#ea88f2"/><rect width="6.518" height="6.518" transform="translate(2576.611 3006.421)" fill="#64d2dd"/><rect width="6.518" height="6.516" transform="translate(2576.611 2999.906)" fill="#64d2dd"/><rect width="6.516" height="6.516" transform="translate(2570.094 3012.939)" fill="#ea88f2"/><rect width="6.516" height="6.518" transform="translate(2570.094 3006.421)" fill="#64d2dd"/><rect width="6.516" height="6.516" transform="translate(2570.094 2999.906)" fill="#64d2dd"/><rect width="6.516" height="6.516" transform="translate(2563.579 3019.455)" fill="#ea88f2"/><rect width="6.516" height="6.516" transform="translate(2563.579 3012.939)" fill="#64d2dd"/><rect width="6.516" height="6.518" transform="translate(2563.579 3006.421)" fill="#64d2dd"/><rect width="6.516" height="6.516" transform="translate(2563.579 2999.906)" fill="#e1feff"/><rect width="6.516" height="6.516" transform="translate(2557.063 3019.455)" fill="#ea88f2"/><rect width="6.516" height="6.516" transform="translate(2557.063 3012.939)" fill="#64d2dd"/><rect width="6.516" height="6.518" transform="translate(2557.063 3006.421)" fill="#e1feff"/><rect width="6.518" height="6.516" transform="translate(2550.545 3025.971)" fill="#ea88f2"/><rect width="6.518" height="6.516" transform="translate(2550.545 3019.455)" fill="#64d2dd"/><rect width="6.518" height="6.516" transform="translate(2550.545 3012.939)" fill="#64d2dd"/><rect width="6.518" height="6.518" transform="translate(2550.545 3006.421)" fill="#e1feff"/><rect width="6.516" height="6.516" transform="translate(2544.029 3025.971)" fill="#64d2dd"/><rect width="6.516" height="6.516" transform="translate(2544.029 3019.455)" fill="#64d2dd"/><rect width="6.516" height="6.516" transform="translate(2544.029 3012.939)" fill="#e1feff"/><rect width="6.516" height="6.518" transform="translate(2544.029 3006.421)" fill="#e1feff"/><rect width="6.516" height="6.518" transform="translate(2537.513 3052.037)" fill="#ea88f2"/><rect width="6.516" height="6.516" transform="translate(2537.513 3039.005)" fill="#ea88f2"/><rect width="6.516" height="6.518" transform="translate(2537.513 3032.487)" fill="#ea88f2"/><rect width="6.516" height="6.516" transform="translate(2537.513 3025.971)" fill="#64d2dd"/><rect width="6.516" height="6.516" transform="translate(2537.513 3019.455)" fill="#64d2dd"/><rect width="6.516" height="6.516" transform="translate(2537.513 3012.939)" fill="#e1feff"/><rect width="6.518" height="6.516" transform="translate(2530.995 3039.005)" fill="#64d2dd"/><rect width="6.518" height="6.518" transform="translate(2530.995 3032.487)" fill="#64d2dd"/><rect width="6.518" height="6.516" transform="translate(2530.995 3025.971)" fill="#64d2dd"/><rect width="6.518" height="6.516" transform="translate(2530.995 3019.455)" fill="#64d2dd"/></g></g></svg>