<svg xmlns="http://www.w3.org/2000/svg" width="381" height="1086.713" viewBox="0 0 381 1086.713"><g transform="translate(-5298.078 -2250.061)"><g transform="translate(2374.078 -209)"><rect width="6.516" height="6.516" transform="translate(3298.484 2511.193)" fill="#e5f1f9" opacity="0.4"/><rect width="6.516" height="6.518" transform="translate(3298.484 2504.675)" fill="#e5f1f9" opacity="0.4"/><rect width="6.516" height="6.516" transform="translate(3298.484 2498.159)" fill="#e5f1f9" opacity="0.4"/><rect width="6.516" height="6.516" transform="translate(3298.484 2491.643)" fill="#e5f1f9" opacity="0.4"/><rect width="6.518" height="6.516" transform="translate(3291.966 2524.225)" fill="#e5f1f9" opacity="0.4"/><rect width="6.518" height="6.516" transform="translate(3291.966 2517.708)" fill="#e5f1f9" opacity="0.4"/><rect width="6.518" height="6.516" transform="translate(3291.966 2485.127)" fill="#e5f1f9" opacity="0.4"/><rect width="6.518" height="6.518" transform="translate(3291.966 2478.609)" fill="#e5f1f9" opacity="0.4"/><rect width="6.516" height="6.518" transform="translate(3285.45 2530.74)" fill="#e5f1f9" opacity="0.4"/><rect width="6.516" height="6.516" transform="translate(3285.45 2472.093)" fill="#e5f1f9" opacity="0.4"/><rect width="6.516" height="6.516" transform="translate(3278.934 2537.258)" fill="#e5f1f9" opacity="0.4"/><rect width="6.516" height="6.516" transform="translate(3278.934 2465.577)" fill="#e5f1f9" opacity="0.4"/><rect width="6.516" height="6.516" transform="translate(3272.418 2537.258)" fill="#e5f1f9" opacity="0.4"/><rect width="6.516" height="6.516" transform="translate(3272.418 2465.577)" fill="#e5f1f9" opacity="0.4"/><rect width="6.518" height="6.516" transform="translate(3265.9 2543.774)" fill="#e5f1f9" opacity="0.4"/><rect width="6.518" height="6.516" transform="translate(3265.9 2459.061)" fill="#e5f1f9" opacity="0.4"/><rect width="6.516" height="6.516" transform="translate(3259.385 2543.774)" fill="#e5f1f9" opacity="0.4"/><rect width="6.516" height="6.516" transform="translate(3259.385 2459.061)" fill="#e5f1f9" opacity="0.4"/><rect width="6.516" height="6.516" transform="translate(3252.868 2543.774)" fill="#e5f1f9" opacity="0.4"/><rect width="6.516" height="6.516" transform="translate(3252.868 2459.061)" fill="#e5f1f9" opacity="0.4"/><rect width="6.516" height="6.516" transform="translate(3246.353 2543.774)" fill="#e5f1f9" opacity="0.4"/><rect width="6.516" height="6.516" transform="translate(3246.353 2459.061)" fill="#e5f1f9" opacity="0.4"/><rect width="6.518" height="6.516" transform="translate(3239.834 2537.258)" fill="#e5f1f9" opacity="0.4"/><rect width="6.518" height="6.516" transform="translate(3239.834 2465.577)" fill="#e5f1f9" opacity="0.4"/><rect width="6.516" height="6.516" transform="translate(3233.319 2537.258)" fill="#e5f1f9" opacity="0.4"/><rect width="6.516" height="6.516" transform="translate(3233.319 2465.577)" fill="#e5f1f9" opacity="0.4"/><rect width="6.516" height="6.518" transform="translate(3226.803 2530.74)" fill="#e5f1f9" opacity="0.4"/><rect width="6.516" height="6.516" transform="translate(3226.803 2472.093)" fill="#e5f1f9" opacity="0.4"/><rect width="6.518" height="6.516" transform="translate(3220.285 2524.225)" fill="#e5f1f9" opacity="0.4"/><rect width="6.518" height="6.516" transform="translate(3220.285 2517.708)" fill="#e5f1f9" opacity="0.4"/><rect width="6.518" height="6.516" transform="translate(3220.285 2485.127)" fill="#e5f1f9" opacity="0.4"/><rect width="6.518" height="6.518" transform="translate(3220.285 2478.609)" fill="#e5f1f9" opacity="0.4"/><rect width="6.516" height="6.516" transform="translate(3213.769 2511.193)" fill="#e5f1f9" opacity="0.4"/><rect width="6.516" height="6.518" transform="translate(3213.769 2504.675)" fill="#e5f1f9" opacity="0.4"/><rect width="6.516" height="6.516" transform="translate(3213.769 2498.159)" fill="#e5f1f9" opacity="0.4"/><rect width="6.516" height="6.516" transform="translate(3213.769 2491.643)" fill="#e5f1f9" opacity="0.4"/><rect width="6.516" height="6.516" transform="translate(3298.484 2511.193)" fill="#e5f1f9"/><rect width="6.516" height="6.518" transform="translate(3298.484 2504.675)" fill="#e5f1f9"/><rect width="6.516" height="6.518" transform="translate(3285.45 2530.74)" fill="#e5f1f9"/><rect width="6.516" height="6.516" transform="translate(3278.934 2537.258)" fill="#e5f1f9"/><rect width="6.518" height="6.516" transform="translate(3265.9 2543.774)" fill="#e5f1f9"/><rect width="6.516" height="6.516" transform="translate(3259.385 2543.774)" fill="#e5f1f9"/><rect width="6.516" height="6.516" transform="translate(3259.385 2459.061)" fill="#e5f1f9"/><rect width="6.516" height="6.516" transform="translate(3252.868 2459.061)" fill="#e5f1f9"/><rect width="6.516" height="6.516" transform="translate(3246.353 2459.061)" fill="#e5f1f9"/><rect width="6.516" height="6.516" transform="translate(3233.319 2465.577)" fill="#e5f1f9"/><rect width="6.516" height="6.516" transform="translate(3226.803 2472.093)" fill="#e5f1f9"/><rect width="6.518" height="6.516" transform="translate(3220.285 2485.127)" fill="#e5f1f9"/><rect width="6.518" height="6.518" transform="translate(3220.285 2478.609)" fill="#e5f1f9"/><rect width="6.516" height="6.518" transform="translate(3213.769 2504.675)" fill="#e5f1f9"/><rect width="6.516" height="6.516" transform="translate(3213.769 2498.159)" fill="#e5f1f9"/><rect width="6.516" height="6.516" transform="translate(3213.769 2491.643)" fill="#e5f1f9"/><rect width="6.516" height="6.516" transform="translate(3278.934 2524.225)" fill="#ea88f2"/><rect width="6.516" height="6.516" transform="translate(3278.934 2517.708)" fill="#d331b0"/><rect width="6.516" height="6.516" transform="translate(3278.934 2485.127)" fill="#d331b0"/><rect width="6.516" height="6.516" transform="translate(3272.418 2524.225)" fill="#d331b0"/><rect width="6.516" height="6.516" transform="translate(3259.385 2472.093)" fill="#ea88f2"/><rect width="6.516" height="6.518" transform="translate(3252.868 2478.609)" fill="#64d2dd"/><rect width="6.516" height="6.516" transform="translate(3252.868 2472.093)" fill="#ea88f2"/><rect width="6.516" height="6.516" transform="translate(3246.353 2485.127)" fill="#d331b0"/><rect width="6.516" height="6.518" transform="translate(3246.353 2478.609)" fill="#64d2dd"/><rect width="6.518" height="6.516" transform="translate(3239.834 2491.643)" fill="#ea88f2"/><rect width="6.518" height="6.516" transform="translate(3239.834 2485.127)" fill="#64d2dd"/><rect width="6.518" height="6.518" transform="translate(3239.834 2478.609)" fill="#e1feff"/><rect width="6.516" height="6.516" transform="translate(3233.319 2511.193)" fill="#ea88f2"/><rect width="6.516" height="6.516" transform="translate(3233.319 2498.159)" fill="#64d2dd"/><rect width="6.516" height="6.516" transform="translate(3233.319 2491.643)" fill="#e1feff"/><rect width="6.516" height="6.516" transform="translate(3233.319 2485.127)" fill="#e1feff"/></g><g transform="translate(2374.078 -209)"><rect width="6.518" height="6.516" transform="translate(3073.879 3480.61)" fill="#e5f1f9" opacity="0.4"/><rect width="6.518" height="6.518" transform="translate(3073.879 3474.093)" fill="#e5f1f9" opacity="0.4"/><rect width="6.518" height="6.516" transform="translate(3073.879 3467.577)" fill="#e5f1f9" opacity="0.4"/><rect width="6.518" height="6.516" transform="translate(3073.879 3461.061)" fill="#e5f1f9" opacity="0.4"/><rect width="6.518" height="6.516" transform="translate(3073.879 3454.545)" fill="#e5f1f9" opacity="0.4"/><rect width="6.518" height="6.518" transform="translate(3073.879 3448.027)" fill="#e5f1f9" opacity="0.4"/><rect width="6.516" height="6.516" transform="translate(3067.363 3493.642)" fill="#e5f1f9" opacity="0.4"/><rect width="6.516" height="6.516" transform="translate(3067.363 3487.126)" fill="#e5f1f9" opacity="0.4"/><rect width="6.516" height="6.516" transform="translate(3067.363 3441.511)" fill="#e5f1f9" opacity="0.4"/><rect width="6.516" height="6.516" transform="translate(3067.363 3434.995)" fill="#e5f1f9" opacity="0.4"/><rect width="6.516" height="6.516" transform="translate(3060.847 3506.676)" fill="#e5f1f9" opacity="0.4"/><rect width="6.516" height="6.518" transform="translate(3060.847 3500.158)" fill="#e5f1f9" opacity="0.4"/><rect width="6.516" height="6.518" transform="translate(3060.847 3428.477)" fill="#e5f1f9" opacity="0.4"/><rect width="6.516" height="6.516" transform="translate(3060.847 3421.961)" fill="#e5f1f9" opacity="0.4"/><rect width="6.516" height="6.516" transform="translate(3054.331 3513.192)" fill="#e5f1f9" opacity="0.4"/><rect width="6.516" height="6.516" transform="translate(3054.331 3415.445)" fill="#e5f1f9" opacity="0.4"/><rect width="6.518" height="6.516" transform="translate(3047.813 3519.708)" fill="#e5f1f9" opacity="0.4"/><rect width="6.518" height="6.516" transform="translate(3047.813 3408.929)" fill="#e5f1f9" opacity="0.4"/><rect width="6.516" height="6.518" transform="translate(3041.297 3526.224)" fill="#e5f1f9" opacity="0.4"/><rect width="6.516" height="6.518" transform="translate(3041.297 3402.411)" fill="#e5f1f9" opacity="0.4"/><rect width="6.516" height="6.518" transform="translate(3034.781 3526.224)" fill="#e5f1f9" opacity="0.4"/><rect width="6.516" height="6.518" transform="translate(3034.781 3402.411)" fill="#e5f1f9" opacity="0.4"/><rect width="6.516" height="6.516" transform="translate(3028.265 3532.742)" fill="#e5f1f9" opacity="0.4"/><rect width="6.516" height="6.516" transform="translate(3028.265 3395.895)" fill="#e5f1f9" opacity="0.4"/><rect width="6.518" height="6.516" transform="translate(3021.747 3532.742)" fill="#e5f1f9" opacity="0.4"/><rect width="6.518" height="6.516" transform="translate(3021.747 3395.895)" fill="#e5f1f9" opacity="0.4"/><rect width="6.516" height="6.516" transform="translate(3015.231 3539.258)" fill="#e5f1f9" opacity="0.4"/><rect width="6.516" height="6.516" transform="translate(3015.231 3389.379)" fill="#e5f1f9" opacity="0.4"/><rect width="6.516" height="6.516" transform="translate(3008.715 3539.258)" fill="#e5f1f9" opacity="0.4"/><rect width="6.516" height="6.516" transform="translate(3008.715 3389.379)" fill="#e5f1f9" opacity="0.4"/><rect width="6.516" height="6.516" transform="translate(3002.199 3539.258)" fill="#e5f1f9" opacity="0.4"/><rect width="6.516" height="6.516" transform="translate(3002.199 3389.379)" fill="#e5f1f9" opacity="0.4"/><rect width="6.518" height="6.516" transform="translate(2995.681 3539.258)" fill="#e5f1f9" opacity="0.4"/><rect width="6.518" height="6.516" transform="translate(2995.681 3389.379)" fill="#e5f1f9" opacity="0.4"/><rect width="6.516" height="6.516" transform="translate(2989.166 3539.258)" fill="#e5f1f9" opacity="0.4"/><rect width="6.516" height="6.516" transform="translate(2989.166 3389.379)" fill="#e5f1f9" opacity="0.4"/><rect width="6.516" height="6.516" transform="translate(2982.649 3539.258)" fill="#e5f1f9" opacity="0.4"/><rect width="6.516" height="6.516" transform="translate(2982.649 3389.379)" fill="#e5f1f9" opacity="0.4"/><rect width="6.518" height="6.516" transform="translate(2976.132 3532.742)" fill="#e5f1f9" opacity="0.4"/><rect width="6.518" height="6.516" transform="translate(2976.132 3395.895)" fill="#e5f1f9" opacity="0.4"/><rect width="6.516" height="6.516" transform="translate(2969.615 3532.742)" fill="#e5f1f9" opacity="0.4"/><rect width="6.516" height="6.516" transform="translate(2969.615 3395.895)" fill="#e5f1f9" opacity="0.4"/><rect width="6.516" height="6.518" transform="translate(2963.1 3526.224)" fill="#e5f1f9" opacity="0.4"/><rect width="6.516" height="6.518" transform="translate(2963.1 3402.411)" fill="#e5f1f9" opacity="0.4"/><rect width="6.516" height="6.518" transform="translate(2956.584 3526.224)" fill="#e5f1f9" opacity="0.4"/><rect width="6.516" height="6.518" transform="translate(2956.584 3402.411)" fill="#e5f1f9" opacity="0.4"/><rect width="6.518" height="6.516" transform="translate(2950.066 3519.708)" fill="#e5f1f9" opacity="0.4"/><rect width="6.518" height="6.516" transform="translate(2950.066 3408.929)" fill="#e5f1f9" opacity="0.4"/><rect width="6.516" height="6.516" transform="translate(2943.55 3513.192)" fill="#e5f1f9" opacity="0.4"/><rect width="6.516" height="6.516" transform="translate(2943.55 3415.445)" fill="#e5f1f9" opacity="0.4"/><rect width="6.516" height="6.516" transform="translate(2937.034 3506.676)" fill="#e5f1f9" opacity="0.4"/><rect width="6.516" height="6.518" transform="translate(2937.034 3500.158)" fill="#e5f1f9" opacity="0.4"/><rect width="6.516" height="6.518" transform="translate(2937.034 3428.477)" fill="#e5f1f9" opacity="0.4"/><rect width="6.516" height="6.516" transform="translate(2937.034 3421.961)" fill="#e5f1f9" opacity="0.4"/><rect width="6.516" height="6.516" transform="translate(2930.518 3493.642)" fill="#e5f1f9" opacity="0.4"/><rect width="6.516" height="6.516" transform="translate(2930.518 3487.126)" fill="#e5f1f9" opacity="0.4"/><rect width="6.516" height="6.516" transform="translate(2930.518 3441.511)" fill="#e5f1f9" opacity="0.4"/><rect width="6.516" height="6.516" transform="translate(2930.518 3434.995)" fill="#e5f1f9" opacity="0.4"/><rect width="6.518" height="6.516" transform="translate(2924 3480.61)" fill="#e5f1f9" opacity="0.4"/><rect width="6.518" height="6.518" transform="translate(2924 3474.093)" fill="#e5f1f9" opacity="0.4"/><rect width="6.518" height="6.516" transform="translate(2924 3467.577)" fill="#e5f1f9" opacity="0.4"/><rect width="6.518" height="6.516" transform="translate(2924 3461.061)" fill="#e5f1f9" opacity="0.4"/><rect width="6.518" height="6.516" transform="translate(2924 3454.545)" fill="#e5f1f9" opacity="0.4"/><rect width="6.518" height="6.518" transform="translate(2924 3448.027)" fill="#e5f1f9" opacity="0.4"/><rect width="6.518" height="6.516" transform="translate(3073.879 3480.61)" fill="#e5f1f9"/><rect width="6.518" height="6.518" transform="translate(3073.879 3474.093)" fill="#e5f1f9"/><rect width="6.518" height="6.516" transform="translate(3073.879 3467.577)" fill="#e5f1f9"/><rect width="6.518" height="6.516" transform="translate(3073.879 3461.061)" fill="#e5f1f9"/><rect width="6.516" height="6.516" transform="translate(3067.363 3493.642)" fill="#e5f1f9"/><rect width="6.516" height="6.516" transform="translate(3067.363 3487.126)" fill="#e5f1f9"/><rect width="6.516" height="6.516" transform="translate(3060.847 3506.676)" fill="#e5f1f9"/><rect width="6.516" height="6.518" transform="translate(3060.847 3500.158)" fill="#e5f1f9"/><rect width="6.518" height="6.516" transform="translate(3047.813 3519.708)" fill="#e5f1f9"/><rect width="6.516" height="6.518" transform="translate(3041.297 3526.224)" fill="#e5f1f9"/><rect width="6.516" height="6.516" transform="translate(3028.265 3532.742)" fill="#e5f1f9"/><rect width="6.516" height="6.516" transform="translate(3015.231 3539.258)" fill="#e5f1f9"/><rect width="6.516" height="6.516" transform="translate(3008.715 3539.258)" fill="#e5f1f9"/><rect width="6.516" height="6.516" transform="translate(3008.715 3389.379)" fill="#e5f1f9"/><rect width="6.516" height="6.516" transform="translate(3002.199 3539.258)" fill="#e5f1f9"/><rect width="6.516" height="6.516" transform="translate(3002.199 3389.379)" fill="#e5f1f9"/><rect width="6.518" height="6.516" transform="translate(2995.681 3539.258)" fill="#e5f1f9"/><rect width="6.518" height="6.516" transform="translate(2995.681 3389.379)" fill="#e5f1f9"/><rect width="6.516" height="6.516" transform="translate(2989.166 3389.379)" fill="#e5f1f9"/><rect width="6.518" height="6.516" transform="translate(2976.132 3395.895)" fill="#e5f1f9"/><rect width="6.516" height="6.516" transform="translate(2969.615 3395.895)" fill="#e5f1f9"/><rect width="6.516" height="6.518" transform="translate(2963.1 3402.411)" fill="#e5f1f9"/><rect width="6.516" height="6.518" transform="translate(2956.584 3402.411)" fill="#e5f1f9"/><rect width="6.518" height="6.516" transform="translate(2950.066 3408.929)" fill="#e5f1f9"/><rect width="6.516" height="6.516" transform="translate(2943.55 3415.445)" fill="#e5f1f9"/><rect width="6.516" height="6.516" transform="translate(2937.034 3421.961)" fill="#e5f1f9"/><rect width="6.516" height="6.516" transform="translate(2930.518 3434.995)" fill="#e5f1f9"/><rect width="6.518" height="6.516" transform="translate(2924 3454.545)" fill="#e5f1f9"/><rect width="6.518" height="6.518" transform="translate(2924 3448.027)" fill="#e5f1f9"/><rect width="6.518" height="6.518" transform="translate(3047.813 3500.158)" fill="#e1feff"/><rect width="6.518" height="6.516" transform="translate(3047.813 3493.642)" fill="#64d2dd"/><rect width="6.518" height="6.516" transform="translate(3047.813 3487.126)" fill="#ea88f2"/><rect width="6.518" height="6.516" transform="translate(3047.813 3480.61)" fill="#ea88f2"/><rect width="6.518" height="6.518" transform="translate(3047.813 3428.477)" fill="#d331b0"/><rect width="6.516" height="6.516" transform="translate(3041.297 3506.676)" fill="#64d2dd"/><rect width="6.516" height="6.518" transform="translate(3041.297 3500.158)" fill="#64d2dd"/><rect width="6.516" height="6.516" transform="translate(3041.297 3493.642)" fill="#ea88f2"/><rect width="6.516" height="6.516" transform="translate(3034.781 3513.192)" fill="#e1feff"/><rect width="6.516" height="6.516" transform="translate(3034.781 3506.676)" fill="#e1feff"/><rect width="6.516" height="6.518" transform="translate(3034.781 3500.158)" fill="#ea88f2"/><rect width="6.516" height="6.516" transform="translate(3028.265 3513.192)" fill="#64d2dd"/><rect width="6.516" height="6.516" transform="translate(3028.265 3506.676)" fill="#ea88f2"/><rect width="6.518" height="6.516" transform="translate(3021.747 3513.192)" fill="#ea88f2"/><rect width="6.516" height="6.516" transform="translate(3015.231 3532.742)" fill="#ea88f2"/><rect width="6.516" height="6.516" transform="translate(3015.231 3513.192)" fill="#ea88f2"/><rect width="6.516" height="6.516" transform="translate(3008.715 3532.742)" fill="#ea88f2"/><rect width="6.516" height="6.516" transform="translate(3008.715 3408.929)" fill="#64d2dd"/><rect width="6.516" height="6.516" transform="translate(3002.199 3415.445)" fill="#ea88f2"/><rect width="6.516" height="6.516" transform="translate(3002.199 3408.929)" fill="#64d2dd"/><rect width="6.518" height="6.516" transform="translate(2995.681 3415.445)" fill="#ea88f2"/><rect width="6.518" height="6.516" transform="translate(2995.681 3408.929)" fill="#54cdd3"/><rect width="6.516" height="6.518" transform="translate(2989.166 3428.477)" fill="#ea88f2"/><rect width="6.516" height="6.516" transform="translate(2989.166 3421.961)" fill="#54cdd3"/><rect width="6.516" height="6.516" transform="translate(2989.166 3415.445)" fill="#64d2dd"/><rect width="6.516" height="6.516" transform="translate(2989.166 3408.929)" fill="#54cdd3"/><rect width="6.516" height="6.518" transform="translate(2982.649 3428.477)" fill="#ea88f2"/><rect width="6.516" height="6.516" transform="translate(2982.649 3421.961)" fill="#64d2dd"/><rect width="6.516" height="6.516" transform="translate(2982.649 3415.445)" fill="#64d2dd"/><rect width="6.516" height="6.516" transform="translate(2982.649 3408.929)" fill="#e1feff"/><rect width="6.518" height="6.516" transform="translate(2976.132 3434.995)" fill="#d331b0"/><rect width="6.518" height="6.518" transform="translate(2976.132 3428.477)" fill="#64d2dd"/><rect width="6.518" height="6.516" transform="translate(2976.132 3421.961)" fill="#54cdd3"/><rect width="6.518" height="6.516" transform="translate(2976.132 3415.445)" fill="#dcf8f9"/><rect width="6.516" height="6.516" transform="translate(2969.615 3513.192)" fill="#64d2dd"/><rect width="6.516" height="6.516" transform="translate(2969.615 3441.511)" fill="#d331b0"/><rect width="6.516" height="6.516" transform="translate(2969.615 3434.995)" fill="#64d2dd"/><rect width="6.516" height="6.518" transform="translate(2969.615 3428.477)" fill="#64d2dd"/><rect width="6.516" height="6.516" transform="translate(2969.615 3421.961)" fill="#54cdd3"/><rect width="6.516" height="6.516" transform="translate(2969.615 3415.445)" fill="#e1feff"/><rect width="6.516" height="6.516" transform="translate(2963.1 3513.192)" fill="#ea88f2"/><rect width="6.516" height="6.516" transform="translate(2963.1 3506.676)" fill="#64d2dd"/><rect width="6.516" height="6.518" transform="translate(2963.1 3448.027)" fill="#ea88f2"/><rect width="6.516" height="6.516" transform="translate(2963.1 3441.511)" fill="#64d2dd"/><rect width="6.516" height="6.516" transform="translate(2963.1 3434.995)" fill="#54cdd3"/><rect width="6.516" height="6.518" transform="translate(2963.1 3428.477)" fill="#64d2dd"/><rect width="6.516" height="6.516" transform="translate(2963.1 3421.961)" fill="#54cdd3"/><rect width="6.516" height="6.516" transform="translate(2963.1 3415.445)" fill="#e1feff"/><rect width="6.516" height="6.516" transform="translate(2956.584 3506.676)" fill="#64d2dd"/><rect width="6.516" height="6.518" transform="translate(2956.584 3500.158)" fill="#64d2dd"/><rect width="6.516" height="6.518" transform="translate(2956.584 3474.093)" fill="#ea88f2"/><rect width="6.516" height="6.516" transform="translate(2956.584 3467.577)" fill="#ea88f2"/><rect width="6.516" height="6.516" transform="translate(2956.584 3461.061)" fill="#64d2dd"/><rect width="6.516" height="6.516" transform="translate(2956.584 3454.545)" fill="#54cdd3"/><rect width="6.516" height="6.518" transform="translate(2956.584 3448.027)" fill="#64d2dd"/><rect width="6.516" height="6.516" transform="translate(2956.584 3441.511)" fill="#64d2dd"/><rect width="6.516" height="6.516" transform="translate(2956.584 3434.995)" fill="#64d2dd"/><rect width="6.516" height="6.518" transform="translate(2956.584 3428.477)" fill="#dcf8f9"/><rect width="6.516" height="6.516" transform="translate(2956.584 3421.961)" fill="#e1feff"/><rect width="6.518" height="6.516" transform="translate(2950.066 3487.126)" fill="#ea88f2"/><rect width="6.518" height="6.516" transform="translate(2950.066 3480.61)" fill="#ea88f2"/><rect width="6.518" height="6.518" transform="translate(2950.066 3474.093)" fill="#54cdd3"/><rect width="6.518" height="6.516" transform="translate(2950.066 3467.577)" fill="#54cdd3"/><rect width="6.518" height="6.516" transform="translate(2950.066 3461.061)" fill="#54cdd3"/><rect width="6.518" height="6.516" transform="translate(2950.066 3454.545)" fill="#54cdd3"/><rect width="6.518" height="6.518" transform="translate(2950.066 3448.027)" fill="#dcf8f9"/><rect width="6.518" height="6.516" transform="translate(2950.066 3441.511)" fill="#e1feff"/><rect width="6.518" height="6.516" transform="translate(2950.066 3434.995)" fill="#e1feff"/><rect width="6.518" height="6.518" transform="translate(2950.066 3428.477)" fill="#e1feff"/><rect width="6.516" height="6.516" transform="translate(2943.55 3467.577)" fill="#64d2dd"/><rect width="6.516" height="6.516" transform="translate(2943.55 3461.061)" fill="#64d2dd"/><rect width="6.516" height="6.516" transform="translate(2943.55 3454.545)" fill="#dcf8f9"/><rect width="6.516" height="6.518" transform="translate(2943.55 3448.027)" fill="#dcf8f9"/></g></g></svg>