<svg xmlns="http://www.w3.org/2000/svg" width="361.628" height="883.241" viewBox="0 0 361.628 883.241"><g transform="translate(-5973.847 -2305.379)"><g transform="translate(2374.078 -209)"><rect width="6.518" height="6.516" transform="translate(3954.879 2605.61)" fill="#e5f1f9" opacity="0.4"/><rect width="6.518" height="6.518" transform="translate(3954.879 2599.093)" fill="#e5f1f9" opacity="0.4"/><rect width="6.518" height="6.516" transform="translate(3954.879 2592.577)" fill="#e5f1f9" opacity="0.4"/><rect width="6.518" height="6.516" transform="translate(3954.879 2586.061)" fill="#e5f1f9" opacity="0.4"/><rect width="6.518" height="6.516" transform="translate(3954.879 2579.545)" fill="#e5f1f9" opacity="0.4"/><rect width="6.518" height="6.518" transform="translate(3954.879 2573.027)" fill="#e5f1f9" opacity="0.4"/><rect width="6.516" height="6.516" transform="translate(3948.363 2618.642)" fill="#e5f1f9" opacity="0.4"/><rect width="6.516" height="6.516" transform="translate(3948.363 2612.126)" fill="#e5f1f9" opacity="0.4"/><rect width="6.516" height="6.516" transform="translate(3948.363 2566.511)" fill="#e5f1f9" opacity="0.4"/><rect width="6.516" height="6.516" transform="translate(3948.363 2559.995)" fill="#e5f1f9" opacity="0.4"/><rect width="6.516" height="6.516" transform="translate(3941.847 2631.676)" fill="#e5f1f9" opacity="0.4"/><rect width="6.516" height="6.518" transform="translate(3941.847 2625.158)" fill="#e5f1f9" opacity="0.4"/><rect width="6.516" height="6.518" transform="translate(3941.847 2553.477)" fill="#e5f1f9" opacity="0.4"/><rect width="6.516" height="6.516" transform="translate(3941.847 2546.961)" fill="#e5f1f9" opacity="0.4"/><rect width="6.516" height="6.516" transform="translate(3935.331 2638.192)" fill="#e5f1f9" opacity="0.4"/><rect width="6.516" height="6.516" transform="translate(3935.331 2540.445)" fill="#e5f1f9" opacity="0.4"/><rect width="6.518" height="6.516" transform="translate(3928.813 2644.708)" fill="#e5f1f9" opacity="0.4"/><rect width="6.518" height="6.516" transform="translate(3928.813 2533.929)" fill="#e5f1f9" opacity="0.4"/><rect width="6.516" height="6.518" transform="translate(3922.297 2651.224)" fill="#e5f1f9" opacity="0.4"/><rect width="6.516" height="6.518" transform="translate(3922.297 2527.411)" fill="#e5f1f9" opacity="0.4"/><rect width="6.516" height="6.518" transform="translate(3915.781 2651.224)" fill="#e5f1f9" opacity="0.4"/><rect width="6.516" height="6.518" transform="translate(3915.781 2527.411)" fill="#e5f1f9" opacity="0.4"/><rect width="6.516" height="6.516" transform="translate(3909.265 2657.742)" fill="#e5f1f9" opacity="0.4"/><rect width="6.516" height="6.516" transform="translate(3909.265 2520.895)" fill="#e5f1f9" opacity="0.4"/><rect width="6.518" height="6.516" transform="translate(3902.747 2657.742)" fill="#e5f1f9" opacity="0.4"/><rect width="6.518" height="6.516" transform="translate(3902.747 2520.895)" fill="#e5f1f9" opacity="0.4"/><rect width="6.516" height="6.516" transform="translate(3896.231 2664.258)" fill="#e5f1f9" opacity="0.4"/><rect width="6.516" height="6.516" transform="translate(3896.231 2514.379)" fill="#e5f1f9" opacity="0.4"/><rect width="6.516" height="6.516" transform="translate(3889.715 2664.258)" fill="#e5f1f9" opacity="0.4"/><rect width="6.516" height="6.516" transform="translate(3889.715 2514.379)" fill="#e5f1f9" opacity="0.4"/><rect width="6.516" height="6.516" transform="translate(3883.199 2664.258)" fill="#e5f1f9" opacity="0.4"/><rect width="6.516" height="6.516" transform="translate(3883.199 2514.379)" fill="#e5f1f9" opacity="0.4"/><rect width="6.518" height="6.516" transform="translate(3876.681 2664.258)" fill="#e5f1f9" opacity="0.4"/><rect width="6.518" height="6.516" transform="translate(3876.681 2514.379)" fill="#e5f1f9" opacity="0.4"/><rect width="6.516" height="6.516" transform="translate(3870.166 2664.258)" fill="#e5f1f9" opacity="0.4"/><rect width="6.516" height="6.516" transform="translate(3870.166 2514.379)" fill="#e5f1f9" opacity="0.4"/><rect width="6.516" height="6.516" transform="translate(3863.649 2664.258)" fill="#e5f1f9" opacity="0.4"/><rect width="6.516" height="6.516" transform="translate(3863.649 2514.379)" fill="#e5f1f9" opacity="0.4"/><rect width="6.518" height="6.516" transform="translate(3857.132 2657.742)" fill="#e5f1f9" opacity="0.4"/><rect width="6.518" height="6.516" transform="translate(3857.132 2520.895)" fill="#e5f1f9" opacity="0.4"/><rect width="6.516" height="6.516" transform="translate(3850.615 2657.742)" fill="#e5f1f9" opacity="0.4"/><rect width="6.516" height="6.516" transform="translate(3850.615 2520.895)" fill="#e5f1f9" opacity="0.4"/><rect width="6.516" height="6.518" transform="translate(3844.1 2651.224)" fill="#e5f1f9" opacity="0.4"/><rect width="6.516" height="6.518" transform="translate(3844.1 2527.411)" fill="#e5f1f9" opacity="0.4"/><rect width="6.516" height="6.518" transform="translate(3837.584 2651.224)" fill="#e5f1f9" opacity="0.4"/><rect width="6.516" height="6.518" transform="translate(3837.584 2527.411)" fill="#e5f1f9" opacity="0.4"/><rect width="6.518" height="6.516" transform="translate(3831.066 2644.708)" fill="#e5f1f9" opacity="0.4"/><rect width="6.518" height="6.516" transform="translate(3831.066 2533.929)" fill="#e5f1f9" opacity="0.4"/><rect width="6.516" height="6.516" transform="translate(3824.55 2638.192)" fill="#e5f1f9" opacity="0.4"/><rect width="6.516" height="6.516" transform="translate(3824.55 2540.445)" fill="#e5f1f9" opacity="0.4"/><rect width="6.516" height="6.516" transform="translate(3818.034 2631.676)" fill="#e5f1f9" opacity="0.4"/><rect width="6.516" height="6.518" transform="translate(3818.034 2625.158)" fill="#e5f1f9" opacity="0.4"/><rect width="6.516" height="6.518" transform="translate(3818.034 2553.477)" fill="#e5f1f9" opacity="0.4"/><rect width="6.516" height="6.516" transform="translate(3818.034 2546.961)" fill="#e5f1f9" opacity="0.4"/><rect width="6.516" height="6.516" transform="translate(3811.518 2618.642)" fill="#e5f1f9" opacity="0.4"/><rect width="6.516" height="6.516" transform="translate(3811.518 2612.126)" fill="#e5f1f9" opacity="0.4"/><rect width="6.516" height="6.516" transform="translate(3811.518 2566.511)" fill="#e5f1f9" opacity="0.4"/><rect width="6.516" height="6.516" transform="translate(3811.518 2559.995)" fill="#e5f1f9" opacity="0.4"/><rect width="6.518" height="6.516" transform="translate(3805 2605.61)" fill="#e5f1f9" opacity="0.4"/><rect width="6.518" height="6.518" transform="translate(3805 2599.093)" fill="#e5f1f9" opacity="0.4"/><rect width="6.518" height="6.516" transform="translate(3805 2592.577)" fill="#e5f1f9" opacity="0.4"/><rect width="6.518" height="6.516" transform="translate(3805 2586.061)" fill="#e5f1f9" opacity="0.4"/><rect width="6.518" height="6.516" transform="translate(3805 2579.545)" fill="#e5f1f9" opacity="0.4"/><rect width="6.518" height="6.518" transform="translate(3805 2573.027)" fill="#e5f1f9" opacity="0.4"/><rect width="6.518" height="6.516" transform="translate(3954.879 2605.61)" fill="#e5f1f9"/><rect width="6.518" height="6.518" transform="translate(3954.879 2599.093)" fill="#e5f1f9"/><rect width="6.518" height="6.516" transform="translate(3954.879 2592.577)" fill="#e5f1f9"/><rect width="6.518" height="6.516" transform="translate(3954.879 2586.061)" fill="#e5f1f9"/><rect width="6.516" height="6.516" transform="translate(3948.363 2618.642)" fill="#e5f1f9"/><rect width="6.516" height="6.516" transform="translate(3948.363 2612.126)" fill="#e5f1f9"/><rect width="6.516" height="6.516" transform="translate(3941.847 2631.676)" fill="#e5f1f9"/><rect width="6.516" height="6.518" transform="translate(3941.847 2625.158)" fill="#e5f1f9"/><rect width="6.518" height="6.516" transform="translate(3928.813 2644.708)" fill="#e5f1f9"/><rect width="6.516" height="6.518" transform="translate(3922.297 2651.224)" fill="#e5f1f9"/><rect width="6.516" height="6.516" transform="translate(3909.265 2657.742)" fill="#e5f1f9"/><rect width="6.516" height="6.516" transform="translate(3896.231 2664.258)" fill="#e5f1f9"/><rect width="6.516" height="6.516" transform="translate(3889.715 2664.258)" fill="#e5f1f9"/><rect width="6.516" height="6.516" transform="translate(3889.715 2514.379)" fill="#e5f1f9"/><rect width="6.516" height="6.516" transform="translate(3883.199 2664.258)" fill="#e5f1f9"/><rect width="6.516" height="6.516" transform="translate(3883.199 2514.379)" fill="#e5f1f9"/><rect width="6.518" height="6.516" transform="translate(3876.681 2664.258)" fill="#e5f1f9"/><rect width="6.518" height="6.516" transform="translate(3876.681 2514.379)" fill="#e5f1f9"/><rect width="6.516" height="6.516" transform="translate(3870.166 2514.379)" fill="#e5f1f9"/><rect width="6.518" height="6.516" transform="translate(3857.132 2520.895)" fill="#e5f1f9"/><rect width="6.516" height="6.516" transform="translate(3850.615 2520.895)" fill="#e5f1f9"/><rect width="6.516" height="6.518" transform="translate(3844.1 2527.411)" fill="#e5f1f9"/><rect width="6.516" height="6.518" transform="translate(3837.584 2527.411)" fill="#e5f1f9"/><rect width="6.518" height="6.516" transform="translate(3831.066 2533.929)" fill="#e5f1f9"/><rect width="6.516" height="6.516" transform="translate(3824.55 2540.445)" fill="#e5f1f9"/><rect width="6.516" height="6.516" transform="translate(3818.034 2546.961)" fill="#e5f1f9"/><rect width="6.516" height="6.516" transform="translate(3811.518 2559.995)" fill="#e5f1f9"/><rect width="6.518" height="6.516" transform="translate(3805 2579.545)" fill="#e5f1f9"/><rect width="6.518" height="6.518" transform="translate(3805 2573.027)" fill="#e5f1f9"/><rect width="6.518" height="6.518" transform="translate(3928.813 2625.158)" fill="#e1feff"/><rect width="6.518" height="6.516" transform="translate(3928.813 2618.642)" fill="#64d2dd"/><rect width="6.518" height="6.516" transform="translate(3928.813 2612.126)" fill="#ea88f2"/><rect width="6.518" height="6.516" transform="translate(3928.813 2605.61)" fill="#ea88f2"/><rect width="6.518" height="6.518" transform="translate(3928.813 2553.477)" fill="#d331b0"/><rect width="6.516" height="6.516" transform="translate(3922.297 2631.676)" fill="#64d2dd"/><rect width="6.516" height="6.518" transform="translate(3922.297 2625.158)" fill="#64d2dd"/><rect width="6.516" height="6.516" transform="translate(3922.297 2618.642)" fill="#ea88f2"/><rect width="6.516" height="6.516" transform="translate(3915.781 2638.192)" fill="#e1feff"/><rect width="6.516" height="6.516" transform="translate(3915.781 2631.676)" fill="#e1feff"/><rect width="6.516" height="6.518" transform="translate(3915.781 2625.158)" fill="#ea88f2"/><rect width="6.516" height="6.516" transform="translate(3909.265 2638.192)" fill="#64d2dd"/><rect width="6.516" height="6.516" transform="translate(3909.265 2631.676)" fill="#ea88f2"/><rect width="6.518" height="6.516" transform="translate(3902.747 2638.192)" fill="#ea88f2"/><rect width="6.516" height="6.516" transform="translate(3896.231 2657.742)" fill="#ea88f2"/><rect width="6.516" height="6.516" transform="translate(3896.231 2638.192)" fill="#ea88f2"/><rect width="6.516" height="6.516" transform="translate(3889.715 2657.742)" fill="#ea88f2"/><rect width="6.516" height="6.516" transform="translate(3889.715 2533.929)" fill="#64d2dd"/><rect width="6.516" height="6.516" transform="translate(3883.199 2540.445)" fill="#ea88f2"/><rect width="6.516" height="6.516" transform="translate(3883.199 2533.929)" fill="#64d2dd"/><rect width="6.518" height="6.516" transform="translate(3876.681 2540.445)" fill="#ea88f2"/><rect width="6.518" height="6.516" transform="translate(3876.681 2533.929)" fill="#54cdd3"/><rect width="6.516" height="6.518" transform="translate(3870.166 2553.477)" fill="#ea88f2"/><rect width="6.516" height="6.516" transform="translate(3870.166 2546.961)" fill="#54cdd3"/><rect width="6.516" height="6.516" transform="translate(3870.166 2540.445)" fill="#64d2dd"/><rect width="6.516" height="6.516" transform="translate(3870.166 2533.929)" fill="#54cdd3"/><rect width="6.516" height="6.518" transform="translate(3863.649 2553.477)" fill="#ea88f2"/><rect width="6.516" height="6.516" transform="translate(3863.649 2546.961)" fill="#64d2dd"/><rect width="6.516" height="6.516" transform="translate(3863.649 2540.445)" fill="#64d2dd"/><rect width="6.516" height="6.516" transform="translate(3863.649 2533.929)" fill="#e1feff"/><rect width="6.518" height="6.516" transform="translate(3857.132 2559.995)" fill="#d331b0"/><rect width="6.518" height="6.518" transform="translate(3857.132 2553.477)" fill="#64d2dd"/><rect width="6.518" height="6.516" transform="translate(3857.132 2546.961)" fill="#54cdd3"/><rect width="6.518" height="6.516" transform="translate(3857.132 2540.445)" fill="#dcf8f9"/><rect width="6.516" height="6.516" transform="translate(3850.615 2638.192)" fill="#64d2dd"/><rect width="6.516" height="6.516" transform="translate(3850.615 2566.511)" fill="#d331b0"/><rect width="6.516" height="6.516" transform="translate(3850.615 2559.995)" fill="#64d2dd"/><rect width="6.516" height="6.518" transform="translate(3850.615 2553.477)" fill="#64d2dd"/><rect width="6.516" height="6.516" transform="translate(3850.615 2546.961)" fill="#54cdd3"/><rect width="6.516" height="6.516" transform="translate(3850.615 2540.445)" fill="#e1feff"/><rect width="6.516" height="6.516" transform="translate(3844.1 2638.192)" fill="#ea88f2"/><rect width="6.516" height="6.516" transform="translate(3844.1 2631.676)" fill="#64d2dd"/><rect width="6.516" height="6.518" transform="translate(3844.1 2573.027)" fill="#ea88f2"/><rect width="6.516" height="6.516" transform="translate(3844.1 2566.511)" fill="#64d2dd"/><rect width="6.516" height="6.516" transform="translate(3844.1 2559.995)" fill="#54cdd3"/><rect width="6.516" height="6.518" transform="translate(3844.1 2553.477)" fill="#64d2dd"/><rect width="6.516" height="6.516" transform="translate(3844.1 2546.961)" fill="#54cdd3"/><rect width="6.516" height="6.516" transform="translate(3844.1 2540.445)" fill="#e1feff"/><rect width="6.516" height="6.516" transform="translate(3837.584 2631.676)" fill="#64d2dd"/><rect width="6.516" height="6.518" transform="translate(3837.584 2625.158)" fill="#64d2dd"/><rect width="6.516" height="6.518" transform="translate(3837.584 2599.093)" fill="#ea88f2"/><rect width="6.516" height="6.516" transform="translate(3837.584 2592.577)" fill="#ea88f2"/><rect width="6.516" height="6.516" transform="translate(3837.584 2586.061)" fill="#64d2dd"/><rect width="6.516" height="6.516" transform="translate(3837.584 2579.545)" fill="#54cdd3"/><rect width="6.516" height="6.518" transform="translate(3837.584 2573.027)" fill="#64d2dd"/><rect width="6.516" height="6.516" transform="translate(3837.584 2566.511)" fill="#64d2dd"/><rect width="6.516" height="6.516" transform="translate(3837.584 2559.995)" fill="#64d2dd"/><rect width="6.516" height="6.518" transform="translate(3837.584 2553.477)" fill="#dcf8f9"/><rect width="6.516" height="6.516" transform="translate(3837.584 2546.961)" fill="#e1feff"/><rect width="6.518" height="6.516" transform="translate(3831.066 2612.126)" fill="#ea88f2"/><rect width="6.518" height="6.516" transform="translate(3831.066 2605.61)" fill="#ea88f2"/><rect width="6.518" height="6.518" transform="translate(3831.066 2599.093)" fill="#54cdd3"/><rect width="6.518" height="6.516" transform="translate(3831.066 2592.577)" fill="#54cdd3"/><rect width="6.518" height="6.516" transform="translate(3831.066 2586.061)" fill="#54cdd3"/><rect width="6.518" height="6.516" transform="translate(3831.066 2579.545)" fill="#54cdd3"/><rect width="6.518" height="6.518" transform="translate(3831.066 2573.027)" fill="#dcf8f9"/><rect width="6.518" height="6.516" transform="translate(3831.066 2566.511)" fill="#e1feff"/><rect width="6.518" height="6.516" transform="translate(3831.066 2559.995)" fill="#e1feff"/><rect width="6.518" height="6.518" transform="translate(3831.066 2553.477)" fill="#e1feff"/><rect width="6.516" height="6.516" transform="translate(3824.55 2592.577)" fill="#64d2dd"/><rect width="6.516" height="6.516" transform="translate(3824.55 2586.061)" fill="#64d2dd"/><rect width="6.516" height="6.516" transform="translate(3824.55 2579.545)" fill="#dcf8f9"/><rect width="6.516" height="6.518" transform="translate(3824.55 2573.027)" fill="#dcf8f9"/></g><g transform="translate(2374.078 -209)"><rect width="6.516" height="6.516" transform="translate(3714.194 3384.587)" fill="#e5f1f9" opacity="0.4"/><rect width="6.518" height="6.516" transform="translate(3707.676 3384.587)" fill="#e5f1f9" opacity="0.4"/><rect width="6.516" height="6.516" transform="translate(3727.226 3378.071)" fill="#e5f1f9" opacity="0.4"/><rect width="6.516" height="6.516" transform="translate(3720.71 3378.071)" fill="#e5f1f9" opacity="0.4"/><rect width="6.518" height="6.518" transform="translate(3733.742 3365.037)" fill="#e5f1f9" opacity="0.4"/><rect width="6.518" height="6.516" transform="translate(3733.742 3371.555)" fill="#e5f1f9" opacity="0.4"/><rect width="6.518" height="6.516" transform="translate(3733.742 3358.521)" fill="#e5f1f9" opacity="0.4"/><rect width="6.516" height="6.516" transform="translate(3740.26 3338.971)" fill="#e5f1f9" opacity="0.4"/><rect width="6.516" height="6.518" transform="translate(3740.26 3345.487)" fill="#e5f1f9" opacity="0.4"/><rect width="6.516" height="6.516" transform="translate(3740.26 3352.005)" fill="#e5f1f9" opacity="0.4"/><rect width="6.518" height="6.516" transform="translate(3733.742 3332.455)" fill="#e5f1f9" opacity="0.4"/><rect width="6.518" height="6.516" transform="translate(3733.742 3325.939)" fill="#e5f1f9" opacity="0.4"/><rect width="6.518" height="6.518" transform="translate(3733.742 3319.421)" fill="#e5f1f9" opacity="0.4"/><rect width="6.516" height="6.516" transform="translate(3727.226 3312.906)" fill="#e5f1f9" opacity="0.4"/><rect width="6.516" height="6.516" transform="translate(3720.71 3312.906)" fill="#e5f1f9" opacity="0.4"/><rect width="6.516" height="6.516" transform="translate(3714.194 3306.39)" fill="#e5f1f9" opacity="0.4"/><rect width="6.518" height="6.516" transform="translate(3707.676 3306.39)" fill="#e5f1f9" opacity="0.4"/><rect width="6.516" height="6.516" transform="translate(3668.579 3299.874)" fill="#e5f1f9" opacity="0.4"/><rect width="6.516" height="6.516" transform="translate(3662.063 3299.874)" fill="#e5f1f9" opacity="0.4"/><rect width="6.518" height="6.516" transform="translate(3655.545 3299.874)" fill="#e5f1f9" opacity="0.4"/><rect width="6.516" height="6.516" transform="translate(3675.094 3299.874)" fill="#e5f1f9" opacity="0.4"/><rect width="6.516" height="6.516" transform="translate(3694.645 3299.874)" fill="#e5f1f9" opacity="0.4"/><rect width="6.516" height="6.516" transform="translate(3688.128 3299.874)" fill="#e5f1f9" opacity="0.4"/><rect width="6.518" height="6.516" transform="translate(3681.611 3299.874)" fill="#e5f1f9" opacity="0.4"/><rect width="6.516" height="6.516" transform="translate(3701.16 3299.874)" fill="#e5f1f9" opacity="0.4"/><rect width="6.516" height="6.518" transform="translate(3668.579 3391.103)" fill="#e5f1f9" opacity="0.4"/><rect width="6.516" height="6.518" transform="translate(3662.063 3391.103)" fill="#e5f1f9" opacity="0.4"/><rect width="6.518" height="6.518" transform="translate(3655.545 3391.103)" fill="#e5f1f9" opacity="0.4"/><rect width="6.516" height="6.518" transform="translate(3675.094 3391.103)" fill="#e5f1f9" opacity="0.4"/><rect width="6.516" height="6.518" transform="translate(3694.645 3391.103)" fill="#e5f1f9" opacity="0.4"/><rect width="6.516" height="6.518" transform="translate(3688.128 3391.103)" fill="#e5f1f9" opacity="0.4"/><rect width="6.518" height="6.518" transform="translate(3681.611 3391.103)" fill="#e5f1f9" opacity="0.4"/><rect width="6.516" height="6.518" transform="translate(3701.16 3391.103)" fill="#e5f1f9" opacity="0.4"/><rect width="6.516" height="6.516" transform="translate(3649.029 3306.39)" fill="#e5f1f9" opacity="0.4"/><rect width="6.516" height="6.516" transform="translate(3642.513 3306.39)" fill="#e5f1f9" opacity="0.4"/><rect width="6.518" height="6.516" transform="translate(3635.995 3312.906)" fill="#e5f1f9" opacity="0.4"/><rect width="6.516" height="6.516" transform="translate(3629.479 3312.906)" fill="#e5f1f9" opacity="0.4"/><rect width="6.516" height="6.518" transform="translate(3622.963 3319.421)" fill="#e5f1f9" opacity="0.4"/><rect width="6.516" height="6.516" transform="translate(3622.963 3332.455)" fill="#e5f1f9" opacity="0.4"/><rect width="6.516" height="6.516" transform="translate(3622.963 3325.939)" fill="#e5f1f9" opacity="0.4"/><rect width="6.516" height="6.516" transform="translate(3616.447 3338.971)" fill="#e5f1f9" opacity="0.4"/><rect width="6.516" height="6.518" transform="translate(3616.447 3345.487)" fill="#e5f1f9" opacity="0.4"/><rect width="6.516" height="6.516" transform="translate(3616.447 3352.005)" fill="#e5f1f9" opacity="0.4"/><rect width="6.516" height="6.516" transform="translate(3622.963 3358.521)" fill="#e5f1f9" opacity="0.4"/><rect width="6.516" height="6.516" transform="translate(3649.029 3384.587)" fill="#e5f1f9" opacity="0.4"/><rect width="6.516" height="6.516" transform="translate(3642.513 3384.587)" fill="#e5f1f9" opacity="0.4"/><rect width="6.518" height="6.516" transform="translate(3635.995 3378.071)" fill="#e5f1f9" opacity="0.4"/><rect width="6.516" height="6.516" transform="translate(3629.479 3378.071)" fill="#e5f1f9" opacity="0.4"/><rect width="6.516" height="6.516" transform="translate(3622.963 3371.555)" fill="#e5f1f9" opacity="0.4"/><rect width="6.516" height="6.518" transform="translate(3622.963 3365.037)" fill="#e5f1f9" opacity="0.4"/><rect width="6.516" height="6.516" transform="translate(3714.194 3384.587)" fill="#e5f1f9"/><rect width="6.516" height="6.516" transform="translate(3720.71 3378.071)" fill="#e5f1f9"/><rect width="6.516" height="6.518" transform="translate(3701.16 3391.103)" fill="#e5f1f9"/><rect width="6.516" height="6.518" transform="translate(3694.645 3391.103)" fill="#e5f1f9"/><rect width="6.516" height="6.518" transform="translate(3688.128 3391.103)" fill="#e5f1f9"/><rect width="6.518" height="6.518" transform="translate(3681.611 3391.103)" fill="#e5f1f9"/><rect width="6.518" height="6.518" transform="translate(3733.742 3365.037)" fill="#e5f1f9"/><rect width="6.516" height="6.516" transform="translate(3727.226 3378.071)" fill="#e5f1f9"/><rect width="6.516" height="6.516" transform="translate(3668.579 3299.874)" fill="#e5f1f9"/><rect width="6.516" height="6.516" transform="translate(3662.063 3299.874)" fill="#e5f1f9"/><rect width="6.518" height="6.516" transform="translate(3681.611 3299.874)" fill="#e5f1f9"/><rect width="6.516" height="6.516" transform="translate(3675.094 3299.874)" fill="#e5f1f9"/><rect width="6.516" height="6.516" transform="translate(3649.029 3306.39)" fill="#e5f1f9"/><rect width="6.516" height="6.516" transform="translate(3642.513 3306.39)" fill="#e5f1f9"/><rect width="6.516" height="6.516" transform="translate(3629.479 3312.906)" fill="#e5f1f9"/><rect width="6.516" height="6.518" transform="translate(3622.963 3319.421)" fill="#e5f1f9"/><rect width="6.516" height="6.518" transform="translate(3616.447 3345.487)" fill="#e5f1f9"/><rect width="6.516" height="6.516" transform="translate(3616.447 3338.971)" fill="#e5f1f9"/><rect width="6.516" height="6.516" transform="translate(3714.194 3358.521)" fill="#ea88f2"/><rect width="6.516" height="6.516" transform="translate(3694.645 3378.071)" fill="#ea88f2"/><rect width="6.516" height="6.516" transform="translate(3701.16 3371.555)" fill="#d331b0"/><rect width="6.518" height="6.518" transform="translate(3707.676 3365.037)" fill="#d331b0"/><rect width="6.518" height="6.516" transform="translate(3707.676 3371.555)" fill="#d331b0"/><rect width="6.516" height="6.516" transform="translate(3720.71 3325.939)" fill="#ea88f2"/><rect width="6.516" height="6.518" transform="translate(3694.645 3319.421)" fill="#ea88f2"/><rect width="6.518" height="6.518" transform="translate(3681.611 3319.421)" fill="#64d2dd"/><rect width="6.518" height="6.516" transform="translate(3681.611 3312.906)" fill="#64d2dd"/><rect width="6.516" height="6.516" transform="translate(3675.094 3325.939)" fill="#ea88f2"/><rect width="6.516" height="6.518" transform="translate(3675.094 3319.421)" fill="#64d2dd"/><rect width="6.516" height="6.516" transform="translate(3675.094 3312.906)" fill="#64d2dd"/><rect width="6.516" height="6.516" transform="translate(3668.579 3332.455)" fill="#ea88f2"/><rect width="6.516" height="6.516" transform="translate(3668.579 3325.939)" fill="#64d2dd"/><rect width="6.516" height="6.518" transform="translate(3668.579 3319.421)" fill="#64d2dd"/><rect width="6.516" height="6.516" transform="translate(3668.579 3312.906)" fill="#e1feff"/><rect width="6.516" height="6.516" transform="translate(3662.063 3332.455)" fill="#ea88f2"/><rect width="6.516" height="6.516" transform="translate(3662.063 3325.939)" fill="#64d2dd"/><rect width="6.516" height="6.518" transform="translate(3662.063 3319.421)" fill="#e1feff"/><rect width="6.518" height="6.516" transform="translate(3655.545 3338.971)" fill="#ea88f2"/><rect width="6.518" height="6.516" transform="translate(3655.545 3332.455)" fill="#64d2dd"/><rect width="6.518" height="6.516" transform="translate(3655.545 3325.939)" fill="#64d2dd"/><rect width="6.518" height="6.518" transform="translate(3655.545 3319.421)" fill="#e1feff"/><rect width="6.516" height="6.516" transform="translate(3649.029 3338.971)" fill="#64d2dd"/><rect width="6.516" height="6.516" transform="translate(3649.029 3332.455)" fill="#64d2dd"/><rect width="6.516" height="6.516" transform="translate(3649.029 3325.939)" fill="#e1feff"/><rect width="6.516" height="6.518" transform="translate(3649.029 3319.421)" fill="#e1feff"/><rect width="6.516" height="6.518" transform="translate(3642.513 3365.037)" fill="#ea88f2"/><rect width="6.516" height="6.516" transform="translate(3642.513 3352.005)" fill="#ea88f2"/><rect width="6.516" height="6.518" transform="translate(3642.513 3345.487)" fill="#ea88f2"/><rect width="6.516" height="6.516" transform="translate(3642.513 3338.971)" fill="#64d2dd"/><rect width="6.516" height="6.516" transform="translate(3642.513 3332.455)" fill="#64d2dd"/><rect width="6.516" height="6.516" transform="translate(3642.513 3325.939)" fill="#e1feff"/><rect width="6.518" height="6.516" transform="translate(3635.995 3352.005)" fill="#64d2dd"/><rect width="6.518" height="6.518" transform="translate(3635.995 3345.487)" fill="#64d2dd"/><rect width="6.518" height="6.516" transform="translate(3635.995 3338.971)" fill="#64d2dd"/><rect width="6.518" height="6.516" transform="translate(3635.995 3332.455)" fill="#64d2dd"/></g><g transform="translate(2374.078 -209)"><rect width="6.516" height="6.516" transform="translate(3684.484 2709.193)" fill="#e5f1f9" opacity="0.4"/><rect width="6.516" height="6.518" transform="translate(3684.484 2702.675)" fill="#e5f1f9" opacity="0.4"/><rect width="6.516" height="6.516" transform="translate(3684.484 2696.159)" fill="#e5f1f9" opacity="0.4"/><rect width="6.516" height="6.516" transform="translate(3684.484 2689.643)" fill="#e5f1f9" opacity="0.4"/><rect width="6.518" height="6.516" transform="translate(3677.966 2722.225)" fill="#e5f1f9" opacity="0.4"/><rect width="6.518" height="6.516" transform="translate(3677.966 2715.708)" fill="#e5f1f9" opacity="0.4"/><rect width="6.518" height="6.516" transform="translate(3677.966 2683.127)" fill="#e5f1f9" opacity="0.4"/><rect width="6.518" height="6.518" transform="translate(3677.966 2676.609)" fill="#e5f1f9" opacity="0.4"/><rect width="6.516" height="6.518" transform="translate(3671.45 2728.74)" fill="#e5f1f9" opacity="0.4"/><rect width="6.516" height="6.516" transform="translate(3671.45 2670.093)" fill="#e5f1f9" opacity="0.4"/><rect width="6.516" height="6.516" transform="translate(3664.934 2735.258)" fill="#e5f1f9" opacity="0.4"/><rect width="6.516" height="6.516" transform="translate(3664.934 2663.577)" fill="#e5f1f9" opacity="0.4"/><rect width="6.516" height="6.516" transform="translate(3658.418 2735.258)" fill="#e5f1f9" opacity="0.4"/><rect width="6.516" height="6.516" transform="translate(3658.418 2663.577)" fill="#e5f1f9" opacity="0.4"/><rect width="6.518" height="6.516" transform="translate(3651.9 2741.774)" fill="#e5f1f9" opacity="0.4"/><rect width="6.518" height="6.516" transform="translate(3651.9 2657.061)" fill="#e5f1f9" opacity="0.4"/><rect width="6.516" height="6.516" transform="translate(3645.385 2741.774)" fill="#e5f1f9" opacity="0.4"/><rect width="6.516" height="6.516" transform="translate(3645.385 2657.061)" fill="#e5f1f9" opacity="0.4"/><rect width="6.516" height="6.516" transform="translate(3638.868 2741.774)" fill="#e5f1f9" opacity="0.4"/><rect width="6.516" height="6.516" transform="translate(3638.868 2657.061)" fill="#e5f1f9" opacity="0.4"/><rect width="6.516" height="6.516" transform="translate(3632.353 2741.774)" fill="#e5f1f9" opacity="0.4"/><rect width="6.516" height="6.516" transform="translate(3632.353 2657.061)" fill="#e5f1f9" opacity="0.4"/><rect width="6.518" height="6.516" transform="translate(3625.834 2735.258)" fill="#e5f1f9" opacity="0.4"/><rect width="6.518" height="6.516" transform="translate(3625.834 2663.577)" fill="#e5f1f9" opacity="0.4"/><rect width="6.516" height="6.516" transform="translate(3619.319 2735.258)" fill="#e5f1f9" opacity="0.4"/><rect width="6.516" height="6.516" transform="translate(3619.319 2663.577)" fill="#e5f1f9" opacity="0.4"/><rect width="6.516" height="6.518" transform="translate(3612.803 2728.74)" fill="#e5f1f9" opacity="0.4"/><rect width="6.516" height="6.516" transform="translate(3612.803 2670.093)" fill="#e5f1f9" opacity="0.4"/><rect width="6.518" height="6.516" transform="translate(3606.285 2722.225)" fill="#e5f1f9" opacity="0.4"/><rect width="6.518" height="6.516" transform="translate(3606.285 2715.708)" fill="#e5f1f9" opacity="0.4"/><rect width="6.518" height="6.516" transform="translate(3606.285 2683.127)" fill="#e5f1f9" opacity="0.4"/><rect width="6.518" height="6.518" transform="translate(3606.285 2676.609)" fill="#e5f1f9" opacity="0.4"/><rect width="6.516" height="6.516" transform="translate(3599.769 2709.193)" fill="#e5f1f9" opacity="0.4"/><rect width="6.516" height="6.518" transform="translate(3599.769 2702.675)" fill="#e5f1f9" opacity="0.4"/><rect width="6.516" height="6.516" transform="translate(3599.769 2696.159)" fill="#e5f1f9" opacity="0.4"/><rect width="6.516" height="6.516" transform="translate(3599.769 2689.643)" fill="#e5f1f9" opacity="0.4"/><rect width="6.516" height="6.516" transform="translate(3684.484 2709.193)" fill="#e5f1f9"/><rect width="6.516" height="6.518" transform="translate(3684.484 2702.675)" fill="#e5f1f9"/><rect width="6.516" height="6.518" transform="translate(3671.45 2728.74)" fill="#e5f1f9"/><rect width="6.516" height="6.516" transform="translate(3664.934 2735.258)" fill="#e5f1f9"/><rect width="6.518" height="6.516" transform="translate(3651.9 2741.774)" fill="#e5f1f9"/><rect width="6.516" height="6.516" transform="translate(3645.385 2741.774)" fill="#e5f1f9"/><rect width="6.516" height="6.516" transform="translate(3645.385 2657.061)" fill="#e5f1f9"/><rect width="6.516" height="6.516" transform="translate(3638.868 2657.061)" fill="#e5f1f9"/><rect width="6.516" height="6.516" transform="translate(3632.353 2657.061)" fill="#e5f1f9"/><rect width="6.516" height="6.516" transform="translate(3619.319 2663.577)" fill="#e5f1f9"/><rect width="6.516" height="6.516" transform="translate(3612.803 2670.093)" fill="#e5f1f9"/><rect width="6.518" height="6.516" transform="translate(3606.285 2683.127)" fill="#e5f1f9"/><rect width="6.518" height="6.518" transform="translate(3606.285 2676.609)" fill="#e5f1f9"/><rect width="6.516" height="6.518" transform="translate(3599.769 2702.675)" fill="#e5f1f9"/><rect width="6.516" height="6.516" transform="translate(3599.769 2696.159)" fill="#e5f1f9"/><rect width="6.516" height="6.516" transform="translate(3599.769 2689.643)" fill="#e5f1f9"/><rect width="6.516" height="6.516" transform="translate(3664.934 2722.225)" fill="#ea88f2"/><rect width="6.516" height="6.516" transform="translate(3664.934 2715.708)" fill="#d331b0"/><rect width="6.516" height="6.516" transform="translate(3664.934 2683.127)" fill="#d331b0"/><rect width="6.516" height="6.516" transform="translate(3658.418 2722.225)" fill="#d331b0"/><rect width="6.516" height="6.516" transform="translate(3645.385 2670.093)" fill="#ea88f2"/><rect width="6.516" height="6.518" transform="translate(3638.868 2676.609)" fill="#64d2dd"/><rect width="6.516" height="6.516" transform="translate(3638.868 2670.093)" fill="#ea88f2"/><rect width="6.516" height="6.516" transform="translate(3632.353 2683.127)" fill="#d331b0"/><rect width="6.516" height="6.518" transform="translate(3632.353 2676.609)" fill="#64d2dd"/><rect width="6.518" height="6.516" transform="translate(3625.834 2689.643)" fill="#ea88f2"/><rect width="6.518" height="6.516" transform="translate(3625.834 2683.127)" fill="#64d2dd"/><rect width="6.518" height="6.518" transform="translate(3625.834 2676.609)" fill="#e1feff"/><rect width="6.516" height="6.516" transform="translate(3619.319 2709.193)" fill="#ea88f2"/><rect width="6.516" height="6.516" transform="translate(3619.319 2696.159)" fill="#64d2dd"/><rect width="6.516" height="6.516" transform="translate(3619.319 2689.643)" fill="#e1feff"/><rect width="6.516" height="6.516" transform="translate(3619.319 2683.127)" fill="#e1feff"/></g></g></svg>