<svg xmlns="http://www.w3.org/2000/svg" width="207.968" height="471.032" viewBox="0 0 207.968 471.032"><g transform="translate(-4797.911 -4021.865)"><g transform="translate(2350 149.897)"><rect width="2.873" height="22.984" transform="translate(2627.149 4328.635) rotate(180)" fill="#ffd91d"/><rect width="2.873" height="28.73" transform="translate(2630.022 4331.508) rotate(180)" fill="#ffd91d"/><rect width="2.873" height="28.73" transform="translate(2630.022 4302.779)" fill="#ffd91d"/><rect width="2.873" height="28.73" transform="translate(2632.895 4302.779)" fill="#ffd91d"/><rect width="2.873" height="28.73" transform="translate(2638.641 4331.508) rotate(180)" fill="#ffd91d"/><rect width="2.873" height="22.984" transform="translate(2641.514 4328.635) rotate(180)" fill="#ffd91d"/><rect width="2.873" height="22.984" transform="translate(2624.276 4328.635) rotate(180)" fill="#ffd91d"/><rect width="2.873" height="22.984" transform="translate(2644.387 4328.635) rotate(180)" fill="#ffd91d"/><rect width="2.873" height="17.238" transform="translate(2621.403 4325.763) rotate(180)" fill="#ffd91d"/><rect width="2.873" height="17.238" transform="translate(2644.387 4308.524)" fill="#ffd91d"/><rect width="2.873" height="11.492" transform="translate(2650.133 4322.89) rotate(180)" fill="#ffd91d"/><rect width="2.873" height="8.619" transform="translate(2638.641 4340.127) rotate(180)" fill="#ffa72e"/><rect width="2.873" height="8.619" transform="translate(2641.514 4337.254) rotate(180)" fill="#ffa72e"/><rect width="2.873" height="8.619" transform="translate(2644.387 4337.254) rotate(180)" fill="#ffa72e"/><rect width="2.873" height="8.619" transform="translate(2624.276 4337.254) rotate(180)" fill="#ffa72e"/><rect width="2.873" height="8.619" transform="translate(2627.149 4337.254) rotate(180)" fill="#ffa72e"/><rect width="2.873" height="8.619" transform="translate(2647.26 4334.381) rotate(180)" fill="#ffa72e"/><rect width="2.873" height="8.619" transform="translate(2621.403 4334.381) rotate(180)" fill="#ffa72e"/><rect width="2.873" height="8.619" transform="translate(2650.133 4331.508) rotate(180)" fill="#ffa72e"/><rect width="2.873" height="8.619" transform="translate(2618.53 4331.508) rotate(180)" fill="#ffa72e"/><rect width="2.873" height="5.746" transform="translate(2653.006 4325.762) rotate(180)" fill="#ffa72e"/><rect width="2.873" height="5.746" transform="translate(2615.657 4325.762) rotate(180)" fill="#ffa72e"/><rect width="2.873" height="8.619" transform="translate(2635.768 4340.127) rotate(180)" fill="#ffa72e"/><rect width="2.873" height="8.619" transform="translate(2627.149 4331.508)" fill="#ffa72e"/><rect width="2.873" height="8.619" transform="translate(2632.895 4340.127) rotate(180)" fill="#ffa72e"/><rect width="2.873" height="11.492" transform="translate(2618.53 4322.89) rotate(180)" fill="#ffd91d"/><rect width="2.873" height="5.746" transform="translate(2621.403 4305.652) rotate(-90)" fill="#07042d"/><rect width="2.873" height="2.873" transform="translate(2618.531 4308.525) rotate(-90)" fill="#07042d"/><rect width="2.873" height="2.873" transform="translate(2624.276 4314.271) rotate(-90)" fill="#f47d25"/><rect width="2.873" height="2.873" transform="translate(2638.641 4314.271) rotate(-90)" fill="#f47d25"/><rect width="2.873" height="2.873" transform="translate(2638.641 4331.508) rotate(-90)" fill="#f47d25"/><rect width="2.873" height="2.873" transform="translate(2624.276 4331.508) rotate(-90)" fill="#f47d25"/><rect width="2.873" height="2.873" transform="translate(2621.403 4317.144) rotate(-90)" fill="#f47d25"/><rect width="2.873" height="2.873" transform="translate(2641.514 4317.144) rotate(-90)" fill="#f47d25"/><rect width="2.873" height="2.873" transform="translate(2650.133 4320.017) rotate(-90)" fill="#ffd91d"/><rect width="2.873" height="2.873" transform="translate(2612.785 4320.017) rotate(-90)" fill="#ffd91d"/><rect width="2.873" height="2.873" transform="translate(2641.514 4328.635) rotate(-90)" fill="#f47d25"/><rect width="2.873" height="2.873" transform="translate(2621.403 4328.635) rotate(-90)" fill="#f47d25"/><rect width="2.873" height="2.873" transform="translate(2624.276 4325.762) rotate(-90)" fill="#ffffc9"/><rect width="2.873" height="2.873" transform="translate(2618.53 4331.508) rotate(-90)" fill="#ffd91d"/><rect width="2.873" height="2.873" transform="translate(2630.022 4328.635) rotate(-90)" fill="#ffffc9"/><rect width="2.873" height="2.873" transform="translate(2635.768 4322.889) rotate(-90)" fill="#ffffc9"/><rect width="2.873" height="2.873" transform="translate(2638.641 4320.017) rotate(-90)" fill="#ffffc9"/><rect width="2.873" height="2.873" transform="translate(2644.387 4314.271) rotate(-90)" fill="#ffffc9"/><rect width="2.873" height="2.873" transform="translate(2627.149 4331.508) rotate(-90)" fill="#ffffc9"/><rect width="2.873" height="2.873" transform="translate(2624.276 4334.381) rotate(-90)" fill="#ffd91d"/><rect width="2.873" height="2.873" transform="translate(2621.404 4337.254) rotate(-90)" fill="#ffd91d"/><rect width="2.873" height="2.873" transform="translate(2627.149 4322.889) rotate(-90)" fill="#ffffc9"/><rect width="2.873" height="2.873" transform="translate(2630.022 4320.016) rotate(-90)" fill="#ffffc9"/><rect width="2.873" height="2.873" transform="translate(2632.895 4317.144) rotate(-90)" fill="#ffffc9"/><rect width="2.873" height="2.873" transform="translate(2635.768 4314.271) rotate(-90)" fill="#ffffc9"/><rect width="2.873" height="2.873" transform="translate(2638.641 4311.397) rotate(-90)" fill="#ffffc9"/><rect width="2.873" height="2.873" transform="translate(2641.514 4308.524) rotate(-90)" fill="#ffffc9"/><rect width="2.873" height="2.873" transform="translate(2615.657 4311.397) rotate(-90)" fill="#07042d"/><rect width="5.746" height="2.873" transform="translate(2612.784 4317.144) rotate(-90)" fill="#07042d"/><rect width="2.873" height="5.746" transform="translate(2627.149 4337.254) rotate(90)" fill="#07042d"/><rect width="2.873" height="11.492" transform="translate(2638.641 4340.127) rotate(90)" fill="#07042d"/><rect width="2.873" height="11.492" transform="translate(2638.641 4299.906) rotate(90)" fill="#07042d"/><rect width="2.873" height="11.492" transform="translate(2638.641 4308.524) rotate(90)" fill="#f47d25"/><rect width="2.873" height="11.492" transform="translate(2638.641 4331.508) rotate(90)" fill="#f47d25"/><rect width="2.873" height="2.873" transform="translate(2621.403 4334.381) rotate(90)" fill="#07042d"/><rect width="2.873" height="2.873" transform="translate(2618.53 4331.508) rotate(90)" fill="#07042d"/><rect width="5.746" height="2.873" transform="translate(2615.657 4325.762) rotate(90)" fill="#07042d"/><rect width="8.619" height="2.873" transform="translate(2609.912 4325.762) rotate(-90)" fill="#07042d"/><rect width="8.619" height="2.873" transform="translate(2618.531 4325.762) rotate(-90)" fill="#f47d25"/><rect width="8.619" height="2.873" transform="translate(2644.387 4325.762) rotate(-90)" fill="#f47d25"/><rect width="2.873" height="5.746" transform="translate(2638.641 4305.652) rotate(-90)" fill="#07042d"/><rect width="2.873" height="2.873" transform="translate(2644.387 4308.524) rotate(-90)" fill="#07042d"/><rect width="2.873" height="2.873" transform="translate(2647.26 4311.397) rotate(-90)" fill="#07042d"/><rect width="5.746" height="2.873" transform="translate(2650.133 4317.144) rotate(-90)" fill="#07042d"/><rect width="2.873" height="5.746" transform="translate(2644.387 4337.254) rotate(90)" fill="#07042d"/><rect width="2.873" height="2.873" transform="translate(2647.26 4334.381) rotate(90)" fill="#07042d"/><rect width="2.873" height="2.873" transform="translate(2650.133 4331.508) rotate(90)" fill="#07042d"/><rect width="5.746" height="2.873" transform="translate(2653.006 4325.762) rotate(90)" fill="#07042d"/><rect width="8.619" height="2.873" transform="translate(2653.006 4325.762) rotate(-90)" fill="#07042d"/><rect width="2.873" height="2.873" transform="translate(2624.276 4314.271) rotate(180)" fill="#ffffc9"/><rect width="2.873" height="2.873" transform="translate(2627.149 4311.398) rotate(180)" fill="#ffffc9"/><rect width="2.873" height="2.873" transform="translate(2621.403 4317.144) rotate(180)" fill="#ffffc9"/></g><g transform="translate(2350 149.897)"><rect width="10.943" height="87.544" transform="translate(2513.57 3981.399) rotate(180)" fill="#ffd91d"/><rect width="10.943" height="109.431" transform="translate(2524.512 3992.342) rotate(180)" fill="#ffd91d"/><rect width="10.943" height="109.431" transform="translate(2524.513 3882.911)" fill="#ffd91d"/><rect width="10.943" height="109.431" transform="translate(2535.456 3882.911)" fill="#ffd91d"/><rect width="10.943" height="109.431" transform="translate(2557.342 3992.342) rotate(180)" fill="#ffd91d"/><rect width="10.943" height="87.544" transform="translate(2568.285 3981.399) rotate(180)" fill="#ffd91d"/><rect width="10.943" height="87.544" transform="translate(2502.626 3981.399) rotate(180)" fill="#ffd91d"/><rect width="10.943" height="87.544" transform="translate(2579.228 3981.399) rotate(180)" fill="#ffd91d"/><rect width="10.943" height="65.658" transform="translate(2491.684 3970.456) rotate(180)" fill="#ffd91d"/><rect width="10.943" height="65.658" transform="translate(2579.228 3904.797)" fill="#ffd91d"/><rect width="10.943" height="43.772" transform="translate(2601.114 3959.513) rotate(180)" fill="#ffd91d"/><rect width="10.943" height="32.829" transform="translate(2557.342 4025.171) rotate(180)" fill="#ffa72e"/><rect width="10.943" height="32.829" transform="translate(2568.285 4014.228) rotate(180)" fill="#ffa72e"/><rect width="10.943" height="32.829" transform="translate(2579.228 4014.228) rotate(180)" fill="#ffa72e"/><rect width="10.943" height="32.829" transform="translate(2502.626 4014.228) rotate(180)" fill="#ffa72e"/><rect width="10.943" height="32.829" transform="translate(2513.57 4014.228) rotate(180)" fill="#ffa72e"/><rect width="10.943" height="32.829" transform="translate(2590.171 4003.285) rotate(180)" fill="#ffa72e"/><rect width="10.943" height="32.829" transform="translate(2491.684 4003.285) rotate(180)" fill="#ffa72e"/><rect width="10.943" height="32.829" transform="translate(2601.114 3992.342) rotate(180)" fill="#ffa72e"/><rect width="10.943" height="32.829" transform="translate(2480.74 3992.342) rotate(180)" fill="#ffa72e"/><rect width="10.943" height="21.886" transform="translate(2612.057 3970.456) rotate(180)" fill="#ffa72e"/><rect width="10.943" height="21.886" transform="translate(2469.797 3970.456) rotate(180)" fill="#ffa72e"/><rect width="10.943" height="32.829" transform="translate(2546.399 4025.171) rotate(180)" fill="#ffa72e"/><rect width="10.943" height="32.829" transform="translate(2513.57 3992.342)" fill="#ffa72e"/><rect width="10.943" height="32.829" transform="translate(2535.456 4025.171) rotate(180)" fill="#ffa72e"/><rect width="10.943" height="43.772" transform="translate(2480.74 3959.513) rotate(180)" fill="#ffd91d"/><rect width="10.943" height="21.886" transform="translate(2491.684 3893.854) rotate(-90)" fill="#07042d"/><rect width="10.943" height="10.943" transform="translate(2480.74 3904.797) rotate(-90)" fill="#07042d"/><rect width="10.943" height="10.943" transform="translate(2502.627 3926.684) rotate(-90)" fill="#f47d25"/><rect width="10.943" height="10.943" transform="translate(2557.342 3926.684) rotate(-90)" fill="#f47d25"/><rect width="10.943" height="10.943" transform="translate(2557.342 3992.342) rotate(-90)" fill="#f47d25"/><rect width="10.943" height="10.943" transform="translate(2502.627 3992.342) rotate(-90)" fill="#f47d25"/><rect width="10.943" height="10.943" transform="translate(2491.684 3937.626) rotate(-90)" fill="#f47d25"/><rect width="10.943" height="10.943" transform="translate(2568.285 3937.626) rotate(-90)" fill="#f47d25"/><rect width="10.943" height="10.943" transform="translate(2601.114 3948.57) rotate(-90)" fill="#ffd91d"/><rect width="10.943" height="10.943" transform="translate(2458.854 3948.57) rotate(-90)" fill="#ffd91d"/><rect width="10.943" height="10.943" transform="translate(2568.285 3981.399) rotate(-90)" fill="#f47d25"/><rect width="10.943" height="10.943" transform="translate(2491.684 3981.399) rotate(-90)" fill="#f47d25"/><rect width="10.943" height="10.943" transform="translate(2502.627 3970.456) rotate(-90)" fill="#ffffc9"/><rect width="10.943" height="10.943" transform="translate(2480.741 3992.342) rotate(-90)" fill="#ffd91d"/><rect width="10.943" height="10.943" transform="translate(2524.513 3981.399) rotate(-90)" fill="#ffffc9"/><rect width="10.943" height="10.943" transform="translate(2546.399 3959.513) rotate(-90)" fill="#ffffc9"/><rect width="10.943" height="10.943" transform="translate(2557.342 3948.57) rotate(-90)" fill="#ffffc9"/><rect width="10.943" height="10.943" transform="translate(2579.228 3926.684) rotate(-90)" fill="#ffffc9"/><rect width="10.943" height="10.943" transform="translate(2513.57 3992.342) rotate(-90)" fill="#ffffc9"/><rect width="10.943" height="10.943" transform="translate(2502.627 4003.285) rotate(-90)" fill="#ffd91d"/><rect width="10.943" height="10.943" transform="translate(2491.684 4014.228) rotate(-90)" fill="#ffd91d"/><rect width="10.943" height="10.943" transform="translate(2513.57 3959.513) rotate(-90)" fill="#ffffc9"/><rect width="10.943" height="10.943" transform="translate(2524.513 3948.57) rotate(-90)" fill="#ffffc9"/><rect width="10.943" height="10.943" transform="translate(2535.456 3937.626) rotate(-90)" fill="#ffffc9"/><rect width="10.943" height="10.943" transform="translate(2546.399 3926.684) rotate(-90)" fill="#ffffc9"/><rect width="10.943" height="10.943" transform="translate(2557.342 3915.74) rotate(-90)" fill="#ffffc9"/><rect width="10.943" height="10.943" transform="translate(2568.285 3904.797) rotate(-90)" fill="#ffffc9"/><rect width="10.943" height="10.943" transform="translate(2469.798 3915.74) rotate(-90)" fill="#07042d"/><rect width="21.886" height="10.943" transform="translate(2458.854 3937.626) rotate(-90)" fill="#07042d"/><rect width="10.943" height="21.886" transform="translate(2513.57 4014.228) rotate(90)" fill="#07042d"/><rect width="10.943" height="43.772" transform="translate(2557.342 4025.171) rotate(90)" fill="#07042d"/><rect width="10.943" height="43.772" transform="translate(2557.342 3871.968) rotate(90)" fill="#07042d"/><rect width="10.943" height="43.772" transform="translate(2557.342 3904.797) rotate(90)" fill="#f47d25"/><rect width="10.943" height="43.772" transform="translate(2557.342 3992.342) rotate(90)" fill="#f47d25"/><rect width="10.943" height="10.943" transform="translate(2491.684 4003.285) rotate(90)" fill="#07042d"/><rect width="10.943" height="10.943" transform="translate(2480.74 3992.342) rotate(90)" fill="#07042d"/><rect width="21.886" height="10.943" transform="translate(2469.798 3970.456) rotate(90)" fill="#07042d"/><rect width="32.829" height="10.943" transform="translate(2447.911 3970.456) rotate(-90)" fill="#07042d"/><rect width="32.829" height="10.943" transform="translate(2480.74 3970.456) rotate(-90)" fill="#f47d25"/><rect width="32.829" height="10.943" transform="translate(2579.228 3970.456) rotate(-90)" fill="#f47d25"/><rect width="10.943" height="21.886" transform="translate(2557.342 3893.854) rotate(-90)" fill="#07042d"/><rect width="10.943" height="10.943" transform="translate(2579.228 3904.797) rotate(-90)" fill="#07042d"/><rect width="10.943" height="10.943" transform="translate(2590.171 3915.74) rotate(-90)" fill="#07042d"/><rect width="21.886" height="10.943" transform="translate(2601.114 3937.626) rotate(-90)" fill="#07042d"/><rect width="10.943" height="21.886" transform="translate(2579.228 4014.228) rotate(90)" fill="#07042d"/><rect width="10.943" height="10.943" transform="translate(2590.171 4003.285) rotate(90)" fill="#07042d"/><rect width="10.943" height="10.943" transform="translate(2601.114 3992.342) rotate(90)" fill="#07042d"/><rect width="21.886" height="10.943" transform="translate(2612.057 3970.456) rotate(90)" fill="#07042d"/><rect width="32.829" height="10.943" transform="translate(2612.057 3970.456) rotate(-90)" fill="#07042d"/><rect width="10.943" height="10.943" transform="translate(2502.626 3926.684) rotate(180)" fill="#ffffc9"/><rect width="10.943" height="10.943" transform="translate(2513.57 3915.74) rotate(180)" fill="#ffffc9"/><rect width="10.943" height="10.943" transform="translate(2491.684 3937.626) rotate(180)" fill="#ffffc9"/></g></g></svg>