<svg xmlns="http://www.w3.org/2000/svg" width="113.088" height="868.669" viewBox="0 0 113.088 868.669"><g transform="translate(-5504.912 -3797.897)"><g transform="translate(2350 149.897)"><rect width="5.949" height="47.59" transform="translate(3208.513 4486.925) rotate(180)" fill="#ffd91d"/><rect width="5.949" height="59.487" transform="translate(3214.461 4492.874) rotate(180)" fill="#ffd91d"/><rect width="5.949" height="59.487" transform="translate(3214.461 4433.386)" fill="#ffd91d"/><rect width="5.949" height="59.487" transform="translate(3220.41 4433.386)" fill="#ffd91d"/><rect width="5.949" height="59.487" transform="translate(3232.308 4492.874) rotate(180)" fill="#ffd91d"/><rect width="5.949" height="47.59" transform="translate(3238.256 4486.925) rotate(180)" fill="#ffd91d"/><rect width="5.949" height="47.59" transform="translate(3202.564 4486.925) rotate(180)" fill="#ffd91d"/><rect width="5.949" height="47.59" transform="translate(3244.205 4486.925) rotate(180)" fill="#ffd91d"/><rect width="5.949" height="35.692" transform="translate(3196.615 4480.976) rotate(180)" fill="#ffd91d"/><rect width="5.949" height="35.692" transform="translate(3244.205 4445.284)" fill="#ffd91d"/><rect width="5.949" height="23.795" transform="translate(3256.103 4475.027) rotate(180)" fill="#ffd91d"/><rect width="5.949" height="17.846" transform="translate(3232.308 4510.72) rotate(180)" fill="#ffa72e"/><rect width="5.949" height="17.846" transform="translate(3238.256 4504.771) rotate(180)" fill="#ffa72e"/><rect width="5.949" height="17.846" transform="translate(3244.205 4504.771) rotate(180)" fill="#ffa72e"/><rect width="5.949" height="17.846" transform="translate(3202.564 4504.771) rotate(180)" fill="#ffa72e"/><rect width="5.949" height="17.846" transform="translate(3208.513 4504.771) rotate(180)" fill="#ffa72e"/><rect width="5.949" height="17.846" transform="translate(3250.154 4498.822) rotate(180)" fill="#ffa72e"/><rect width="5.949" height="17.846" transform="translate(3196.615 4498.822) rotate(180)" fill="#ffa72e"/><rect width="5.949" height="17.846" transform="translate(3256.103 4492.874) rotate(180)" fill="#ffa72e"/><rect width="5.949" height="17.846" transform="translate(3190.667 4492.874) rotate(180)" fill="#ffa72e"/><rect width="5.949" height="11.897" transform="translate(3262.052 4480.976) rotate(180)" fill="#ffa72e"/><rect width="5.949" height="11.897" transform="translate(3184.718 4480.976) rotate(180)" fill="#ffa72e"/><rect width="5.949" height="17.846" transform="translate(3226.359 4510.72) rotate(180)" fill="#ffa72e"/><rect width="5.949" height="17.846" transform="translate(3208.513 4492.874)" fill="#ffa72e"/><rect width="5.949" height="17.846" transform="translate(3220.41 4510.72) rotate(180)" fill="#ffa72e"/><rect width="5.949" height="23.795" transform="translate(3190.667 4475.027) rotate(180)" fill="#ffd91d"/><rect width="5.949" height="11.897" transform="translate(3196.615 4439.335) rotate(-90)" fill="#07042d"/><rect width="5.949" height="5.949" transform="translate(3190.667 4445.284) rotate(-90)" fill="#07042d"/><rect width="5.949" height="5.949" transform="translate(3202.564 4457.181) rotate(-90)" fill="#f47d25"/><rect width="5.949" height="5.949" transform="translate(3232.308 4457.181) rotate(-90)" fill="#f47d25"/><rect width="5.949" height="5.949" transform="translate(3232.308 4492.874) rotate(-90)" fill="#f47d25"/><rect width="5.949" height="5.949" transform="translate(3202.564 4492.874) rotate(-90)" fill="#f47d25"/><rect width="5.949" height="5.949" transform="translate(3196.615 4463.13) rotate(-90)" fill="#f47d25"/><rect width="5.949" height="5.949" transform="translate(3238.256 4463.13) rotate(-90)" fill="#f47d25"/><rect width="5.949" height="5.949" transform="translate(3256.103 4469.079) rotate(-90)" fill="#ffd91d"/><rect width="5.949" height="5.949" transform="translate(3178.769 4469.079) rotate(-90)" fill="#ffd91d"/><rect width="5.949" height="5.949" transform="translate(3238.256 4486.925) rotate(-90)" fill="#f47d25"/><rect width="5.949" height="5.949" transform="translate(3196.615 4486.925) rotate(-90)" fill="#f47d25"/><rect width="5.949" height="5.949" transform="translate(3202.564 4480.976) rotate(-90)" fill="#ffffc9"/><rect width="5.949" height="5.949" transform="translate(3190.667 4492.874) rotate(-90)" fill="#ffd91d"/><rect width="5.949" height="5.949" transform="translate(3214.461 4486.925) rotate(-90)" fill="#ffffc9"/><rect width="5.949" height="5.949" transform="translate(3226.359 4475.027) rotate(-90)" fill="#ffffc9"/><rect width="5.949" height="5.949" transform="translate(3232.308 4469.079) rotate(-90)" fill="#ffffc9"/><rect width="5.949" height="5.949" transform="translate(3244.205 4457.181) rotate(-90)" fill="#ffffc9"/><rect width="5.949" height="5.949" transform="translate(3208.513 4492.874) rotate(-90)" fill="#ffffc9"/><rect width="5.949" height="5.949" transform="translate(3202.564 4498.822) rotate(-90)" fill="#ffd91d"/><rect width="5.949" height="5.949" transform="translate(3196.615 4504.771) rotate(-90)" fill="#ffd91d"/><rect width="5.949" height="5.949" transform="translate(3208.513 4475.027) rotate(-90)" fill="#ffffc9"/><rect width="5.949" height="5.949" transform="translate(3214.461 4469.079) rotate(-90)" fill="#ffffc9"/><rect width="5.949" height="5.949" transform="translate(3220.41 4463.13) rotate(-90)" fill="#ffffc9"/><rect width="5.949" height="5.949" transform="translate(3226.359 4457.181) rotate(-90)" fill="#ffffc9"/><rect width="5.949" height="5.949" transform="translate(3232.308 4451.232) rotate(-90)" fill="#ffffc9"/><rect width="5.949" height="5.949" transform="translate(3238.256 4445.284) rotate(-90)" fill="#ffffc9"/><rect width="5.949" height="5.949" transform="translate(3184.718 4451.232) rotate(-90)" fill="#07042d"/><rect width="11.897" height="5.949" transform="translate(3178.77 4463.13) rotate(-90)" fill="#07042d"/><rect width="5.949" height="11.897" transform="translate(3208.513 4504.771) rotate(90)" fill="#07042d"/><rect width="5.949" height="23.795" transform="translate(3232.308 4510.72) rotate(90)" fill="#07042d"/><rect width="5.949" height="23.795" transform="translate(3232.307 4427.438) rotate(90)" fill="#07042d"/><rect width="5.949" height="23.795" transform="translate(3232.307 4445.284) rotate(90)" fill="#f47d25"/><rect width="5.949" height="23.795" transform="translate(3232.307 4492.874) rotate(90)" fill="#f47d25"/><rect width="5.949" height="5.949" transform="translate(3196.615 4498.822) rotate(90)" fill="#07042d"/><rect width="5.949" height="5.949" transform="translate(3190.667 4492.874) rotate(90)" fill="#07042d"/><rect width="11.898" height="5.949" transform="translate(3184.718 4480.976) rotate(90)" fill="#07042d"/><rect width="17.846" height="5.949" transform="translate(3172.821 4480.976) rotate(-90)" fill="#07042d"/><rect width="17.846" height="5.949" transform="translate(3190.667 4480.976) rotate(-90)" fill="#f47d25"/><rect width="17.846" height="5.949" transform="translate(3244.205 4480.976) rotate(-90)" fill="#f47d25"/><rect width="5.949" height="11.898" transform="translate(3232.308 4439.335) rotate(-90)" fill="#07042d"/><rect width="5.949" height="5.949" transform="translate(3244.205 4445.284) rotate(-90)" fill="#07042d"/><rect width="5.949" height="5.949" transform="translate(3250.154 4451.232) rotate(-90)" fill="#07042d"/><rect width="11.897" height="5.949" transform="translate(3256.102 4463.13) rotate(-90)" fill="#07042d"/><rect width="5.949" height="11.898" transform="translate(3244.205 4504.771) rotate(90)" fill="#07042d"/><rect width="5.949" height="5.949" transform="translate(3250.154 4498.822) rotate(90)" fill="#07042d"/><rect width="5.949" height="5.949" transform="translate(3256.103 4492.874) rotate(90)" fill="#07042d"/><rect width="11.898" height="5.949" transform="translate(3262.052 4480.976) rotate(90)" fill="#07042d"/><rect width="17.846" height="5.949" transform="translate(3262.051 4480.976) rotate(-90)" fill="#07042d"/><rect width="5.949" height="5.949" transform="translate(3202.564 4457.181) rotate(180)" fill="#ffffc9"/><rect width="5.949" height="5.949" transform="translate(3208.513 4451.232) rotate(180)" fill="#ffffc9"/><rect width="5.949" height="5.949" transform="translate(3196.615 4463.13) rotate(180)" fill="#ffffc9"/></g><g transform="translate(2350 149.897)"><rect width="2.193" height="17.544" transform="translate(3168.07 3669.93) rotate(180)" fill="#ffd91d"/><rect width="2.193" height="21.93" transform="translate(3170.263 3672.123) rotate(180)" fill="#ffd91d"/><rect width="2.193" height="21.93" transform="translate(3170.263 3650.193)" fill="#ffd91d"/><rect width="2.193" height="21.93" transform="translate(3172.456 3650.193)" fill="#ffd91d"/><rect width="2.193" height="21.93" transform="translate(3176.842 3672.123) rotate(180)" fill="#ffd91d"/><rect width="2.193" height="17.544" transform="translate(3179.035 3669.93) rotate(180)" fill="#ffd91d"/><rect width="2.193" height="17.544" transform="translate(3165.877 3669.93) rotate(180)" fill="#ffd91d"/><rect width="2.193" height="17.544" transform="translate(3181.228 3669.93) rotate(180)" fill="#ffd91d"/><rect width="2.193" height="13.158" transform="translate(3163.684 3667.737) rotate(180)" fill="#ffd91d"/><rect width="2.193" height="13.158" transform="translate(3181.228 3654.579)" fill="#ffd91d"/><rect width="2.193" height="8.772" transform="translate(3185.614 3665.544) rotate(180)" fill="#ffd91d"/><rect width="2.193" height="6.579" transform="translate(3176.842 3678.703) rotate(180)" fill="#ffa72e"/><rect width="2.193" height="6.579" transform="translate(3179.035 3676.509) rotate(180)" fill="#ffa72e"/><rect width="2.193" height="6.579" transform="translate(3181.228 3676.509) rotate(180)" fill="#ffa72e"/><rect width="2.193" height="6.579" transform="translate(3165.877 3676.509) rotate(180)" fill="#ffa72e"/><rect width="2.193" height="6.579" transform="translate(3168.07 3676.509) rotate(180)" fill="#ffa72e"/><rect width="2.193" height="6.579" transform="translate(3183.421 3674.316) rotate(180)" fill="#ffa72e"/><rect width="2.193" height="6.579" transform="translate(3163.684 3674.316) rotate(180)" fill="#ffa72e"/><rect width="2.193" height="6.579" transform="translate(3185.614 3672.124) rotate(180)" fill="#ffa72e"/><rect width="2.193" height="6.579" transform="translate(3161.49 3672.124) rotate(180)" fill="#ffa72e"/><rect width="2.193" height="4.386" transform="translate(3187.807 3667.737) rotate(180)" fill="#ffa72e"/><rect width="2.193" height="4.386" transform="translate(3159.298 3667.737) rotate(180)" fill="#ffa72e"/><rect width="2.193" height="6.579" transform="translate(3174.649 3678.703) rotate(180)" fill="#ffa72e"/><rect width="2.193" height="6.579" transform="translate(3168.07 3672.123)" fill="#ffa72e"/><rect width="2.193" height="6.579" transform="translate(3172.456 3678.703) rotate(180)" fill="#ffa72e"/><rect width="2.193" height="8.772" transform="translate(3161.49 3665.544) rotate(180)" fill="#ffd91d"/><rect width="2.193" height="4.386" transform="translate(3163.684 3652.386) rotate(-90)" fill="#07042d"/><rect width="2.193" height="2.193" transform="translate(3161.49 3654.579) rotate(-90)" fill="#07042d"/><rect width="2.193" height="2.193" transform="translate(3165.877 3658.965) rotate(-90)" fill="#f47d25"/><rect width="2.193" height="2.193" transform="translate(3176.842 3658.965) rotate(-90)" fill="#f47d25"/><rect width="2.193" height="2.193" transform="translate(3176.842 3672.123) rotate(-90)" fill="#f47d25"/><rect width="2.193" height="2.193" transform="translate(3165.877 3672.123) rotate(-90)" fill="#f47d25"/><rect width="2.193" height="2.193" transform="translate(3163.684 3661.158) rotate(-90)" fill="#f47d25"/><rect width="2.193" height="2.193" transform="translate(3179.035 3661.158) rotate(-90)" fill="#f47d25"/><rect width="2.193" height="2.193" transform="translate(3185.614 3663.351) rotate(-90)" fill="#ffd91d"/><rect width="2.193" height="2.193" transform="translate(3157.104 3663.351) rotate(-90)" fill="#ffd91d"/><rect width="2.193" height="2.193" transform="translate(3179.035 3669.93) rotate(-90)" fill="#f47d25"/><rect width="2.193" height="2.193" transform="translate(3163.684 3669.93) rotate(-90)" fill="#f47d25"/><rect width="2.193" height="2.193" transform="translate(3165.876 3667.737) rotate(-90)" fill="#ffffc9"/><rect width="2.193" height="2.193" transform="translate(3161.491 3672.124) rotate(-90)" fill="#ffd91d"/><rect width="2.193" height="2.193" transform="translate(3170.263 3669.93) rotate(-90)" fill="#ffffc9"/><rect width="2.193" height="2.193" transform="translate(3174.649 3665.544) rotate(-90)" fill="#ffffc9"/><rect width="2.193" height="2.193" transform="translate(3176.842 3663.351) rotate(-90)" fill="#ffffc9"/><rect width="2.193" height="2.193" transform="translate(3181.228 3658.965) rotate(-90)" fill="#ffffc9"/><rect width="2.193" height="2.193" transform="translate(3168.07 3672.124) rotate(-90)" fill="#ffffc9"/><rect width="2.193" height="2.193" transform="translate(3165.876 3674.316) rotate(-90)" fill="#ffd91d"/><rect width="2.193" height="2.193" transform="translate(3163.684 3676.51) rotate(-90)" fill="#ffd91d"/><rect width="2.193" height="2.193" transform="translate(3168.07 3665.544) rotate(-90)" fill="#ffffc9"/><rect width="2.193" height="2.193" transform="translate(3170.263 3663.351) rotate(-90)" fill="#ffffc9"/><rect width="2.193" height="2.193" transform="translate(3172.456 3661.158) rotate(-90)" fill="#ffffc9"/><rect width="2.193" height="2.193" transform="translate(3174.649 3658.965) rotate(-90)" fill="#ffffc9"/><rect width="2.193" height="2.193" transform="translate(3176.842 3656.772) rotate(-90)" fill="#ffffc9"/><rect width="2.193" height="2.193" transform="translate(3179.035 3654.579) rotate(-90)" fill="#ffffc9"/><rect width="2.193" height="2.193" transform="translate(3159.298 3656.772) rotate(-90)" fill="#07042d"/><rect width="4.386" height="2.193" transform="translate(3157.104 3661.158) rotate(-90)" fill="#07042d"/><rect width="2.193" height="4.386" transform="translate(3168.07 3676.51) rotate(90)" fill="#07042d"/><rect width="2.193" height="8.772" transform="translate(3176.842 3678.702) rotate(90)" fill="#07042d"/><rect width="2.193" height="8.772" transform="translate(3176.842 3648) rotate(90)" fill="#07042d"/><rect width="2.193" height="8.772" transform="translate(3176.842 3654.579) rotate(90)" fill="#f47d25"/><rect width="2.193" height="8.772" transform="translate(3176.842 3672.123) rotate(90)" fill="#f47d25"/><rect width="2.193" height="2.193" transform="translate(3163.684 3674.316) rotate(90)" fill="#07042d"/><rect width="2.193" height="2.193" transform="translate(3161.491 3672.124) rotate(90)" fill="#07042d"/><rect width="4.386" height="2.193" transform="translate(3159.298 3667.737) rotate(90)" fill="#07042d"/><rect width="6.579" height="2.193" transform="translate(3154.912 3667.737) rotate(-90)" fill="#07042d"/><rect width="6.579" height="2.193" transform="translate(3161.491 3667.737) rotate(-90)" fill="#f47d25"/><rect width="6.579" height="2.193" transform="translate(3181.228 3667.737) rotate(-90)" fill="#f47d25"/><rect width="2.193" height="4.386" transform="translate(3176.842 3652.386) rotate(-90)" fill="#07042d"/><rect width="2.193" height="2.193" transform="translate(3181.228 3654.579) rotate(-90)" fill="#07042d"/><rect width="2.193" height="2.193" transform="translate(3183.421 3656.772) rotate(-90)" fill="#07042d"/><rect width="4.386" height="2.193" transform="translate(3185.614 3661.158) rotate(-90)" fill="#07042d"/><rect width="2.193" height="4.386" transform="translate(3181.228 3676.509) rotate(90)" fill="#07042d"/><rect width="2.193" height="2.193" transform="translate(3183.421 3674.316) rotate(90)" fill="#07042d"/><rect width="2.193" height="2.193" transform="translate(3185.614 3672.123) rotate(90)" fill="#07042d"/><rect width="4.386" height="2.193" transform="translate(3187.807 3667.737) rotate(90)" fill="#07042d"/><rect width="6.579" height="2.193" transform="translate(3187.807 3667.737) rotate(-90)" fill="#07042d"/><rect width="2.193" height="2.193" transform="translate(3165.877 3658.965) rotate(180)" fill="#ffffc9"/><rect width="2.193" height="2.193" transform="translate(3168.07 3656.772) rotate(180)" fill="#ffffc9"/><rect width="2.193" height="2.193" transform="translate(3163.684 3661.158) rotate(180)" fill="#ffffc9"/></g></g></svg>