<svg xmlns="http://www.w3.org/2000/svg" width="171.785" height="733.783" viewBox="0 0 171.785 733.783"><g transform="translate(-6191.72 -3819.114)"><g transform="translate(2350 149.897)"><rect width="4.441" height="4.402" transform="translate(3908.065 3713.456)"/><rect width="4.441" height="4.446" transform="translate(3908.065 3709.01)"/><rect width="4.441" height="4.402" transform="translate(3908.065 3704.609)"/><rect width="4.441" height="4.446" transform="translate(3908.065 3700.163)"/><rect width="4.441" height="4.402" transform="translate(3908.065 3695.761)"/><rect width="4.441" height="4.446" transform="translate(3908.065 3691.315)"/><rect width="4.396" height="4.402" transform="translate(3903.668 3722.304)"/><rect width="4.396" height="4.446" transform="translate(3903.668 3717.858)"/><rect width="4.396" height="4.402" transform="translate(3903.668 3713.456)" fill="#ffdd1a"/><rect width="4.396" height="4.446" transform="translate(3903.668 3709.01)" fill="#ffdd1a"/><rect width="4.396" height="4.402" transform="translate(3903.668 3704.609)" fill="#ffdd1a"/><rect width="4.396" height="4.446" transform="translate(3903.668 3700.163)" fill="#ffdd1a"/><rect width="4.396" height="4.402" transform="translate(3903.668 3695.761)" fill="#ffdd1a"/><rect width="4.396" height="4.446" transform="translate(3903.668 3691.315)" fill="#ffdd1a"/><rect width="4.396" height="4.402" transform="translate(3903.668 3686.913)"/><rect width="4.396" height="4.446" transform="translate(3903.668 3682.467)"/><rect width="4.441" height="4.446" transform="translate(3899.228 3726.706)"/><rect width="4.441" height="4.402" transform="translate(3899.228 3722.304)" fill="#ffdd1a"/><rect width="4.441" height="4.446" transform="translate(3899.228 3717.858)" fill="#ffdd1a"/><rect width="4.441" height="4.402" transform="translate(3899.228 3713.456)" fill="#ea9e09"/><rect width="4.441" height="4.446" transform="translate(3899.228 3709.01)" fill="#ea9e09"/><rect width="4.441" height="4.402" transform="translate(3899.228 3704.609)" fill="#ea9e09"/><rect width="4.441" height="4.446" transform="translate(3899.228 3700.163)" fill="#ea9e09"/><rect width="4.441" height="4.402" transform="translate(3899.228 3695.761)" fill="#ea9e09"/><rect width="4.441" height="4.446" transform="translate(3899.228 3691.315)" fill="#ea9e09"/><rect width="4.441" height="4.402" transform="translate(3899.228 3686.913)" fill="#ffdd1a"/><rect width="4.441" height="4.446" transform="translate(3899.228 3682.467)" fill="#ffdd1a"/><rect width="4.441" height="4.402" transform="translate(3899.228 3678.065)"/><rect width="4.441" height="4.402" transform="translate(3894.787 3731.152)"/><rect width="4.441" height="4.446" transform="translate(3894.787 3726.706)" fill="#ffdd1a"/><rect width="4.441" height="4.402" transform="translate(3894.787 3722.304)" fill="#ea9e09"/><rect width="4.441" height="4.446" transform="translate(3894.787 3717.858)" fill="#ea9e09"/><rect width="4.441" height="4.402" transform="translate(3894.787 3713.456)" fill="#ffdd1a"/><rect width="4.441" height="4.446" transform="translate(3894.787 3709.01)" fill="#ffdd1a"/><rect width="4.441" height="4.402" transform="translate(3894.787 3704.609)" fill="#ffdd1a"/><rect width="4.441" height="4.446" transform="translate(3894.787 3700.163)" fill="#ffdd1a"/><rect width="4.441" height="4.402" transform="translate(3894.787 3695.761)" fill="#ffdd1a"/><rect width="4.441" height="4.446" transform="translate(3894.787 3691.315)" fill="#ffdd1a"/><rect width="4.441" height="4.402" transform="translate(3894.787 3686.913)" fill="#ea9e09"/><rect width="4.441" height="4.446" transform="translate(3894.787 3682.467)" fill="#ea9e09"/><rect width="4.441" height="4.402" transform="translate(3894.787 3678.065)" fill="#ffdd1a"/><rect width="4.441" height="4.446" transform="translate(3894.787 3673.619)"/><rect width="4.396" height="4.402" transform="translate(3890.391 3731.152)"/><rect width="4.396" height="4.446" transform="translate(3890.391 3726.706)" fill="#ffdd1a"/><rect width="4.396" height="4.402" transform="translate(3890.391 3722.304)" fill="#ea9e09"/><rect width="4.396" height="4.446" transform="translate(3890.391 3717.858)" fill="#ffdd1a"/><rect width="4.396" height="4.402" transform="translate(3890.391 3713.456)" fill="#ffdd1a"/><rect width="4.396" height="4.446" transform="translate(3890.391 3709.01)" fill="#ffdd1a"/><rect width="4.396" height="4.402" transform="translate(3890.391 3704.609)" fill="#ffdd1a"/><rect width="4.396" height="4.446" transform="translate(3890.391 3700.163)" fill="#ffdd1a"/><rect width="4.396" height="4.402" transform="translate(3890.391 3695.761)" fill="#ffdd1a"/><rect width="4.396" height="4.446" transform="translate(3890.391 3691.315)" fill="#ffdd1a"/><rect width="4.396" height="4.402" transform="translate(3890.391 3686.913)" fill="#ffdd1a"/><rect width="4.396" height="4.446" transform="translate(3890.391 3682.467)" fill="#fff"/><rect width="4.396" height="4.402" transform="translate(3890.391 3678.065)" fill="#ffdd1a"/><rect width="4.396" height="4.446" transform="translate(3890.391 3673.619)"/><rect width="4.441" height="4.446" transform="translate(3885.95 3735.554)"/><rect width="4.441" height="4.402" transform="translate(3885.95 3731.152)" fill="#ffdd1a"/><rect width="4.441" height="4.446" transform="translate(3885.95 3726.706)" fill="#ea9e09"/><rect width="4.441" height="4.402" transform="translate(3885.95 3722.304)" fill="#ffdd1a"/><rect width="4.441" height="4.446" transform="translate(3885.95 3717.858)" fill="#ffdd1a"/><rect width="4.441" height="4.402" transform="translate(3885.95 3713.456)" fill="#ffdd1a"/><rect width="4.441" height="4.446" transform="translate(3885.95 3709.01)" fill="#ffdd1a"/><rect width="4.441" height="4.402" transform="translate(3885.95 3704.609)" fill="#ffdd1a"/><rect width="4.441" height="4.446" transform="translate(3885.95 3700.163)" fill="#ffdd1a"/><rect width="4.441" height="4.402" transform="translate(3885.95 3695.761)" fill="#ffdd1a"/><rect width="4.441" height="4.446" transform="translate(3885.95 3691.315)" fill="#ffdd1a"/><rect width="4.441" height="4.402" transform="translate(3885.95 3686.913)" fill="#ffdd1a"/><rect width="4.441" height="4.446" transform="translate(3885.95 3682.467)" fill="#ffdd1a"/><rect width="4.441" height="4.402" transform="translate(3885.95 3678.065)" fill="#fff"/><rect width="4.441" height="4.446" transform="translate(3885.95 3673.619)" fill="#ffdd1a"/><rect width="4.441" height="4.402" transform="translate(3885.95 3669.217)"/><rect width="4.441" height="4.446" transform="translate(3881.509 3735.554)"/><rect width="4.441" height="4.402" transform="translate(3881.509 3731.152)" fill="#ffdd1a"/><rect width="4.441" height="4.446" transform="translate(3881.509 3726.706)" fill="#ea9e09"/><rect width="4.441" height="4.402" transform="translate(3881.509 3722.304)" fill="#ffdd1a"/><rect width="4.441" height="4.446" transform="translate(3881.509 3717.858)" fill="#ea9e09"/><rect width="4.441" height="4.402" transform="translate(3881.509 3713.456)" fill="#ea9e09"/><rect width="4.441" height="4.446" transform="translate(3881.509 3709.01)" fill="#ea9e09"/><rect width="4.441" height="4.402" transform="translate(3881.509 3704.609)" fill="#ea9e09"/><rect width="4.441" height="4.446" transform="translate(3881.509 3700.163)" fill="#ea9e09"/><rect width="4.441" height="4.402" transform="translate(3881.509 3695.761)" fill="#ea9e09"/><rect width="4.441" height="4.446" transform="translate(3881.509 3691.315)" fill="#ea9e09"/><rect width="4.441" height="4.402" transform="translate(3881.509 3686.913)" fill="#ea9e09"/><rect width="4.441" height="4.446" transform="translate(3881.509 3682.467)" fill="#ffdd1a"/><rect width="4.441" height="4.402" transform="translate(3881.509 3678.065)" fill="#fff"/><rect width="4.441" height="4.446" transform="translate(3881.509 3673.619)" fill="#ffdd1a"/><rect width="4.441" height="4.402" transform="translate(3881.509 3669.217)"/><rect width="4.396" height="4.446" transform="translate(3877.113 3735.554)"/><rect width="4.396" height="4.402" transform="translate(3877.113 3731.152)" fill="#ffdd1a"/><rect width="4.396" height="4.446" transform="translate(3877.113 3726.706)" fill="#ea9e09"/><rect width="4.396" height="4.402" transform="translate(3877.113 3722.304)" fill="#ffdd1a"/><rect width="4.396" height="4.446" transform="translate(3877.113 3717.858)" fill="#ea9e09"/><rect width="4.396" height="4.402" transform="translate(3877.113 3713.456)" fill="#ffdd1a"/><rect width="4.396" height="4.446" transform="translate(3877.113 3709.01)" fill="#ffdd1a"/><rect width="4.396" height="4.402" transform="translate(3877.113 3704.609)" fill="#ffdd1a"/><rect width="4.396" height="4.446" transform="translate(3877.113 3700.163)" fill="#ffdd1a"/><rect width="4.396" height="4.402" transform="translate(3877.113 3695.761)" fill="#ffdd1a"/><rect width="4.396" height="4.446" transform="translate(3877.113 3691.315)" fill="#ffdd1a"/><rect width="4.396" height="4.402" transform="translate(3877.113 3686.913)" fill="#fff"/><rect width="4.396" height="4.446" transform="translate(3877.113 3682.467)" fill="#ffdd1a"/><rect width="4.396" height="4.402" transform="translate(3877.113 3678.065)" fill="#fff"/><rect width="4.396" height="4.446" transform="translate(3877.113 3673.619)" fill="#ffdd1a"/><rect width="4.396" height="4.402" transform="translate(3877.113 3669.217)"/><rect width="4.441" height="4.446" transform="translate(3872.672 3735.554)"/><rect width="4.441" height="4.402" transform="translate(3872.672 3731.152)" fill="#ffdd1a"/><rect width="4.441" height="4.446" transform="translate(3872.672 3726.706)" fill="#ea9e09"/><rect width="4.441" height="4.402" transform="translate(3872.672 3722.304)" fill="#ffdd1a"/><rect width="4.441" height="4.446" transform="translate(3872.672 3717.858)" fill="#ea9e09"/><rect width="4.441" height="4.402" transform="translate(3872.672 3713.456)" fill="#ffdd1a"/><rect width="4.441" height="4.446" transform="translate(3872.672 3709.01)" fill="#ffdd1a"/><rect width="4.441" height="4.402" transform="translate(3872.672 3704.609)" fill="#ffdd1a"/><rect width="4.441" height="4.446" transform="translate(3872.672 3700.163)" fill="#ffdd1a"/><rect width="4.441" height="4.402" transform="translate(3872.672 3695.761)" fill="#ffdd1a"/><rect width="4.441" height="4.446" transform="translate(3872.672 3691.315)" fill="#ffdd1a"/><rect width="4.441" height="4.402" transform="translate(3872.672 3686.913)" fill="#fff"/><rect width="4.441" height="4.446" transform="translate(3872.672 3682.467)" fill="#ffdd1a"/><rect width="4.441" height="4.402" transform="translate(3872.672 3678.065)" fill="#fff"/><rect width="4.441" height="4.446" transform="translate(3872.672 3673.619)" fill="#ffdd1a"/><rect width="4.441" height="4.402" transform="translate(3872.672 3669.217)"/><rect width="4.396" height="4.446" transform="translate(3868.276 3735.554)"/><rect width="4.396" height="4.402" transform="translate(3868.276 3731.152)" fill="#ffdd1a"/><rect width="4.396" height="4.446" transform="translate(3868.276 3726.706)" fill="#ea9e09"/><rect width="4.396" height="4.402" transform="translate(3868.276 3722.304)" fill="#ffdd1a"/><rect width="4.396" height="4.446" transform="translate(3868.276 3717.858)" fill="#fff"/><rect width="4.396" height="4.402" transform="translate(3868.276 3713.456)" fill="#fff"/><rect width="4.396" height="4.446" transform="translate(3868.276 3709.01)" fill="#fff"/><rect width="4.396" height="4.402" transform="translate(3868.276 3704.609)" fill="#fff"/><rect width="4.396" height="4.446" transform="translate(3868.276 3700.163)" fill="#fff"/><rect width="4.396" height="4.402" transform="translate(3868.276 3695.761)" fill="#fff"/><rect width="4.396" height="4.446" transform="translate(3868.276 3691.315)" fill="#fff"/><rect width="4.396" height="4.402" transform="translate(3868.276 3686.913)" fill="#fff"/><rect width="4.396" height="4.446" transform="translate(3868.276 3682.467)" fill="#ffdd1a"/><rect width="4.396" height="4.402" transform="translate(3868.276 3678.065)" fill="#fff"/><rect width="4.396" height="4.446" transform="translate(3868.276 3673.619)" fill="#ffdd1a"/><rect width="4.396" height="4.402" transform="translate(3868.276 3669.217)"/><rect width="4.441" height="4.446" transform="translate(3863.835 3735.554)"/><rect width="4.441" height="4.402" transform="translate(3863.835 3731.152)" fill="#ffdd1a"/><rect width="4.441" height="4.446" transform="translate(3863.835 3726.706)" fill="#ea9e09"/><rect width="4.441" height="4.402" transform="translate(3863.835 3722.304)" fill="#ffdd1a"/><rect width="4.441" height="4.446" transform="translate(3863.835 3717.858)" fill="#ffdd1a"/><rect width="4.441" height="4.402" transform="translate(3863.835 3713.456)" fill="#ffdd1a"/><rect width="4.441" height="4.446" transform="translate(3863.835 3709.01)" fill="#ffdd1a"/><rect width="4.441" height="4.402" transform="translate(3863.835 3704.609)" fill="#ffdd1a"/><rect width="4.441" height="4.446" transform="translate(3863.835 3700.163)" fill="#ffdd1a"/><rect width="4.441" height="4.402" transform="translate(3863.835 3695.761)" fill="#ffdd1a"/><rect width="4.441" height="4.446" transform="translate(3863.835 3691.315)" fill="#ffdd1a"/><rect width="4.441" height="4.402" transform="translate(3863.835 3686.913)" fill="#ffdd1a"/><rect width="4.441" height="4.446" transform="translate(3863.835 3682.467)" fill="#ffdd1a"/><rect width="4.441" height="4.402" transform="translate(3863.835 3678.065)" fill="#fff"/><rect width="4.441" height="4.446" transform="translate(3863.835 3673.619)" fill="#ffdd1a"/><rect width="4.441" height="4.402" transform="translate(3863.835 3669.217)"/><rect width="4.441" height="4.402" transform="translate(3859.394 3731.152)"/><rect width="4.441" height="4.446" transform="translate(3859.394 3726.706)" fill="#ffdd1a"/><rect width="4.441" height="4.402" transform="translate(3859.394 3722.304)" fill="#ea9e09"/><rect width="4.441" height="4.446" transform="translate(3859.394 3717.858)" fill="#ffdd1a"/><rect width="4.441" height="4.402" transform="translate(3859.394 3713.456)" fill="#ffdd1a"/><rect width="4.441" height="4.446" transform="translate(3859.394 3709.01)" fill="#ffdd1a"/><rect width="4.441" height="4.402" transform="translate(3859.394 3704.609)" fill="#ffdd1a"/><rect width="4.441" height="4.446" transform="translate(3859.394 3700.163)" fill="#ffdd1a"/><rect width="4.441" height="4.402" transform="translate(3859.394 3695.761)" fill="#ffdd1a"/><rect width="4.441" height="4.446" transform="translate(3859.394 3691.315)" fill="#ffdd1a"/><rect width="4.441" height="4.402" transform="translate(3859.394 3686.913)" fill="#ffdd1a"/><rect width="4.441" height="4.446" transform="translate(3859.394 3682.467)" fill="#fff"/><rect width="4.441" height="4.402" transform="translate(3859.394 3678.065)" fill="#ffdd1a"/><rect width="4.441" height="4.446" transform="translate(3859.394 3673.619)"/><rect width="4.396" height="4.402" transform="translate(3854.998 3731.152)"/><rect width="4.396" height="4.446" transform="translate(3854.998 3726.706)" fill="#ffdd1a"/><rect width="4.396" height="4.402" transform="translate(3854.998 3722.304)" fill="#ea9e09"/><rect width="4.396" height="4.446" transform="translate(3854.998 3717.858)" fill="#fff"/><rect width="4.396" height="4.402" transform="translate(3854.998 3713.456)" fill="#ffdd1a"/><rect width="4.396" height="4.446" transform="translate(3854.998 3709.01)" fill="#ffdd1a"/><rect width="4.396" height="4.402" transform="translate(3854.998 3704.609)" fill="#ffdd1a"/><rect width="4.396" height="4.446" transform="translate(3854.998 3700.163)" fill="#ffdd1a"/><rect width="4.396" height="4.402" transform="translate(3854.998 3695.761)" fill="#ffdd1a"/><rect width="4.396" height="4.446" transform="translate(3854.998 3691.315)" fill="#ffdd1a"/><rect width="4.396" height="4.402" transform="translate(3854.998 3686.913)" fill="#fff"/><rect width="4.396" height="4.446" transform="translate(3854.998 3682.467)" fill="#fff"/><rect width="4.396" height="4.402" transform="translate(3854.998 3678.065)" fill="#ffdd1a"/><rect width="4.396" height="4.446" transform="translate(3854.998 3673.619)"/><rect width="4.441" height="4.446" transform="translate(3850.557 3726.706)"/><rect width="4.441" height="4.402" transform="translate(3850.557 3722.304)" fill="#ffdd1a"/><rect width="4.441" height="4.446" transform="translate(3850.557 3717.858)" fill="#ffdd1a"/><rect width="4.441" height="4.402" transform="translate(3850.557 3713.456)" fill="#fff"/><rect width="4.441" height="4.446" transform="translate(3850.557 3709.01)" fill="#fff"/><rect width="4.441" height="4.402" transform="translate(3850.557 3704.609)" fill="#fff"/><rect width="4.441" height="4.446" transform="translate(3850.557 3700.163)" fill="#fff"/><rect width="4.441" height="4.402" transform="translate(3850.557 3695.761)" fill="#fff"/><rect width="4.441" height="4.446" transform="translate(3850.557 3691.315)" fill="#fff"/><rect width="4.441" height="4.402" transform="translate(3850.557 3686.913)" fill="#ffdd1a"/><rect width="4.441" height="4.446" transform="translate(3850.557 3682.467)" fill="#ffdd1a"/><rect width="4.441" height="4.402" transform="translate(3850.557 3678.065)"/><rect width="4.441" height="4.402" transform="translate(3846.116 3722.304)"/><rect width="4.441" height="4.446" transform="translate(3846.116 3717.858)"/><rect width="4.441" height="4.402" transform="translate(3846.116 3713.456)" fill="#ffdd1a"/><rect width="4.441" height="4.446" transform="translate(3846.116 3709.01)" fill="#ffdd1a"/><rect width="4.441" height="4.402" transform="translate(3846.116 3704.609)" fill="#ffdd1a"/><rect width="4.441" height="4.446" transform="translate(3846.116 3700.163)" fill="#ffdd1a"/><rect width="4.441" height="4.402" transform="translate(3846.116 3695.761)" fill="#ffdd1a"/><rect width="4.441" height="4.446" transform="translate(3846.116 3691.315)" fill="#ffdd1a"/><rect width="4.441" height="4.402" transform="translate(3846.116 3686.913)"/><rect width="4.441" height="4.446" transform="translate(3846.116 3682.467)"/><rect width="4.396" height="4.446" transform="translate(3841.72 3717.858)"/><rect width="4.396" height="4.402" transform="translate(3841.72 3713.456)"/><rect width="4.396" height="4.446" transform="translate(3841.72 3709.01)"/><rect width="4.396" height="4.402" transform="translate(3841.72 3704.609)"/><rect width="4.396" height="4.446" transform="translate(3841.72 3700.163)"/><rect width="4.396" height="4.402" transform="translate(3841.72 3695.761)"/><rect width="4.396" height="4.446" transform="translate(3841.72 3691.315)"/></g><g transform="translate(2350 149.897)"><rect width="8.533" height="8.457" transform="translate(4004.973 4352)"/><rect width="8.533" height="8.543" transform="translate(4004.973 4343.458)"/><rect width="8.533" height="8.457" transform="translate(4004.973 4335)"/><rect width="8.533" height="8.543" transform="translate(4004.973 4326.458)"/><rect width="8.533" height="8.457" transform="translate(4004.973 4318)"/><rect width="8.533" height="8.543" transform="translate(4004.973 4309.458)"/><rect width="8.447" height="8.457" transform="translate(3996.526 4369)"/><rect width="8.447" height="8.543" transform="translate(3996.526 4360.458)"/><rect width="8.447" height="8.457" transform="translate(3996.526 4352)" fill="#ffdd1a"/><rect width="8.447" height="8.543" transform="translate(3996.526 4343.458)" fill="#ffdd1a"/><rect width="8.447" height="8.457" transform="translate(3996.526 4335)" fill="#ffdd1a"/><rect width="8.447" height="8.543" transform="translate(3996.526 4326.458)" fill="#ffdd1a"/><rect width="8.447" height="8.457" transform="translate(3996.526 4318)" fill="#ffdd1a"/><rect width="8.447" height="8.543" transform="translate(3996.526 4309.458)" fill="#ffdd1a"/><rect width="8.447" height="8.457" transform="translate(3996.526 4301)"/><rect width="8.447" height="8.543" transform="translate(3996.526 4292.458)"/><rect width="8.533" height="8.543" transform="translate(3987.994 4377.458)"/><rect width="8.533" height="8.457" transform="translate(3987.994 4369)" fill="#ffdd1a"/><rect width="8.533" height="8.543" transform="translate(3987.994 4360.458)" fill="#ffdd1a"/><rect width="8.533" height="8.457" transform="translate(3987.994 4352)" fill="#ea9e09"/><rect width="8.533" height="8.543" transform="translate(3987.994 4343.458)" fill="#ea9e09"/><rect width="8.533" height="8.457" transform="translate(3987.994 4335)" fill="#ea9e09"/><rect width="8.533" height="8.543" transform="translate(3987.994 4326.458)" fill="#ea9e09"/><rect width="8.533" height="8.457" transform="translate(3987.994 4318)" fill="#ea9e09"/><rect width="8.533" height="8.543" transform="translate(3987.994 4309.458)" fill="#ea9e09"/><rect width="8.533" height="8.457" transform="translate(3987.994 4301)" fill="#ffdd1a"/><rect width="8.533" height="8.543" transform="translate(3987.994 4292.458)" fill="#ffdd1a"/><rect width="8.533" height="8.457" transform="translate(3987.994 4284)"/><rect width="8.532" height="8.457" transform="translate(3979.461 4386)"/><rect width="8.532" height="8.543" transform="translate(3979.461 4377.458)" fill="#ffdd1a"/><rect width="8.532" height="8.457" transform="translate(3979.461 4369)" fill="#ea9e09"/><rect width="8.532" height="8.543" transform="translate(3979.461 4360.458)" fill="#ea9e09"/><rect width="8.532" height="8.457" transform="translate(3979.461 4352)" fill="#ffdd1a"/><rect width="8.532" height="8.543" transform="translate(3979.461 4343.458)" fill="#ffdd1a"/><rect width="8.532" height="8.457" transform="translate(3979.461 4335)" fill="#ffdd1a"/><rect width="8.532" height="8.543" transform="translate(3979.461 4326.458)" fill="#ffdd1a"/><rect width="8.532" height="8.457" transform="translate(3979.461 4318)" fill="#ffdd1a"/><rect width="8.532" height="8.543" transform="translate(3979.461 4309.458)" fill="#ffdd1a"/><rect width="8.532" height="8.457" transform="translate(3979.461 4301)" fill="#ea9e09"/><rect width="8.532" height="8.543" transform="translate(3979.461 4292.458)" fill="#ea9e09"/><rect width="8.532" height="8.457" transform="translate(3979.461 4284)" fill="#ffdd1a"/><rect width="8.532" height="8.543" transform="translate(3979.461 4275.458)"/><rect width="8.447" height="8.457" transform="translate(3971.014 4386)"/><rect width="8.447" height="8.543" transform="translate(3971.014 4377.458)" fill="#ffdd1a"/><rect width="8.447" height="8.457" transform="translate(3971.014 4369)" fill="#ea9e09"/><rect width="8.447" height="8.543" transform="translate(3971.014 4360.458)" fill="#ffdd1a"/><rect width="8.447" height="8.457" transform="translate(3971.014 4352)" fill="#ffdd1a"/><rect width="8.447" height="8.543" transform="translate(3971.014 4343.458)" fill="#ffdd1a"/><rect width="8.447" height="8.457" transform="translate(3971.014 4335)" fill="#ffdd1a"/><rect width="8.447" height="8.543" transform="translate(3971.014 4326.458)" fill="#ffdd1a"/><rect width="8.447" height="8.457" transform="translate(3971.014 4318)" fill="#ffdd1a"/><rect width="8.447" height="8.543" transform="translate(3971.014 4309.458)" fill="#ffdd1a"/><rect width="8.447" height="8.457" transform="translate(3971.014 4301)" fill="#ffdd1a"/><rect width="8.447" height="8.543" transform="translate(3971.014 4292.458)" fill="#fff"/><rect width="8.447" height="8.457" transform="translate(3971.014 4284)" fill="#ffdd1a"/><rect width="8.447" height="8.543" transform="translate(3971.014 4275.458)"/><rect width="8.532" height="8.543" transform="translate(3962.482 4394.458)"/><rect width="8.532" height="8.457" transform="translate(3962.482 4386)" fill="#ffdd1a"/><rect width="8.532" height="8.543" transform="translate(3962.482 4377.458)" fill="#ea9e09"/><rect width="8.532" height="8.457" transform="translate(3962.482 4369)" fill="#ffdd1a"/><rect width="8.532" height="8.543" transform="translate(3962.482 4360.458)" fill="#ffdd1a"/><rect width="8.532" height="8.457" transform="translate(3962.482 4352)" fill="#ffdd1a"/><rect width="8.532" height="8.543" transform="translate(3962.482 4343.458)" fill="#ffdd1a"/><rect width="8.532" height="8.457" transform="translate(3962.482 4335)" fill="#ffdd1a"/><rect width="8.532" height="8.543" transform="translate(3962.482 4326.458)" fill="#ffdd1a"/><rect width="8.532" height="8.457" transform="translate(3962.482 4318)" fill="#ffdd1a"/><rect width="8.532" height="8.543" transform="translate(3962.482 4309.458)" fill="#ffdd1a"/><rect width="8.532" height="8.457" transform="translate(3962.482 4301)" fill="#ffdd1a"/><rect width="8.532" height="8.543" transform="translate(3962.482 4292.458)" fill="#ffdd1a"/><rect width="8.532" height="8.457" transform="translate(3962.482 4284)" fill="#fff"/><rect width="8.532" height="8.543" transform="translate(3962.482 4275.458)" fill="#ffdd1a"/><rect width="8.532" height="8.457" transform="translate(3962.482 4267)"/><rect width="8.532" height="8.543" transform="translate(3953.95 4394.458)"/><rect width="8.532" height="8.457" transform="translate(3953.95 4386)" fill="#ffdd1a"/><rect width="8.532" height="8.543" transform="translate(3953.95 4377.458)" fill="#ea9e09"/><rect width="8.532" height="8.457" transform="translate(3953.95 4369)" fill="#ffdd1a"/><rect width="8.532" height="8.543" transform="translate(3953.95 4360.458)" fill="#ea9e09"/><rect width="8.532" height="8.457" transform="translate(3953.95 4352)" fill="#ea9e09"/><rect width="8.532" height="8.543" transform="translate(3953.95 4343.458)" fill="#ea9e09"/><rect width="8.532" height="8.457" transform="translate(3953.95 4335)" fill="#ea9e09"/><rect width="8.532" height="8.543" transform="translate(3953.95 4326.458)" fill="#ea9e09"/><rect width="8.532" height="8.457" transform="translate(3953.95 4318)" fill="#ea9e09"/><rect width="8.532" height="8.543" transform="translate(3953.95 4309.458)" fill="#ea9e09"/><rect width="8.532" height="8.457" transform="translate(3953.95 4301)" fill="#ea9e09"/><rect width="8.532" height="8.543" transform="translate(3953.95 4292.458)" fill="#ffdd1a"/><rect width="8.532" height="8.457" transform="translate(3953.95 4284)" fill="#fff"/><rect width="8.532" height="8.543" transform="translate(3953.95 4275.458)" fill="#ffdd1a"/><rect width="8.532" height="8.457" transform="translate(3953.95 4267)"/><rect width="8.447" height="8.543" transform="translate(3945.503 4394.458)"/><rect width="8.447" height="8.457" transform="translate(3945.503 4386)" fill="#ffdd1a"/><rect width="8.447" height="8.543" transform="translate(3945.503 4377.458)" fill="#ea9e09"/><rect width="8.447" height="8.457" transform="translate(3945.503 4369)" fill="#ffdd1a"/><rect width="8.447" height="8.543" transform="translate(3945.503 4360.458)" fill="#ea9e09"/><rect width="8.447" height="8.457" transform="translate(3945.503 4352)" fill="#ffdd1a"/><rect width="8.447" height="8.543" transform="translate(3945.503 4343.458)" fill="#ffdd1a"/><rect width="8.447" height="8.457" transform="translate(3945.503 4335)" fill="#ffdd1a"/><rect width="8.447" height="8.543" transform="translate(3945.503 4326.458)" fill="#ffdd1a"/><rect width="8.447" height="8.457" transform="translate(3945.503 4318)" fill="#ffdd1a"/><rect width="8.447" height="8.543" transform="translate(3945.503 4309.458)" fill="#ffdd1a"/><rect width="8.447" height="8.457" transform="translate(3945.503 4301)" fill="#fff"/><rect width="8.447" height="8.543" transform="translate(3945.503 4292.458)" fill="#ffdd1a"/><rect width="8.447" height="8.457" transform="translate(3945.503 4284)" fill="#fff"/><rect width="8.447" height="8.543" transform="translate(3945.503 4275.458)" fill="#ffdd1a"/><rect width="8.447" height="8.457" transform="translate(3945.503 4267)"/><rect width="8.532" height="8.543" transform="translate(3936.971 4394.458)"/><rect width="8.532" height="8.457" transform="translate(3936.971 4386)" fill="#ffdd1a"/><rect width="8.532" height="8.543" transform="translate(3936.971 4377.458)" fill="#ea9e09"/><rect width="8.532" height="8.457" transform="translate(3936.971 4369)" fill="#ffdd1a"/><rect width="8.532" height="8.543" transform="translate(3936.971 4360.458)" fill="#ea9e09"/><rect width="8.532" height="8.457" transform="translate(3936.971 4352)" fill="#ffdd1a"/><rect width="8.532" height="8.543" transform="translate(3936.971 4343.458)" fill="#ffdd1a"/><rect width="8.532" height="8.457" transform="translate(3936.971 4335)" fill="#ffdd1a"/><rect width="8.532" height="8.543" transform="translate(3936.971 4326.458)" fill="#ffdd1a"/><rect width="8.532" height="8.457" transform="translate(3936.971 4318)" fill="#ffdd1a"/><rect width="8.532" height="8.543" transform="translate(3936.971 4309.458)" fill="#ffdd1a"/><rect width="8.532" height="8.457" transform="translate(3936.971 4301)" fill="#fff"/><rect width="8.532" height="8.543" transform="translate(3936.971 4292.458)" fill="#ffdd1a"/><rect width="8.532" height="8.457" transform="translate(3936.971 4284)" fill="#fff"/><rect width="8.532" height="8.543" transform="translate(3936.971 4275.458)" fill="#ffdd1a"/><rect width="8.532" height="8.457" transform="translate(3936.971 4267)"/><rect width="8.447" height="8.543" transform="translate(3928.524 4394.458)"/><rect width="8.447" height="8.457" transform="translate(3928.524 4386)" fill="#ffdd1a"/><rect width="8.447" height="8.543" transform="translate(3928.524 4377.458)" fill="#ea9e09"/><rect width="8.447" height="8.457" transform="translate(3928.524 4369)" fill="#ffdd1a"/><rect width="8.447" height="8.543" transform="translate(3928.524 4360.458)" fill="#fff"/><rect width="8.447" height="8.457" transform="translate(3928.524 4352)" fill="#fff"/><rect width="8.447" height="8.543" transform="translate(3928.524 4343.458)" fill="#fff"/><rect width="8.447" height="8.457" transform="translate(3928.524 4335)" fill="#fff"/><rect width="8.447" height="8.543" transform="translate(3928.524 4326.458)" fill="#fff"/><rect width="8.447" height="8.457" transform="translate(3928.524 4318)" fill="#fff"/><rect width="8.447" height="8.543" transform="translate(3928.524 4309.458)" fill="#fff"/><rect width="8.447" height="8.457" transform="translate(3928.524 4301)" fill="#fff"/><rect width="8.447" height="8.543" transform="translate(3928.524 4292.458)" fill="#ffdd1a"/><rect width="8.447" height="8.457" transform="translate(3928.524 4284)" fill="#fff"/><rect width="8.447" height="8.543" transform="translate(3928.524 4275.458)" fill="#ffdd1a"/><rect width="8.447" height="8.457" transform="translate(3928.524 4267)"/><rect width="8.532" height="8.543" transform="translate(3919.992 4394.458)"/><rect width="8.532" height="8.457" transform="translate(3919.992 4386)" fill="#ffdd1a"/><rect width="8.532" height="8.543" transform="translate(3919.992 4377.458)" fill="#ea9e09"/><rect width="8.532" height="8.457" transform="translate(3919.992 4369)" fill="#ffdd1a"/><rect width="8.532" height="8.543" transform="translate(3919.992 4360.458)" fill="#ffdd1a"/><rect width="8.532" height="8.457" transform="translate(3919.992 4352)" fill="#ffdd1a"/><rect width="8.532" height="8.543" transform="translate(3919.992 4343.458)" fill="#ffdd1a"/><rect width="8.532" height="8.457" transform="translate(3919.992 4335)" fill="#ffdd1a"/><rect width="8.532" height="8.543" transform="translate(3919.992 4326.458)" fill="#ffdd1a"/><rect width="8.532" height="8.457" transform="translate(3919.992 4318)" fill="#ffdd1a"/><rect width="8.532" height="8.543" transform="translate(3919.992 4309.458)" fill="#ffdd1a"/><rect width="8.532" height="8.457" transform="translate(3919.992 4301)" fill="#ffdd1a"/><rect width="8.532" height="8.543" transform="translate(3919.992 4292.458)" fill="#ffdd1a"/><rect width="8.532" height="8.457" transform="translate(3919.992 4284)" fill="#fff"/><rect width="8.532" height="8.543" transform="translate(3919.992 4275.458)" fill="#ffdd1a"/><rect width="8.532" height="8.457" transform="translate(3919.992 4267)"/><rect width="8.532" height="8.457" transform="translate(3911.459 4386)"/><rect width="8.532" height="8.543" transform="translate(3911.459 4377.458)" fill="#ffdd1a"/><rect width="8.532" height="8.457" transform="translate(3911.459 4369)" fill="#ea9e09"/><rect width="8.532" height="8.543" transform="translate(3911.459 4360.458)" fill="#ffdd1a"/><rect width="8.532" height="8.457" transform="translate(3911.459 4352)" fill="#ffdd1a"/><rect width="8.532" height="8.543" transform="translate(3911.459 4343.458)" fill="#ffdd1a"/><rect width="8.532" height="8.457" transform="translate(3911.459 4335)" fill="#ffdd1a"/><rect width="8.532" height="8.543" transform="translate(3911.459 4326.458)" fill="#ffdd1a"/><rect width="8.532" height="8.457" transform="translate(3911.459 4318)" fill="#ffdd1a"/><rect width="8.532" height="8.543" transform="translate(3911.459 4309.458)" fill="#ffdd1a"/><rect width="8.532" height="8.457" transform="translate(3911.459 4301)" fill="#ffdd1a"/><rect width="8.532" height="8.543" transform="translate(3911.459 4292.458)" fill="#fff"/><rect width="8.532" height="8.457" transform="translate(3911.459 4284)" fill="#ffdd1a"/><rect width="8.532" height="8.543" transform="translate(3911.459 4275.458)"/><rect width="8.447" height="8.457" transform="translate(3903.012 4386)"/><rect width="8.447" height="8.543" transform="translate(3903.012 4377.458)" fill="#ffdd1a"/><rect width="8.447" height="8.457" transform="translate(3903.012 4369)" fill="#ea9e09"/><rect width="8.447" height="8.543" transform="translate(3903.012 4360.458)" fill="#fff"/><rect width="8.447" height="8.457" transform="translate(3903.012 4352)" fill="#ffdd1a"/><rect width="8.447" height="8.543" transform="translate(3903.012 4343.458)" fill="#ffdd1a"/><rect width="8.447" height="8.457" transform="translate(3903.012 4335)" fill="#ffdd1a"/><rect width="8.447" height="8.543" transform="translate(3903.012 4326.458)" fill="#ffdd1a"/><rect width="8.447" height="8.457" transform="translate(3903.012 4318)" fill="#ffdd1a"/><rect width="8.447" height="8.543" transform="translate(3903.012 4309.458)" fill="#ffdd1a"/><rect width="8.447" height="8.457" transform="translate(3903.012 4301)" fill="#fff"/><rect width="8.447" height="8.543" transform="translate(3903.012 4292.458)" fill="#fff"/><rect width="8.447" height="8.457" transform="translate(3903.012 4284)" fill="#ffdd1a"/><rect width="8.447" height="8.543" transform="translate(3903.012 4275.458)"/><rect width="8.532" height="8.543" transform="translate(3894.48 4377.458)"/><rect width="8.532" height="8.457" transform="translate(3894.48 4369)" fill="#ffdd1a"/><rect width="8.532" height="8.543" transform="translate(3894.48 4360.458)" fill="#ffdd1a"/><rect width="8.532" height="8.457" transform="translate(3894.48 4352)" fill="#fff"/><rect width="8.532" height="8.543" transform="translate(3894.48 4343.458)" fill="#fff"/><rect width="8.532" height="8.457" transform="translate(3894.48 4335)" fill="#fff"/><rect width="8.532" height="8.543" transform="translate(3894.48 4326.458)" fill="#fff"/><rect width="8.532" height="8.457" transform="translate(3894.48 4318)" fill="#fff"/><rect width="8.532" height="8.543" transform="translate(3894.48 4309.458)" fill="#fff"/><rect width="8.532" height="8.457" transform="translate(3894.48 4301)" fill="#ffdd1a"/><rect width="8.532" height="8.543" transform="translate(3894.48 4292.458)" fill="#ffdd1a"/><rect width="8.532" height="8.457" transform="translate(3894.48 4284)"/><rect width="8.533" height="8.457" transform="translate(3885.948 4369)"/><rect width="8.533" height="8.543" transform="translate(3885.948 4360.458)"/><rect width="8.533" height="8.457" transform="translate(3885.948 4352)" fill="#ffdd1a"/><rect width="8.533" height="8.543" transform="translate(3885.948 4343.458)" fill="#ffdd1a"/><rect width="8.533" height="8.457" transform="translate(3885.948 4335)" fill="#ffdd1a"/><rect width="8.533" height="8.543" transform="translate(3885.948 4326.458)" fill="#ffdd1a"/><rect width="8.533" height="8.457" transform="translate(3885.948 4318)" fill="#ffdd1a"/><rect width="8.533" height="8.543" transform="translate(3885.948 4309.458)" fill="#ffdd1a"/><rect width="8.533" height="8.457" transform="translate(3885.948 4301)"/><rect width="8.533" height="8.543" transform="translate(3885.948 4292.458)"/><rect width="8.447" height="8.543" transform="translate(3877.501 4360.458)"/><rect width="8.447" height="8.457" transform="translate(3877.501 4352)"/><rect width="8.447" height="8.543" transform="translate(3877.501 4343.458)"/><rect width="8.447" height="8.457" transform="translate(3877.501 4335)"/><rect width="8.447" height="8.543" transform="translate(3877.501 4326.458)"/><rect width="8.447" height="8.457" transform="translate(3877.501 4318)"/><rect width="8.447" height="8.543" transform="translate(3877.501 4309.458)"/></g></g></svg>