<svg xmlns="http://www.w3.org/2000/svg" width="309.101" height="423.249" viewBox="0 0 309.101 423.249"><g transform="translate(-5831 -1997.844)"><g transform="translate(2248 138)"><rect width="4" height="4" transform="translate(3603 1965)" fill="#fff"/><rect width="4" height="4" transform="translate(3607 1965)" fill="#fff"/><rect width="4" height="4" transform="translate(3619 1957)" fill="#fff"/><rect width="4" height="4" transform="translate(3607 1981)" fill="#fff"/><rect width="4" height="4" transform="translate(3587 1973)" fill="#fff"/><rect width="4" height="4" transform="translate(3587 1949)" fill="#5eb1ff"/><rect width="4" height="4" transform="translate(3623 1949)" fill="#5eb1ff"/><rect width="4" height="4" transform="translate(3619 1973)" fill="#5eb1ff"/><rect width="4" height="4" transform="translate(3619 1981)" fill="#2853e0"/><rect width="4" height="4" transform="translate(3583 1981)" fill="#2853e0"/><rect width="4" height="4" transform="translate(3595 1985)" fill="#2853e0"/><rect width="4" height="4" transform="translate(3583 1957)" fill="#2853e0"/><rect width="4" height="4" transform="translate(3611 1945)" fill="#2853e0"/><rect width="4" height="4" transform="translate(3595 1953)" fill="#fff"/><rect width="4" height="4" transform="translate(3611 1965)" fill="#5eb1ff"/><rect width="4" height="4" transform="translate(3615 1965)" fill="#5eb1ff"/><rect width="4" height="4" transform="translate(3619 1965)" fill="#2853e0"/><rect width="4" height="4" transform="translate(3599 1965)" fill="#fff"/><rect width="4" height="4" transform="translate(3595 1965)" fill="#5eb1ff"/><rect width="4" height="4" transform="translate(3595 1961)" fill="#2853e0"/><rect width="4" height="4" transform="translate(3599 1957)" fill="#2853e0"/><rect width="4" height="4" transform="translate(3607 1957)" fill="#2853e0"/><rect width="4" height="4" transform="translate(3611 1961)" fill="#2853e0"/><rect width="4" height="4" transform="translate(3611 1969)" fill="#2853e0"/><rect width="4" height="4" transform="translate(3607 1973)" fill="#2853e0"/><rect width="4" height="4" transform="translate(3599 1973)" fill="#2853e0"/><rect width="4" height="4" transform="translate(3595 1973)" fill="#153137"/><rect width="4" height="4" transform="translate(3591 1977)" fill="#153137"/><rect width="4" height="4" transform="translate(3591 1953)" fill="#153137"/><rect width="4" height="4" transform="translate(3595 1957)" fill="#153137"/><rect width="4" height="4" transform="translate(3615 1953)" fill="#153137"/><rect width="4" height="4" transform="translate(3611 1957)" fill="#153137"/><rect width="4" height="4" transform="translate(3611 1973)" fill="#153137"/><rect width="4" height="4" transform="translate(3615 1977)" fill="#153137"/><rect width="4" height="4" transform="translate(3595 1969)" fill="#2853e0"/><rect width="4" height="4" transform="translate(3591 1965)" fill="#5eb1ff"/><rect width="4" height="4" transform="translate(3587 1965)" fill="#2853e0"/><rect width="4" height="4" transform="translate(3599 1969)" fill="#5eb1ff"/><rect width="4" height="4" transform="translate(3603 1969)" fill="#fff"/><rect width="4" height="4" transform="translate(3603 1973)" fill="#5eb1ff"/><rect width="4" height="4" transform="translate(3603 1977)" fill="#5eb1ff"/><rect width="4" height="4" transform="translate(3603 1981)" fill="#2853e0"/><rect width="4" height="4" transform="translate(3607 1969)" fill="#5eb1ff"/><rect width="4" height="4" transform="translate(3599 1961)" fill="#5eb1ff"/><rect width="4" height="4" transform="translate(3603 1961)" fill="#fff"/><rect width="4" height="4" transform="translate(3603 1957)" fill="#5eb1ff"/><rect width="4" height="4" transform="translate(3603 1953)" fill="#5eb1ff"/><rect width="4" height="4" transform="translate(3603 1949)" fill="#2853e0"/><rect width="4" height="4" transform="translate(3607 1961)" fill="#5eb1ff"/></g><g transform="translate(2248 138)"><path d="M3810.857,1914.1h6.25v6.249h-6.25V1914.1Z" fill="#fff"/><path d="M3817.107,1907.847h6.249v6.25h-6.249v-6.25Z" fill="#fff"/><path d="M3817.107,1914.1h6.249v6.249h-6.249V1914.1Z" fill="#fff"/><path d="M3817.107,1920.346h6.249v6.25h-6.249v-6.25Z" fill="#fff"/><path d="M3823.356,1914.1h6.25v6.249h-6.25V1914.1Z" fill="#fff"/></g><path d="M3803.356,1997.844h6.25v6.249h-6.25v-6.249Z" transform="translate(2248 138)" fill="#fff"/><path d="M3698.356,1859.844h6.25v6.249h-6.25v-6.249Z" transform="translate(2248 138)" fill="#fff"/><path d="M3845.356,2276.844h6.25v6.249h-6.25v-6.249Z" transform="translate(2248 138)" fill="#fff"/><path d="M3860.854,1882.849h6.249v6.25h-6.249v-6.25Z" transform="translate(2248 138)" fill="#fff"/><path d="M3885.852,1920.346h6.249v6.25h-6.249v-6.25Z" transform="translate(2248 138)" fill="#fff"/></g></svg>