<svg xmlns="http://www.w3.org/2000/svg" width="388.749" height="596.061" viewBox="0 0 388.749 596.061"><g transform="translate(-4851.856 -1961.844)"><g transform="translate(2248 138)"><rect width="5.762" height="5.762" transform="translate(2832.333 2391.095)" fill="#ff8b00"/><rect width="28.81" height="5.762" transform="translate(2797.762 2391.095)" fill="#ff8b00"/><rect width="5.762" height="5.762" transform="translate(2843.857 2356.524)" fill="#fff"/><rect width="5.762" height="5.762" transform="translate(2826.572 2368.048)" fill="#fff"/><rect width="5.762" height="5.762" transform="translate(2820.81 2373.81)" fill="#fff"/><rect width="5.762" height="5.762" transform="translate(2832.333 2362.286)" fill="#fff"/><rect width="5.762" height="5.762" transform="translate(2878.428 2373.81)" fill="#fff"/><rect width="17.286" height="5.762" transform="translate(2843.857 2402.619)" fill="#2b353e"/><rect width="11.524" height="5.762" transform="translate(2815.048 2402.619)" fill="#2b353e"/><rect width="11.524" height="5.762" transform="translate(2878.428 2402.619)" fill="#2b353e"/><rect width="5.762" height="5.762" transform="translate(2843.857 2408.381)" fill="#3d435a"/><rect width="5.762" height="5.762" transform="translate(2855.381 2408.381)" fill="#3d435a"/><rect width="5.762" height="5.762" transform="translate(2815.048 2408.381)" fill="#3d435a"/><rect width="5.762" height="5.762" transform="translate(2884.19 2408.381)" fill="#3d435a"/><rect width="5.762" height="11.524" transform="translate(2849.619 2408.381)" fill="#5b627c"/><rect width="5.762" height="5.762" transform="translate(2809.286 2414.143)" fill="#5b627c"/><rect width="5.762" height="5.762" transform="translate(2889.952 2414.143)" fill="#5b627c"/><rect width="109.476" height="5.762" transform="translate(2797.762 2396.857)" fill="#a62e19"/><path d="M2792,2385.333v11.524h5.762V2391.1h28.81v5.762h5.762V2391.1h5.762v5.762H2913v-11.524Z" fill="#ff3232"/><rect width="5.762" height="5.762" transform="translate(2826.572 2362.286)" fill="#5eb1ff"/><path d="M2849.619,2362.286v5.762h5.762v5.762H2866.9v-5.762h-5.762v-5.762Z" fill="#5eb1ff"/><rect width="5.762" height="5.762" transform="translate(2820.81 2368.048)" fill="#5eb1ff"/><rect width="5.762" height="11.524" transform="translate(2815.048 2373.81)" fill="#5eb1ff"/><rect width="11.524" height="5.762" transform="translate(2832.333 2356.524)" fill="#5eb1ff"/><path d="M2838.1,2373.81h-5.762v11.524h11.524v-5.762H2838.1Z" fill="#5eb1ff"/><path d="M2849.619,2373.81v-5.762H2838.1v5.762h5.762v5.762h11.524v-5.762Z" fill="#5eb1ff"/><rect width="5.762" height="5.762" transform="translate(2872.667 2362.286)" fill="#5eb1ff"/><rect width="17.286" height="5.762" transform="translate(2843.857 2350.762)" fill="#5eb1ff"/><rect width="5.762" height="5.762" transform="translate(2878.428 2368.048)" fill="#5eb1ff"/><rect width="5.762" height="11.524" transform="translate(2884.19 2373.81)" fill="#5eb1ff"/><path d="M2855.381,2379.572v5.762h17.286V2373.81H2866.9v5.762Z" fill="#5eb1ff"/><rect width="11.524" height="5.762" transform="translate(2861.143 2356.524)" fill="#5eb1ff"/><rect width="11.524" height="5.762" transform="translate(2832.333 2350.762)" fill="#2853e0"/><rect width="17.286" height="5.762" transform="translate(2843.857 2345)" fill="#2853e0"/><rect width="11.524" height="5.762" transform="translate(2838.095 2362.286)" fill="#2853e0"/><rect width="5.762" height="5.762" transform="translate(2849.619 2368.048)" fill="#2853e0"/><rect width="5.762" height="5.762" transform="translate(2815.048 2368.048)" fill="#2853e0"/><rect width="5.762" height="11.524" transform="translate(2809.286 2373.81)" fill="#2853e0"/><rect width="11.524" height="5.762" transform="translate(2843.857 2379.572)" fill="#2853e0"/><path d="M2826.572,2379.572h-5.762v5.762h11.524V2373.81h-5.762Z" fill="#2853e0"/><rect width="5.762" height="5.762" transform="translate(2826.572 2356.524)" fill="#2853e0"/><rect width="5.762" height="5.762" transform="translate(2832.333 2368.048)" fill="#2853e0"/><rect width="5.762" height="5.762" transform="translate(2838.095 2373.81)" fill="#2853e0"/><rect width="11.524" height="5.762" transform="translate(2861.143 2350.762)" fill="#2853e0"/><rect width="11.524" height="5.762" transform="translate(2849.619 2356.524)" fill="#2853e0"/><rect width="5.762" height="5.762" transform="translate(2820.81 2362.286)" fill="#2853e0"/><rect width="5.762" height="5.762" transform="translate(2878.428 2362.286)" fill="#2853e0"/><rect width="5.762" height="5.762" transform="translate(2884.19 2368.048)" fill="#2853e0"/><rect width="5.762" height="11.524" transform="translate(2889.952 2373.81)" fill="#2853e0"/><rect width="5.762" height="5.762" transform="translate(2872.667 2356.524)" fill="#2853e0"/><path d="M2872.667,2362.286h-11.524v5.762h5.762v5.762h5.762v11.524h11.524v-5.762h-5.762v-11.524h-5.762Z" fill="#2853e0"/><rect width="11.524" height="5.762" transform="translate(2855.381 2373.81)" fill="#2853e0"/></g><g transform="translate(2248 138)"><path d="M2647.857,2289.1h6.25v6.249h-6.25V2289.1Z" fill="#fff"/><path d="M2654.107,2282.847h6.249v6.25h-6.249v-6.25Z" fill="#fff"/><path d="M2654.107,2289.1h6.249v6.249h-6.249V2289.1Z" fill="#fff"/><path d="M2654.107,2295.346h6.249v6.25h-6.249v-6.25Z" fill="#fff"/><path d="M2660.356,2289.1h6.25v6.249h-6.25V2289.1Z" fill="#fff"/></g><g transform="translate(2248 138)"><path d="M2603.857,1848.1h6.25v6.249h-6.25V1848.1Z" fill="#fff"/><path d="M2610.107,1841.847h6.249v6.25h-6.249v-6.25Z" fill="#fff"/><path d="M2610.107,1848.1h6.249v6.249h-6.249V1848.1Z" fill="#fff"/><path d="M2610.107,1854.346h6.249v6.25h-6.249v-6.25Z" fill="#fff"/><path d="M2616.356,1848.1h6.25v6.249h-6.25V1848.1Z" fill="#fff"/></g><g transform="translate(2248 138)"><path d="M2915.857,1893.1h6.25v6.249h-6.25V1893.1Z" fill="#fff"/><path d="M2922.107,1886.847h6.249v6.25h-6.249v-6.25Z" fill="#fff"/><path d="M2922.107,1893.1h6.249v6.249h-6.249V1893.1Z" fill="#fff"/><path d="M2922.107,1899.346h6.249v6.25h-6.249v-6.25Z" fill="#fff"/><path d="M2928.356,1893.1h6.25v6.249h-6.25V1893.1Z" fill="#fff"/></g><path d="M2986.356,2294.844h6.25v6.249h-6.25v-6.249Z" transform="translate(2248 138)" fill="#fff"/><path d="M2666.356,1823.844h6.25v6.249h-6.25v-6.249Z" transform="translate(2248 138)" fill="#fff"/></g></svg>