<svg xmlns="http://www.w3.org/2000/svg" width="386.645" height="469.246" viewBox="0 0 386.645 469.246"><g transform="translate(-5358.355 -1981.847)"><g transform="translate(2248 138)"><path d="M3485,1900v-4h-28v4h-4v-4h-4v4h-16v-4h-4v4h-8v8h4v-4h4v4h8v-4h4v4h8v-4h4v4h8v-4h4v4h8v-4h4v4h8v-4h4v4h4v-8Z" fill="#fff059"/><rect width="4" height="4" transform="translate(3485 1896)" fill="#ff8b00"/><path d="M3421,1908v4h8v4h56v-4h8v-4Z" fill="#ff8b00"/><rect width="4" height="8" transform="translate(3493 1900)" fill="#ff8b00"/><rect width="4" height="4" transform="translate(3425 1896)" fill="#ff8b00"/><rect width="4" height="8" transform="translate(3417 1900)" fill="#ff8b00"/><rect width="4" height="4" transform="translate(3445 1872)" fill="#fff"/><rect width="8" height="4" transform="translate(3449 1868)" fill="#fff"/><rect width="4" height="16" transform="translate(3441 1876)" fill="#fff"/><rect width="4" height="4" transform="translate(3469 1888)" fill="#fff"/><rect width="16" height="4" transform="translate(3433 1896)" fill="#fff"/><rect width="4" height="4" transform="translate(3453 1896)" fill="#fff"/><rect width="4" height="4" transform="translate(3485 1904)" fill="#a62e19"/><rect width="4" height="4" transform="translate(3473 1904)" fill="#a62e19"/><rect width="4" height="4" transform="translate(3461 1904)" fill="#a62e19"/><rect width="4" height="4" transform="translate(3449 1904)" fill="#a62e19"/><rect width="4" height="4" transform="translate(3437 1904)" fill="#a62e19"/><rect width="4" height="4" transform="translate(3425 1904)" fill="#a62e19"/><rect width="4" height="8" transform="translate(3437 1872)" fill="#5eb1ff"/><rect width="4" height="4" transform="translate(3441 1868)" fill="#5eb1ff"/><rect width="8" height="4" transform="translate(3445 1864)" fill="#5eb1ff"/><path d="M3449,1872v4h-4v16h12v-20Z" fill="#5eb1ff"/><rect width="4" height="8" transform="translate(3473 1872)" fill="#5eb1ff"/><rect width="4" height="4" transform="translate(3469 1868)" fill="#5eb1ff"/><rect width="8" height="4" transform="translate(3461 1864)" fill="#5eb1ff"/><rect width="8" height="4" transform="translate(3453 1860)" fill="#5eb1ff"/><path d="M3469,1872h-4v20h4v-4h4v-8h-4Z" fill="#5eb1ff"/><rect width="4" height="16" transform="translate(3433 1880)" fill="#5eb1ff"/><rect width="4" height="16" transform="translate(3477 1880)" fill="#5eb1ff"/><rect width="4" height="4" transform="translate(3441 1872)" fill="#2853e0"/><rect width="4" height="4" transform="translate(3445 1868)" fill="#2853e0"/><rect width="4" height="8" transform="translate(3469 1872)" fill="#2853e0"/><path d="M3473,1892h-8v-20h4v-4h-8v-4h-8v4h4v24h-16v-12h-4v16h40v-16h-4Z" fill="#2853e0"/></g><g transform="translate(2248 138)"><path d="M3257.857,1850.1h6.25v6.249h-6.25V1850.1Z" fill="#fff"/><path d="M3264.107,1843.847h6.249v6.25h-6.249v-6.25Z" fill="#fff"/><path d="M3264.107,1850.1h6.249v6.249h-6.249V1850.1Z" fill="#fff"/><path d="M3264.107,1856.346h6.249v6.25h-6.249v-6.25Z" fill="#fff"/><path d="M3270.356,1850.1h6.25v6.249h-6.25V1850.1Z" fill="#fff"/></g><g transform="translate(2248 138)"><path d="M3362.857,2283.1h6.25v6.249h-6.25V2283.1Z" fill="#fff"/><path d="M3369.107,2276.847h6.249v6.25h-6.249v-6.25Z" fill="#fff"/><path d="M3369.107,2283.1h6.249v6.249h-6.249V2283.1Z" fill="#fff"/><path d="M3369.107,2289.346h6.249v6.25h-6.249v-6.25Z" fill="#fff"/><path d="M3375.356,2283.1h6.25v6.249h-6.25V2283.1Z" fill="#fff"/></g><path d="M3241.356,1878.844h6.25v6.249h-6.25v-6.249Z" transform="translate(2248 138)" fill="#fff"/><path d="M3110.356,1922.844h6.25v6.249h-6.25v-6.249Z" transform="translate(2248 138)" fill="#fff"/><path d="M3303.356,1872.844h6.25v6.249h-6.25v-6.249Z" transform="translate(2248 138)" fill="#fff"/><path d="M3232.356,1934.844h6.25v6.249h-6.25v-6.249Z" transform="translate(2248 138)" fill="#fff"/><path d="M3450.356,2306.844h6.25v6.249h-6.25v-6.249Z" transform="translate(2248 138)" fill="#fff"/></g></svg>