<svg xmlns="http://www.w3.org/2000/svg" xmlns:xlink="http://www.w3.org/1999/xlink" height="40px" viewBox="0 0 168.24 38.88"><defs><style>.cls-1{fill:url(#New_Gradient_Swatch_copy_2);}</style><linearGradient id="New_Gradient_Swatch_copy_2" x1="-3.24" y1="17.44" x2="160.36" y2="17.44" gradientUnits="userSpaceOnUse"><stop offset="0" stop-color="#ff9800"/><stop offset="1" stop-color="#ffc46e"/></linearGradient></defs><g id="Layer_2" data-name="Layer 2"><g id="Layer_1-2" data-name="Layer 1"><path d="M27.62,7v4.12h4.13v4.13h4.13V35.88H27.62V27.62H15.25v8.26H7V15.25h4.12V11.12h4.13V7H27.62M15.25,23.5H27.62V15.25H23.5V11.12H19.38v4.13H15.25V23.5M30.62,4H12.25V8.12H8.12v4.13H4V38.88H18.25V30.62h6.37v8.26H38.88V12.25H34.75V8.12H30.62V4ZM22.38,18.25h2.24V20.5H18.25V18.25h4.13Z"/><path d="M64.09,7v4.12h4.13v8.26H64.09V23.5h4.13v8.25H64.09v4.13H39.34V7H64.09M47.59,19.38H60V11.12H47.59v8.26m0,12.37H60V23.5H47.59v8.25M67.09,4H36.34V38.88H67.09V34.75h4.13V8.12H67.09V4ZM50.59,14.12H57v2.26H50.59V14.12Zm0,12.38H57v2.25H50.59V26.5Z"/><path d="M96.43,7v4.12h4.12V31.75H96.43v4.13H75.8V31.75H71.68V11.12H75.8V7H96.43M79.93,31.75H92.3V11.12H79.93V31.75M99.43,4H72.8V8.12H68.68V34.75H72.8v4.13H99.43V34.75h4.12V8.12H99.43V4ZM82.93,14.12H89.3V28.75H82.93V14.12Z"/><path d="M132.9,7V31.75h-4.13v4.13H108.15V31.75H104V7h8.25V31.75h12.38V7h8.25m3-3H121.65V28.75h-6.38V4H101V34.75h4.13v4.13h26.62V34.75h4.13V4Z"/><path d="M165.24,7v4.12H157V35.88h-8.25V11.12h-8.25V7h24.75m3-3H137.49V14.12h8.25V38.88H160V14.12h8.25V4Z"/><path d="M7,35.88V15.25h4.12V11.12h4.13V7H27.62v4.12h4.13v4.13h4.13V35.88H27.62V27.62H15.25v8.26ZM15.25,23.5H27.62V15.25H23.5V11.12H19.38v4.13H15.25Z"/><path d="M39.34,35.88V7H64.09v4.12h4.13v8.26H64.09V23.5h4.13v8.25H64.09v4.13Zm8.25-16.5H60V11.12H47.59Zm0,12.37H60V23.5H47.59Z"/><path d="M75.8,35.88V31.75H71.68V11.12H75.8V7H96.43v4.12h4.12V31.75H96.43v4.13Zm4.13-4.13H92.3V11.12H79.93Z"/><path d="M108.15,35.88V31.75H104V7h8.25V31.75h12.38V7h8.25V31.75h-4.13v4.13Z"/><path d="M148.74,35.88V11.12h-8.25V7h24.75v4.12H157V35.88Z"/><path d="M23.62,3V7.12h4.13v4.13h4.13V31.88H23.62V23.62H11.25v8.26H3V11.25H7.12V7.12h4.13V3H23.62M11.25,19.5H23.62V11.25H19.5V7.12H15.38v4.13H11.25V19.5M26.62,0H8.25V4.12H4.12V8.25H0V34.88H14.25V26.62h6.37v8.26H34.88V8.25H30.75V4.12H26.62V0ZM18.38,14.25h2.24V16.5H14.25V14.25h4.13Z"/><path d="M60.09,3V7.12h4.13v8.26H60.09V19.5h4.13v8.25H60.09v4.13H35.34V3H60.09M43.59,15.38H56V7.12H43.59v8.26m0,12.37H56V19.5H43.59v8.25M63.09,0H32.34V34.88H63.09V30.75h4.13V4.12H63.09V0ZM46.59,10.12H53v2.26H46.59V10.12Zm0,12.38H53v2.25H46.59V22.5Z"/><path d="M92.43,3V7.12h4.12V27.75H92.43v4.13H71.8V27.75H67.68V7.12H71.8V3H92.43M75.93,27.75H88.3V7.12H75.93V27.75M95.43,0H68.8V4.12H64.68V30.75H68.8v4.13H95.43V30.75h4.12V4.12H95.43V0ZM78.93,10.12H85.3V24.75H78.93V10.12Z"/><path d="M128.9,3V27.75h-4.13v4.13H104.15V27.75H100V3h8.25V27.75h12.38V3h8.25m3-3H117.65V24.75h-6.38V0H97V30.75h4.13v4.13h26.62V30.75h4.13V0Z"/><path d="M161.24,3V7.12H153V31.88h-8.25V7.12h-8.25V3h24.75m3-3H133.49V10.12h8.25V34.88H156V10.12h8.25V0Z"/><path class="cls-1" d="M3,31.88V11.25H7.12V7.12h4.13V3H23.62V7.12h4.13v4.13h4.13V31.88H23.62V23.62H11.25v8.26ZM11.25,19.5H23.62V11.25H19.5V7.12H15.38v4.13H11.25Z"/><path class="cls-1" d="M35.34,31.88V3H60.09V7.12h4.13v8.26H60.09V19.5h4.13v8.25H60.09v4.13Zm8.25-16.5H56V7.12H43.59Zm0,12.37H56V19.5H43.59Z"/><path class="cls-1" d="M71.8,31.88V27.75H67.68V7.12H71.8V3H92.43V7.12h4.12V27.75H92.43v4.13Zm4.13-4.13H88.3V7.12H75.93Z"/><path class="cls-1" d="M104.15,31.88V27.75H100V3h8.25V27.75h12.38V3h8.25V27.75h-4.13v4.13Z"/><path class="cls-1" d="M144.74,31.88V7.12h-8.25V3h24.75V7.12H153V31.88Z"/></g></g></svg>