<svg xmlns="http://www.w3.org/2000/svg" width="268.536" height="103.578" viewBox="0 0 268.536 103.578">
  <g id="Group_495" data-name="Group 495" transform="translate(-3767.794 -1620)">
    <g id="Group_492" data-name="Group 492">
      <rect id="Rectangle_35154" data-name="Rectangle 35154" width="7.673" height="3.836" transform="translate(3898.225 1627.672)" fill="#298941"/>
      <rect id="Rectangle_35155" data-name="Rectangle 35155" width="3.836" height="23.017" transform="translate(3886.717 1635.345)" fill="#298941"/>
      <rect id="Rectangle_35156" data-name="Rectangle 35156" width="3.836" height="23.017" transform="translate(3882.881 1635.345)" fill="#298941"/>
      <rect id="Rectangle_35157" data-name="Rectangle 35157" width="3.836" height="19.181" transform="translate(3879.044 1639.181)" fill="#298941"/>
      <rect id="Rectangle_35158" data-name="Rectangle 35158" width="3.836" height="19.181" transform="translate(3875.208 1639.181)" fill="#298941"/>
      <rect id="Rectangle_35159" data-name="Rectangle 35159" width="3.836" height="15.345" transform="translate(3871.372 1643.017)" fill="#298941"/>
      <rect id="Rectangle_35160" data-name="Rectangle 35160" width="3.836" height="7.672" transform="translate(3963.441 1681.38)" fill="#298941"/>
      <rect id="Rectangle_35161" data-name="Rectangle 35161" width="3.836" height="7.672" transform="translate(3967.278 1685.216)" fill="#298941"/>
      <rect id="Rectangle_35162" data-name="Rectangle 35162" width="3.836" height="7.672" transform="translate(3867.536 1646.854)" fill="#298941"/>
      <rect id="Rectangle_35163" data-name="Rectangle 35163" width="3.836" height="3.836" transform="translate(3944.26 1639.181)" fill="#298941"/>
      <rect id="Rectangle_35164" data-name="Rectangle 35164" width="3.836" height="7.672" transform="translate(3905.898 1673.707)" fill="#e8b714"/>
      <rect id="Rectangle_35165" data-name="Rectangle 35165" width="3.836" height="7.672" transform="translate(3913.57 1681.38)" fill="#246430"/>
      <rect id="Rectangle_35166" data-name="Rectangle 35166" width="3.836" height="7.672" transform="translate(3967.278 1704.397) rotate(-90)" fill="#07042d"/>
      <rect id="Rectangle_35167" data-name="Rectangle 35167" width="7.672" height="3.836" transform="translate(3875.208 1635.345)" fill="#07042d"/>
      <rect id="Rectangle_35168" data-name="Rectangle 35168" width="3.836" height="3.836" transform="translate(3871.372 1639.181)" fill="#07042d"/>
      <rect id="Rectangle_35169" data-name="Rectangle 35169" width="3.836" height="3.836" transform="translate(3871.372 1650.69)" fill="#07042d"/>
      <rect id="Rectangle_35170" data-name="Rectangle 35170" width="19.181" height="3.836" transform="translate(3871.372 1654.526)" fill="#246430"/>
      <rect id="Rectangle_35171" data-name="Rectangle 35171" width="3.836" height="3.836" transform="translate(3867.536 1650.69)" fill="#246430"/>
      <rect id="Rectangle_35172" data-name="Rectangle 35172" width="3.836" height="3.836" transform="translate(3882.881 1643.017)" fill="#07042d"/>
      <rect id="Rectangle_35173" data-name="Rectangle 35173" width="3.836" height="3.836" transform="translate(3886.717 1643.017)" fill="#07042d"/>
      <rect id="Rectangle_35174" data-name="Rectangle 35174" width="3.836" height="3.836" transform="translate(3886.717 1639.181)" fill="#07042d"/>
      <rect id="Rectangle_35175" data-name="Rectangle 35175" width="3.836" height="11.509" transform="translate(3905.898 1662.198)" fill="#07042d"/>
      <rect id="Rectangle_35176" data-name="Rectangle 35176" width="3.836" height="26.854" transform="translate(3894.389 1627.672)" fill="#298941"/>
      <rect id="Rectangle_35177" data-name="Rectangle 35177" width="3.836" height="23.017" transform="translate(3898.225 1635.345)" fill="#298941"/>
      <rect id="Rectangle_35178" data-name="Rectangle 35178" width="3.836" height="23.017" transform="translate(3902.062 1635.345)" fill="#298941"/>
      <rect id="Rectangle_35179" data-name="Rectangle 35179" width="3.836" height="23.017" transform="translate(3905.898 1639.181)" fill="#298941"/>
      <rect id="Rectangle_35180" data-name="Rectangle 35180" width="3.836" height="23.017" transform="translate(3909.734 1639.181)" fill="#298941"/>
      <rect id="Rectangle_35181" data-name="Rectangle 35181" width="3.836" height="30.69" transform="translate(3913.57 1639.181)" fill="#298941"/>
      <rect id="Rectangle_35182" data-name="Rectangle 35182" width="3.836" height="34.526" transform="translate(3917.406 1643.017)" fill="#298941"/>
      <rect id="Rectangle_35183" data-name="Rectangle 35183" width="3.836" height="30.69" transform="translate(3978.786 1623.836)" fill="#298941"/>
      <rect id="Rectangle_35184" data-name="Rectangle 35184" width="3.836" height="30.69" transform="translate(3978.786 1666.035)" fill="#298941"/>
      <rect id="Rectangle_35185" data-name="Rectangle 35185" width="3.836" height="26.854" transform="translate(3982.623 1623.836)" fill="#298941"/>
      <rect id="Rectangle_35186" data-name="Rectangle 35186" width="3.836" height="23.017" transform="translate(3986.458 1623.836)" fill="#298941"/>
      <rect id="Rectangle_35187" data-name="Rectangle 35187" width="3.836" height="19.181" transform="translate(3990.295 1623.836)" fill="#298941"/>
      <rect id="Rectangle_35188" data-name="Rectangle 35188" width="3.836" height="19.181" transform="translate(3994.131 1623.836)" fill="#298941"/>
      <rect id="Rectangle_35189" data-name="Rectangle 35189" width="3.836" height="15.345" transform="translate(3997.967 1623.836)" fill="#298941"/>
      <rect id="Rectangle_35190" data-name="Rectangle 35190" width="3.836" height="15.345" transform="translate(4001.803 1623.836)" fill="#298941"/>
      <rect id="Rectangle_35191" data-name="Rectangle 35191" width="3.836" height="11.509" transform="translate(4005.64 1623.836)" fill="#298941"/>
      <rect id="Rectangle_35192" data-name="Rectangle 35192" width="3.836" height="11.509" transform="translate(4009.476 1623.836)" fill="#298941"/>
      <rect id="Rectangle_35193" data-name="Rectangle 35193" width="3.836" height="7.673" transform="translate(4013.312 1623.836)" fill="#298941"/>
      <rect id="Rectangle_35194" data-name="Rectangle 35194" width="3.836" height="7.673" transform="translate(4017.148 1623.836)" fill="#298941"/>
      <rect id="Rectangle_35195" data-name="Rectangle 35195" width="3.836" height="11.509" transform="translate(4013.312 1673.707)" fill="#298941"/>
      <rect id="Rectangle_35196" data-name="Rectangle 35196" width="19.181" height="3.836" transform="translate(3986.458 1715.906)" fill="#246430"/>
      <rect id="Rectangle_35197" data-name="Rectangle 35197" width="19.181" height="3.836" transform="translate(3982.623 1712.069)" fill="#298941"/>
      <rect id="Rectangle_35198" data-name="Rectangle 35198" width="3.836" height="15.345" transform="translate(4009.476 1669.871)" fill="#298941"/>
      <rect id="Rectangle_35199" data-name="Rectangle 35199" width="3.836" height="19.181" transform="translate(4005.64 1666.035)" fill="#298941"/>
      <rect id="Rectangle_35200" data-name="Rectangle 35200" width="3.836" height="26.854" transform="translate(4001.803 1666.035)" fill="#298941"/>
      <rect id="Rectangle_35201" data-name="Rectangle 35201" width="3.836" height="30.69" transform="translate(3997.967 1662.198)" fill="#298941"/>
      <rect id="Rectangle_35202" data-name="Rectangle 35202" width="3.836" height="34.526" transform="translate(3994.131 1662.198)" fill="#298941"/>
      <rect id="Rectangle_35203" data-name="Rectangle 35203" width="3.836" height="38.362" transform="translate(3990.295 1658.362)" fill="#298941"/>
      <rect id="Rectangle_35204" data-name="Rectangle 35204" width="7.672" height="3.836" transform="translate(4020.985 1623.836)" fill="#298941"/>
      <rect id="Rectangle_35205" data-name="Rectangle 35205" width="3.836" height="42.198" transform="translate(3982.623 1654.526)" fill="#298941"/>
      <rect id="Rectangle_35206" data-name="Rectangle 35206" width="3.836" height="38.362" transform="translate(3986.458 1658.362)" fill="#298941"/>
      <rect id="Rectangle_35207" data-name="Rectangle 35207" width="3.836" height="42.198" transform="translate(3921.243 1643.017)" fill="#298941"/>
      <rect id="Rectangle_35208" data-name="Rectangle 35208" width="3.836" height="53.707" transform="translate(3925.079 1643.017)" fill="#298941"/>
      <rect id="Rectangle_35209" data-name="Rectangle 35209" width="3.836" height="53.707" transform="translate(3928.915 1646.854)" fill="#298941"/>
      <rect id="Rectangle_35210" data-name="Rectangle 35210" width="3.836" height="61.38" transform="translate(3932.751 1646.854)" fill="#298941"/>
      <rect id="Rectangle_35211" data-name="Rectangle 35211" width="3.836" height="53.707" transform="translate(3936.588 1650.69)" fill="#298941"/>
      <rect id="Rectangle_35212" data-name="Rectangle 35212" width="3.836" height="65.216" transform="translate(3940.424 1654.526)" fill="#298941"/>
      <rect id="Rectangle_35213" data-name="Rectangle 35213" width="3.836" height="69.052" transform="translate(3944.26 1650.69)" fill="#298941"/>
      <rect id="Rectangle_35214" data-name="Rectangle 35214" width="3.836" height="76.725" transform="translate(3948.096 1639.181)" fill="#298941"/>
      <rect id="Rectangle_35215" data-name="Rectangle 35215" width="3.836" height="26.854" transform="translate(3951.933 1689.052)" fill="#298941"/>
      <rect id="Rectangle_35216" data-name="Rectangle 35216" width="3.836" height="15.345" transform="translate(3955.769 1696.724)" fill="#298941"/>
      <rect id="Rectangle_35217" data-name="Rectangle 35217" width="3.836" height="3.836" transform="translate(3959.605 1700.561)" fill="#298941"/>
      <rect id="Rectangle_35218" data-name="Rectangle 35218" width="3.836" height="3.836" transform="translate(3971.114 1708.233)" fill="#246430"/>
      <rect id="Rectangle_35219" data-name="Rectangle 35219" width="3.836" height="3.836" transform="translate(3974.95 1712.069)" fill="#246430"/>
      <rect id="Rectangle_35220" data-name="Rectangle 35220" width="3.836" height="3.836" transform="translate(3978.786 1715.906)" fill="#246430"/>
      <rect id="Rectangle_35221" data-name="Rectangle 35221" width="3.836" height="34.526" transform="translate(3951.933 1635.345)" fill="#298941"/>
      <rect id="Rectangle_35222" data-name="Rectangle 35222" width="3.836" height="30.69" transform="translate(3955.769 1635.345)" fill="#298941"/>
      <rect id="Rectangle_35223" data-name="Rectangle 35223" width="3.836" height="38.362" transform="translate(3959.605 1631.509)" fill="#298941"/>
      <rect id="Rectangle_35224" data-name="Rectangle 35224" width="3.836" height="42.198" transform="translate(3963.441 1631.509)" fill="#298941"/>
      <rect id="Rectangle_35225" data-name="Rectangle 35225" width="3.836" height="57.543" transform="translate(3967.278 1627.672)" fill="#298941"/>
      <rect id="Rectangle_35226" data-name="Rectangle 35226" width="3.836" height="65.216" transform="translate(3971.114 1627.672)" fill="#298941"/>
      <rect id="Rectangle_35227" data-name="Rectangle 35227" width="3.836" height="72.888" transform="translate(3974.95 1623.836)" fill="#298941"/>
      <rect id="Rectangle_35228" data-name="Rectangle 35228" width="3.836" height="7.673" transform="translate(3921.243 1696.724)" fill="#246430"/>
      <rect id="Rectangle_35229" data-name="Rectangle 35229" width="3.836" height="15.345" transform="translate(3917.406 1704.397)" fill="#298941"/>
      <rect id="Rectangle_35230" data-name="Rectangle 35230" width="3.836" height="11.509" transform="translate(3913.57 1708.233)" fill="#298941"/>
      <rect id="Rectangle_35231" data-name="Rectangle 35231" width="3.836" height="11.509" transform="translate(3909.734 1708.233)" fill="#298941"/>
      <rect id="Rectangle_35232" data-name="Rectangle 35232" width="3.836" height="7.672" transform="translate(3905.898 1712.069)" fill="#246430"/>
      <rect id="Rectangle_35233" data-name="Rectangle 35233" width="3.836" height="7.672" transform="translate(3925.079 1712.069)" fill="#246430"/>
      <rect id="Rectangle_35234" data-name="Rectangle 35234" width="3.836" height="7.673" transform="translate(3928.915 1708.233)" fill="#246430"/>
      <rect id="Rectangle_35235" data-name="Rectangle 35235" width="3.836" height="11.509" transform="translate(3932.751 1708.233)" fill="#298941"/>
      <rect id="Rectangle_35236" data-name="Rectangle 35236" width="3.836" height="15.345" transform="translate(3936.588 1704.397)" fill="#298941"/>
      <rect id="Rectangle_35237" data-name="Rectangle 35237" width="19.181" height="3.836" transform="translate(3902.062 1715.906)" fill="#246430"/>
      <rect id="Rectangle_35238" data-name="Rectangle 35238" width="15.345" height="3.836" transform="translate(3909.734 1712.069)" fill="#246430"/>
      <rect id="Rectangle_35239" data-name="Rectangle 35239" width="26.854" height="3.836" transform="translate(3921.243 1715.906)" fill="#246430"/>
      <rect id="Rectangle_35240" data-name="Rectangle 35240" width="3.836" height="11.509" transform="translate(3921.243 1685.216)" fill="#e8b714"/>
      <rect id="Rectangle_35241" data-name="Rectangle 35241" width="15.345" height="3.836" transform="translate(3917.406 1704.397)" fill="#246430"/>
      <rect id="Rectangle_35242" data-name="Rectangle 35242" width="19.181" height="3.836" transform="translate(3909.734 1708.233)" fill="#246430"/>
      <rect id="Rectangle_35243" data-name="Rectangle 35243" width="3.836" height="23.017" transform="translate(3890.553 1631.509)" fill="#298941"/>
      <rect id="Rectangle_35244" data-name="Rectangle 35244" width="3.836" height="7.672" transform="translate(3905.898 1681.38)" fill="#07042d"/>
      <rect id="Rectangle_35245" data-name="Rectangle 35245" width="7.673" height="3.836" transform="translate(3909.734 1689.052)" fill="#07042d"/>
      <rect id="Rectangle_35246" data-name="Rectangle 35246" width="3.836" height="7.672" transform="translate(3902.062 1673.707)" fill="#07042d"/>
      <rect id="Rectangle_35247" data-name="Rectangle 35247" width="3.836" height="7.672" transform="translate(3863.699 1646.854)" fill="#07042d"/>
      <rect id="Rectangle_35248" data-name="Rectangle 35248" width="3.836" height="11.509" transform="translate(3917.406 1692.888)" fill="#07042d"/>
      <rect id="Rectangle_35249" data-name="Rectangle 35249" width="3.836" height="3.836" transform="translate(3867.536 1654.526)" fill="#07042d"/>
      <rect id="Rectangle_35250" data-name="Rectangle 35250" width="7.672" height="3.836" transform="translate(3882.881 1631.509)" fill="#07042d"/>
      <rect id="Rectangle_35251" data-name="Rectangle 35251" width="3.836" height="3.836" transform="translate(3890.553 1627.672)" fill="#07042d"/>
      <rect id="Rectangle_35252" data-name="Rectangle 35252" width="7.673" height="3.836" transform="translate(3909.734 1704.397)" fill="#07042d"/>
      <rect id="Rectangle_35253" data-name="Rectangle 35253" width="3.836" height="3.836" transform="translate(3905.898 1708.233)" fill="#07042d"/>
      <rect id="Rectangle_35254" data-name="Rectangle 35254" width="3.836" height="3.836" transform="translate(3902.062 1712.069)" fill="#07042d"/>
      <rect id="Rectangle_35255" data-name="Rectangle 35255" width="3.836" height="3.836" transform="translate(3898.225 1715.906)" fill="#07042d"/>
      <rect id="Rectangle_35256" data-name="Rectangle 35256" width="3.836" height="7.672" transform="translate(3928.915 1700.561)" fill="#07042d"/>
      <rect id="Rectangle_35257" data-name="Rectangle 35257" width="3.836" height="3.836" transform="translate(3925.079 1708.233)" fill="#07042d"/>
      <rect id="Rectangle_35258" data-name="Rectangle 35258" width="3.836" height="3.836" transform="translate(3925.079 1696.724)" fill="#07042d"/>
      <rect id="Rectangle_35259" data-name="Rectangle 35259" width="3.836" height="3.836" transform="translate(3921.243 1712.069)" fill="#07042d"/>
      <rect id="Rectangle_35260" data-name="Rectangle 35260" width="3.836" height="3.836" transform="translate(3917.406 1715.906)" fill="#07042d"/>
      <rect id="Rectangle_35261" data-name="Rectangle 35261" width="3.836" height="3.836" transform="translate(3978.786 1715.906) rotate(-90)" fill="#07042d"/>
      <rect id="Rectangle_35262" data-name="Rectangle 35262" width="3.836" height="3.836" transform="translate(3982.623 1719.742) rotate(-90)" fill="#07042d"/>
      <rect id="Rectangle_35263" data-name="Rectangle 35263" width="3.836" height="3.836" transform="translate(4005.64 1719.742) rotate(-90)" fill="#07042d"/>
      <rect id="Rectangle_35264" data-name="Rectangle 35264" width="3.836" height="3.836" transform="translate(3959.605 1696.724)" fill="#07042d"/>
      <rect id="Rectangle_35265" data-name="Rectangle 35265" width="3.836" height="3.836" transform="translate(3963.441 1704.397) rotate(-90)" fill="#07042d"/>
      <rect id="Rectangle_35266" data-name="Rectangle 35266" width="3.836" height="3.836" transform="translate(4009.476 1700.561) rotate(-90)" fill="#246430"/>
      <rect id="Rectangle_35267" data-name="Rectangle 35267" width="3.836" height="7.673" transform="translate(4005.64 1696.724) rotate(-90)" fill="#246430"/>
      <rect id="Rectangle_35268" data-name="Rectangle 35268" width="3.836" height="3.836" transform="translate(4013.312 1696.724) rotate(-90)" fill="#246430"/>
      <rect id="Rectangle_35269" data-name="Rectangle 35269" width="3.836" height="7.672" transform="translate(4009.476 1692.888) rotate(-90)" fill="#246430"/>
      <rect id="Rectangle_35270" data-name="Rectangle 35270" width="3.836" height="7.672" transform="translate(4009.476 1689.052) rotate(-90)" fill="#246430"/>
      <rect id="Rectangle_35271" data-name="Rectangle 35271" width="3.836" height="3.836" transform="translate(4013.312 1700.561) rotate(-90)" fill="#07042d"/>
      <rect id="Rectangle_35272" data-name="Rectangle 35272" width="3.836" height="3.836" transform="translate(4009.476 1704.397) rotate(-90)" fill="#07042d"/>
      <rect id="Rectangle_35273" data-name="Rectangle 35273" width="3.836" height="7.672" transform="translate(4001.803 1708.233) rotate(-90)" fill="#07042d"/>
      <rect id="Rectangle_35274" data-name="Rectangle 35274" width="3.836" height="7.672" transform="translate(3997.967 1696.724) rotate(-90)" fill="#07042d"/>
      <rect id="Rectangle_35275" data-name="Rectangle 35275" width="3.836" height="7.672" transform="translate(3967.277 1708.233) rotate(-90)" fill="#07042d"/>
      <rect id="Rectangle_35276" data-name="Rectangle 35276" width="3.836" height="26.854" transform="translate(3974.95 1712.069) rotate(-90)" fill="#07042d"/>
      <rect id="Rectangle_35277" data-name="Rectangle 35277" width="3.836" height="23.017" transform="translate(3974.95 1700.561) rotate(-90)" fill="#07042d"/>
      <rect id="Rectangle_35278" data-name="Rectangle 35278" width="7.672" height="3.836" transform="translate(3963.441 1700.561) rotate(-90)" fill="#246430"/>
      <rect id="Rectangle_35279" data-name="Rectangle 35279" width="7.672" height="3.836" transform="translate(3959.605 1696.724) rotate(-90)" fill="#246430"/>
      <rect id="Rectangle_35280" data-name="Rectangle 35280" width="7.672" height="3.836" transform="translate(3955.769 1689.052) rotate(-90)" fill="#246430"/>
      <rect id="Rectangle_35281" data-name="Rectangle 35281" width="7.672" height="3.836" transform="translate(3951.933 1681.38) rotate(-90)" fill="#e8b714"/>
      <rect id="Rectangle_35282" data-name="Rectangle 35282" width="7.672" height="3.836" transform="translate(3955.769 1677.543) rotate(-90)" fill="#e8b714"/>
      <rect id="Rectangle_35283" data-name="Rectangle 35283" width="7.672" height="3.836" transform="translate(3959.605 1681.38) rotate(-90)" fill="#e8b714"/>
      <rect id="Rectangle_35284" data-name="Rectangle 35284" width="3.836" height="7.672" transform="translate(3967.278 1704.397) rotate(-90)" fill="#246430"/>
      <rect id="Rectangle_35285" data-name="Rectangle 35285" width="3.836" height="7.672" transform="translate(3967.278 1700.561) rotate(-90)" fill="#246430"/>
      <rect id="Rectangle_35286" data-name="Rectangle 35286" width="3.836" height="26.854" transform="translate(3974.95 1704.397) rotate(-90)" fill="#246430"/>
      <rect id="Rectangle_35287" data-name="Rectangle 35287" width="3.836" height="26.854" transform="translate(3982.622 1704.397) rotate(-90)" fill="#246430"/>
      <rect id="Rectangle_35288" data-name="Rectangle 35288" width="3.836" height="26.854" transform="translate(3974.95 1708.233) rotate(-90)" fill="#246430"/>
      <rect id="Rectangle_35289" data-name="Rectangle 35289" width="3.836" height="7.672" transform="translate(4001.803 1704.397) rotate(-90)" fill="#246430"/>
      <rect id="Rectangle_35290" data-name="Rectangle 35290" width="3.836" height="11.509" transform="translate(3997.967 1700.561) rotate(-90)" fill="#246430"/>
      <rect id="Rectangle_35291" data-name="Rectangle 35291" width="3.836" height="3.836" transform="translate(3963.441 1692.888) rotate(-90)" fill="#07042d"/>
      <rect id="Rectangle_35292" data-name="Rectangle 35292" width="7.672" height="3.836" transform="translate(3967.278 1692.888)" fill="#07042d"/>
      <rect id="Rectangle_35293" data-name="Rectangle 35293" width="3.836" height="3.836" transform="translate(3967.278 1712.069) rotate(-90)" fill="#07042d"/>
      <rect id="Rectangle_35294" data-name="Rectangle 35294" width="3.836" height="3.836" transform="translate(3971.114 1715.906) rotate(-90)" fill="#07042d"/>
      <rect id="Rectangle_35295" data-name="Rectangle 35295" width="3.836" height="3.836" transform="translate(3974.95 1719.742) rotate(-90)" fill="#07042d"/>
      <rect id="Rectangle_35296" data-name="Rectangle 35296" width="3.836" height="3.836" transform="translate(3971.114 1723.578) rotate(-90)" fill="#07042d"/>
      <rect id="Rectangle_35297" data-name="Rectangle 35297" width="7.673" height="3.836" transform="translate(4001.803 1715.906) rotate(-90)" fill="#07042d"/>
      <rect id="Rectangle_35298" data-name="Rectangle 35298" width="3.836" height="26.854" transform="translate(3978.786 1723.578) rotate(-90)" fill="#07042d"/>
      <rect id="Rectangle_35299" data-name="Rectangle 35299" width="7.672" height="3.836" transform="translate(3948.096 1715.906)" fill="#07042d"/>
      <rect id="Rectangle_35300" data-name="Rectangle 35300" width="3.836" height="3.836" transform="translate(3955.769 1712.069)" fill="#07042d"/>
      <rect id="Rectangle_35301" data-name="Rectangle 35301" width="3.836" height="7.672" transform="translate(3959.605 1704.397)" fill="#07042d"/>
      <rect id="Rectangle_35302" data-name="Rectangle 35302" width="3.836" height="3.836" transform="translate(3894.389 1654.526)" fill="#07042d"/>
      <rect id="Rectangle_35303" data-name="Rectangle 35303" width="11.509" height="3.836" transform="translate(3905.898 1635.345)" fill="#07042d"/>
      <rect id="Rectangle_35304" data-name="Rectangle 35304" width="7.673" height="3.836" transform="translate(3898.225 1631.509)" fill="#07042d"/>
      <rect id="Rectangle_35305" data-name="Rectangle 35305" width="3.836" height="3.836" transform="translate(3905.898 1627.672)" fill="#07042d"/>
      <rect id="Rectangle_35306" data-name="Rectangle 35306" width="11.509" height="3.836" transform="translate(3917.406 1639.181)" fill="#07042d"/>
      <rect id="Rectangle_35307" data-name="Rectangle 35307" width="7.672" height="3.836" transform="translate(3928.915 1643.017)" fill="#07042d"/>
      <rect id="Rectangle_35308" data-name="Rectangle 35308" width="3.836" height="3.836" transform="translate(3936.588 1646.854)" fill="#07042d"/>
      <rect id="Rectangle_35309" data-name="Rectangle 35309" width="3.836" height="3.836" transform="translate(3940.424 1650.69)" fill="#07042d"/>
      <rect id="Rectangle_35310" data-name="Rectangle 35310" width="7.673" height="3.836" transform="translate(3986.458 1654.526)" fill="#07042d"/>
      <rect id="Rectangle_35311" data-name="Rectangle 35311" width="7.672" height="3.836" transform="translate(3994.131 1658.362)" fill="#07042d"/>
      <rect id="Rectangle_35312" data-name="Rectangle 35312" width="7.672" height="3.836" transform="translate(4001.803 1662.198)" fill="#07042d"/>
      <rect id="Rectangle_35313" data-name="Rectangle 35313" width="3.836" height="3.836" transform="translate(4009.476 1666.035)" fill="#07042d"/>
      <rect id="Rectangle_35314" data-name="Rectangle 35314" width="3.836" height="3.836" transform="translate(4013.312 1669.871)" fill="#07042d"/>
      <rect id="Rectangle_35315" data-name="Rectangle 35315" width="3.836" height="23.017" transform="translate(4017.148 1673.707)" fill="#07042d"/>
      <rect id="Rectangle_35316" data-name="Rectangle 35316" width="3.836" height="7.672" transform="translate(3955.769 1689.052)" fill="#07042d"/>
      <g id="Group_486" data-name="Group 486">
        <rect id="Rectangle_35317" data-name="Rectangle 35317" width="3.836" height="3.836" transform="translate(3955.769 1666.035)" fill="#07042d"/>
        <rect id="Rectangle_35318" data-name="Rectangle 35318" width="3.836" height="3.836" transform="translate(3951.933 1669.871)" fill="#07042d"/>
        <rect id="Rectangle_35319" data-name="Rectangle 35319" width="3.836" height="7.672" transform="translate(3951.933 1681.38)" fill="#07042d"/>
        <rect id="Rectangle_35320" data-name="Rectangle 35320" width="3.836" height="7.672" transform="translate(3959.605 1681.38)" fill="#07042d"/>
        <rect id="Rectangle_35321" data-name="Rectangle 35321" width="3.836" height="3.836" transform="translate(3955.769 1677.543)" fill="#07042d"/>
        <rect id="Rectangle_35322" data-name="Rectangle 35322" width="3.836" height="3.836" transform="translate(3959.605 1669.871)" fill="#07042d"/>
        <rect id="Rectangle_35323" data-name="Rectangle 35323" width="3.836" height="7.672" transform="translate(3948.096 1673.707)" fill="#07042d"/>
        <rect id="Rectangle_35324" data-name="Rectangle 35324" width="3.836" height="7.672" transform="translate(3963.441 1673.707)" fill="#07042d"/>
      </g>
      <rect id="Rectangle_35325" data-name="Rectangle 35325" width="3.836" height="7.672" transform="translate(4005.64 1685.216)" fill="#07042d"/>
      <rect id="Rectangle_35326" data-name="Rectangle 35326" width="3.836" height="3.836" transform="translate(3940.424 1639.181)" fill="#07042d"/>
      <rect id="Rectangle_35327" data-name="Rectangle 35327" width="3.836" height="7.672" transform="translate(3944.26 1643.017)" fill="#07042d"/>
      <rect id="Rectangle_35328" data-name="Rectangle 35328" width="3.836" height="3.836" transform="translate(3982.623 1650.69)" fill="#07042d"/>
      <rect id="Rectangle_35329" data-name="Rectangle 35329" width="3.836" height="3.836" transform="translate(3986.458 1646.854)" fill="#07042d"/>
      <rect id="Rectangle_35330" data-name="Rectangle 35330" width="7.672" height="3.836" transform="translate(3990.295 1643.017)" fill="#07042d"/>
      <rect id="Rectangle_35331" data-name="Rectangle 35331" width="7.672" height="3.836" transform="translate(3997.967 1639.181)" fill="#07042d"/>
      <rect id="Rectangle_35332" data-name="Rectangle 35332" width="7.673" height="3.836" transform="translate(4005.64 1635.345)" fill="#07042d"/>
      <rect id="Rectangle_35333" data-name="Rectangle 35333" width="7.672" height="3.836" transform="translate(4013.312 1631.509)" fill="#07042d"/>
      <rect id="Rectangle_35334" data-name="Rectangle 35334" width="7.672" height="3.836" transform="translate(4020.985 1627.672)" fill="#07042d"/>
      <rect id="Rectangle_35335" data-name="Rectangle 35335" width="7.673" height="3.836" transform="translate(4028.657 1623.836)" fill="#07042d"/>
      <rect id="Rectangle_35336" data-name="Rectangle 35336" width="3.836" height="11.509" transform="translate(3978.786 1654.526)" fill="#07042d"/>
      <rect id="Rectangle_35337" data-name="Rectangle 35337" width="7.672" height="3.836" transform="translate(3944.26 1635.345)" fill="#07042d"/>
      <rect id="Rectangle_35338" data-name="Rectangle 35338" width="7.673" height="3.836" transform="translate(3951.933 1631.509)" fill="#07042d"/>
      <rect id="Rectangle_35339" data-name="Rectangle 35339" width="7.672" height="3.836" transform="translate(3959.605 1627.672)" fill="#07042d"/>
      <rect id="Rectangle_35340" data-name="Rectangle 35340" width="7.672" height="3.836" transform="translate(3967.278 1623.836)" fill="#07042d"/>
      <rect id="Rectangle_35341" data-name="Rectangle 35341" width="53.707" height="3.836" transform="translate(3974.95 1620)" fill="#07042d"/>
      <rect id="Rectangle_35342" data-name="Rectangle 35342" width="3.836" height="3.836" transform="translate(3871.372 1646.854) rotate(180)" fill="#07042d"/>
      <rect id="Rectangle_35343" data-name="Rectangle 35343" width="19.181" height="3.836" transform="translate(3894.389 1623.836)" fill="#07042d"/>
      <rect id="Rectangle_35344" data-name="Rectangle 35344" width="46.035" height="3.836" transform="translate(3902.062 1719.742)" fill="#07042d"/>
      <rect id="Rectangle_35345" data-name="Rectangle 35345" width="7.673" height="3.836" transform="translate(3898.225 1658.362)" fill="#07042d"/>
      <rect id="Rectangle_35346" data-name="Rectangle 35346" width="23.017" height="3.836" transform="translate(3871.372 1658.362)" fill="#07042d"/>
      <rect id="Rectangle_35347" data-name="Rectangle 35347" width="7.672" height="3.836" transform="translate(3894.389 1650.69)" fill="#246430"/>
      <rect id="Rectangle_35348" data-name="Rectangle 35348" width="7.673" height="3.836" transform="translate(3898.225 1654.526)" fill="#246430"/>
      <rect id="Rectangle_35349" data-name="Rectangle 35349" width="7.673" height="3.836" transform="translate(3898.225 1627.672)" fill="#246430"/>
      <rect id="Rectangle_35350" data-name="Rectangle 35350" width="3.836" height="3.836" transform="translate(3894.389 1631.509)" fill="#246430"/>
      <rect id="Rectangle_35351" data-name="Rectangle 35351" width="3.836" height="3.836" transform="translate(3890.553 1639.181)" fill="#246430"/>
      <g id="Group_487" data-name="Group 487">
        <rect id="Rectangle_35352" data-name="Rectangle 35352" width="3.836" height="3.836" transform="translate(3932.751 1658.362)" fill="#246430"/>
        <rect id="Rectangle_35353" data-name="Rectangle 35353" width="3.836" height="3.836" transform="translate(3928.915 1654.526)" fill="#246430"/>
      </g>
      <g id="Group_488" data-name="Group 488">
        <rect id="Rectangle_35354" data-name="Rectangle 35354" width="3.836" height="3.836" transform="translate(3940.424 1681.38)" fill="#246430"/>
        <rect id="Rectangle_35355" data-name="Rectangle 35355" width="3.836" height="3.836" transform="translate(3936.588 1677.543)" fill="#246430"/>
      </g>
      <g id="Group_489" data-name="Group 489">
        <rect id="Rectangle_35356" data-name="Rectangle 35356" width="3.836" height="3.836" transform="translate(3963.441 1654.526)" fill="#246430"/>
        <rect id="Rectangle_35357" data-name="Rectangle 35357" width="3.836" height="3.836" transform="translate(3986.458 1635.345)" fill="#246430"/>
        <rect id="Rectangle_35358" data-name="Rectangle 35358" width="3.836" height="3.836" transform="translate(4001.803 1669.871)" fill="#246430"/>
        <rect id="Rectangle_35359" data-name="Rectangle 35359" width="3.836" height="3.836" transform="translate(3925.079 1669.871)" fill="#246430"/>
        <rect id="Rectangle_35360" data-name="Rectangle 35360" width="3.836" height="3.836" transform="translate(3948.096 1700.561)" fill="#246430"/>
        <rect id="Rectangle_35361" data-name="Rectangle 35361" width="3.836" height="3.836" transform="translate(3959.605 1658.362)" fill="#246430"/>
      </g>
      <g id="Group_490" data-name="Group 490">
        <rect id="Rectangle_35362" data-name="Rectangle 35362" width="3.836" height="3.836" transform="translate(3982.623 1681.38)" fill="#246430"/>
        <rect id="Rectangle_35363" data-name="Rectangle 35363" width="3.836" height="3.836" transform="translate(3978.786 1685.216)" fill="#246430"/>
      </g>
      <g id="Group_491" data-name="Group 491">
        <rect id="Rectangle_35364" data-name="Rectangle 35364" width="3.836" height="3.836" transform="translate(3913.57 1643.017)" fill="#246430"/>
        <rect id="Rectangle_35365" data-name="Rectangle 35365" width="3.836" height="3.836" transform="translate(3909.734 1646.854)" fill="#246430"/>
      </g>
      <rect id="Rectangle_35366" data-name="Rectangle 35366" width="3.836" height="3.836" transform="translate(3882.881 1639.181)" fill="#246430"/>
      <rect id="Rectangle_35367" data-name="Rectangle 35367" width="7.672" height="3.836" transform="translate(3905.898 1658.362)" fill="#246430"/>
      <rect id="Rectangle_35368" data-name="Rectangle 35368" width="3.836" height="26.854" transform="translate(3909.734 1662.198)" fill="#e8b714"/>
      <rect id="Rectangle_35369" data-name="Rectangle 35369" width="3.836" height="19.181" transform="translate(3913.57 1669.871)" fill="#e8b714"/>
      <rect id="Rectangle_35370" data-name="Rectangle 35370" width="3.836" height="15.345" transform="translate(3917.406 1677.543)" fill="#e8b714"/>
      <rect id="Rectangle_35371" data-name="Rectangle 35371" width="3.836" height="11.509" transform="translate(3925.079 1685.216)" fill="#246430"/>
      <rect id="Rectangle_35372" data-name="Rectangle 35372" width="3.836" height="7.673" transform="translate(3921.243 1677.543)" fill="#246430"/>
      <rect id="Rectangle_35373" data-name="Rectangle 35373" width="3.836" height="7.672" transform="translate(3917.406 1669.871)" fill="#246430"/>
      <rect id="Rectangle_35374" data-name="Rectangle 35374" width="3.836" height="7.672" transform="translate(3913.57 1662.198)" fill="#246430"/>
      <rect id="Rectangle_35375" data-name="Rectangle 35375" width="3.836" height="3.836" transform="translate(3928.915 1696.724)" fill="#246430"/>
      <rect id="Rectangle_35376" data-name="Rectangle 35376" width="3.836" height="3.836" transform="translate(3925.079 1700.561)" fill="#246430"/>
      <rect id="Rectangle_35377" data-name="Rectangle 35377" width="11.509" height="3.836" transform="translate(3967.278 1627.672)" fill="#246430"/>
      <rect id="Rectangle_35378" data-name="Rectangle 35378" width="11.509" height="3.836" transform="translate(3959.605 1631.509)" fill="#246430"/>
      <rect id="Rectangle_35379" data-name="Rectangle 35379" width="11.509" height="3.836" transform="translate(3951.933 1635.345)" fill="#246430"/>
      <rect id="Rectangle_35380" data-name="Rectangle 35380" width="11.509" height="3.836" transform="translate(3944.26 1639.181)" fill="#246430"/>
      <rect id="Rectangle_35381" data-name="Rectangle 35381" width="11.509" height="3.836" transform="translate(4009.476 1627.672)" fill="#246430"/>
      <rect id="Rectangle_35382" data-name="Rectangle 35382" width="3.836" height="11.509" transform="translate(3982.623 1654.526)" fill="#246430"/>
      <rect id="Rectangle_35383" data-name="Rectangle 35383" width="3.836" height="3.836" transform="translate(4013.312 1681.38)" fill="#246430"/>
      <rect id="Rectangle_35384" data-name="Rectangle 35384" width="3.836" height="7.672" transform="translate(3948.096 1643.017)" fill="#246430"/>
      <rect id="Rectangle_35385" data-name="Rectangle 35385" width="53.707" height="3.836" transform="translate(3974.95 1623.836)" fill="#246430"/>
      <rect id="Rectangle_35386" data-name="Rectangle 35386" width="3.836" height="7.672" transform="translate(3890.553 1650.69)" fill="#246430"/>
    </g>
    <g id="Group_494" data-name="Group 494">
      <rect id="Rectangle_35387" data-name="Rectangle 35387" width="7.672" height="3.836" transform="translate(3852.191 1658.362)" fill="#07042d"/>
      <rect id="Rectangle_35388" data-name="Rectangle 35388" width="7.672" height="3.836" transform="translate(3829.173 1666.035)" fill="#07042d"/>
      <rect id="Rectangle_35389" data-name="Rectangle 35389" width="7.673" height="3.836" transform="translate(3825.337 1650.69)" fill="#07042d"/>
      <rect id="Rectangle_35390" data-name="Rectangle 35390" width="3.836" height="3.836" transform="translate(3821.501 1646.854)" fill="#07042d"/>
      <rect id="Rectangle_35391" data-name="Rectangle 35391" width="3.836" height="3.836" transform="translate(3836.846 1646.854)" fill="#ffa118"/>
      <rect id="Rectangle_35392" data-name="Rectangle 35392" width="3.836" height="3.836" transform="translate(3809.992 1643.017)" fill="#ffe306"/>
      <rect id="Rectangle_35393" data-name="Rectangle 35393" width="3.836" height="3.836" transform="translate(3775.938 1654.526)" fill="#ffe306"/>
      <rect id="Rectangle_35394" data-name="Rectangle 35394" width="3.836" height="3.836" transform="translate(3794.574 1673.707)" fill="#ffe306"/>
      <rect id="Rectangle_35395" data-name="Rectangle 35395" width="3.836" height="3.836" transform="translate(3844.371 1669.871)" fill="#ff5c35"/>
      <rect id="Rectangle_35396" data-name="Rectangle 35396" width="3.836" height="3.836" transform="translate(3767.794 1666.035)" fill="#ffa118"/>
      <rect id="Rectangle_35397" data-name="Rectangle 35397" width="3.836" height="3.836" transform="translate(3809.992 1654.526)" fill="#07042d"/>
      <rect id="Rectangle_35398" data-name="Rectangle 35398" width="3.836" height="3.836" transform="translate(3798.41 1643.017)" fill="#07042d"/>
      <rect id="Rectangle_35399" data-name="Rectangle 35399" width="3.836" height="3.836" transform="translate(3798.41 1654.526)" fill="#07042d"/>
      <rect id="Rectangle_35400" data-name="Rectangle 35400" width="3.836" height="3.836" transform="translate(3786.901 1654.526)" fill="#07042d"/>
      <rect id="Rectangle_35401" data-name="Rectangle 35401" width="3.836" height="3.836" transform="translate(3786.901 1643.017)" fill="#07042d"/>
      <rect id="Rectangle_35402" data-name="Rectangle 35402" width="3.836" height="7.672" transform="translate(3802.246 1646.854)" fill="#07042d"/>
      <rect id="Rectangle_35403" data-name="Rectangle 35403" width="3.836" height="7.672" transform="translate(3783.065 1646.854)" fill="#07042d"/>
      <rect id="Rectangle_35404" data-name="Rectangle 35404" width="7.672" height="3.836" transform="translate(3790.738 1658.362)" fill="#07042d"/>
      <rect id="Rectangle_35405" data-name="Rectangle 35405" width="7.672" height="3.836" transform="translate(3790.738 1639.181)" fill="#07042d"/>
      <rect id="Rectangle_35406" data-name="Rectangle 35406" width="3.836" height="3.836" transform="translate(3806.156 1658.362)" fill="#07042d"/>
      <rect id="Rectangle_35407" data-name="Rectangle 35407" width="3.836" height="3.836" transform="translate(3802.32 1662.198)" fill="#07042d"/>
      <rect id="Rectangle_35408" data-name="Rectangle 35408" width="3.836" height="3.836" transform="translate(3806.156 1666.035)" fill="#07042d"/>
      <rect id="Rectangle_35409" data-name="Rectangle 35409" width="7.672" height="3.836" transform="translate(3821.501 1669.871)" fill="#07042d"/>
      <rect id="Rectangle_35410" data-name="Rectangle 35410" width="3.836" height="3.836" transform="translate(3809.992 1669.871)" fill="#07042d"/>
      <rect id="Rectangle_35411" data-name="Rectangle 35411" width="7.673" height="3.836" transform="translate(3813.828 1673.707)" fill="#07042d"/>
      <rect id="Rectangle_35412" data-name="Rectangle 35412" width="7.673" height="3.836" transform="translate(3813.828 1650.69)" fill="#07042d"/>
      <rect id="Rectangle_35413" data-name="Rectangle 35413" width="3.836" height="7.673" transform="translate(3813.828 1654.526)" fill="#ff5c35"/>
      <rect id="Rectangle_35414" data-name="Rectangle 35414" width="3.836" height="11.509" transform="translate(3809.992 1658.362)" fill="#ff5c35"/>
      <rect id="Rectangle_35415" data-name="Rectangle 35415" width="3.836" height="7.672" transform="translate(3813.828 1662.198)" fill="#ffa118"/>
      <rect id="Rectangle_35416" data-name="Rectangle 35416" width="3.836" height="11.509" transform="translate(3817.665 1658.362)" fill="#ffa118"/>
      <rect id="Rectangle_35417" data-name="Rectangle 35417" width="3.836" height="7.672" transform="translate(3821.501 1658.362)" fill="#ffe306"/>
      <rect id="Rectangle_35418" data-name="Rectangle 35418" width="3.836" height="3.836" transform="translate(3817.665 1662.198)" fill="#ffe306"/>
      <rect id="Rectangle_35419" data-name="Rectangle 35419" width="3.836" height="3.836" transform="translate(3806.156 1662.198)" fill="#ff5c35"/>
      <rect id="Rectangle_35420" data-name="Rectangle 35420" width="19.181" height="3.836" transform="translate(3833.01 1658.362)" fill="#ff5c35"/>
      <rect id="Rectangle_35421" data-name="Rectangle 35421" width="3.836" height="3.836" transform="translate(3817.665 1669.871)" fill="#ff5c35"/>
      <rect id="Rectangle_35422" data-name="Rectangle 35422" width="3.836" height="3.836" transform="translate(3817.665 1654.526)" fill="#ff5c35"/>
      <rect id="Rectangle_35423" data-name="Rectangle 35423" width="3.836" height="3.836" transform="translate(3825.337 1654.526)" fill="#ff5c35"/>
      <rect id="Rectangle_35424" data-name="Rectangle 35424" width="3.836" height="3.836" transform="translate(3825.337 1666.035)" fill="#ff5c35"/>
      <rect id="Rectangle_35425" data-name="Rectangle 35425" width="3.836" height="11.509" transform="translate(3829.173 1654.526)" fill="#ff5c35"/>
      <rect id="Rectangle_35426" data-name="Rectangle 35426" width="3.836" height="7.672" transform="translate(3821.501 1650.69)" fill="#ff5c35"/>
      <rect id="Rectangle_35427" data-name="Rectangle 35427" width="3.836" height="3.836" transform="translate(3833.01 1662.198)" fill="#ff5c35"/>
      <rect id="Rectangle_35428" data-name="Rectangle 35428" width="3.836" height="7.672" transform="translate(3825.337 1658.362)" fill="#ffa118"/>
      <rect id="Rectangle_35429" data-name="Rectangle 35429" width="3.836" height="3.836" transform="translate(3821.501 1654.526)" fill="#ffa118"/>
      <rect id="Rectangle_35430" data-name="Rectangle 35430" width="3.836" height="3.836" transform="translate(3821.501 1666.035)" fill="#ffa118"/>
      <rect id="Rectangle_35431" data-name="Rectangle 35431" width="3.836" height="3.836" transform="translate(3813.828 1669.871)" fill="#ff5c35"/>
      <g id="Group_493" data-name="Group 493">
        <rect id="Rectangle_35432" data-name="Rectangle 35432" width="3.836" height="3.836" transform="translate(3775.393 1666.035)" fill="#07042d"/>
        <rect id="Rectangle_35433" data-name="Rectangle 35433" width="3.836" height="3.836" transform="translate(3779.229 1666.035)" fill="#ffe306"/>
        <rect id="Rectangle_35434" data-name="Rectangle 35434" width="3.836" height="3.836" transform="translate(3779.229 1669.871)" fill="#07042d"/>
        <rect id="Rectangle_35435" data-name="Rectangle 35435" width="3.836" height="3.836" transform="translate(3783.065 1666.035)" fill="#07042d"/>
        <rect id="Rectangle_35436" data-name="Rectangle 35436" width="3.836" height="3.836" transform="translate(3779.229 1662.198)" fill="#07042d"/>
      </g>
      <rect id="Rectangle_35437" data-name="Rectangle 35437" width="15.345" height="3.836" transform="translate(3836.846 1662.198)" fill="#07042d"/>
      <rect id="Rectangle_35438" data-name="Rectangle 35438" width="19.181" height="3.836" transform="translate(3833.01 1654.526)" fill="#07042d"/>
      <rect id="Rectangle_35439" data-name="Rectangle 35439" width="7.672" height="3.836" transform="translate(3790.738 1654.526) rotate(-90)" fill="#ffe306"/>
      <rect id="Rectangle_35440" data-name="Rectangle 35440" width="7.672" height="3.836" transform="translate(3794.574 1654.526) rotate(-90)" fill="#ffe306"/>
      <rect id="Rectangle_35441" data-name="Rectangle 35441" width="7.672" height="3.836" transform="translate(3798.41 1658.362) rotate(180)" fill="#ffa118"/>
      <rect id="Rectangle_35442" data-name="Rectangle 35442" width="7.672" height="3.836" transform="translate(3798.41 1646.854) rotate(180)" fill="#ffa118"/>
      <rect id="Rectangle_35443" data-name="Rectangle 35443" width="7.672" height="3.836" transform="translate(3798.41 1654.526) rotate(-90)" fill="#ffa118"/>
      <rect id="Rectangle_35444" data-name="Rectangle 35444" width="7.672" height="3.836" transform="translate(3786.901 1654.526) rotate(-90)" fill="#ffa118"/>
    </g>
  </g>
</svg>
