<svg xmlns="http://www.w3.org/2000/svg" xmlns:xlink="http://www.w3.org/1999/xlink" width="257" height="162.555" viewBox="0 0 257 162.555">
  <defs>
    <clipPath id="clip-path">
      <rect id="Rectangle_35629" data-name="Rectangle 35629" width="257" height="162.555" transform="translate(2595 1560.445)" fill="none"/>
    </clipPath>
  </defs>
  <g id="Group_507" data-name="Group 507" transform="translate(-2595 -1560.445)">
    <g id="Group_506" data-name="Group 506" clip-path="url(#clip-path)">
      <g id="Group_505" data-name="Group 505">
        <g id="Group_503" data-name="Group 503">
          <rect id="Rectangle_35473" data-name="Rectangle 35473" width="45.885" height="3.824" transform="translate(2767.778 1696.471)" fill="#07042d"/>
          <rect id="Rectangle_35474" data-name="Rectangle 35474" width="7.647" height="3.824" transform="translate(2786.897 1727.061)" fill="#07042d"/>
          <rect id="Rectangle_35475" data-name="Rectangle 35475" width="3.824" height="3.824" transform="translate(2763.954 1692.647)" fill="#07042d"/>
          <rect id="Rectangle_35476" data-name="Rectangle 35476" width="3.824" height="11.471" transform="translate(2756.307 1673.529)" fill="#07042d"/>
          <rect id="Rectangle_35477" data-name="Rectangle 35477" width="7.647" height="3.824" transform="translate(2771.602 1650.587)" fill="#07042d"/>
          <rect id="Rectangle_35478" data-name="Rectangle 35478" width="7.647" height="3.824" transform="translate(2802.192 1650.587)" fill="#07042d"/>
          <rect id="Rectangle_35479" data-name="Rectangle 35479" width="3.824" height="3.824" transform="translate(2763.954 1662.058)" fill="#07042d"/>
          <rect id="Rectangle_35480" data-name="Rectangle 35480" width="3.824" height="3.824" transform="translate(2813.663 1662.058)" fill="#07042d"/>
          <rect id="Rectangle_35481" data-name="Rectangle 35481" width="3.824" height="3.824" transform="translate(2779.249 1646.763)" fill="#07042d"/>
          <rect id="Rectangle_35482" data-name="Rectangle 35482" width="3.824" height="3.824" transform="translate(2798.368 1646.763)" fill="#07042d"/>
          <rect id="Rectangle_35483" data-name="Rectangle 35483" width="3.824" height="3.824" transform="translate(2813.663 1692.647)" fill="#07042d"/>
          <rect id="Rectangle_35484" data-name="Rectangle 35484" width="3.824" height="3.824" transform="translate(2798.368 1704.119)" fill="#07042d"/>
          <rect id="Rectangle_35485" data-name="Rectangle 35485" width="3.824" height="3.824" transform="translate(2779.249 1707.943)" fill="#07042d"/>
          <rect id="Rectangle_35486" data-name="Rectangle 35486" width="3.824" height="7.647" transform="translate(2767.778 1654.41)" fill="#07042d"/>
          <rect id="Rectangle_35487" data-name="Rectangle 35487" width="3.824" height="7.647" transform="translate(2809.839 1654.41)" fill="#07042d"/>
          <rect id="Rectangle_35488" data-name="Rectangle 35488" width="3.824" height="7.647" transform="translate(2760.131 1665.881)" fill="#07042d"/>
          <rect id="Rectangle_35489" data-name="Rectangle 35489" width="3.824" height="7.647" transform="translate(2817.487 1665.881)" fill="#07042d"/>
          <rect id="Rectangle_35490" data-name="Rectangle 35490" width="3.824" height="7.647" transform="translate(2760.131 1685)" fill="#07042d"/>
          <rect id="Rectangle_35491" data-name="Rectangle 35491" width="3.824" height="26.766" transform="translate(2794.544 1700.295)" fill="#07042d"/>
          <rect id="Rectangle_35492" data-name="Rectangle 35492" width="3.824" height="26.766" transform="translate(2783.073 1700.295)" fill="#07042d"/>
          <rect id="Rectangle_35493" data-name="Rectangle 35493" width="3.824" height="11.471" transform="translate(2821.31 1673.529)" fill="#07042d"/>
          <rect id="Rectangle_35494" data-name="Rectangle 35494" width="3.824" height="26.766" transform="translate(2813.663 1665.881)" fill="#4eb947"/>
          <rect id="Rectangle_35495" data-name="Rectangle 35495" width="3.824" height="30.59" transform="translate(2809.839 1662.058)" fill="#4eb947"/>
          <rect id="Rectangle_35496" data-name="Rectangle 35496" width="3.824" height="42.061" transform="translate(2802.192 1654.41)" fill="#4eb947"/>
          <rect id="Rectangle_35497" data-name="Rectangle 35497" width="3.824" height="45.885" transform="translate(2798.368 1650.587)" fill="#4eb947"/>
          <rect id="Rectangle_35498" data-name="Rectangle 35498" width="3.824" height="49.708" transform="translate(2794.544 1646.763)" fill="#4eb947"/>
          <rect id="Rectangle_35499" data-name="Rectangle 35499" width="3.824" height="49.708" transform="translate(2786.897 1646.763)" fill="#4eb947"/>
          <rect id="Rectangle_35500" data-name="Rectangle 35500" width="3.824" height="49.708" transform="translate(2783.073 1646.763)" fill="#4eb947"/>
          <rect id="Rectangle_35501" data-name="Rectangle 35501" width="3.824" height="45.885" transform="translate(2779.249 1650.587)" fill="#4eb947"/>
          <rect id="Rectangle_35502" data-name="Rectangle 35502" width="3.824" height="42.061" transform="translate(2775.426 1654.41)" fill="#4eb947"/>
          <rect id="Rectangle_35503" data-name="Rectangle 35503" width="3.824" height="42.061" transform="translate(2771.602 1654.41)" fill="#4eb947"/>
          <rect id="Rectangle_35504" data-name="Rectangle 35504" width="3.824" height="34.414" transform="translate(2767.778 1662.058)" fill="#4eb947"/>
          <rect id="Rectangle_35505" data-name="Rectangle 35505" width="3.824" height="26.766" transform="translate(2763.954 1665.881)" fill="#4eb947"/>
          <rect id="Rectangle_35506" data-name="Rectangle 35506" width="3.824" height="11.471" transform="translate(2760.131 1673.529)" fill="#298941"/>
          <path id="Path_1162" data-name="Path 1162" d="M2790.72,1646.763v49.708h3.824v-49.708Z" fill="#4eb947"/>
          <rect id="Rectangle_35507" data-name="Rectangle 35507" width="3.824" height="26.766" transform="translate(2790.72 1700.295)" fill="#733e3a"/>
          <rect id="Rectangle_35508" data-name="Rectangle 35508" width="3.824" height="26.766" transform="translate(2786.897 1700.295)" fill="#b86f50"/>
          <rect id="Rectangle_35509" data-name="Rectangle 35509" width="3.824" height="34.414" transform="translate(2806.015 1654.41)" fill="#4eb947"/>
          <rect id="Rectangle_35510" data-name="Rectangle 35510" width="3.824" height="7.647" transform="translate(2821.311 1692.647) rotate(180)" fill="#07042d"/>
          <g id="Group_502" data-name="Group 502">
            <rect id="Rectangle_35511" data-name="Rectangle 35511" width="3.824" height="3.824" transform="translate(2798.368 1662.058) rotate(180)" fill="#298941"/>
            <rect id="Rectangle_35512" data-name="Rectangle 35512" width="3.824" height="3.824" transform="translate(2783.073 1662.058) rotate(180)" fill="#298941"/>
            <rect id="Rectangle_35513" data-name="Rectangle 35513" width="3.824" height="3.824" transform="translate(2809.839 1677.353) rotate(180)" fill="#298941"/>
            <rect id="Rectangle_35514" data-name="Rectangle 35514" width="3.824" height="3.824" transform="translate(2783.073 1692.647) rotate(180)" fill="#298941"/>
            <rect id="Rectangle_35515" data-name="Rectangle 35515" width="7.648" height="3.824" transform="translate(2802.192 1665.881) rotate(180)" fill="#298941"/>
            <rect id="Rectangle_35516" data-name="Rectangle 35516" width="3.824" height="3.824" transform="translate(2775.426 1673.529)" fill="#298941"/>
            <rect id="Rectangle_35517" data-name="Rectangle 35517" width="7.647" height="3.824" transform="translate(2771.602 1677.353)" fill="#298941"/>
          </g>
          <rect id="Rectangle_35518" data-name="Rectangle 35518" width="15.295" height="3.824" transform="translate(2783.073 1642.939)" fill="#07042d"/>
          <rect id="Rectangle_35519" data-name="Rectangle 35519" width="3.824" height="11.471" transform="translate(2817.487 1673.529)" fill="#298941"/>
          <rect id="Rectangle_35520" data-name="Rectangle 35520" width="3.824" height="11.471" transform="translate(2813.663 1681.176)" fill="#298941"/>
          <rect id="Rectangle_35521" data-name="Rectangle 35521" width="3.824" height="11.471" transform="translate(2760.131 1673.529)" fill="#298941"/>
          <rect id="Rectangle_35522" data-name="Rectangle 35522" width="3.824" height="11.471" transform="translate(2809.839 1685)" fill="#298941"/>
          <rect id="Rectangle_35523" data-name="Rectangle 35523" width="3.824" height="11.471" transform="translate(2763.954 1681.176)" fill="#298941"/>
          <rect id="Rectangle_35524" data-name="Rectangle 35524" width="3.824" height="7.647" transform="translate(2806.015 1688.824)" fill="#298941"/>
          <rect id="Rectangle_35525" data-name="Rectangle 35525" width="3.824" height="7.647" transform="translate(2802.192 1688.824)" fill="#298941"/>
          <rect id="Rectangle_35526" data-name="Rectangle 35526" width="3.824" height="7.647" transform="translate(2798.368 1688.824)" fill="#298941"/>
          <rect id="Rectangle_35527" data-name="Rectangle 35527" width="19.119" height="3.824" transform="translate(2779.249 1692.647)" fill="#298941"/>
          <rect id="Rectangle_35528" data-name="Rectangle 35528" width="3.824" height="7.647" transform="translate(2775.426 1688.824)" fill="#298941"/>
          <rect id="Rectangle_35529" data-name="Rectangle 35529" width="3.824" height="7.647" transform="translate(2771.602 1688.824)" fill="#298941"/>
          <rect id="Rectangle_35530" data-name="Rectangle 35530" width="3.824" height="11.471" transform="translate(2767.778 1685)" fill="#298941"/>
          <rect id="Rectangle_35531" data-name="Rectangle 35531" width="3.824" height="3.824" transform="translate(2783.073 1654.41)" fill="#6ae061"/>
          <rect id="Rectangle_35532" data-name="Rectangle 35532" width="3.824" height="3.824" transform="translate(2802.192 1677.353)" fill="#6ae061"/>
          <rect id="Rectangle_35533" data-name="Rectangle 35533" width="3.824" height="3.824" transform="translate(2790.72 1665.881)" fill="#6ae061"/>
          <rect id="Rectangle_35534" data-name="Rectangle 35534" width="3.824" height="3.824" transform="translate(2779.249 1681.176)" fill="#6ae061"/>
        </g>
        <g id="Group_504" data-name="Group 504">
          <rect id="Rectangle_35535" data-name="Rectangle 35535" width="7.648" height="3.824" transform="translate(2676.173 1727.061)" fill="#07042d"/>
          <rect id="Rectangle_35536" data-name="Rectangle 35536" width="7.648" height="3.824" transform="translate(2710.587 1662.058)" fill="#07042d"/>
          <rect id="Rectangle_35537" data-name="Rectangle 35537" width="3.824" height="3.824" transform="translate(2687.645 1681.176)" fill="#07042d"/>
          <rect id="Rectangle_35538" data-name="Rectangle 35538" width="3.824" height="3.824" transform="translate(2687.645 1696.471)" fill="#07042d"/>
          <rect id="Rectangle_35539" data-name="Rectangle 35539" width="3.824" height="3.824" transform="translate(2691.468 1692.647)" fill="#07042d"/>
          <rect id="Rectangle_35540" data-name="Rectangle 35540" width="3.824" height="3.824" transform="translate(2695.292 1688.824)" fill="#07042d"/>
          <rect id="Rectangle_35541" data-name="Rectangle 35541" width="3.824" height="3.824" transform="translate(2668.526 1688.824)" fill="#07042d"/>
          <rect id="Rectangle_35542" data-name="Rectangle 35542" width="3.824" height="3.824" transform="translate(2660.878 1700.295)" fill="#07042d"/>
          <rect id="Rectangle_35543" data-name="Rectangle 35543" width="3.824" height="3.824" transform="translate(2657.055 1685)" fill="#4eb947"/>
          <rect id="Rectangle_35544" data-name="Rectangle 35544" width="3.824" height="3.824" transform="translate(2649.407 1685)" fill="#07042d"/>
          <rect id="Rectangle_35545" data-name="Rectangle 35545" width="3.824" height="3.824" transform="translate(2691.468 1677.353)" fill="#07042d"/>
          <rect id="Rectangle_35546" data-name="Rectangle 35546" width="7.647" height="3.824" transform="translate(2664.702 1704.119)" fill="#07042d"/>
          <rect id="Rectangle_35547" data-name="Rectangle 35547" width="3.824" height="3.824" transform="translate(2645.583 1688.824)" fill="#07042d"/>
          <rect id="Rectangle_35548" data-name="Rectangle 35548" width="3.824" height="3.824" transform="translate(2649.407 1692.647)" fill="#07042d"/>
          <rect id="Rectangle_35549" data-name="Rectangle 35549" width="7.647" height="3.824" transform="translate(2653.231 1696.471)" fill="#07042d"/>
          <rect id="Rectangle_35550" data-name="Rectangle 35550" width="3.824" height="15.295" transform="translate(2722.058 1639.115)" fill="#07042d"/>
          <rect id="Rectangle_35551" data-name="Rectangle 35551" width="3.824" height="11.471" transform="translate(2718.234 1627.644)" fill="#07042d"/>
          <rect id="Rectangle_35552" data-name="Rectangle 35552" width="3.824" height="11.471" transform="translate(2714.411 1616.173)" fill="#07042d"/>
          <rect id="Rectangle_35553" data-name="Rectangle 35553" width="7.648" height="3.824" transform="translate(2695.292 1593.231) rotate(180)" fill="#07042d"/>
          <rect id="Rectangle_35554" data-name="Rectangle 35554" width="3.824" height="3.824" transform="translate(2699.116 1600.878)" fill="#07042d"/>
          <rect id="Rectangle_35555" data-name="Rectangle 35555" width="7.647" height="3.824" transform="translate(2706.763 1612.349)" fill="#07042d"/>
          <rect id="Rectangle_35556" data-name="Rectangle 35556" width="3.824" height="3.824" transform="translate(2706.763 1665.881)" fill="#07042d"/>
          <rect id="Rectangle_35557" data-name="Rectangle 35557" width="3.824" height="7.647" transform="translate(2695.292 1593.231)" fill="#07042d"/>
          <rect id="Rectangle_35558" data-name="Rectangle 35558" width="3.824" height="7.647" transform="translate(2702.939 1604.702)" fill="#07042d"/>
          <rect id="Rectangle_35559" data-name="Rectangle 35559" width="3.824" height="7.647" transform="translate(2722.058 1662.058) rotate(180)" fill="#07042d"/>
          <rect id="Rectangle_35560" data-name="Rectangle 35560" width="7.647" height="3.824" transform="translate(2641.76 1662.058)" fill="#07042d"/>
          <rect id="Rectangle_35561" data-name="Rectangle 35561" width="3.824" height="15.295" transform="translate(2634.112 1639.115)" fill="#07042d"/>
          <rect id="Rectangle_35562" data-name="Rectangle 35562" width="3.824" height="11.471" transform="translate(2637.936 1627.644)" fill="#07042d"/>
          <rect id="Rectangle_35563" data-name="Rectangle 35563" width="3.824" height="11.471" transform="translate(2641.76 1616.173)" fill="#07042d"/>
          <rect id="Rectangle_35564" data-name="Rectangle 35564" width="7.647" height="3.824" transform="translate(2664.702 1589.407)" fill="#07042d"/>
          <rect id="Rectangle_35565" data-name="Rectangle 35565" width="3.824" height="3.824" transform="translate(2657.055 1600.878)" fill="#07042d"/>
          <rect id="Rectangle_35566" data-name="Rectangle 35566" width="7.648" height="3.824" transform="translate(2645.583 1612.349)" fill="#07042d"/>
          <rect id="Rectangle_35567" data-name="Rectangle 35567" width="3.824" height="3.824" transform="translate(2649.407 1665.881)" fill="#07042d"/>
          <rect id="Rectangle_35568" data-name="Rectangle 35568" width="3.824" height="7.647" transform="translate(2660.878 1593.231)" fill="#07042d"/>
          <rect id="Rectangle_35569" data-name="Rectangle 35569" width="3.824" height="7.647" transform="translate(2653.231 1604.702)" fill="#07042d"/>
          <rect id="Rectangle_35570" data-name="Rectangle 35570" width="3.824" height="7.647" transform="translate(2637.936 1654.41)" fill="#07042d"/>
          <rect id="Rectangle_35571" data-name="Rectangle 35571" width="53.532" height="3.824" transform="translate(2653.231 1669.705)" fill="#07042d"/>
          <rect id="Rectangle_35572" data-name="Rectangle 35572" width="3.824" height="53.532" transform="translate(2672.35 1673.529)" fill="#07042d"/>
          <rect id="Rectangle_35573" data-name="Rectangle 35573" width="3.824" height="53.532" transform="translate(2683.821 1673.529)" fill="#07042d"/>
          <rect id="Rectangle_35574" data-name="Rectangle 35574" width="3.824" height="26.766" transform="translate(2649.407 1616.173)" fill="#4eb947"/>
          <rect id="Rectangle_35575" data-name="Rectangle 35575" width="3.824" height="7.648" transform="translate(2641.76 1627.644)" fill="#4eb947"/>
          <rect id="Rectangle_35576" data-name="Rectangle 35576" width="3.824" height="22.942" transform="translate(2645.583 1616.173)" fill="#4eb947"/>
          <rect id="Rectangle_35577" data-name="Rectangle 35577" width="3.824" height="38.237" transform="translate(2653.231 1612.349)" fill="#4eb947"/>
          <rect id="Rectangle_35578" data-name="Rectangle 35578" width="3.824" height="49.708" transform="translate(2657.055 1604.702)" fill="#4eb947"/>
          <rect id="Rectangle_35579" data-name="Rectangle 35579" width="3.824" height="65.003" transform="translate(2664.702 1593.231)" fill="#4eb947"/>
          <rect id="Rectangle_35580" data-name="Rectangle 35580" width="3.824" height="68.827" transform="translate(2668.526 1593.231)" fill="#4eb947"/>
          <rect id="Rectangle_35581" data-name="Rectangle 35581" width="3.824" height="80.298" transform="translate(2672.35 1589.407)" fill="#4eb947"/>
          <rect id="Rectangle_35582" data-name="Rectangle 35582" width="3.824" height="80.298" transform="translate(2679.997 1589.407)" fill="#4eb947"/>
          <rect id="Rectangle_35583" data-name="Rectangle 35583" width="3.824" height="80.298" transform="translate(2683.821 1589.407)" fill="#4eb947"/>
          <rect id="Rectangle_35584" data-name="Rectangle 35584" width="3.824" height="76.475" transform="translate(2687.645 1593.231)" fill="#4eb947"/>
          <rect id="Rectangle_35585" data-name="Rectangle 35585" width="3.824" height="76.475" transform="translate(2691.468 1593.231)" fill="#4eb947"/>
          <rect id="Rectangle_35586" data-name="Rectangle 35586" width="3.824" height="68.827" transform="translate(2695.292 1600.878)" fill="#4eb947"/>
          <rect id="Rectangle_35587" data-name="Rectangle 35587" width="3.824" height="65.003" transform="translate(2699.116 1604.702)" fill="#4eb947"/>
          <rect id="Rectangle_35588" data-name="Rectangle 35588" width="3.824" height="38.237" transform="translate(2702.939 1612.349)" fill="#4eb947"/>
          <rect id="Rectangle_35589" data-name="Rectangle 35589" width="3.824" height="45.885" transform="translate(2706.763 1616.173)" fill="#4eb947"/>
          <rect id="Rectangle_35590" data-name="Rectangle 35590" width="3.824" height="30.59" transform="translate(2710.587 1616.173)" fill="#4eb947"/>
          <rect id="Rectangle_35591" data-name="Rectangle 35591" width="3.824" height="11.471" transform="translate(2714.411 1627.644)" fill="#4eb947"/>
          <rect id="Rectangle_35592" data-name="Rectangle 35592" width="3.824" height="15.295" transform="translate(2718.234 1639.115)" fill="#298941"/>
          <rect id="Rectangle_35593" data-name="Rectangle 35593" width="3.824" height="80.298" transform="translate(2676.173 1589.407)" fill="#4eb947"/>
          <rect id="Rectangle_35594" data-name="Rectangle 35594" width="3.824" height="53.532" transform="translate(2676.173 1673.529)" fill="#b86f50"/>
          <rect id="Rectangle_35595" data-name="Rectangle 35595" width="3.824" height="53.532" transform="translate(2679.997 1673.529)" fill="#733e3a"/>
          <rect id="Rectangle_35596" data-name="Rectangle 35596" width="3.824" height="57.356" transform="translate(2660.878 1600.878)" fill="#4eb947"/>
          <rect id="Rectangle_35597" data-name="Rectangle 35597" width="3.824" height="3.824" transform="translate(2660.878 1619.997)" fill="#298941"/>
          <rect id="Rectangle_35598" data-name="Rectangle 35598" width="3.824" height="3.824" transform="translate(2679.997 1600.878)" fill="#6ae061"/>
          <rect id="Rectangle_35599" data-name="Rectangle 35599" width="3.824" height="3.824" transform="translate(2687.645 1642.939)" fill="#6ae061"/>
          <rect id="Rectangle_35600" data-name="Rectangle 35600" width="3.824" height="3.824" transform="translate(2660.878 1642.939)" fill="#6ae061"/>
          <rect id="Rectangle_35601" data-name="Rectangle 35601" width="3.824" height="3.824" transform="translate(2676.173 1604.702)" fill="#298941"/>
          <rect id="Rectangle_35602" data-name="Rectangle 35602" width="3.824" height="3.824" transform="translate(2664.702 1646.763)" fill="#298941"/>
          <rect id="Rectangle_35603" data-name="Rectangle 35603" width="7.648" height="3.824" transform="translate(2657.055 1623.82)" fill="#298941"/>
          <rect id="Rectangle_35604" data-name="Rectangle 35604" width="3.824" height="3.824" transform="translate(2695.292 1639.115) rotate(180)" fill="#298941"/>
          <rect id="Rectangle_35605" data-name="Rectangle 35605" width="7.647" height="3.824" transform="translate(2699.116 1642.939) rotate(180)" fill="#298941"/>
          <rect id="Rectangle_35606" data-name="Rectangle 35606" width="3.824" height="3.824" transform="translate(2657.055 1688.824) rotate(180)" fill="#4eb947"/>
          <rect id="Rectangle_35607" data-name="Rectangle 35607" width="7.647" height="3.824" transform="translate(2660.878 1696.471) rotate(180)" fill="#298941"/>
          <rect id="Rectangle_35608" data-name="Rectangle 35608" width="11.471" height="3.824" transform="translate(2660.878 1692.647) rotate(180)" fill="#4eb947"/>
          <rect id="Rectangle_35609" data-name="Rectangle 35609" width="15.295" height="3.824" transform="translate(2672.35 1585.583)" fill="#07042d"/>
          <rect id="Rectangle_35610" data-name="Rectangle 35610" width="3.824" height="22.942" transform="translate(2649.407 1642.939)" fill="#298941"/>
          <rect id="Rectangle_35611" data-name="Rectangle 35611" width="3.824" height="22.942" transform="translate(2645.583 1639.115)" fill="#298941"/>
          <rect id="Rectangle_35612" data-name="Rectangle 35612" width="3.824" height="15.295" transform="translate(2637.936 1639.115)" fill="#298941"/>
          <rect id="Rectangle_35613" data-name="Rectangle 35613" width="3.824" height="30.59" transform="translate(2641.76 1631.468)" fill="#298941"/>
          <rect id="Rectangle_35614" data-name="Rectangle 35614" width="3.824" height="19.119" transform="translate(2653.231 1650.587)" fill="#298941"/>
          <rect id="Rectangle_35615" data-name="Rectangle 35615" width="3.824" height="22.942" transform="translate(2706.763 1642.939)" fill="#298941"/>
          <rect id="Rectangle_35616" data-name="Rectangle 35616" width="3.824" height="22.942" transform="translate(2710.587 1639.115)" fill="#298941"/>
          <rect id="Rectangle_35617" data-name="Rectangle 35617" width="3.824" height="30.59" transform="translate(2714.411 1631.468)" fill="#298941"/>
          <rect id="Rectangle_35618" data-name="Rectangle 35618" width="3.824" height="15.295" transform="translate(2657.055 1654.41)" fill="#298941"/>
          <rect id="Rectangle_35619" data-name="Rectangle 35619" width="3.824" height="19.119" transform="translate(2702.939 1650.587)" fill="#298941"/>
          <rect id="Rectangle_35620" data-name="Rectangle 35620" width="3.824" height="11.471" transform="translate(2660.878 1658.234)" fill="#298941"/>
          <rect id="Rectangle_35621" data-name="Rectangle 35621" width="3.824" height="11.471" transform="translate(2664.702 1658.234)" fill="#298941"/>
          <rect id="Rectangle_35622" data-name="Rectangle 35622" width="3.824" height="7.648" transform="translate(2668.526 1662.058)" fill="#298941"/>
          <rect id="Rectangle_35623" data-name="Rectangle 35623" width="19.119" height="7.648" transform="translate(2672.35 1662.058)" fill="#298941"/>
          <rect id="Rectangle_35624" data-name="Rectangle 35624" width="3.824" height="11.471" transform="translate(2691.468 1658.234)" fill="#298941"/>
          <rect id="Rectangle_35625" data-name="Rectangle 35625" width="3.824" height="11.471" transform="translate(2695.292 1658.234)" fill="#298941"/>
          <rect id="Rectangle_35626" data-name="Rectangle 35626" width="3.824" height="15.295" transform="translate(2699.116 1654.41)" fill="#298941"/>
          <rect id="Rectangle_35627" data-name="Rectangle 35627" width="3.824" height="11.471" transform="translate(2660.878 1685)" fill="#07042d"/>
          <rect id="Rectangle_35628" data-name="Rectangle 35628" width="7.647" height="3.824" transform="translate(2653.231 1681.176)" fill="#07042d"/>
        </g>
      </g>
    </g>
  </g>
</svg>
