<svg xmlns="http://www.w3.org/2000/svg" xmlns:xlink="http://www.w3.org/1999/xlink" height="40px" viewBox="0 0 135.9 38.88"><defs><style>.cls-1{fill:url(#New_Gradient_Swatch_copy);}</style><linearGradient id="New_Gradient_Swatch_copy" x1="65.95" y1="33.01" x2="65.95" y2="3.16" gradientUnits="userSpaceOnUse"><stop offset="0" stop-color="#96c"/><stop offset="1" stop-color="#d0a2ff"/></linearGradient></defs><g id="Layer_2" data-name="Layer 2"><g id="Layer_1-2" data-name="Layer 1"><path d="M35.88,7V35.88H27.62V27.62H23.5V23.5H19.38V19.38H15.25v16.5H7V7h8.25v4.12h4.13v4.13H23.5v4.13h4.12V7h8.26m3-3H24.62v8.25H22.38V8.12H18.25V4H4V38.88H18.25V26.5H20.5v4.12h4.12v8.26H38.88V4Z"/><path d="M68.22,7v4.12H47.59v8.26h16.5V23.5H47.59v8.25H68.22v4.13H39.34V7H68.22m3-3H36.34V38.88H71.22V28.75H50.59V26.5h16.5V16.38H50.59V14.12H71.22V4Z"/><path d="M100.55,7V31.75H96.43v4.13H92.3V31.75H88.18V27.62H84.05v4.13H79.93v4.13H75.8V31.75H71.68V7h8.25V23.5h4.12V7h4.13V23.5H92.3V7h8.25m3-3H68.68V34.75H72.8v4.13H82.93V34.75H89.3v4.13H99.43V34.75h4.12V4Z"/><path d="M128.77,7v4.12h4.13v4.13h-8.25V11.12H112.27v8.26h16.5V23.5h4.13v8.25h-4.13v4.13H108.15V31.75H104V27.62h8.25v4.13h12.38V23.5h-16.5V19.38H104V11.12h4.13V7h20.62m3-3H105.15V8.12H101V22.38h4.13v2.24H101V34.75h4.13v4.13h26.62V34.75h4.13V20.5h-4.13V18.25h4.13V8.12h-4.13V4Zm-16.5,10.12h6.38v2.26h-6.38V14.12Zm0,12.38h6.38v2.25h-6.38V26.5Z"/><path d="M7,35.88V7h8.25v4.12h4.13v4.13H23.5v4.13h4.12V7h8.26V35.88H27.62V27.62H23.5V23.5H19.38V19.38H15.25v16.5Z"/><path d="M39.34,35.88V7H68.22v4.12H47.59v8.26h16.5V23.5H47.59v8.25H68.22v4.13Z"/><path d="M75.8,35.88V31.75H71.68V7h8.25V23.5h4.12V7h4.13V23.5H92.3V7h8.25V31.75H96.43v4.13H92.3V31.75H88.18V27.62H84.05v4.13H79.93v4.13Z"/><path d="M108.15,35.88V31.75H104V27.62h8.25v4.13h12.38V23.5h-16.5V19.38H104V11.12h4.13V7h20.62v4.12h4.13v4.13h-8.25V11.12H112.27v8.26h16.5V23.5h4.13v8.25h-4.13v4.13Z"/><path d="M31.88,3V31.88H23.62V23.62H19.5V19.5H15.38V15.38H11.25v16.5H3V3h8.25V7.12h4.13v4.13H19.5v4.13h4.12V3h8.26m3-3H20.62V8.25H18.38V4.12H14.25V0H0V34.88H14.25V22.5H16.5v4.12h4.12v8.26H34.88V0Z"/><path d="M64.22,3V7.12H43.59v8.26h16.5V19.5H43.59v8.25H64.22v4.13H35.34V3H64.22m3-3H32.34V34.88H67.22V24.75H46.59V22.5h16.5V12.38H46.59V10.12H67.22V0Z"/><path d="M96.55,3V27.75H92.43v4.13H88.3V27.75H84.18V23.62H80.05v4.13H75.93v4.13H71.8V27.75H67.68V3h8.25V19.5h4.12V3h4.13V19.5H88.3V3h8.25m3-3H64.68V30.75H68.8v4.13H78.93V30.75H85.3v4.13H95.43V30.75h4.12V0Z"/><path d="M124.77,3V7.12h4.13v4.13h-8.25V7.12H108.27v8.26h16.5V19.5h4.13v8.25h-4.13v4.13H104.15V27.75H100V23.62h8.25v4.13h12.38V19.5h-16.5V15.38H100V7.12h4.13V3h20.62m3-3H101.15V4.12H97V18.38h4.13v2.24H97V30.75h4.13v4.13h26.62V30.75h4.13V16.5h-4.13V14.25h4.13V4.12h-4.13V0Zm-16.5,10.12h6.38v2.26h-6.38V10.12Zm0,12.38h6.38v2.25h-6.38V22.5Z"/><path class="cls-1" d="M3,31.88V3h8.25V7.12h4.13v4.13H19.5v4.13h4.12V3h8.26V31.88H23.62V23.62H19.5V19.5H15.38V15.38H11.25v16.5Z"/><path class="cls-1" d="M35.34,31.88V3H64.22V7.12H43.59v8.26h16.5V19.5H43.59v8.25H64.22v4.13Z"/><path class="cls-1" d="M71.8,31.88V27.75H67.68V3h8.25V19.5h4.12V3h4.13V19.5H88.3V3h8.25V27.75H92.43v4.13H88.3V27.75H84.18V23.62H80.05v4.13H75.93v4.13Z"/><path class="cls-1" d="M104.15,31.88V27.75H100V23.62h8.25v4.13h12.38V19.5h-16.5V15.38H100V7.12h4.13V3h20.62V7.12h4.13v4.13h-8.25V7.12H108.27v8.26h16.5V19.5h4.13v8.25h-4.13v4.13Z"/></g></g></svg>