<svg xmlns="http://www.w3.org/2000/svg" xmlns:xlink="http://www.w3.org/1999/xlink" height="40px" viewBox="0 0 325.81 38.88"><defs><style>.cls-1{fill:url(#New_Gradient_Swatch_copy);}</style><linearGradient id="New_Gradient_Swatch_copy" x1="160.91" y1="33.01" x2="160.91" y2="3.16" gradientUnits="userSpaceOnUse"><stop offset="0" stop-color="#96c"/><stop offset="1" stop-color="#d0a2ff"/></linearGradient></defs><g id="Layer_2" data-name="Layer 2"><g id="Layer_1-2" data-name="Layer 1"><path d="M31.75,7v4.12H23.5V35.88H15.25V11.12H7V7H31.75m3-3H4V14.12h8.25V38.88H26.5V14.12h8.25V4Z"/><path d="M60,7v4.12h4.13V31.75H60v4.13H39.34V31.75H35.21V11.12h4.13V7H60M43.46,31.75H55.84V11.12H43.46V31.75M63,4H36.34V8.12H32.21V34.75h4.13v4.13H63V34.75h4.13V8.12H63V4ZM46.46,14.12h6.38V28.75H46.46V14.12Z"/><path d="M96.43,7v4.12H92.3v4.13H88.18v4.13H84.05V23.5h4.13v4.12H92.3v4.13h4.13v4.13H84.05V31.75H79.93V27.62H75.8v8.26H67.55V7H75.8V19.38h4.13V15.25h4.12V11.12h4.13V7h8.25m3-3H85.18V8.12H81.05v4.13H78.8V4H64.55V38.88H78.8V34.75h2.25v4.13H99.43V28.75H95.3V24.62H91.18V18.25H95.3V14.12h4.13V4Z"/><path d="M128.77,7v4.12H108.15v8.26h16.5V23.5h-16.5v8.25h20.62v4.13H99.9V7h28.87m3-3H96.9V38.88h34.87V28.75H111.15V26.5h16.5V16.38h-16.5V14.12h20.62V4Z"/><path d="M161.11,7V35.88h-8.25V27.62h-4.12V23.5h-4.13V19.38h-4.12v16.5h-8.25V7h8.25v4.12h4.12v4.13h4.13v4.13h4.12V7h8.25m3-3H149.86v8.25h-2.25V8.12h-4.12V4H129.24V38.88h14.25V26.5h2.25v4.12h4.12v8.26h14.25V4Z"/><path d="M189.33,7v4.12h4.12V31.75h-4.12v4.13H168.7V31.75h-4.12V11.12h4.12V7h20.63m-16.5,24.75H185.2V11.12H172.83V31.75M192.33,4H165.7V8.12h-4.12V34.75h4.12v4.13h26.63V34.75h4.12V8.12h-4.12V4Zm-16.5,10.12h6.37V28.75h-6.37V14.12Z"/><path d="M225.79,7V35.88h-8.25V19.38h-4.12v8.24h-4.13V19.38h-4.12v16.5h-8.25V7h8.25v4.12h4.12v4.13h4.13V11.12h4.12V7h8.25m3-3H214.54V8.12h-6.37V4H193.92V38.88h14.25V30.62h6.37v8.26h14.25V4Z"/><path d="M258.13,7v4.12h-8.25V31.75h8.25v4.13H233.38V31.75h8.25V11.12h-8.25V7h24.75m3-3H230.38V14.12h8.25V28.75h-8.25V38.88h30.75V28.75h-8.25V14.12h8.25V4Z"/><path d="M286.34,7v4.12h4.13v4.13h-8.25V11.12H274v4.13h-4.13V27.62H274v4.13h8.25V27.62h8.25v4.13h-4.13v4.13h-16.5V31.75h-4.12V27.62h-4.13V15.25h4.13V11.12h4.12V7h16.5m3-3h-22.5V8.12h-4.12v4.13h-4.13V30.62h4.13v4.13h4.12v4.13h22.5V34.75h4.13V24.62H279.22v4.13H277V24.62h-4.13V18.25H277V14.12h2.25v4.13h14.25V8.12h-4.13V4Z"/><path d="M318.69,7v4.12h4.12v4.13h-8.25V11.12H302.19v8.26h16.5V23.5h4.12v8.25h-4.12v4.13H298.06V31.75h-4.12V27.62h8.25v4.13h12.37V23.5h-16.5V19.38h-4.12V11.12h4.12V7h20.63m3-3H295.06V8.12h-4.12V22.38h4.12v2.24h-4.12V34.75h4.12v4.13h26.63V34.75h4.12V20.5h-4.12V18.25h4.12V8.12h-4.12V4Zm-16.5,10.12h6.37v2.26h-6.37V14.12Zm0,12.38h6.37v2.25h-6.37V26.5Z"/><path d="M15.25,35.88V11.12H7V7H31.75v4.12H23.5V35.88Z"/><path d="M39.34,35.88V31.75H35.22V11.12h4.12V7H60v4.12h4.12V31.75H60v4.13Zm4.13-4.13H55.84V11.12H43.47Z"/><path d="M67.55,35.88V7H75.8V19.38h4.13V15.25h4.12V11.12h4.13V7h8.25v4.12H92.3v4.13H88.18v4.13H84.05V23.5h4.13v4.12H92.3v4.13h4.13v4.13H84.05V31.75H79.93V27.62H75.8v8.26Z"/><path d="M99.9,35.88V7h28.87v4.12H108.15v8.26h16.5V23.5h-16.5v8.25h20.62v4.13Z"/><path d="M132.24,35.88V7h8.25v4.12h4.12v4.13h4.13v4.13h4.12V7h8.25V35.88h-8.25V27.62h-4.12V23.5h-4.13V19.38h-4.12v16.5Z"/><path d="M168.7,35.88V31.75h-4.13V11.12h4.13V7h20.62v4.12h4.13V31.75h-4.13v4.13Zm4.12-4.13H185.2V11.12H172.82Z"/><path d="M196.92,35.88V7h8.25v4.12h4.12v4.13h4.13V11.12h4.12V7h8.25V35.88h-8.25V19.38h-4.12v8.24h-4.13V19.38h-4.12v16.5Z"/><path d="M233.38,35.88V31.75h8.25V11.12h-8.25V7h24.75v4.12h-8.25V31.75h8.25v4.13Z"/><path d="M269.84,35.88V31.75h-4.12V27.62h-4.13V15.25h4.13V11.12h4.12V7h16.5v4.12h4.13v4.13h-8.25V11.12H274v4.13h-4.13V27.62H274v4.13h8.25V27.62h8.25v4.13h-4.13v4.13Z"/><path d="M298.06,35.88V31.75h-4.12V27.62h8.25v4.13h12.37V23.5h-16.5V19.38h-4.12V11.12h4.12V7h20.63v4.12h4.12v4.13h-8.25V11.12H302.19v8.26h16.5V23.5h4.12v8.25h-4.12v4.13Z"/><path d="M27.75,3V7.12H19.5V31.88H11.25V7.12H3V3H27.75m3-3H0V10.12H8.25V34.88H22.5V10.12h8.25V0Z"/><path d="M56,3V7.12h4.13V27.75H56v4.13H35.34V27.75H31.21V7.12h4.13V3H56M39.46,27.75H51.84V7.12H39.46V27.75M59,0H32.34V4.12H28.21V30.75h4.13v4.13H59V30.75h4.13V4.12H59V0ZM42.46,10.12h6.38V24.75H42.46V10.12Z"/><path d="M92.43,3V7.12H88.3v4.13H84.18v4.13H80.05V19.5h4.13v4.12H88.3v4.13h4.13v4.13H80.05V27.75H75.93V23.62H71.8v8.26H63.55V3H71.8V15.38h4.13V11.25h4.12V7.12h4.13V3h8.25m3-3H81.18V4.12H77.05V8.25H74.8V0H60.55V34.88H74.8V30.75h2.25v4.13H95.43V24.75H91.3V20.62H87.18V14.25H91.3V10.12h4.13V0Z"/><path d="M124.77,3V7.12H104.15v8.26h16.5V19.5h-16.5v8.25h20.62v4.13H95.9V3h28.87m3-3H92.9V34.88h34.87V24.75H107.15V22.5h16.5V12.38h-16.5V10.12h20.62V0Z"/><path d="M157.11,3V31.88h-8.25V23.62h-4.12V19.5h-4.13V15.38h-4.12v16.5h-8.25V3h8.25V7.12h4.12v4.13h4.13v4.13h4.12V3h8.25m3-3H145.86V8.25h-2.25V4.12h-4.12V0H125.24V34.88h14.25V22.5h2.25v4.12h4.12v8.26h14.25V0Z"/><path d="M185.33,3V7.12h4.12V27.75h-4.12v4.13H164.7V27.75h-4.12V7.12h4.12V3h20.63m-16.5,24.75H181.2V7.12H168.83V27.75M188.33,0H161.7V4.12h-4.12V30.75h4.12v4.13h26.63V30.75h4.12V4.12h-4.12V0Zm-16.5,10.12h6.37V24.75h-6.37V10.12Z"/><path d="M221.79,3V31.88h-8.25V15.38h-4.12v8.24h-4.13V15.38h-4.12v16.5h-8.25V3h8.25V7.12h4.12v4.13h4.13V7.12h4.12V3h8.25m3-3H210.54V4.12h-6.37V0H189.92V34.88h14.25V26.62h6.37v8.26h14.25V0Z"/><path d="M254.13,3V7.12h-8.25V27.75h8.25v4.13H229.38V27.75h8.25V7.12h-8.25V3h24.75m3-3H226.38V10.12h8.25V24.75h-8.25V34.88h30.75V24.75h-8.25V10.12h8.25V0Z"/><path d="M282.34,3V7.12h4.13v4.13h-8.25V7.12H270v4.13h-4.13V23.62H270v4.13h8.25V23.62h8.25v4.13h-4.13v4.13h-16.5V27.75h-4.12V23.62h-4.13V11.25h4.13V7.12h4.12V3h16.5m3-3h-22.5V4.12h-4.12V8.25h-4.13V26.62h4.13v4.13h4.12v4.13h22.5V30.75h4.13V20.62H275.22v4.13H273V20.62h-4.13V14.25H273V10.12h2.25v4.13h14.25V4.12h-4.13V0Z"/><path d="M314.69,3V7.12h4.12v4.13h-8.25V7.12H298.19v8.26h16.5V19.5h4.12v8.25h-4.12v4.13H294.06V27.75h-4.12V23.62h8.25v4.13h12.37V19.5h-16.5V15.38h-4.12V7.12h4.12V3h20.63m3-3H291.06V4.12h-4.12V18.38h4.12v2.24h-4.12V30.75h4.12v4.13h26.63V30.75h4.12V16.5h-4.12V14.25h4.12V4.12h-4.12V0Zm-16.5,10.12h6.37v2.26h-6.37V10.12Zm0,12.38h6.37v2.25h-6.37V22.5Z"/><path class="cls-1" d="M11.25,31.88V7.12H3V3H27.75V7.12H19.5V31.88Z"/><path class="cls-1" d="M35.34,31.88V27.75H31.22V7.12h4.12V3H56V7.12h4.12V27.75H56v4.13Zm4.13-4.13H51.84V7.12H39.47Z"/><path class="cls-1" d="M63.55,31.88V3H71.8V15.38h4.13V11.25h4.12V7.12h4.13V3h8.25V7.12H88.3v4.13H84.18v4.13H80.05V19.5h4.13v4.12H88.3v4.13h4.13v4.13H80.05V27.75H75.93V23.62H71.8v8.26Z"/><path class="cls-1" d="M95.9,31.88V3h28.87V7.12H104.15v8.26h16.5V19.5h-16.5v8.25h20.62v4.13Z"/><path class="cls-1" d="M128.24,31.88V3h8.25V7.12h4.12v4.13h4.13v4.13h4.12V3h8.25V31.88h-8.25V23.62h-4.12V19.5h-4.13V15.38h-4.12v16.5Z"/><path class="cls-1" d="M164.7,31.88V27.75h-4.13V7.12h4.13V3h20.62V7.12h4.13V27.75h-4.13v4.13Zm4.12-4.13H181.2V7.12H168.82Z"/><path class="cls-1" d="M192.92,31.88V3h8.25V7.12h4.12v4.13h4.13V7.12h4.12V3h8.25V31.88h-8.25V15.38h-4.12v8.24h-4.13V15.38h-4.12v16.5Z"/><path class="cls-1" d="M229.38,31.88V27.75h8.25V7.12h-8.25V3h24.75V7.12h-8.25V27.75h8.25v4.13Z"/><path class="cls-1" d="M265.84,31.88V27.75h-4.12V23.62h-4.13V11.25h4.13V7.12h4.12V3h16.5V7.12h4.13v4.13h-8.25V7.12H270v4.13h-4.13V23.62H270v4.13h8.25V23.62h8.25v4.13h-4.13v4.13Z"/><path class="cls-1" d="M294.06,31.88V27.75h-4.12V23.62h8.25v4.13h12.37V19.5h-16.5V15.38h-4.12V7.12h4.12V3h20.63V7.12h4.12v4.13h-8.25V7.12H298.19v8.26h16.5V19.5h4.12v8.25h-4.12v4.13Z"/></g></g></svg>