<svg xmlns="http://www.w3.org/2000/svg" width="617.958" height="205.566" viewBox="0 0 617.958 205.566">
  <g id="Group_665" data-name="Group 665" transform="translate(-5640.856 -6303.526)">
    <g id="UFO" transform="translate(2200 -936)">
      <g id="Group_442" data-name="Group 442">
        <rect id="Rectangle_33024" data-name="Rectangle 33024" width="4" height="4" transform="translate(3756 7314)" fill="#ce4fe5"/>
        <rect id="Rectangle_33025" data-name="Rectangle 33025" width="48" height="4" transform="translate(3760 7318)" fill="#ce4fe5"/>
        <rect id="Rectangle_33026" data-name="Rectangle 33026" width="4" height="4" transform="translate(3808 7314)" fill="#ce4fe5"/>
      </g>
      <g id="Group_443" data-name="Group 443">
        <path id="Path_1091" data-name="Path 1091" d="M3764,7302v4h40v-4h8v-4h-12v4h-32v-4h-12v4Z" fill="#485451"/>
        <rect id="Rectangle_33027" data-name="Rectangle 33027" width="4" height="4" transform="translate(3748 7306)" fill="#485451"/>
        <rect id="Rectangle_33028" data-name="Rectangle 33028" width="4" height="4" transform="translate(3752 7302)" fill="#485451"/>
        <rect id="Rectangle_33029" data-name="Rectangle 33029" width="8" height="4" transform="translate(3752 7310)" fill="#485451"/>
        <rect id="Rectangle_33030" data-name="Rectangle 33030" width="4" height="4" transform="translate(3816 7306)" fill="#485451"/>
        <rect id="Rectangle_33031" data-name="Rectangle 33031" width="4" height="4" transform="translate(3812 7302)" fill="#485451"/>
        <rect id="Rectangle_33032" data-name="Rectangle 33032" width="8" height="4" transform="translate(3808 7310)" fill="#485451"/>
        <rect id="Rectangle_33033" data-name="Rectangle 33033" width="48" height="4" transform="translate(3760 7314)" fill="#485451"/>
      </g>
      <path id="Path_1092" data-name="Path 1092" d="M3804,7302v4h-40v-4h-8v4h4v4h48v-4h4v-4Z" fill="#82948f"/>
      <g id="Group_444" data-name="Group 444">
        <path id="Path_1093" data-name="Path 1093" d="M3796,7302v-12h-4v8h-4v-8h4v-4h-4v-4h-4v16h-12v4Z" fill="#2853e0"/>
        <rect id="Rectangle_33034" data-name="Rectangle 33034" width="8" height="4" transform="translate(3768 7310)" fill="#2853e0"/>
        <rect id="Rectangle_33035" data-name="Rectangle 33035" width="8" height="4" transform="translate(3780 7310)" fill="#2853e0"/>
        <rect id="Rectangle_33036" data-name="Rectangle 33036" width="8" height="4" transform="translate(3792 7310)" fill="#2853e0"/>
        <rect id="Rectangle_33037" data-name="Rectangle 33037" width="4" height="4" transform="translate(3756 7306)" fill="#2853e0"/>
        <rect id="Rectangle_33038" data-name="Rectangle 33038" width="4" height="4" transform="translate(3760 7310)" fill="#2853e0"/>
        <rect id="Rectangle_33039" data-name="Rectangle 33039" width="4" height="4" transform="translate(3808 7306)" fill="#2853e0"/>
        <rect id="Rectangle_33040" data-name="Rectangle 33040" width="4" height="4" transform="translate(3804 7310)" fill="#2853e0"/>
      </g>
      <g id="Group_445" data-name="Group 445">
        <rect id="Rectangle_33041" data-name="Rectangle 33041" width="4" height="4" transform="translate(3772 7286)" fill="#5eb1ff"/>
        <rect id="Rectangle_33042" data-name="Rectangle 33042" width="8" height="4" transform="translate(3780 7278)" fill="#5eb1ff"/>
        <rect id="Rectangle_33043" data-name="Rectangle 33043" width="4" height="4" transform="translate(3776 7282)" fill="#5eb1ff"/>
        <rect id="Rectangle_33044" data-name="Rectangle 33044" width="4" height="4" transform="translate(3788 7282)" fill="#5eb1ff"/>
        <path id="Path_1094" data-name="Path 1094" d="M3776,7290v8h8v-12h-4v4Z" fill="#5eb1ff"/>
        <rect id="Rectangle_33045" data-name="Rectangle 33045" width="4" height="4" transform="translate(3788 7290)" fill="#5eb1ff"/>
        <rect id="Rectangle_33046" data-name="Rectangle 33046" width="4" height="4" transform="translate(3792 7286)" fill="#5eb1ff"/>
        <rect id="Rectangle_33047" data-name="Rectangle 33047" width="4" height="12" transform="translate(3768 7290)" fill="#5eb1ff"/>
        <rect id="Rectangle_33048" data-name="Rectangle 33048" width="4" height="12" transform="translate(3796 7290)" fill="#5eb1ff"/>
      </g>
      <g id="Group_446" data-name="Group 446">
        <rect id="Rectangle_33049" data-name="Rectangle 33049" width="4" height="4" transform="translate(3776 7286)" fill="#fff"/>
        <rect id="Rectangle_33050" data-name="Rectangle 33050" width="4" height="4" transform="translate(3780 7282)" fill="#fff"/>
        <rect id="Rectangle_33051" data-name="Rectangle 33051" width="4" height="8" transform="translate(3772 7290)" fill="#fff"/>
        <rect id="Rectangle_33052" data-name="Rectangle 33052" width="4" height="4" transform="translate(3776 7310)" fill="#fff"/>
        <rect id="Rectangle_33053" data-name="Rectangle 33053" width="4" height="4" transform="translate(3788 7310)" fill="#fff"/>
        <rect id="Rectangle_33054" data-name="Rectangle 33054" width="4" height="4" transform="translate(3752 7306)" fill="#fff"/>
        <rect id="Rectangle_33055" data-name="Rectangle 33055" width="4" height="4" transform="translate(3764 7310)" fill="#fff"/>
        <rect id="Rectangle_33056" data-name="Rectangle 33056" width="4" height="4" transform="translate(3812 7306)" fill="#fff"/>
        <rect id="Rectangle_33057" data-name="Rectangle 33057" width="4" height="4" transform="translate(3800 7310)" fill="#fff"/>
        <rect id="Rectangle_33058" data-name="Rectangle 33058" width="4" height="4" transform="translate(3788 7294)" fill="#fff"/>
      </g>
    </g>
    <g id="Group_659" data-name="Group 659" transform="translate(2200 -936)">
      <path id="Path_1100" data-name="Path 1100" d="M3848.857,7426.1h6.25v6.249h-6.25V7426.1Z" fill="#fff"/>
      <path id="Path_1101" data-name="Path 1101" d="M3855.107,7419.847h6.249v6.25h-6.249v-6.25Z" fill="#fff"/>
      <path id="Path_1102" data-name="Path 1102" d="M3855.107,7426.1h6.249v6.249h-6.249V7426.1Z" fill="#fff"/>
      <path id="Path_1103" data-name="Path 1103" d="M3855.107,7432.346h6.249v6.25h-6.249v-6.25Z" fill="#fff"/>
      <path id="Path_1104" data-name="Path 1104" d="M3861.356,7426.1h6.25v6.249h-6.25V7426.1Z" fill="#fff"/>
    </g>
    <g id="Group_660" data-name="Group 660" transform="translate(2200 -936)">
      <path id="Path_1105" data-name="Path 1105" d="M3440.857,7247.1h6.25v6.249h-6.25V7247.1Z" fill="#fff"/>
      <path id="Path_1106" data-name="Path 1106" d="M3447.107,7240.847h6.249v6.25h-6.249v-6.25Z" fill="#fff"/>
      <path id="Path_1107" data-name="Path 1107" d="M3447.107,7247.1h6.249v6.249h-6.249V7247.1Z" fill="#fff"/>
      <path id="Path_1108" data-name="Path 1108" d="M3447.107,7253.346h6.249v6.25h-6.249v-6.25Z" fill="#fff"/>
      <path id="Path_1109" data-name="Path 1109" d="M3453.356,7247.1h6.25v6.249h-6.25V7247.1Z" fill="#fff"/>
    </g>
    <path id="Path_2009" data-name="Path 2009" d="M3838.356,7342.844h6.25v6.249h-6.25v-6.249Z" transform="translate(2200 -936)" fill="#fff"/>
    <path id="Path_2010" data-name="Path 2010" d="M3785.356,7438.844h6.25v6.249h-6.25v-6.249Z" transform="translate(2200 -936)" fill="#fff"/>
    <g id="Group_661" data-name="Group 661" transform="translate(2200 -936)">
      <g id="Group_450" data-name="Group 450">
        <rect id="Rectangle_33059" data-name="Rectangle 33059" width="13.693" height="4.564" transform="translate(3949.268 7388.621)" fill="#fff"/>
        <rect id="Rectangle_33060" data-name="Rectangle 33060" width="13.693" height="4.564" transform="translate(3981.219 7374.927)" fill="#fff"/>
        <rect id="Rectangle_33061" data-name="Rectangle 33061" width="41.08" height="4.565" transform="translate(3972.09 7384.056)" fill="#fff"/>
        <rect id="Rectangle_33062" data-name="Rectangle 33062" width="45.644" height="4.564" transform="translate(3972.09 7388.621)" fill="#fff"/>
        <rect id="Rectangle_33063" data-name="Rectangle 33063" width="73.031" height="4.565" transform="translate(3944.703 7393.185)" fill="#fff"/>
        <rect id="Rectangle_33064" data-name="Rectangle 33064" width="77.595" height="4.564" transform="translate(3944.703 7397.75)" fill="#fff"/>
        <rect id="Rectangle_33065" data-name="Rectangle 33065" width="104.982" height="4.564" transform="translate(3935.574 7402.313)" fill="#fff"/>
        <rect id="Rectangle_33066" data-name="Rectangle 33066" width="109.547" height="4.565" transform="translate(3935.574 7406.878)" fill="#fff"/>
        <rect id="Rectangle_33067" data-name="Rectangle 33067" width="118.675" height="4.564" transform="translate(3931.01 7411.442)" fill="#fff"/>
        <rect id="Rectangle_33068" data-name="Rectangle 33068" width="127.804" height="4.564" transform="translate(3926.446 7416.007)" fill="#fff"/>
        <rect id="Rectangle_33069" data-name="Rectangle 33069" width="141.497" height="4.565" transform="translate(3912.752 7420.571)" fill="#fff"/>
        <rect id="Rectangle_33070" data-name="Rectangle 33070" width="141.498" height="4.564" transform="translate(3917.317 7425.136)" fill="#e7e7fe"/>
        <rect id="Rectangle_33071" data-name="Rectangle 33071" width="136.933" height="4.564" transform="translate(3921.881 7429.7)" fill="#e7e7fe"/>
        <rect id="Rectangle_33072" data-name="Rectangle 33072" width="31.951" height="4.564" transform="translate(3976.655 7379.492)" fill="#fff"/>
      </g>
      <g id="Group_451" data-name="Group 451">
        <rect id="Rectangle_33073" data-name="Rectangle 33073" width="13.44" height="4.564" transform="translate(4013.17 7402.313)" fill="#e7e7fe"/>
        <rect id="Rectangle_33074" data-name="Rectangle 33074" width="9.129" height="4.564" transform="translate(4013.169 7397.75)" fill="#e7e7fe"/>
        <rect id="Rectangle_33075" data-name="Rectangle 33075" width="9.129" height="4.565" transform="translate(3999.477 7406.878)" fill="#e7e7fe"/>
        <rect id="Rectangle_33076" data-name="Rectangle 33076" width="4.564" height="4.564" transform="translate(3994.912 7411.442)" fill="#e7e7fe"/>
        <rect id="Rectangle_33077" data-name="Rectangle 33077" width="4.565" height="4.564" transform="translate(3990.348 7416.007)" fill="#e7e7fe"/>
        <rect id="Rectangle_33078" data-name="Rectangle 33078" width="4.564" height="4.565" transform="translate(3985.783 7406.878)" fill="#e7e7fe"/>
        <rect id="Rectangle_33079" data-name="Rectangle 33079" width="4.565" height="4.564" transform="translate(4004.041 7379.492)" fill="#e7e7fe"/>
        <rect id="Rectangle_33080" data-name="Rectangle 33080" width="4.565" height="4.564" transform="translate(3990.348 7388.621)" fill="#e7e7fe"/>
        <rect id="Rectangle_33081" data-name="Rectangle 33081" width="4.564" height="4.564" transform="translate(4035.992 7402.313)" fill="#e7e7fe"/>
        <rect id="Rectangle_33082" data-name="Rectangle 33082" width="4.564" height="4.565" transform="translate(3972.09 7384.056)" fill="#e7e7fe"/>
        <rect id="Rectangle_33083" data-name="Rectangle 33083" width="4.565" height="4.565" transform="translate(3944.703 7393.185)" fill="#e7e7fe"/>
        <rect id="Rectangle_33084" data-name="Rectangle 33084" width="4.564" height="9.129" transform="translate(4008.605 7402.313)" fill="#e7e7fe"/>
      </g>
      <g id="Group_452" data-name="Group 452">
        <rect id="Rectangle_33085" data-name="Rectangle 33085" width="13.44" height="4.564" transform="translate(3958.65 7397.75)" fill="#e7e7fe"/>
        <rect id="Rectangle_33086" data-name="Rectangle 33086" width="9.129" height="4.565" transform="translate(3962.962 7393.185)" fill="#e7e7fe"/>
        <rect id="Rectangle_33087" data-name="Rectangle 33087" width="9.129" height="4.564" transform="translate(3976.655 7402.313)" fill="#e7e7fe"/>
        <rect id="Rectangle_33088" data-name="Rectangle 33088" width="59.338" height="4.565" transform="translate(3912.752 7420.571)" fill="#e7e7fe"/>
        <rect id="Rectangle_33089" data-name="Rectangle 33089" width="18.258" height="4.564" transform="translate(3926.446 7416.007)" fill="#e7e7fe"/>
        <rect id="Rectangle_33090" data-name="Rectangle 33090" width="9.129" height="4.564" transform="translate(3931.01 7411.442)" fill="#e7e7fe"/>
        <rect id="Rectangle_33091" data-name="Rectangle 33091" width="9.129" height="4.564" transform="translate(4040.557 7411.442)" fill="#e7e7fe"/>
        <rect id="Rectangle_33092" data-name="Rectangle 33092" width="27.387" height="4.564" transform="translate(4026.863 7416.007)" fill="#e7e7fe"/>
        <rect id="Rectangle_33093" data-name="Rectangle 33093" width="41.08" height="4.565" transform="translate(4013.17 7420.571)" fill="#e7e7fe"/>
        <rect id="Rectangle_33094" data-name="Rectangle 33094" width="4.564" height="9.129" transform="translate(3972.09 7397.75)" fill="#e7e7fe"/>
      </g>
    </g>
    <g id="Group_662" data-name="Group 662" transform="translate(2200 -936)">
      <g id="Group_454" data-name="Group 454">
        <rect id="Rectangle_33095" data-name="Rectangle 33095" width="6.8" height="3.4" transform="translate(3839.081 7239.526)" fill="#fff"/>
        <rect id="Rectangle_33096" data-name="Rectangle 33096" width="13.6" height="3.4" transform="translate(3852.681 7249.726)" fill="#fff"/>
        <rect id="Rectangle_33097" data-name="Rectangle 33097" width="51" height="3.4" transform="translate(3822.081 7259.926)" fill="#fff"/>
        <rect id="Rectangle_33098" data-name="Rectangle 33098" width="44.2" height="3.4" transform="translate(3825.481 7263.326)" fill="#e7e7fe"/>
        <rect id="Rectangle_33099" data-name="Rectangle 33099" width="33.874" height="3.4" transform="translate(3832.281 7266.726)" fill="#e7e7fe"/>
        <rect id="Rectangle_33100" data-name="Rectangle 33100" width="23.8" height="3.4" transform="translate(3828.881 7246.326)" fill="#fff"/>
        <rect id="Rectangle_33101" data-name="Rectangle 33101" width="23.8" height="3.4" transform="translate(3828.881 7249.726)" fill="#fff"/>
        <rect id="Rectangle_33102" data-name="Rectangle 33102" width="6.8" height="3.4" transform="translate(3856.081 7246.326)" fill="#fff"/>
        <rect id="Rectangle_33103" data-name="Rectangle 33103" width="17" height="3.4" transform="translate(3832.281 7242.926)" fill="#fff"/>
        <rect id="Rectangle_33104" data-name="Rectangle 33104" width="44.2" height="3.4" transform="translate(3825.481 7253.126)" fill="#fff"/>
        <rect id="Rectangle_33105" data-name="Rectangle 33105" width="44.2" height="3.4" transform="translate(3825.481 7256.526)" fill="#fff"/>
      </g>
      <g id="Group_455" data-name="Group 455">
        <rect id="Rectangle_33106" data-name="Rectangle 33106" width="6.8" height="3.4" transform="translate(3839.081 7249.726)" fill="#e7e7fe"/>
        <rect id="Rectangle_33107" data-name="Rectangle 33107" width="3.4" height="3.4" transform="translate(3832.281 7256.526)" fill="#e7e7fe"/>
        <rect id="Rectangle_33108" data-name="Rectangle 33108" width="3.4" height="3.4" transform="translate(3828.802 7246.326)" fill="#e7e7fe"/>
        <rect id="Rectangle_33109" data-name="Rectangle 33109" width="3.4" height="3.4" transform="translate(3855.802 7253.126)" fill="#e7e7fe"/>
        <rect id="Rectangle_33110" data-name="Rectangle 33110" width="6.8" height="3.4" transform="translate(3835.681 7253.126)" fill="#e7e7fe"/>
        <rect id="Rectangle_33111" data-name="Rectangle 33111" width="3.4" height="3.4" transform="translate(3866.281 7256.526)" fill="#e7e7fe"/>
        <rect id="Rectangle_33112" data-name="Rectangle 33112" width="20.4" height="3.4" transform="translate(3852.681 7259.926)" fill="#e7e7fe"/>
        <rect id="Rectangle_33113" data-name="Rectangle 33113" width="6.8" height="3.4" transform="translate(3822.081 7259.926)" fill="#e7e7fe"/>
        <rect id="Rectangle_33114" data-name="Rectangle 33114" width="6.8" height="3.4" transform="translate(3845.881 7246.326)" fill="#e7e7fe"/>
      </g>
    </g>
  </g>
</svg>
