<svg xmlns="http://www.w3.org/2000/svg" width="258.194" height="91.047" viewBox="0 0 258.194 91.047">
  <g id="Group_664" data-name="Group 664" transform="translate(-4744.412 -6283.847)">
    <g id="Group_658" data-name="Group 658" transform="translate(2200 -936)">
      <path id="Path_1095" data-name="Path 1095" d="M2750.857,7226.1h6.25v6.249h-6.25V7226.1Z" fill="#fff"/>
      <path id="Path_1096" data-name="Path 1096" d="M2757.107,7219.847h6.249v6.25h-6.249v-6.25Z" fill="#fff"/>
      <path id="Path_1097" data-name="Path 1097" d="M2757.107,7226.1h6.249v6.249h-6.249V7226.1Z" fill="#fff"/>
      <path id="Path_1098" data-name="Path 1098" d="M2757.107,7232.346h6.249v6.25h-6.249v-6.25Z" fill="#fff"/>
      <path id="Path_1099" data-name="Path 1099" d="M2763.356,7226.1h6.25v6.249h-6.25V7226.1Z" fill="#fff"/>
    </g>
    <path id="Path_2008" data-name="Path 2008" d="M2734.356,7254.844h6.25v6.249h-6.25v-6.249Z" transform="translate(2200 -936)" fill="#fff"/>
    <path id="Path_2011" data-name="Path 2011" d="M2796.356,7248.844h6.25v6.249h-6.25v-6.249Z" transform="translate(2200 -936)" fill="#fff"/>
    <path id="Path_2012" data-name="Path 2012" d="M2743.356,7271.844h6.25v6.249h-6.25v-6.249Z" transform="translate(2200 -936)" fill="#fff"/>
    <g id="Group_663" data-name="Group 663" transform="translate(2200 -936)">
      <g id="Group_457" data-name="Group 457">
        <rect id="Rectangle_33115" data-name="Rectangle 33115" width="17.079" height="3.416" transform="translate(2602.479 7259.657)" fill="#fff"/>
        <rect id="Rectangle_33116" data-name="Rectangle 33116" width="6.831" height="3.416" transform="translate(2609.311 7256.242)" fill="#fff"/>
        <rect id="Rectangle_33117" data-name="Rectangle 33117" width="34.157" height="3.416" transform="translate(2595.648 7263.073)" fill="#fff"/>
        <rect id="Rectangle_33118" data-name="Rectangle 33118" width="47.82" height="3.416" transform="translate(2588.816 7266.489)" fill="#fff"/>
        <rect id="Rectangle_33119" data-name="Rectangle 33119" width="68.315" height="3.416" transform="translate(2578.569 7269.905)" fill="#fff"/>
        <rect id="Rectangle_33120" data-name="Rectangle 33120" width="88.809" height="3.416" transform="translate(2568.322 7273.32)" fill="#fff"/>
        <rect id="Rectangle_33121" data-name="Rectangle 33121" width="99.056" height="3.416" transform="translate(2564.88 7276.736)" fill="#fff"/>
        <rect id="Rectangle_33122" data-name="Rectangle 33122" width="109.304" height="3.416" transform="translate(2558.074 7280.152)" fill="#fff"/>
        <rect id="Rectangle_33123" data-name="Rectangle 33123" width="112.719" height="3.416" transform="translate(2558.074 7283.567)" fill="#fff"/>
        <rect id="Rectangle_33124" data-name="Rectangle 33124" width="122.966" height="3.416" transform="translate(2554.659 7286.983)" fill="#fff"/>
        <rect id="Rectangle_33125" data-name="Rectangle 33125" width="129.798" height="3.416" transform="translate(2551.243 7290.399)" fill="#fff"/>
        <rect id="Rectangle_33126" data-name="Rectangle 33126" width="140.045" height="3.416" transform="translate(2547.827 7293.815)" fill="#fff"/>
        <rect id="Rectangle_33127" data-name="Rectangle 33127" width="140.045" height="3.416" transform="translate(2544.412 7297.23)" fill="#fff"/>
        <rect id="Rectangle_33128" data-name="Rectangle 33128" width="133.214" height="3.416" transform="translate(2547.827 7300.646)" fill="#fff"/>
        <rect id="Rectangle_33129" data-name="Rectangle 33129" width="126.382" height="3.416" transform="translate(2551.243 7304.062)" fill="#e7e7fe"/>
        <rect id="Rectangle_33130" data-name="Rectangle 33130" width="112.719" height="3.416" transform="translate(2558.074 7307.478)" fill="#e7e7fe"/>
      </g>
      <g id="Group_458" data-name="Group 458">
        <rect id="Rectangle_33131" data-name="Rectangle 33131" width="13.663" height="3.416" transform="translate(2622.974 7286.983)" fill="#e7e7fe"/>
        <rect id="Rectangle_33132" data-name="Rectangle 33132" width="13.663" height="3.416" transform="translate(2629.805 7290.399)" fill="#e7e7fe"/>
        <rect id="Rectangle_33133" data-name="Rectangle 33133" width="6.831" height="3.416" transform="translate(2609.311 7293.815)" fill="#e7e7fe"/>
        <rect id="Rectangle_33134" data-name="Rectangle 33134" width="13.663" height="3.416" transform="translate(2633.221 7293.815)" fill="#e7e7fe"/>
        <rect id="Rectangle_33135" data-name="Rectangle 33135" width="17.079" height="3.416" transform="translate(2663.962 7300.646)" fill="#e7e7fe"/>
        <rect id="Rectangle_33136" data-name="Rectangle 33136" width="13.663" height="3.416" transform="translate(2670.794 7297.23)" fill="#e7e7fe"/>
        <rect id="Rectangle_33137" data-name="Rectangle 33137" width="10.152" height="3.416" transform="translate(2677.72 7293.815)" fill="#e7e7fe"/>
        <rect id="Rectangle_33138" data-name="Rectangle 33138" width="3.416" height="6.832" transform="translate(2646.884 7293.815)" fill="#e7e7fe"/>
        <rect id="Rectangle_33139" data-name="Rectangle 33139" width="3.416" height="3.416" transform="translate(2650.3 7297.23)" fill="#e7e7fe"/>
        <rect id="Rectangle_33140" data-name="Rectangle 33140" width="3.416" height="3.416" transform="translate(2605.895 7297.23)" fill="#e7e7fe"/>
        <rect id="Rectangle_33141" data-name="Rectangle 33141" width="3.416" height="3.416" transform="translate(2653.715 7300.646)" fill="#e7e7fe"/>
        <rect id="Rectangle_33142" data-name="Rectangle 33142" width="6.832" height="3.416" transform="translate(2616.142 7290.399)" fill="#e7e7fe"/>
      </g>
      <g id="Group_459" data-name="Group 459">
        <rect id="Rectangle_33143" data-name="Rectangle 33143" width="17.079" height="3.416" transform="translate(2578.569 7269.905)" fill="#e7e7fe"/>
        <rect id="Rectangle_33144" data-name="Rectangle 33144" width="40.989" height="3.416" transform="translate(2547.827 7300.646)" fill="#e7e7fe"/>
        <rect id="Rectangle_33145" data-name="Rectangle 33145" width="23.91" height="3.416" transform="translate(2544.412 7297.23)" fill="#e7e7fe"/>
        <rect id="Rectangle_33146" data-name="Rectangle 33146" width="10.247" height="3.416" transform="translate(2547.827 7293.815)" fill="#e7e7fe"/>
        <rect id="Rectangle_33147" data-name="Rectangle 33147" width="3.416" height="3.416" transform="translate(2551.243 7290.399)" fill="#e7e7fe"/>
        <rect id="Rectangle_33148" data-name="Rectangle 33148" width="3.416" height="3.416" transform="translate(2677.625 7290.399)" fill="#e7e7fe"/>
        <rect id="Rectangle_33149" data-name="Rectangle 33149" width="6.831" height="3.416" transform="translate(2588.816 7266.489)" fill="#e7e7fe"/>
        <rect id="Rectangle_33150" data-name="Rectangle 33150" width="17.079" height="3.416" transform="translate(2588.816 7273.32)" fill="#e7e7fe"/>
        <rect id="Rectangle_33151" data-name="Rectangle 33151" width="13.663" height="3.416" transform="translate(2595.648 7276.736)" fill="#e7e7fe"/>
        <rect id="Rectangle_33152" data-name="Rectangle 33152" width="6.832" height="3.416" transform="translate(2605.895 7280.152)" fill="#e7e7fe"/>
        <rect id="Rectangle_33153" data-name="Rectangle 33153" width="3.416" height="3.416" transform="translate(2612.726 7283.567)" fill="#e7e7fe"/>
        <rect id="Rectangle_33154" data-name="Rectangle 33154" width="3.416" height="3.416" transform="translate(2609.216 7256.242)" fill="#e7e7fe"/>
        <rect id="Rectangle_33155" data-name="Rectangle 33155" width="3.416" height="3.416" transform="translate(2633.126 7280.152)" fill="#e7e7fe"/>
        <rect id="Rectangle_33156" data-name="Rectangle 33156" width="3.416" height="3.416" transform="translate(2576.168 7286.983)" fill="#e7e7fe"/>
        <rect id="Rectangle_33157" data-name="Rectangle 33157" width="3.416" height="3.416" transform="translate(2579.584 7283.567)" fill="#e7e7fe"/>
        <rect id="Rectangle_33158" data-name="Rectangle 33158" width="3.416" height="3.416" transform="translate(2643.468 7269.905)" fill="#e7e7fe"/>
        <rect id="Rectangle_33159" data-name="Rectangle 33159" width="3.416" height="3.416" transform="translate(2660.547 7276.736)" fill="#e7e7fe"/>
        <rect id="Rectangle_33160" data-name="Rectangle 33160" width="3.416" height="3.416" transform="translate(2564.88 7276.736)" fill="#e7e7fe"/>
        <path id="Path_1115" data-name="Path 1115" d="M2629.8,7263.073l-10.247-.013v3.416l10.247.013Z" fill="#e7e7fe"/>
        <rect id="Rectangle_33161" data-name="Rectangle 33161" width="3.416" height="3.416" transform="translate(2595.648 7269.905)" fill="#e7e7fe"/>
      </g>
    </g>
  </g>
</svg>
