<svg xmlns="http://www.w3.org/2000/svg" width="294.209" height="77.246" viewBox="0 0 294.209 77.246">
  <g id="Group_667" data-name="Group 667" transform="translate(-5654.396 -4376.251)">
    <g id="Group_645" data-name="Group 645" transform="translate(2064 -398.596)">
      <g id="Group_367" data-name="Group 367">
        <rect id="Rectangle_32149" data-name="Rectangle 32149" width="9.962" height="4.981" transform="translate(3635.226 4776.077)" fill="#fff"/>
        <rect id="Rectangle_32150" data-name="Rectangle 32150" width="19.925" height="4.981" transform="translate(3655.151 4791.021)" fill="#fff"/>
        <rect id="Rectangle_32151" data-name="Rectangle 32151" width="39.849" height="4.981" transform="translate(3615.302 4786.04)" fill="#fff"/>
        <rect id="Rectangle_32152" data-name="Rectangle 32152" width="34.868" height="4.981" transform="translate(3620.283 4791.021)" fill="#fff"/>
        <rect id="Rectangle_32153" data-name="Rectangle 32153" width="9.962" height="4.981" transform="translate(3660.132 4786.04)" fill="#fff"/>
        <rect id="Rectangle_32154" data-name="Rectangle 32154" width="24.906" height="4.981" transform="translate(3625.264 4781.059)" fill="#fff"/>
        <rect id="Rectangle_32155" data-name="Rectangle 32155" width="74.717" height="4.981" transform="translate(3605.34 4796.002)" fill="#fff"/>
        <rect id="Rectangle_32156" data-name="Rectangle 32156" width="49.811" height="4.981" transform="translate(3600.359 4800.983)" fill="#e7e7fe"/>
        <rect id="Rectangle_32157" data-name="Rectangle 32157" width="54.793" height="4.981" transform="translate(3590.396 4805.964)" fill="#e7e7fe"/>
        <rect id="Rectangle_32158" data-name="Rectangle 32158" width="29.887" height="4.981" transform="translate(3655.151 4800.983)" fill="#e7e7fe"/>
        <rect id="Rectangle_32159" data-name="Rectangle 32159" width="39.849" height="4.981" transform="translate(3655.151 4805.964)" fill="#e7e7fe"/>
      </g>
      <g id="Group_368" data-name="Group 368">
        <rect id="Rectangle_32160" data-name="Rectangle 32160" width="9.962" height="4.981" transform="translate(3650.17 4796.002)" fill="#e7e7fe"/>
        <rect id="Rectangle_32161" data-name="Rectangle 32161" width="24.906" height="4.981" transform="translate(3605.34 4796.002)" fill="#e7e7fe"/>
        <rect id="Rectangle_32162" data-name="Rectangle 32162" width="14.943" height="4.981" transform="translate(3610.321 4791.021)" fill="#e7e7fe"/>
        <rect id="Rectangle_32163" data-name="Rectangle 32163" width="9.962" height="4.981" transform="translate(3670.094 4796.002)" fill="#e7e7fe"/>
        <rect id="Rectangle_32164" data-name="Rectangle 32164" width="4.981" height="4.981" transform="translate(3670.094 4791.021)" fill="#e7e7fe"/>
        <rect id="Rectangle_32165" data-name="Rectangle 32165" width="4.981" height="4.981" transform="translate(3645.189 4796.002)" fill="#e7e7fe"/>
        <rect id="Rectangle_32166" data-name="Rectangle 32166" width="4.981" height="4.981" transform="translate(3645.189 4781.059)" fill="#e7e7fe"/>
        <rect id="Rectangle_32167" data-name="Rectangle 32167" width="4.981" height="4.981" transform="translate(3625.264 4781.059)" fill="#e7e7fe"/>
        <rect id="Rectangle_32168" data-name="Rectangle 32168" width="4.981" height="4.981" transform="translate(3650.17 4791.021)" fill="#e7e7fe"/>
      </g>
    </g>
    <g id="Group_647" data-name="Group 647" transform="translate(2064 -398.596)">
      <path id="Path_1009" data-name="Path 1009" d="M3832.857,4781.1h6.25v6.249h-6.25V4781.1Z" fill="#fff"/>
      <path id="Path_1010" data-name="Path 1010" d="M3839.107,4774.847h6.249v6.25h-6.249v-6.25Z" fill="#fff"/>
      <path id="Path_1011" data-name="Path 1011" d="M3839.107,4781.1h6.249v6.249h-6.249V4781.1Z" fill="#fff"/>
      <path id="Path_1012" data-name="Path 1012" d="M3839.107,4787.346h6.249v6.25h-6.249v-6.25Z" fill="#fff"/>
      <path id="Path_1013" data-name="Path 1013" d="M3845.356,4781.1h6.25v6.249h-6.25V4781.1Z" fill="#fff"/>
    </g>
    <path id="Path_1996" data-name="Path 1996" d="M3816.356,4809.844h6.25v6.249h-6.25v-6.249Z" transform="translate(2064 -398.596)" fill="#fff"/>
    <path id="Path_1998" data-name="Path 1998" d="M3878.356,4803.844h6.25v6.249h-6.25v-6.249Z" transform="translate(2064 -398.596)" fill="#fff"/>
    <path id="Path_2002" data-name="Path 2002" d="M3797.356,4845.844h6.25v6.249h-6.25v-6.249Z" transform="translate(2064 -398.596)" fill="#fff"/>
  </g>
</svg>
