<svg xmlns="http://www.w3.org/2000/svg" xmlns:xlink="http://www.w3.org/1999/xlink" width="969.426" height="62.968" viewBox="0 0 969.426 62.968"><defs><style>.a{fill:url(#a);}.b{fill:url(#b);}.c{fill:url(#c);}.d{fill:url(#d);}.e{fill:url(#e);}.f{fill:url(#f);}.g{fill:url(#g);}.h{fill:url(#h);}.i{fill:url(#i);}.j{fill:url(#j);}.k{fill:url(#k);}.l{fill:url(#l);}.m{fill:url(#m);}.n{fill:url(#n);}.o{fill:url(#o);}</style><linearGradient id="a" x1="11.607" y1="1.039" x2="11.607" y2="0.006" gradientUnits="objectBoundingBox"><stop offset="0" stop-color="#96c"/><stop offset="1" stop-color="#d0a2ff"/></linearGradient><linearGradient id="b" x1="8.971" y1="1.039" x2="8.971" y2="0.006" xlink:href="#a"/><linearGradient id="c" x1="7.851" y1="1.039" x2="7.851" y2="0.006" xlink:href="#a"/><linearGradient id="d" x1="6.731" y1="1.039" x2="6.731" y2="0.006" xlink:href="#a"/><linearGradient id="e" x1="4.491" y1="1.039" x2="4.491" y2="0.006" xlink:href="#a"/><linearGradient id="f" x1="3.371" y1="1.039" x2="3.371" y2="0.006" xlink:href="#a"/><linearGradient id="g" x1="2.251" y1="1.039" x2="2.251" y2="0.006" xlink:href="#a"/><linearGradient id="h" x1="0.011" y1="1.039" x2="0.011" y2="0.006" xlink:href="#a"/><linearGradient id="i" x1="-1.109" y1="1.039" x2="-1.109" y2="0.006" xlink:href="#a"/><linearGradient id="j" x1="-2.229" y1="1.039" x2="-2.229" y2="0.006" xlink:href="#a"/><linearGradient id="k" x1="-4.073" y1="1.039" x2="-4.073" y2="0.006" xlink:href="#a"/><linearGradient id="l" x1="-5.589" y1="1.039" x2="-5.589" y2="0.006" xlink:href="#a"/><linearGradient id="m" x1="-6.708" y1="1.039" x2="-6.708" y2="0.006" xlink:href="#a"/><linearGradient id="n" x1="-9.3" y1="1.039" x2="-9.3" y2="0.006" xlink:href="#a"/><linearGradient id="o" x1="-8.949" y1="1.055" x2="-8.949" y2="-0.392" xlink:href="#a"/></defs><g transform="translate(-2796.787 -309.77)"><path d="M2821.491,320.77v41.115H2848.9v6.853h-41.115V320.77h13.7m4-4h-21.7v55.968H2852.9V357.885h-27.411V316.77Z"/><path d="M2902.626,320.77v6.853h-34.263v13.705h27.41v6.853h-27.41v13.7h34.263v6.853h-47.968V320.77h47.968m4-4h-55.968v55.968h55.968V357.885h-34.263v-5.7h27.41V337.328h-27.41v-5.705h34.263V316.77Z"/><path d="M2956.351,320.77v47.968h-13.706V355.033h-6.852v-6.852h-6.853v-6.853h-6.853v27.41h-13.7V320.77h13.7v6.853h6.853v6.852h6.853v6.853h6.852V320.77h13.706m4-4h-21.706v13.705h-5.705v-6.852h-6.853V316.77h-21.7v55.968h21.7V352.181h5.706v6.852h6.852v13.705h21.706V316.77Z"/><path d="M2996.369,320.77v6.853h6.853v6.852h6.853v20.558h-6.853v6.852h-6.853v6.853h-34.262V320.77h34.262m-20.557,41.115h13.705v-6.852h6.852V334.475h-6.852v-6.852h-13.705v34.262m24.557-45.115h-42.262v55.968h42.262v-6.853h6.853v-6.852h6.853V330.475h-6.853v-6.852h-6.853V316.77Zm-20.557,14.853h5.705v6.852h6.852v12.558h-6.852v6.852h-5.705V331.623Z"/><path d="M3103.818,320.77v6.853h6.853v6.852h6.853v34.263h-13.706V355.033H3083.26v13.705h-13.705V334.475h6.853v-6.852h6.852V320.77h20.558m-20.558,27.411h20.558V334.475h-6.852v-6.852h-6.853v6.852h-6.853v13.706m24.558-31.411H3079.26v6.853h-6.852v6.852h-6.853v42.263h21.705V359.033h12.558v13.705h21.706V330.475h-6.853v-6.852h-6.853V316.77Zm-13.705,21.705h5.705v5.706H3087.26v-5.706h6.853Z"/><path d="M3171.247,320.77v47.968h-13.706V355.033h-6.852v-6.852h-6.853v-6.853h-6.853v27.41h-13.7V320.77h13.7v6.853h6.853v6.852h6.853v6.853h6.852V320.77h13.706m4-4h-21.706v13.705h-5.705v-6.852h-6.853V316.77h-21.7v55.968h21.7V352.181h5.706v6.852h6.852v13.705h21.706V316.77Z"/><path d="M3211.265,320.77v6.853h6.853v6.852h6.853v20.558h-6.853v6.852h-6.853v6.853H3177V320.77h34.262m-20.557,41.115h13.706v-6.852h6.851V334.475h-6.851v-6.852h-13.706v34.262m24.557-45.115H3173v55.968h42.262v-6.853h6.853v-6.852h6.853V330.475h-6.853v-6.852h-6.853V316.77Zm-20.557,14.853h5.706v6.852h6.851v12.558h-6.851v6.852h-5.706V331.623Z"/><path d="M3325.567,320.77v6.853h6.853v20.558h-13.706v6.852h6.853v6.852h6.853v6.853h-20.558v-6.853h-6.853v-6.852h-6.853v13.705h-13.7V320.77h41.115m-27.411,27.411h13.706v-6.853h6.852V327.623h-20.558v20.558m31.411-31.411h-49.115v55.968h21.7v-6.853h5.706v6.853h28.558V357.885h-6.853v-5.7h6.853V323.623h-6.853V316.77Zm-27.411,14.853h12.558v5.705h-6.852v6.853h-5.706V331.623Z"/><path d="M3386.144,320.77v6.853h-34.263v13.705h27.41v6.853h-27.41v13.7h34.263v6.853h-47.968V320.77h47.968m4-4h-55.968v55.968h55.968V357.885h-34.263v-5.7h27.41V337.328h-27.41v-5.705h34.263V316.77Z"/><path d="M3439.868,320.77v47.968h-13.7V355.033h-6.852v-6.852h-6.853v-6.853H3405.6v27.41H3391.9V320.77H3405.6v6.853h6.853v6.852h6.853v6.853h6.852V320.77h13.7m4-4h-21.7v13.705h-5.705v-6.852H3409.6V316.77H3387.9v55.968H3409.6V352.181h5.706v6.852h6.852v13.705h21.7V316.77Z"/><path d="M3493.593,320.77v6.853h-13.706v41.115h-13.705V327.623h-13.7V320.77h41.116m4-4h-49.116v14.853h13.7v41.115h21.705V331.623h13.706V316.77Z"/><path d="M3601.042,320.77v47.968h-13.706V355.033h-6.852v-6.852h-6.853v-6.853h-6.853v27.41h-13.705V320.77h13.705v6.853h6.853v6.852h6.853v6.853h6.852V320.77h13.706m4-4h-21.706v13.705h-5.7v-6.852h-6.853V316.77h-21.705v55.968h21.705V352.181h5.706v6.852h6.852v13.705h21.706V316.77Z"/><path d="M3654.765,320.77v6.853H3620.5v13.705h27.411v6.853H3620.5v20.557H3606.8V320.77h47.969m4-4H3602.8v55.968H3624.5V352.181h27.411V337.328H3624.5v-5.705h34.264V316.77Z"/><path d="M3708.489,320.77v6.853h-13.706v41.115h-13.705V327.623h-13.7V320.77h41.115m4-4h-49.115v14.853h13.7v41.115h21.705V331.623h13.706V316.77Z"/><path d="M3755.361,334.475v6.853H3727.95v6.853h27.411v6.852h6.852v6.852h-6.852v6.853h-41.116v-6.853h34.263v-6.852H3721.1v-6.852h-6.853v-6.853h6.853v-6.853h34.263m4-4H3717.1v6.853h-6.853v14.853h6.853v5.7h-6.853v14.853h49.116v-6.853h6.852V351.033h-6.852V330.475Z"/><path d="M2807.787,368.738V320.77h13.7v41.115H2848.9v6.853Z"/><path d="M2854.658,368.738V320.77h47.968v6.853h-34.263v13.705h27.41v6.853h-27.41v13.7h34.263v6.853Z"/><path d="M2908.382,368.738V320.77h13.7v6.853h6.853v6.852h6.853v6.853h6.852V320.77h13.706v47.968h-13.706V355.033h-6.852v-6.852h-6.853v-6.853h-6.853v27.41Z"/><path d="M2962.107,368.738V320.77h34.262v6.853h6.853v6.852h6.853v20.558h-6.853v6.852h-6.853v6.853Zm13.7-6.853h13.706v-6.852h6.852V334.475h-6.852v-6.852h-13.706Z"/><path d="M3069.555,368.738V334.475h6.853v-6.852h6.852V320.77h20.558v6.853h6.853v6.852h6.853v34.263h-13.706V355.033H3083.26v13.705Zm13.705-20.557h20.558V334.475h-6.852v-6.852h-6.853v6.852h-6.853Z"/><path d="M3123.279,368.738V320.77h13.7v6.853h6.853v6.852h6.853v6.853h6.852V320.77h13.706v47.968h-13.706V355.033h-6.852v-6.852h-6.853v-6.853h-6.853v27.41Z"/><path d="M3177,368.738V320.77h34.262v6.853h6.853v6.852h6.853v20.558h-6.853v6.852h-6.853v6.853Zm13.705-6.853h13.706v-6.852h6.851V334.475h-6.851v-6.852h-13.706Z"/><path d="M3284.452,368.738V320.77h41.115v6.853h6.853v20.558h-13.706v6.852h6.853v6.852h6.853v6.853h-20.558v-6.853h-6.853v-6.852h-6.853v13.705Zm13.7-20.557h13.706v-6.853h6.852V327.623h-20.558Z"/><path d="M3338.176,368.738V320.77h47.968v6.853h-34.263v13.705h27.41v6.853h-27.41v13.7h34.263v6.853Z"/><path d="M3391.9,368.738V320.77H3405.6v6.853h6.853v6.852h6.853v6.853h6.852V320.77h13.7v47.968h-13.7V355.033h-6.852v-6.852h-6.853v-6.853H3405.6v27.41Z"/><path d="M3466.182,368.738V327.623h-13.7V320.77h41.116v6.853h-13.706v41.115Z"/><path d="M3553.073,368.738V320.77h13.705v6.853h6.853v6.852h6.853v6.853h6.852V320.77h13.705v47.968h-13.705V355.033h-6.852v-6.852h-6.853v-6.853h-6.853v27.41Z"/><path d="M3606.8,368.738V320.77h47.969v6.853H3620.5v13.705h27.411v6.853H3620.5v20.557Z"/><path d="M3681.078,368.738V327.623h-13.7V320.77h41.115v6.853h-13.706v41.115Z"/><path d="M3714.245,368.738v-6.853h34.263v-6.852H3721.1v-6.852h-6.853v-6.853h6.853v-6.853h34.262v6.853h-27.41v6.853h27.41v6.852h6.853v6.852h-6.853v6.853Z"/><path d="M2814.491,313.77v41.115H2841.9v6.853h-41.115V313.77h13.7m4-4h-21.7v55.968H2845.9V350.885h-27.411V309.77Z"/><path d="M2895.626,313.77v6.853h-34.263v13.705h27.41v6.853h-27.41v13.7h34.263v6.853h-47.968V313.77h47.968m4-4h-55.968v55.968h55.968V350.885h-34.263v-5.7h27.41V330.328h-27.41v-5.705h34.263V309.77Z"/><path d="M2949.351,313.77v47.968h-13.706V348.033h-6.852v-6.852h-6.853v-6.853h-6.853v27.41h-13.7V313.77h13.7v6.853h6.853v6.852h6.853v6.853h6.852V313.77h13.706m4-4h-21.706v13.705h-5.705v-6.852h-6.853V309.77h-21.7v55.968h21.7V345.181h5.706v6.852h6.852v13.705h21.706V309.77Z"/><path d="M2989.369,313.77v6.853h6.853v6.852h6.853v20.558h-6.853v6.852h-6.853v6.853h-34.262V313.77h34.262m-20.557,41.115h13.705v-6.852h6.852V327.475h-6.852v-6.852h-13.705v34.262m24.557-45.115h-42.262v55.968h42.262v-6.853h6.853v-6.852h6.853V323.475h-6.853v-6.852h-6.853V309.77Zm-20.557,14.853h5.705v6.852h6.852v12.558h-6.852v6.852h-5.705V324.623Z"/><path d="M3096.818,313.77v6.853h6.853v6.852h6.853v34.263h-13.706V348.033H3076.26v13.705h-13.705V327.475h6.853v-6.852h6.852V313.77h20.558m-20.558,27.411h20.558V327.475h-6.852v-6.852h-6.853v6.852h-6.853v13.706m24.558-31.411H3072.26v6.853h-6.852v6.852h-6.853v42.263h21.705V352.033h12.558v13.705h21.706V323.475h-6.853v-6.852h-6.853V309.77Zm-13.705,21.705h5.705v5.706H3080.26v-5.706h6.853Z"/><path d="M3164.247,313.77v47.968h-13.706V348.033h-6.852v-6.852h-6.853v-6.853h-6.853v27.41h-13.7V313.77h13.7v6.853h6.853v6.852h6.853v6.853h6.852V313.77h13.706m4-4h-21.706v13.705h-5.705v-6.852h-6.853V309.77h-21.7v55.968h21.7V345.181h5.706v6.852h6.852v13.705h21.706V309.77Z"/><path d="M3204.265,313.77v6.853h6.853v6.852h6.853v20.558h-6.853v6.852h-6.853v6.853H3170V313.77h34.262m-20.557,41.115h13.706v-6.852h6.851V327.475h-6.851v-6.852h-13.706v34.262m24.557-45.115H3166v55.968h42.262v-6.853h6.853v-6.852h6.853V323.475h-6.853v-6.852h-6.853V309.77Zm-20.557,14.853h5.706v6.852h6.851v12.558h-6.851v6.852h-5.706V324.623Z"/><path d="M3318.567,313.77v6.853h6.853v20.558h-13.706v6.852h6.853v6.852h6.853v6.853h-20.558v-6.853h-6.853v-6.852h-6.853v13.705h-13.7V313.77h41.115m-27.411,27.411h13.706v-6.853h6.852V320.623h-20.558v20.558m31.411-31.411h-49.115v55.968h21.7v-6.853h5.706v6.853h28.558V350.885h-6.853v-5.7h6.853V316.623h-6.853V309.77Zm-27.411,14.853h12.558v5.705h-6.852v6.853h-5.706V324.623Z"/><path d="M3379.144,313.77v6.853h-34.263v13.705h27.41v6.853h-27.41v13.7h34.263v6.853h-47.968V313.77h47.968m4-4h-55.968v55.968h55.968V350.885h-34.263v-5.7h27.41V330.328h-27.41v-5.705h34.263V309.77Z"/><path d="M3432.868,313.77v47.968h-13.7V348.033h-6.852v-6.852h-6.853v-6.853H3398.6v27.41H3384.9V313.77H3398.6v6.853h6.853v6.852h6.853v6.853h6.852V313.77h13.7m4-4h-21.7v13.705h-5.705v-6.852H3402.6V309.77H3380.9v55.968H3402.6V345.181h5.706v6.852h6.852v13.705h21.7V309.77Z"/><path d="M3486.593,313.77v6.853h-13.706v41.115h-13.705V320.623h-13.7V313.77h41.116m4-4h-49.116v14.853h13.7v41.115h21.705V324.623h13.706V309.77Z"/><path d="M3594.042,313.77v47.968h-13.706V348.033h-6.852v-6.852h-6.853v-6.853h-6.853v27.41h-13.705V313.77h13.705v6.853h6.853v6.852h6.853v6.853h6.852V313.77h13.706m4-4h-21.706v13.705h-5.7v-6.852h-6.853V309.77h-21.705v55.968h21.705V345.181h5.706v6.852h6.852v13.705h21.706V309.77Z"/><path d="M3647.765,313.77v6.853H3613.5v13.705h27.411v6.853H3613.5v20.557H3599.8V313.77h47.969m4-4H3595.8v55.968H3617.5V345.181h27.411V330.328H3617.5v-5.705h34.264V309.77Z"/><path d="M3701.489,313.77v6.853h-13.706v41.115h-13.705V320.623h-13.7V313.77h41.115m4-4h-49.115v14.853h13.7v41.115h21.705V324.623h13.706V309.77Z"/><path d="M3748.361,327.475v6.853H3720.95v6.853h27.411v6.852h6.852v6.852h-6.852v6.853h-41.116v-6.853h34.263v-6.852H3714.1v-6.852h-6.853v-6.853h6.853v-6.853h34.263m4-4H3710.1v6.853h-6.853v14.853h6.853v5.7h-6.853v14.853h49.116v-6.853h6.852V344.033h-6.852V323.475Z"/><path class="a" d="M2800.787,361.738V313.77h13.7v41.115H2841.9v6.853Z"/><path class="b" d="M2847.658,361.738V313.77h47.968v6.853h-34.263v13.705h27.41v6.853h-27.41v13.7h34.263v6.853Z"/><path class="c" d="M2901.382,361.738V313.77h13.7v6.853h6.853v6.852h6.853v6.853h6.852V313.77h13.706v47.968h-13.706V348.033h-6.852v-6.852h-6.853v-6.853h-6.853v27.41Z"/><path class="d" d="M2955.107,361.738V313.77h34.262v6.853h6.853v6.852h6.853v20.558h-6.853v6.852h-6.853v6.853Zm13.7-6.853h13.706v-6.852h6.852V327.475h-6.852v-6.852h-13.706Z"/><path class="e" d="M3062.555,361.738V327.475h6.853v-6.852h6.852V313.77h20.558v6.853h6.853v6.852h6.853v34.263h-13.706V348.033H3076.26v13.705Zm13.705-20.557h20.558V327.475h-6.852v-6.852h-6.853v6.852h-6.853Z"/><path class="f" d="M3116.279,361.738V313.77h13.7v6.853h6.853v6.852h6.853v6.853h6.852V313.77h13.706v47.968h-13.706V348.033h-6.852v-6.852h-6.853v-6.853h-6.853v27.41Z"/><path class="g" d="M3170,361.738V313.77h34.262v6.853h6.853v6.852h6.853v20.558h-6.853v6.852h-6.853v6.853Zm13.705-6.853h13.706v-6.852h6.851V327.475h-6.851v-6.852h-13.706Z"/><path class="h" d="M3277.452,361.738V313.77h41.115v6.853h6.853v20.558h-13.706v6.852h6.853v6.852h6.853v6.853h-20.558v-6.853h-6.853v-6.852h-6.853v13.705Zm13.7-20.557h13.706v-6.853h6.852V320.623h-20.558Z"/><path class="i" d="M3331.176,361.738V313.77h47.968v6.853h-34.263v13.705h27.41v6.853h-27.41v13.7h34.263v6.853Z"/><path class="j" d="M3384.9,361.738V313.77H3398.6v6.853h6.853v6.852h6.853v6.853h6.852V313.77h13.7v47.968h-13.7V348.033h-6.852v-6.852h-6.853v-6.853H3398.6v27.41Z"/><path class="k" d="M3459.182,361.738V320.623h-13.7V313.77h41.116v6.853h-13.706v41.115Z"/><path class="l" d="M3546.073,361.738V313.77h13.705v6.853h6.853v6.852h6.853v6.853h6.852V313.77h13.705v47.968h-13.705V348.033h-6.852v-6.852h-6.853v-6.853h-6.853v27.41Z"/><path class="m" d="M3599.8,361.738V313.77h47.969v6.853H3613.5v13.705h27.411v6.853H3613.5v20.557Z"/><path class="n" d="M3674.078,361.738V320.623h-13.7V313.77h41.115v6.853h-13.706v41.115Z"/><path class="o" d="M3707.245,361.738v-6.853h34.263v-6.852H3714.1v-6.852h-6.853v-6.853h6.853v-6.853h34.262v6.853h-27.41v6.853h27.41v6.852h6.853v6.852h-6.853v6.853Z"/></g></svg>