<svg xmlns="http://www.w3.org/2000/svg" xmlns:xlink="http://www.w3.org/1999/xlink" width="197.216" height="36" viewBox="0 0 197.216 36"><defs><style>.a{fill:url(#a);}</style><linearGradient id="a" x1="0.5" y1="1" x2="0.5" gradientUnits="objectBoundingBox"><stop offset="0" stop-color="#96c"/><stop offset="1" stop-color="#d0a2ff"/></linearGradient></defs><g transform="translate(-2598.426 -17)"><path d="M2620.417,23.429V27.32h-3.891V35.1h-3.89v3.891h3.89v7.78h3.891v3.891h-7.781V46.771h-3.89v-7.78h-3.891V35.1h3.891V27.32h3.89V23.429h7.781m2.338-2.338H2610.3v3.891h-3.89v7.78h-3.891v8.567h3.891v7.78h3.89V53h12.457V44.434h-3.891V29.658h3.891V21.091Z"/><path d="M2651.7,31.21V35.1h-11.671V31.21H2651.7m-15.561,0V35.1h3.89v3.891h-3.89V50.662h-7.781V31.21h7.781m17.9-2.338h-28.018V53h12.457V41.329h3.89V37.438h11.671V28.872Z"/><path d="M2677.06,31.21V35.1h3.891v7.781H2661.5v3.89h15.561v3.891h-19.451V46.771h-3.891V35.1h3.891V31.21h19.451M2661.5,38.991h11.671V35.1H2661.5v3.891m17.9-10.119h-24.127v3.89h-3.891V49.109h3.891V53H2679.4V45.219h3.891V32.762H2679.4v-3.89Z"/><path d="M2712.074,23.429V50.662h-7.781V42.881h-3.89v-3.89h-3.891V35.1h-3.89V50.662h-7.781V23.429h7.781V27.32h3.89v3.89h3.891V35.1h3.89V23.429h7.781m2.338-2.338h-12.457v7.781h-3.1v-3.89h-3.89V21.091H2682.5V53h12.457V41.329h3.1v3.89h3.89V53h12.457V21.091Z"/><path d="M2743.819,23.429V27.32h-19.452V35.1h15.562v3.891h-15.562V50.662h-7.78V23.429h27.232m2.338-2.338h-31.908V53h12.456V41.329h15.562V32.762h-15.562v-3.1h19.452V21.091Z"/><path d="M2770.584,23.429V27.32H2762.8V50.662h-7.78V27.32h-7.781V23.429h23.342m2.338-2.338H2744.9v8.567h7.781V53h12.456V29.658h7.781V21.091Z"/><path d="M2785.523,23.429V27.32h3.891V35.1h3.89v3.891h-3.89v7.78h-3.891v3.891h-7.78V46.771h3.89v-7.78h3.89V35.1h-3.89V27.32h-3.89V23.429h7.78m2.338-2.338h-12.456v8.567h3.89V44.434h-3.89V53h12.456V49.109h3.891v-7.78h3.89V32.762h-3.89v-7.78h-3.891V21.091Z"/><path d="M2612.636,50.662V46.771h-3.89v-7.78h-3.891V35.1h3.891V27.32h3.89V23.429h7.781V27.32h-3.891V35.1h-3.89v3.891h3.89v7.78h3.891v3.891Z"/><path d="M2636.134,35.1h3.89v3.891h-3.89V50.662h-7.781V31.21h7.781Zm15.561-3.89V35.1h-11.671V31.21Z"/><path d="M2657.609,50.662V46.771h-3.891V35.1h3.891V31.21h19.451V35.1h3.891v7.781H2661.5v3.89h15.561v3.891Zm3.89-11.671h11.671V35.1H2661.5Z"/><path d="M2684.841,50.662V23.429h7.781V27.32h3.89v3.89h3.891V35.1h3.89V23.429h7.781V50.662h-7.781V42.881h-3.89v-3.89h-3.891V35.1h-3.89V50.662Z"/><path d="M2716.587,50.662V23.429h27.232V27.32h-19.452V35.1h15.562v3.891h-15.562V50.662Z"/><path d="M2755.023,50.662V27.32h-7.781V23.429h23.342V27.32H2762.8V50.662Z"/><path d="M2777.743,50.662V46.771h3.89v-7.78h3.89V35.1h-3.89V27.32h-3.89V23.429h7.78V27.32h3.891V35.1h3.89v3.891h-3.89v7.78h-3.891v3.891Z"/><path d="M2616.325,19.338v3.891h-3.89v7.78h-3.89V34.9h3.89v7.78h3.89v3.891h-7.78V42.68h-3.891V34.9h-3.89V31.009h3.89v-7.78h3.891V19.338h7.78M2618.663,17h-12.456v3.891h-3.891v7.78h-3.89v8.567h3.89v7.78h3.891v3.891h12.456V40.342h-3.89V25.566h3.89V17Z"/><path d="M2647.6,27.119v3.89h-11.671v-3.89H2647.6m-15.562,0v3.89h3.891V34.9h-3.891V46.571h-7.78V27.119h7.78m17.9-2.338h-28.018V48.909h12.456V37.238h3.891V33.347h11.671V24.781Z"/><path d="M2672.969,27.119v3.89h3.89V38.79h-19.452v3.89h15.562v3.891h-19.452V42.68h-3.89V31.009h3.89v-3.89h19.452M2657.407,34.9h11.671V31.009h-11.671V34.9m17.9-10.119h-24.128v3.89h-3.89V45.018h3.89v3.891h24.128V41.128h3.89V28.671h-3.89v-3.89Z"/><path d="M2707.982,19.338V46.571H2700.2V38.79h-3.89V34.9h-3.89V31.009h-3.891V46.571h-7.78V19.338h7.78v3.891h3.891v3.89h3.89v3.89h3.89V19.338h7.781M2710.32,17h-12.457v7.781h-3.1v-3.89h-3.891V17h-12.456V48.909h12.456V37.238h3.1v3.89h3.89v7.781h12.457V17Z"/><path d="M2739.728,19.338v3.891h-19.452v7.78h15.561V34.9h-15.561V46.571H2712.5V19.338h27.233M2742.066,17h-31.909V48.909h12.457V37.238h15.561V28.671h-15.561v-3.1h19.452V17Z"/><path d="M2766.493,19.338v3.891h-7.781V46.571h-7.781V23.229h-7.78V19.338h23.342M2768.831,17h-28.018v8.566h7.78V48.909h12.457V25.566h7.781V17Z"/><path d="M2781.432,19.338v3.891h3.89v7.78h3.89V34.9h-3.89v7.78h-3.89v3.891h-7.781V42.68h3.89V34.9h3.891V31.009h-3.891v-7.78h-3.89V19.338h7.781M2783.77,17h-12.457v8.566h3.89V40.342h-3.89v8.567h12.457V45.018h3.89v-7.78h3.89V28.671h-3.89v-7.78h-3.89V17Z"/><path class="a" d="M2608.545,46.571V42.68h-3.891V34.9h-3.89V31.009h3.89v-7.78h3.891V19.338h7.78v3.891h-3.89v7.78h-3.89V34.9h3.89v7.78h3.89v3.891Zm23.5-15.562h3.891V34.9h-3.891V46.571h-7.78V27.119h7.78Zm15.562-3.89v3.89h-11.671v-3.89Zm5.913,19.452V42.68h-3.89V31.009h3.89v-3.89h19.452v3.89h3.89V38.79h-19.452v3.89h15.562v3.891Zm3.89-11.671h11.671V31.009h-11.671Zm23.343,11.671V19.338h7.78v3.891h3.891v3.89h3.89v3.89h3.89V19.338h7.781V46.571H2700.2V38.79h-3.89V34.9h-3.89V31.009h-3.891V46.571Zm31.745,0V19.338h27.233v3.891h-19.452v7.78h15.561V34.9h-15.561V46.571Zm38.436,0V23.229h-7.78V19.338h23.342v3.891h-7.781V46.571Zm22.72,0V42.68h3.89V34.9h3.891V31.009h-3.891v-7.78h-3.89V19.338h7.781v3.891h3.89v7.78h3.89V34.9h-3.89v7.78h-3.89v3.891Z"/></g></svg>