<svg xmlns="http://www.w3.org/2000/svg" xmlns:xlink="http://www.w3.org/1999/xlink" width="218" height="218" viewBox="0 0 218 218">
  <defs>
    <filter id="Path_1001" x="0" y="0" width="218" height="218" filterUnits="userSpaceOnUse">
      <feOffset dx="7" dy="7" input="SourceAlpha"/>
      <feGaussianBlur result="blur"/>
      <feFlood/>
      <feComposite operator="in" in2="blur"/>
      <feComposite in="SourceGraphic"/>
    </filter>
  </defs>
  <g transform="matrix(1, 0, 0, 1, 0, 0)" filter="url(#Path_1001)">
    <g id="Path_1001-2" data-name="Path 1001" transform="translate(-2620.44 -4898)" fill="#fff" stroke-miterlimit="10" fill-rule="evenodd">
      <path d="M 2754.944580078125 5106.5 L 2752.444580078125 5106.5 L 2745.777099609375 5106.5 L 2739.110595703125 5106.5 L 2732.44384765625 5106.5 L 2725.777099609375 5106.5 L 2719.110595703125 5106.5 L 2712.44384765625 5106.5 L 2705.77734375 5106.5 L 2699.444580078125 5106.5 L 2696.944580078125 5106.5 L 2696.944580078125 5104 L 2696.944580078125 5099.5 L 2692.77783203125 5099.5 L 2686.111328125 5099.5 L 2679.444580078125 5099.5 L 2676.944580078125 5099.5 L 2676.944580078125 5097 L 2676.944580078125 5092.5 L 2672.444580078125 5092.5 L 2669.944580078125 5092.5 L 2669.944580078125 5090 L 2669.944580078125 5086.5 L 2665.64794921875 5086.5 L 2659.444580078125 5086.5 L 2656.944580078125 5086.5 L 2656.944580078125 5084 L 2656.944580078125 5079.5 L 2652.444580078125 5079.5 L 2649.944580078125 5079.5 L 2649.944580078125 5077 L 2649.944580078125 5072.5 L 2645.444580078125 5072.5 L 2642.944580078125 5072.5 L 2642.944580078125 5070 L 2642.944580078125 5063.49951171875 L 2642.944580078125 5059.5 L 2639.444580078125 5059.5 L 2636.944580078125 5059.5 L 2636.944580078125 5057 L 2636.944580078125 5052.5 L 2632.444580078125 5052.5 L 2629.944580078125 5052.5 L 2629.944580078125 5050 L 2629.944580078125 5043 L 2629.944580078125 5036 L 2629.944580078125 5032.5 L 2625.444580078125 5032.5 L 2622.944580078125 5032.5 L 2622.944580078125 5030 L 2622.944580078125 5023.37451171875 L 2622.944580078125 5016.74951171875 L 2622.944580078125 5010.125 L 2622.944580078125 5003.5 L 2622.944580078125 4996.875 L 2622.944580078125 4990.25048828125 L 2622.944580078125 4983.62548828125 L 2622.944580078125 4977 L 2622.944580078125 4974.5 L 2625.444580078125 4974.5 L 2629.944580078125 4974.5 L 2629.944580078125 4970.37548828125 L 2629.944580078125 4963.75048828125 L 2629.944580078125 4957 L 2629.944580078125 4954.5 L 2632.444580078125 4954.5 L 2636.944580078125 4954.5 L 2636.944580078125 4950 L 2636.944580078125 4947.5 L 2639.444580078125 4947.5 L 2642.944580078125 4947.5 L 2642.944580078125 4943.50048828125 L 2642.944580078125 4937 L 2642.944580078125 4934.5 L 2645.444580078125 4934.5 L 2649.944580078125 4934.5 L 2649.944580078125 4930 L 2649.944580078125 4927.5 L 2652.444580078125 4927.5 L 2656.944580078125 4927.5 L 2656.944580078125 4923 L 2656.944580078125 4920.5 L 2659.444580078125 4920.5 L 2666.445556640625 4920.5 L 2669.944580078125 4920.5 L 2669.944580078125 4916 L 2669.944580078125 4913.5 L 2672.444580078125 4913.5 L 2676.944580078125 4913.5 L 2676.944580078125 4910 L 2676.944580078125 4907.5 L 2679.444580078125 4907.5 L 2686.111328125 4907.5 L 2692.77783203125 4907.5 L 2696.944580078125 4907.5 L 2696.944580078125 4903 L 2696.944580078125 4900.5 L 2699.444580078125 4900.5 L 2706.112060546875 4900.5 L 2712.77880859375 4900.5 L 2719.445556640625 4900.5 L 2726.112060546875 4900.5 L 2732.77880859375 4900.5 L 2739.445556640625 4900.5 L 2746.1123046875 4900.5 L 2752.444580078125 4900.5 L 2754.944580078125 4900.5 L 2754.944580078125 4903 L 2754.944580078125 4907.5 L 2759.111328125 4907.5 L 2765.77783203125 4907.5 L 2772.444580078125 4907.5 L 2774.944580078125 4907.5 L 2774.944580078125 4910 L 2774.944580078125 4913.5 L 2779.444580078125 4913.5 L 2781.944580078125 4913.5 L 2781.944580078125 4916 L 2781.944580078125 4920.5 L 2786.444580078125 4920.5 L 2792.444580078125 4920.5 L 2794.944580078125 4920.5 L 2794.944580078125 4923 L 2794.944580078125 4927.5 L 2799.444580078125 4927.5 L 2801.944580078125 4927.5 L 2801.944580078125 4930 L 2801.944580078125 4934.5 L 2806.444580078125 4934.5 L 2808.944580078125 4934.5 L 2808.944580078125 4937 L 2808.944580078125 4943.50048828125 L 2808.944580078125 4947.5 L 2812.444580078125 4947.5 L 2814.944580078125 4947.5 L 2814.944580078125 4950 L 2814.944580078125 4954.5 L 2819.444580078125 4954.5 L 2821.944580078125 4954.5 L 2821.944580078125 4957 L 2821.944580078125 4964 L 2821.944580078125 4971 L 2821.944580078125 4974.5 L 2826.444580078125 4974.5 L 2828.944580078125 4974.5 L 2828.944580078125 4977 L 2828.944580078125 4983.62548828125 L 2828.944580078125 4990.25048828125 L 2828.944580078125 4996.875 L 2828.944580078125 5003.5 L 2828.944580078125 5010.125 L 2828.944580078125 5016.74951171875 L 2828.944580078125 5023.37451171875 L 2828.944580078125 5030 L 2828.944580078125 5032.5 L 2826.444580078125 5032.5 L 2821.944580078125 5032.5 L 2821.944580078125 5036.62451171875 L 2821.944580078125 5043.24951171875 L 2821.944580078125 5050 L 2821.944580078125 5052.5 L 2819.444580078125 5052.5 L 2814.944580078125 5052.5 L 2814.944580078125 5057 L 2814.944580078125 5059.5 L 2812.444580078125 5059.5 L 2808.944580078125 5059.5 L 2808.944580078125 5063.49951171875 L 2808.944580078125 5070 L 2808.944580078125 5072.5 L 2806.444580078125 5072.5 L 2801.944580078125 5072.5 L 2801.944580078125 5077 L 2801.944580078125 5079.5 L 2799.444580078125 5079.5 L 2794.944580078125 5079.5 L 2794.944580078125 5084 L 2794.944580078125 5086.5 L 2792.444580078125 5086.5 L 2785.44384765625 5086.5 L 2781.944580078125 5086.5 L 2781.944580078125 5090 L 2781.944580078125 5092.5 L 2779.444580078125 5092.5 L 2774.944580078125 5092.5 L 2774.944580078125 5097 L 2774.944580078125 5099.5 L 2772.444580078125 5099.5 L 2765.77783203125 5099.5 L 2759.111328125 5099.5 L 2754.944580078125 5099.5 L 2754.944580078125 5104 L 2754.944580078125 5106.5 Z" stroke="none"/>
      <path d="M 2699.444580078125 4903 L 2699.444580078125 4910 L 2692.77783203125 4910 L 2686.111328125 4910 L 2679.444580078125 4910 L 2679.444580078125 4916 L 2672.444580078125 4916 L 2672.444580078125 4923 L 2666.445556640625 4923 L 2659.444580078125 4923 L 2659.444580078125 4930 L 2652.444580078125 4930 L 2652.444580078125 4937 L 2645.444580078125 4937 L 2645.444580078125 4943.50048828125 L 2645.444580078125 4950 L 2639.444580078125 4950 L 2639.444580078125 4957 L 2632.444580078125 4957 L 2632.444580078125 4963.75048828125 L 2632.444580078125 4970.37548828125 L 2632.444580078125 4977 L 2625.444580078125 4977 L 2625.444580078125 4983.62548828125 L 2625.444580078125 4990.25048828125 L 2625.444580078125 4996.875 L 2625.444580078125 5003.5 L 2625.444580078125 5010.125 L 2625.444580078125 5016.74951171875 L 2625.444580078125 5023.37451171875 L 2625.444580078125 5030 L 2632.444580078125 5030 L 2632.444580078125 5036 L 2632.444580078125 5043 L 2632.444580078125 5050 L 2639.444580078125 5050 L 2639.444580078125 5057 L 2645.444580078125 5057 L 2645.444580078125 5063.49951171875 L 2645.444580078125 5070 L 2652.444580078125 5070 L 2652.444580078125 5077 L 2659.444580078125 5077 L 2659.444580078125 5084 L 2665.64794921875 5084 L 2672.444580078125 5084 L 2672.444580078125 5090 L 2679.444580078125 5090 L 2679.444580078125 5097 L 2686.111328125 5097 L 2692.77783203125 5097 L 2699.444580078125 5097 L 2699.444580078125 5104 L 2705.77734375 5104 L 2712.44384765625 5104 L 2719.110595703125 5104 L 2725.777099609375 5104 L 2732.44384765625 5104 L 2739.110595703125 5104 L 2745.777099609375 5104 L 2752.444580078125 5104 L 2752.444580078125 5097 L 2759.111328125 5097 L 2765.77783203125 5097 L 2772.444580078125 5097 L 2772.444580078125 5090 L 2779.444580078125 5090 L 2779.444580078125 5084 L 2785.44384765625 5084 L 2792.444580078125 5084 L 2792.444580078125 5077 L 2799.444580078125 5077 L 2799.444580078125 5070 L 2806.444580078125 5070 L 2806.444580078125 5063.49951171875 L 2806.444580078125 5057 L 2812.444580078125 5057 L 2812.444580078125 5050 L 2819.444580078125 5050 L 2819.444580078125 5043.24951171875 L 2819.444580078125 5036.62451171875 L 2819.444580078125 5030 L 2826.444580078125 5030 L 2826.444580078125 5023.37451171875 L 2826.444580078125 5016.74951171875 L 2826.444580078125 5010.125 L 2826.444580078125 5003.5 L 2826.444580078125 4996.875 L 2826.444580078125 4990.25048828125 L 2826.444580078125 4983.62548828125 L 2826.444580078125 4977 L 2819.444580078125 4977 L 2819.444580078125 4971 L 2819.444580078125 4964 L 2819.444580078125 4957 L 2812.444580078125 4957 L 2812.444580078125 4950 L 2806.444580078125 4950 L 2806.444580078125 4943.50048828125 L 2806.444580078125 4937 L 2799.444580078125 4937 L 2799.444580078125 4930 L 2792.444580078125 4930 L 2792.444580078125 4923 L 2786.444580078125 4923 L 2779.444580078125 4923 L 2779.444580078125 4916 L 2772.444580078125 4916 L 2772.444580078125 4910 L 2765.77783203125 4910 L 2759.111328125 4910 L 2752.444580078125 4910 L 2752.444580078125 4903 L 2746.1123046875 4903 L 2739.445556640625 4903 L 2732.77880859375 4903 L 2726.112060546875 4903 L 2719.445556640625 4903 L 2712.77880859375 4903 L 2706.112060546875 4903 L 2699.444580078125 4903 M 2694.444580078125 4898 L 2699.444580078125 4898 L 2706.112060546875 4898 L 2712.77880859375 4898 L 2719.445556640625 4898 L 2726.112060546875 4898 L 2732.77880859375 4898 L 2739.445556640625 4898 L 2746.1123046875 4898 L 2752.444580078125 4898 L 2757.444580078125 4898 L 2757.444580078125 4903 L 2757.444580078125 4905 L 2759.111328125 4905 L 2765.77783203125 4905 L 2772.444580078125 4905 L 2777.444580078125 4905 L 2777.444580078125 4910 L 2777.444580078125 4911 L 2779.444580078125 4911 L 2784.444580078125 4911 L 2784.444580078125 4916 L 2784.444580078125 4918 L 2786.444580078125 4918 L 2792.444580078125 4918 L 2797.444580078125 4918 L 2797.444580078125 4923 L 2797.444580078125 4925 L 2799.444580078125 4925 L 2804.444580078125 4925 L 2804.444580078125 4930 L 2804.444580078125 4932 L 2806.444580078125 4932 L 2811.444580078125 4932 L 2811.444580078125 4937 L 2811.444580078125 4943.50048828125 L 2811.444580078125 4945 L 2812.444580078125 4945 L 2817.444580078125 4945 L 2817.444580078125 4950 L 2817.444580078125 4952 L 2819.444580078125 4952 L 2824.444580078125 4952 L 2824.444580078125 4957 L 2824.444580078125 4964 L 2824.444580078125 4971 L 2824.444580078125 4972 L 2826.444580078125 4972 L 2831.444580078125 4972 L 2831.444580078125 4977 L 2831.444580078125 4983.62548828125 L 2831.444580078125 4990.25048828125 L 2831.444580078125 4996.875 L 2831.444580078125 5003.5 L 2831.444580078125 5010.125 L 2831.444580078125 5016.74951171875 L 2831.444580078125 5023.37451171875 L 2831.444580078125 5030 L 2831.444580078125 5035 L 2826.444580078125 5035 L 2824.444580078125 5035 L 2824.444580078125 5036.62451171875 L 2824.444580078125 5043.24951171875 L 2824.444580078125 5050 L 2824.444580078125 5055 L 2819.444580078125 5055 L 2817.444580078125 5055 L 2817.444580078125 5057 L 2817.444580078125 5062 L 2812.444580078125 5062 L 2811.444580078125 5062 L 2811.444580078125 5063.49951171875 L 2811.444580078125 5070 L 2811.444580078125 5075 L 2806.444580078125 5075 L 2804.444580078125 5075 L 2804.444580078125 5077 L 2804.444580078125 5082 L 2799.444580078125 5082 L 2797.444580078125 5082 L 2797.444580078125 5084 L 2797.444580078125 5089 L 2792.444580078125 5089 L 2785.44384765625 5089 L 2784.444580078125 5089 L 2784.444580078125 5090 L 2784.444580078125 5095 L 2779.444580078125 5095 L 2777.444580078125 5095 L 2777.444580078125 5097 L 2777.444580078125 5102 L 2772.444580078125 5102 L 2765.77783203125 5102 L 2759.111328125 5102 L 2757.444580078125 5102 L 2757.444580078125 5104 L 2757.444580078125 5109 L 2752.444580078125 5109 L 2745.777099609375 5109 L 2739.110595703125 5109 L 2732.44384765625 5109 L 2725.777099609375 5109 L 2719.110595703125 5109 L 2712.44384765625 5109 L 2705.77734375 5109 L 2699.444580078125 5109 L 2694.444580078125 5109 L 2694.444580078125 5104 L 2694.444580078125 5102 L 2692.77783203125 5102 L 2686.111328125 5102 L 2679.444580078125 5102 L 2674.444580078125 5102 L 2674.444580078125 5097 L 2674.444580078125 5095 L 2672.444580078125 5095 L 2667.444580078125 5095 L 2667.444580078125 5090 L 2667.444580078125 5089 L 2665.64794921875 5089 L 2659.444580078125 5089 L 2654.444580078125 5089 L 2654.444580078125 5084 L 2654.444580078125 5082 L 2652.444580078125 5082 L 2647.444580078125 5082 L 2647.444580078125 5077 L 2647.444580078125 5075 L 2645.444580078125 5075 L 2640.444580078125 5075 L 2640.444580078125 5070 L 2640.444580078125 5063.49951171875 L 2640.444580078125 5062 L 2639.444580078125 5062 L 2634.444580078125 5062 L 2634.444580078125 5057 L 2634.444580078125 5055 L 2632.444580078125 5055 L 2627.444580078125 5055 L 2627.444580078125 5050 L 2627.444580078125 5043 L 2627.444580078125 5036 L 2627.444580078125 5035 L 2625.444580078125 5035 L 2620.444580078125 5035 L 2620.444580078125 5030 L 2620.444580078125 5023.37451171875 L 2620.444580078125 5016.74951171875 L 2620.444580078125 5010.125 L 2620.444580078125 5003.5 L 2620.444580078125 4996.875 L 2620.444580078125 4990.25048828125 L 2620.444580078125 4983.62548828125 L 2620.444580078125 4977 L 2620.444580078125 4972 L 2625.444580078125 4972 L 2627.444580078125 4972 L 2627.444580078125 4970.37548828125 L 2627.444580078125 4963.75048828125 L 2627.444580078125 4957 L 2627.444580078125 4952 L 2632.444580078125 4952 L 2634.444580078125 4952 L 2634.444580078125 4950 L 2634.444580078125 4945 L 2639.444580078125 4945 L 2640.444580078125 4945 L 2640.444580078125 4943.50048828125 L 2640.444580078125 4937 L 2640.444580078125 4932 L 2645.444580078125 4932 L 2647.444580078125 4932 L 2647.444580078125 4930 L 2647.444580078125 4925 L 2652.444580078125 4925 L 2654.444580078125 4925 L 2654.444580078125 4923 L 2654.444580078125 4918 L 2659.444580078125 4918 L 2666.445556640625 4918 L 2667.444580078125 4918 L 2667.444580078125 4916 L 2667.444580078125 4911 L 2672.444580078125 4911 L 2674.444580078125 4911 L 2674.444580078125 4910 L 2674.444580078125 4905 L 2679.444580078125 4905 L 2686.111328125 4905 L 2692.77783203125 4905 L 2694.444580078125 4905 L 2694.444580078125 4903 L 2694.444580078125 4898 Z" stroke="none" fill="#000"/>
    </g>
  </g>
</svg>
