<svg xmlns="http://www.w3.org/2000/svg" xmlns:xlink="http://www.w3.org/1999/xlink" height="40px" viewBox="0 0 131.77 38.88"><defs><style>.cls-1{fill:url(#linear-gradient);}</style><linearGradient id="linear-gradient" x1="63.89" y1="33.01" x2="63.89" y2="3.16" gradientUnits="userSpaceOnUse"><stop offset="0" stop-color="#ff9800"/><stop offset="1" stop-color="#ffc46e"/></linearGradient></defs><g id="Layer_2" data-name="Layer 2"><g id="Layer_1-2" data-name="Layer 1"><path d="M31.75,7v4.12H23.5V35.88H15.25V11.12H7V7H31.75m3-3H4V14.12h8.25V38.88H26.5V14.12h8.25V4Z"/><path d="M64.09,7v4.12H43.47v8.26H60V23.5H43.47v8.25H64.09v4.13H35.22V7H64.09m3-3H32.22V38.88H67.09V28.75H46.47V26.5H63V16.38H46.47V14.12H67.09V4Z"/><path d="M88.18,7v4.12H92.3v4.13h4.13V35.88H88.18V27.62H75.8v8.26H67.55V15.25h4.13V11.12H75.8V7H88.18M75.8,23.5H88.18V15.25H84.05V11.12H79.93v4.13H75.8V23.5M91.18,4H72.8V8.12H68.68v4.13H64.55V38.88H78.8V30.62h6.38v8.26H99.43V12.25H95.3V8.12H91.18V4ZM82.93,18.25h2.25V20.5H78.8V18.25h4.13Z"/><path d="M128.77,7V35.88h-8.25V19.38H116.4v8.24h-4.13V19.38h-4.12v16.5H99.9V7h8.25v4.12h4.12v4.13h4.13V11.12h4.12V7h8.25m3-3H117.52V8.12h-6.37V4H96.9V38.88h14.25V30.62h6.37v8.26h14.25V4Z"/><path d="M15.25,35.88V11.12H7V7H31.75v4.12H23.5V35.88Z"/><path d="M35.22,35.88V7H64.09v4.12H43.47v8.26H60V23.5H43.47v8.25H64.09v4.13Z"/><path d="M67.55,35.88V15.25h4.13V11.12H75.8V7H88.18v4.12H92.3v4.13h4.13V35.88H88.18V27.62H75.8v8.26ZM75.8,23.5H88.18V15.25H84.05V11.12H79.93v4.13H75.8Z"/><path d="M99.9,35.88V7h8.25v4.12h4.12v4.13h4.13V11.12h4.12V7h8.25V35.88h-8.25V19.38H116.4v8.24h-4.13V19.38h-4.12v16.5Z"/><path d="M27.75,3V7.12H19.5V31.88H11.25V7.12H3V3H27.75m3-3H0V10.12H8.25V34.88H22.5V10.12h8.25V0Z"/><path d="M60.09,3V7.12H39.47v8.26H56V19.5H39.47v8.25H60.09v4.13H31.22V3H60.09m3-3H28.22V34.88H63.09V24.75H42.47V22.5H59V12.38H42.47V10.12H63.09V0Z"/><path d="M84.18,3V7.12H88.3v4.13h4.13V31.88H84.18V23.62H71.8v8.26H63.55V11.25h4.13V7.12H71.8V3H84.18M71.8,19.5H84.18V11.25H80.05V7.12H75.93v4.13H71.8V19.5M87.18,0H68.8V4.12H64.68V8.25H60.55V34.88H74.8V26.62h6.38v8.26H95.43V8.25H91.3V4.12H87.18V0ZM78.93,14.25h2.25V16.5H74.8V14.25h4.13Z"/><path d="M124.77,3V31.88h-8.25V15.38H112.4v8.24h-4.13V15.38h-4.12v16.5H95.9V3h8.25V7.12h4.12v4.13h4.13V7.12h4.12V3h8.25m3-3H113.52V4.12h-6.37V0H92.9V34.88h14.25V26.62h6.37v8.26h14.25V0Z"/><path class="cls-1" d="M11.25,31.88V7.12H3V3H27.75V7.12H19.5V31.88Z"/><path class="cls-1" d="M31.22,31.88V3H60.09V7.12H39.47v8.26H56V19.5H39.47v8.25H60.09v4.13Z"/><path class="cls-1" d="M63.55,31.88V11.25h4.13V7.12H71.8V3H84.18V7.12H88.3v4.13h4.13V31.88H84.18V23.62H71.8v8.26ZM71.8,19.5H84.18V11.25H80.05V7.12H75.93v4.13H71.8Z"/><path class="cls-1" d="M95.9,31.88V3h8.25V7.12h4.12v4.13h4.13V7.12h4.12V3h8.25V31.88h-8.25V15.38H112.4v8.24h-4.13V15.38h-4.12v16.5Z"/></g></g></svg>